<svg width="16" height="16" viewBox="0 0 16 16" fill="none" xmlns="http://www.w3.org/2000/svg">
<path d="M6.16663 0H1.16663C0.523315 0 0 0.523315 0 1.16663V4.16663C0 4.81006 0.523315 5.33337 1.16663 5.33337H6.16663C6.81006 5.33337 7.33337 4.81006 7.33337 4.16663V1.16663C7.33337 0.523315 6.81006 0 6.16663 0Z" fill="#4DAAA7"/>
<path d="M6.16663 6.66663H1.16663C0.523315 6.66663 0 7.18994 0 7.83337V14.8334C0 15.4767 0.523315 16 1.16663 16H6.16663C6.81006 16 7.33337 15.4767 7.33337 14.8334V7.83337C7.33337 7.18994 6.81006 6.66663 6.16663 6.66663V6.66663Z" fill="#4DAAA7"/>
<path d="M14.8337 10.6666H9.83374C9.19031 10.6666 8.66699 11.1899 8.66699 11.8334V14.8334C8.66699 15.4767 9.19031 16 9.83374 16H14.8337C15.4771 16 16.0004 15.4767 16.0004 14.8334V11.8334C16.0004 11.1899 15.4771 10.6666 14.8337 10.6666V10.6666Z" fill="#4DAAA7"/>
<path d="M14.8337 0H9.83374C9.19031 0 8.66699 0.523315 8.66699 1.16663V8.16663C8.66699 8.81006 9.19031 9.33337 9.83374 9.33337H14.8337C15.4771 9.33337 16.0004 8.81006 16.0004 8.16663V1.16663C16.0004 0.523315 15.4771 0 14.8337 0V0Z" fill="#4DAAA7"/>
</svg>
