<svg width="191" height="173" viewBox="0 0 191 173" fill="none" xmlns="http://www.w3.org/2000/svg">
<path d="M57.1269 85.0963C59.361 100.485 48.6723 114.775 33.2511 117.019C17.8299 119.262 3.51183 108.601 1.27768 93.2171C-0.961109 77.8284 9.73223 63.5381 25.1535 61.2993C40.5747 59.0513 54.8927 69.7075 57.1269 85.0963Z" fill="#F5F5F5"/>
<path d="M50.4897 86.0592C52.1954 97.7862 44.0468 108.674 32.292 110.385C20.5418 112.095 9.63063 103.969 7.92489 92.2471C6.21914 80.5202 14.3678 69.6275 26.1226 67.9218C37.8774 66.2114 48.7839 74.3322 50.4897 86.0592Z" fill="#EBEBEB"/>
<path d="M50.4119 85.3944C50.2821 85.4176 50.055 84.4952 49.4756 82.9146C48.8916 81.3432 47.9043 79.0952 46.0734 76.7498C45.1602 75.5817 44.0385 74.3951 42.6943 73.2919C41.3409 72.2027 39.7742 71.1829 37.9943 70.3857C37.1089 69.9824 36.1726 69.6255 35.1946 69.3474C34.2166 69.0647 33.2015 68.8329 32.1493 68.6985C31.1018 68.5641 30.0264 68.4806 28.9325 68.5131C27.8386 68.5409 26.7354 68.6429 25.6276 68.8329C24.5245 69.0369 23.4491 69.3196 22.4155 69.6672C21.3818 70.0195 20.3992 70.4645 19.4582 70.9512C18.5173 71.4379 17.6459 72.008 16.8208 72.6059C15.9957 73.2039 15.2402 73.8621 14.5449 74.5434C13.1497 75.9015 12.028 77.3987 11.1334 78.8866C10.2481 80.3838 9.60847 81.8856 9.14959 83.2946C8.2411 86.1267 8.08813 88.5787 8.07886 90.252C8.07886 91.9346 8.18547 92.8755 8.05569 92.8987C7.96298 92.9173 7.63852 92.0088 7.43921 90.2845C7.24917 88.5695 7.21672 86.0016 8.03251 82.9655C8.44041 81.4545 9.05688 79.8322 9.94684 78.2099C10.8461 76.5922 12.0002 74.9606 13.4696 73.4681C14.2019 72.7218 14.9992 71.9987 15.8752 71.3452C16.7513 70.687 17.6829 70.0612 18.6934 69.5282C19.6992 68.9905 20.7561 68.5038 21.8731 68.1191C22.9856 67.7344 24.149 67.4284 25.3356 67.2106C26.5269 67.0066 27.7227 66.8954 28.9001 66.8722C30.0774 66.8491 31.2408 66.9418 32.3718 67.0994C33.5028 67.2523 34.5967 67.5165 35.6442 67.8363C36.6964 68.1515 37.693 68.5548 38.6339 69.0044C40.5251 69.899 42.1706 71.0346 43.575 72.2398C44.9656 73.4588 46.1058 74.7706 47.0097 76.0452C48.822 78.6178 49.6749 81.0419 50.0874 82.7152C50.4953 84.4164 50.5046 85.3805 50.4119 85.3944Z" fill="#E0E0E0"/>
<path d="M33.4702 101.498L34.0635 105.197L30.7632 105.725L30.1885 102.129C26.8882 102.453 23.588 101.934 21.5439 100.803L22.7166 96.4829C24.566 97.4423 27.0829 97.9522 29.4978 97.8039L28.6125 92.288C24.8024 91.9868 20.5149 91.4166 19.7593 86.6934C19.1985 83.1938 21.2611 79.7823 26.383 78.3501L25.7943 74.6837L29.0992 74.1552L29.674 77.7568C32.1816 77.5575 34.6985 77.8309 36.7009 78.6977L35.6997 83.027C33.8595 82.341 32.0564 82.0536 30.3692 82.1185L31.2685 87.7317C35.0693 88.0005 39.2966 88.5799 40.0428 93.2382C40.5898 96.6683 38.5549 100.043 33.4702 101.498ZM27.8292 87.4304L27.0783 82.7396C25.3911 83.4163 24.8534 84.487 25.0249 85.5763C25.2103 86.7351 26.3042 87.2033 27.8292 87.4304ZM34.7866 94.4805C34.6011 93.3217 33.5443 92.8489 32.0425 92.5801L32.7703 97.1364C34.3648 96.5153 34.9534 95.5373 34.7866 94.4805Z" fill="#E0E0E0"/>
<path d="M187.656 58.9711C192.994 67.7774 190.164 79.253 181.341 84.6002C172.514 89.9515 161.034 87.1513 155.695 78.345C150.357 69.5386 153.186 58.0672 162.01 52.7159C170.837 47.3645 182.317 50.1648 187.656 58.9711Z" fill="#F5F5F5"/>
<path d="M183.856 61.2772C187.924 67.9886 185.77 76.7316 179.041 80.8074C172.317 84.8832 163.566 82.7503 159.499 76.0389C155.431 69.3275 157.585 60.5846 164.309 56.5087C171.038 52.4329 179.789 54.5659 183.856 61.2772Z" fill="#EBEBEB"/>
<path d="M183.625 60.8986C183.553 60.945 183.177 60.4424 182.417 59.6273C181.652 58.8205 180.474 57.7055 178.75 56.7467C177.893 56.2695 176.901 55.8344 175.798 55.5092C174.692 55.1967 173.475 54.977 172.183 54.9517C171.536 54.9348 170.878 54.9601 170.206 55.0446C169.539 55.1248 168.859 55.2473 168.183 55.4374C167.507 55.6232 166.831 55.8555 166.172 56.1554C165.514 56.4553 164.867 56.8016 164.242 57.2029C163.621 57.6126 163.039 58.0603 162.498 58.5418C161.957 59.0233 161.472 59.547 161.028 60.0876C160.58 60.6283 160.196 61.1985 159.85 61.7771C159.499 62.3557 159.212 62.9513 158.963 63.5468C158.464 64.7379 158.164 65.9374 158.004 67.0778C157.852 68.2182 157.848 69.2994 157.932 70.2793C158.11 72.2433 158.65 73.7765 159.077 74.7986C159.512 75.8249 159.82 76.374 159.744 76.4205C159.689 76.4585 159.263 75.9854 158.692 74.9887C158.135 73.9919 157.451 72.4334 157.163 70.3722C157.024 69.3459 156.978 68.197 157.1 66.9764C157.231 65.76 157.514 64.4633 158.025 63.1751C158.278 62.5289 158.578 61.8869 158.942 61.2576C159.305 60.6283 159.714 60.0074 160.192 59.4203C160.665 58.8332 161.184 58.263 161.767 57.7393C162.346 57.2156 162.975 56.7298 163.642 56.2906C164.318 55.8598 165.015 55.4839 165.729 55.1629C166.443 54.8419 167.173 54.6011 167.904 54.4068C168.635 54.2083 169.37 54.0901 170.088 54.014C170.81 53.9338 171.524 53.9211 172.212 53.9549C173.598 54.0098 174.894 54.2801 176.06 54.6518C177.226 55.0362 178.256 55.5388 179.139 56.0878C180.909 57.186 182.053 58.4446 182.738 59.3612C183.426 60.2777 183.679 60.8648 183.625 60.8986Z" fill="#E0E0E0"/>
<path d="M177.45 75.0826L178.768 77.186L176.888 78.3601L175.609 76.3159C173.678 77.3676 171.533 77.8998 169.995 77.7393L169.594 74.8038C170.967 74.9094 172.635 74.5715 174.071 73.8577L172.107 70.7238C169.708 71.5221 166.946 72.2865 165.265 69.6003C164.019 67.611 164.395 64.9965 167.149 62.8045L165.844 60.7222L167.719 59.548L168.999 61.5965C170.477 60.8278 172.082 60.3463 173.526 60.3547L174.033 63.2522C172.737 63.3071 171.558 63.5985 170.549 64.0758L172.546 67.2688C174.937 66.4537 177.661 65.7145 179.317 68.3585C180.546 70.2972 180.174 72.8778 177.45 75.0826ZM170.38 67.9573L168.711 65.2922C167.858 66.1411 167.803 66.931 168.192 67.5518C168.602 68.2107 169.387 68.2149 170.38 67.9573ZM176.441 70.4619C176.027 69.803 175.262 69.7904 174.278 70.0142L175.9 72.6033C176.711 71.8093 176.817 71.0617 176.441 70.4619Z" fill="#E0E0E0"/>
<path d="M135.828 21.4806C130.402 24.8987 123.224 23.2637 119.795 17.8274C116.367 12.3911 117.987 5.20735 123.413 1.78921C128.839 -1.63404 136.017 0.000941987 139.446 5.44238C142.874 10.8787 141.254 18.0573 135.828 21.4806Z" fill="#F5F5F5"/>
<path d="M134.36 19.1327C130.226 21.7384 124.754 20.4917 122.143 16.3481C119.533 12.2044 120.764 6.7323 124.897 4.12654C129.031 1.52078 134.503 2.76746 137.114 6.91113C139.73 11.0548 138.493 16.5269 134.36 19.1327Z" fill="#EBEBEB"/>
<path d="M134.613 18.9851C134.582 18.9392 134.894 18.699 135.39 18.2187C135.885 17.7334 136.565 16.9874 137.142 15.9042C137.428 15.3626 137.689 14.7444 137.878 14.0495C138.062 13.3547 138.184 12.5985 138.184 11.7912C138.184 11.3876 138.164 10.9788 138.108 10.5598C138.052 10.146 137.97 9.72192 137.842 9.30295C137.72 8.88398 137.566 8.46502 137.372 8.06138C137.178 7.65263 136.953 7.25411 136.698 6.87091C136.437 6.48771 136.151 6.13005 135.844 5.79795C135.538 5.46584 135.206 5.1695 134.863 4.8987C134.521 4.62791 134.163 4.39288 133.796 4.1834C133.433 3.97391 133.06 3.8002 132.687 3.65203C131.941 3.35569 131.19 3.18197 130.48 3.09511C129.769 3.01336 129.095 3.02358 128.487 3.08489C127.266 3.21773 126.315 3.57028 125.687 3.84618C125.053 4.12719 124.716 4.32646 124.686 4.28047C124.665 4.24982 124.951 3.97391 125.57 3.61115C126.183 3.2535 127.148 2.80899 128.426 2.60972C129.064 2.51265 129.78 2.47177 130.541 2.53308C131.302 2.5995 132.109 2.763 132.917 3.06445C133.32 3.21262 133.724 3.39656 134.123 3.61626C134.516 3.83596 134.909 4.08121 135.282 4.37244C135.655 4.66367 136.013 4.98045 136.345 5.333C136.677 5.69065 136.989 6.07385 137.27 6.48771C137.546 6.90156 137.786 7.33586 137.995 7.77526C138.2 8.21466 138.363 8.66939 138.491 9.11901C138.624 9.56863 138.706 10.0285 138.762 10.4781C138.818 10.9277 138.833 11.3722 138.823 11.8014C138.803 12.6649 138.649 13.4773 138.43 14.2079C138.205 14.9385 137.898 15.5874 137.571 16.1392C136.907 17.2531 136.136 17.9786 135.574 18.418C134.996 18.8523 134.633 19.0158 134.613 18.9851Z" fill="#E0E0E0"/>
<path d="M125.689 15.2982L124.397 16.1413L123.646 14.9866L124.908 14.164C124.233 12.9735 123.875 11.6451 123.957 10.6845L125.781 10.4035C125.73 11.2619 125.96 12.2939 126.42 13.183L128.351 11.9261C127.83 10.4392 127.324 8.72762 128.975 7.64955C130.201 6.85249 131.831 7.05687 133.231 8.74806L134.513 7.91013L135.264 9.06484L134.002 9.88744C134.498 10.802 134.815 11.7932 134.825 12.6925L133.026 13.0399C132.975 12.2326 132.781 11.502 132.474 10.8786L130.507 12.156C131.044 13.6326 131.534 15.3238 129.904 16.3865C128.704 17.1733 127.089 16.969 125.689 15.2982ZM130.048 10.8173L131.688 9.74949C131.151 9.22834 130.656 9.20279 130.277 9.45315C129.874 9.71372 129.879 10.2042 130.048 10.8173ZM128.556 14.6187C128.959 14.353 128.959 13.8778 128.811 13.2647L127.217 14.3019C127.718 14.8026 128.188 14.8588 128.556 14.6187Z" fill="#E0E0E0"/>
<path d="M134.534 80.3918C134.534 80.3918 114.814 66.4158 112.317 65.0431C109.939 63.7338 102.392 62.7834 101.716 62.6187L88.2045 59.6791L67.5594 60.2957L61.6378 63.8562L46.6565 70.7577C42.5723 72.6372 39.3538 75.9992 37.6517 80.1595L28.1865 103.267L51.6658 110.211L52.3965 134.585L46.8593 172.987H115.586L112.127 99.3856L119.282 100.961L134.534 80.3918Z" fill="#086663"/>
<path d="M52.0754 100.395C52.0754 100.395 51.8304 100.576 51.3489 100.855C50.8716 101.121 50.1452 101.522 49.1526 101.658C48.1558 101.797 46.969 101.556 45.7272 101.159C44.477 100.766 43.1635 100.158 41.8246 99.4613C40.4857 98.7644 39.2313 98.059 38.0571 97.4889C36.8829 96.9187 35.789 96.4794 34.8387 96.2049C33.8926 95.9219 33.0985 95.7952 32.5495 95.7403C32.2749 95.7107 32.0595 95.698 31.9159 95.6938C31.7723 95.6854 31.6963 95.6769 31.6963 95.6769C31.6963 95.6769 32.0046 95.66 32.5537 95.7065C33.107 95.7529 33.901 95.867 34.8556 96.1457C35.8101 96.4161 36.9125 96.8469 38.0909 97.4171C39.2735 97.983 40.5279 98.6884 41.8668 99.3853C43.2015 100.082 44.5108 100.686 45.7526 101.083C46.9901 101.48 48.1643 101.725 49.1484 101.594C50.1283 101.468 50.8505 101.079 51.332 100.821C51.5728 100.686 51.7586 100.576 51.8811 100.5C52.0036 100.433 52.0754 100.395 52.0754 100.395Z" fill="white"/>
<path d="M51.0927 89.0113C51.0927 89.0113 51.0378 89.0156 50.9365 89.0113C50.8098 89.0071 50.6619 88.9987 50.4888 88.9902C50.1002 88.9733 49.5385 88.9311 48.8458 88.8593C47.4604 88.7241 45.5555 88.4496 43.4817 87.9765C41.4122 87.4993 39.5749 86.9122 38.2698 86.4265C37.6151 86.1857 37.0914 85.9787 36.7366 85.8267C36.5803 85.7591 36.4451 85.7 36.3269 85.6493C36.234 85.6071 36.1875 85.5817 36.1875 85.5817C36.1875 85.5817 36.2382 85.5944 36.3353 85.6324C36.4536 85.6789 36.593 85.7296 36.7535 85.7929C37.1167 85.9365 37.6404 86.135 38.2951 86.3673C39.6044 86.8361 41.4375 87.4106 43.5029 87.8878C45.5682 88.3609 47.4731 88.6439 48.8542 88.7959C49.5469 88.8719 50.1044 88.9226 50.493 88.9522C50.6662 88.9649 50.8098 88.9775 50.9407 88.9902C51.0421 88.9987 51.0927 89.0113 51.0927 89.0113Z" fill="white"/>
<path d="M65.8762 65.0443C65.8762 65.0443 65.703 65.3315 65.3271 65.813C64.9555 66.2945 64.3473 66.945 63.4941 67.6208C62.6451 68.3008 61.5259 68.9766 60.2165 69.5805C58.9072 70.1845 57.412 70.7082 55.8239 71.1855C54.2316 71.6543 52.7069 72.0725 51.3426 72.5244C49.9784 72.9721 48.7747 73.4494 47.8032 73.9351C46.8318 74.4208 46.0884 74.8897 45.5985 75.2487C45.3451 75.4176 45.1719 75.5739 45.041 75.671C44.9143 75.7682 44.8467 75.8146 44.8467 75.8146C44.8467 75.8146 45.0959 75.5866 45.5816 75.2191C46.0673 74.8516 46.8107 74.3701 47.7779 73.876C48.7451 73.3776 49.9531 72.8961 51.3173 72.4399C52.6815 71.9838 54.2063 71.5656 55.7986 71.0926C57.3867 70.6196 58.8776 70.0958 60.1827 69.5003C61.4836 68.9005 62.6029 68.2374 63.4561 67.5659C64.3092 66.8985 64.9217 66.2608 65.2976 65.7835C65.5003 65.5554 65.6228 65.3527 65.7242 65.2302C65.8213 65.1119 65.8762 65.0443 65.8762 65.0443Z" fill="white"/>
<path d="M108.125 68.1921C108.125 68.1921 108.061 68.1625 107.947 68.0949C107.829 68.0316 107.664 67.9218 107.44 67.812C106.997 67.5712 106.334 67.2544 105.481 66.963C104.627 66.6673 103.584 66.3928 102.41 66.1732C101.236 65.9493 99.9308 65.7762 98.5623 65.5819C95.8423 65.1975 93.3799 64.847 91.5553 64.5893C90.6852 64.4626 89.9672 64.357 89.435 64.2768C89.207 64.243 89.0169 64.2134 88.8606 64.1881C88.7297 64.1669 88.6621 64.1501 88.6621 64.1501C88.6621 64.1501 88.7339 64.1543 88.8648 64.1712C89.0211 64.1923 89.2154 64.2134 89.4435 64.243C89.9799 64.3148 90.6979 64.4119 91.568 64.526C93.3926 64.7794 95.855 65.1173 98.575 65.4932C99.9435 65.6832 101.249 65.8606 102.423 66.0887C103.601 66.3126 104.644 66.5955 105.502 66.8996C106.359 67.1995 107.018 67.529 107.457 67.7782C107.897 68.0274 108.125 68.1921 108.125 68.1921Z" fill="white"/>
<path d="M98.5432 72.857C98.5432 72.857 98.387 72.9288 98.0871 73.0639C97.7872 73.1991 97.3395 73.3892 96.7609 73.6215C95.5994 74.0818 93.9057 74.7154 91.7601 75.3447C89.6145 75.9698 87.0296 76.6202 84.1026 77.0342C81.1756 77.4819 77.9107 77.4819 74.5065 77.3721C71.1022 77.2622 67.8542 77.1144 64.9061 77.3003C61.9622 77.4734 59.3309 77.9845 57.2191 78.7025C55.0988 79.4079 53.5192 80.3202 52.4928 81.0213C51.986 81.3845 51.5974 81.676 51.3524 81.8914C51.099 82.1025 50.9639 82.2081 50.9639 82.2081C50.9639 82.2081 51.0906 82.0941 51.3398 81.8787C51.5847 81.6548 51.9691 81.3634 52.4759 80.9917C53.4981 80.2779 55.0819 79.3572 57.2022 78.6434C59.3182 77.9169 61.9538 77.3974 64.9019 77.22C67.8542 77.0299 71.1064 77.1778 74.5107 77.2876C77.915 77.4016 81.1714 77.4016 84.0899 76.9581C87.0127 76.5484 89.5976 75.9064 91.7432 75.2898C93.8888 74.6689 95.5867 74.0438 96.7482 73.5961C97.3311 73.368 97.7788 73.1864 98.0829 73.0555C98.3827 72.9161 98.5432 72.857 98.5432 72.857Z" fill="white"/>
<path d="M105.031 76.9884C105.031 76.9926 105.005 77.0011 104.955 77.0222C104.883 77.0475 104.811 77.0771 104.731 77.1067C104.536 77.1785 104.253 77.2714 103.899 77.3728C103.193 77.5713 102.188 77.7951 101.056 77.8078C99.9242 77.8205 98.9148 77.6093 98.2094 77.3981C97.8546 77.2925 97.5759 77.1954 97.3816 77.1193C97.3056 77.0898 97.2338 77.0602 97.162 77.0306C97.1113 77.0095 97.0859 76.9969 97.0859 76.9926C97.0859 76.9884 97.1155 76.9969 97.1662 77.0138C97.238 77.0391 97.314 77.0602 97.39 77.0856C97.5843 77.1531 97.8673 77.2418 98.2221 77.339C98.9274 77.5333 99.9284 77.7318 101.048 77.7191C102.167 77.7064 103.164 77.4953 103.873 77.3136C104.228 77.2207 104.515 77.1362 104.71 77.0771C104.79 77.0518 104.866 77.0306 104.938 77.0095C105.001 76.9926 105.031 76.9842 105.031 76.9884Z" fill="white"/>
<path d="M91.7079 88.9361C91.7079 88.9361 89.6805 89.3627 86.3734 89.8568C84.7177 90.106 82.7411 90.351 80.5405 90.5706C78.34 90.7776 75.9114 90.955 73.3603 91.0521C70.8093 91.1408 68.3764 91.1408 66.1632 91.0943C63.9501 91.0352 61.9607 90.9338 60.2924 90.8029C56.9557 90.5495 54.9072 90.2707 54.9072 90.2707C54.9072 90.2707 55.0382 90.2792 55.2831 90.3003C55.5492 90.3256 55.904 90.3637 56.3559 90.4059C57.2851 90.503 58.6325 90.6213 60.3008 90.7396C61.9692 90.8621 63.9585 90.955 66.1675 91.0099C68.3764 91.0521 70.8093 91.0521 73.3603 90.9634C75.9072 90.8663 78.3358 90.6931 80.5363 90.4904C82.7368 90.275 84.7135 90.0342 86.3692 89.7935C88.0248 89.5569 89.3595 89.3415 90.2803 89.1768C90.728 89.1008 91.0785 89.0374 91.3404 88.9952C91.5811 88.953 91.7079 88.9361 91.7079 88.9361Z" fill="white"/>
<path d="M108.246 87.737C108.246 87.737 108.192 87.7454 108.094 87.7454C107.968 87.7496 107.824 87.7539 107.655 87.7581C107.271 87.7708 106.718 87.775 106.033 87.775C104.665 87.7708 102.773 87.7201 100.69 87.5427C98.6081 87.3611 96.737 87.0823 95.3897 86.8373C94.7181 86.7148 94.1733 86.6093 93.7974 86.529C93.6327 86.491 93.4933 86.4614 93.3666 86.4361C93.2694 86.415 93.2188 86.3981 93.2188 86.3981C93.2188 86.3981 93.2737 86.4023 93.3708 86.4192C93.4975 86.4403 93.6369 86.4656 93.8058 86.4952C94.224 86.5712 94.7604 86.6642 95.4024 86.7782C96.7497 87.0063 98.6208 87.2766 100.699 87.454C102.777 87.6314 104.665 87.6905 106.033 87.7116C106.684 87.7158 107.229 87.7201 107.651 87.7243C107.82 87.7243 107.964 87.7285 108.09 87.7285C108.192 87.7327 108.246 87.737 108.246 87.737Z" fill="white"/>
<path d="M87.1476 105.151C87.1476 105.151 87.0294 105.172 86.8013 105.206C86.5521 105.24 86.2227 105.286 85.8045 105.345C85.3737 105.409 84.8415 105.481 84.2249 105.523C83.604 105.565 82.9029 105.654 82.1215 105.666C81.3401 105.692 80.487 105.738 79.5662 105.721C79.1058 105.717 78.6328 105.725 78.1428 105.713C77.6529 105.696 77.1503 105.679 76.635 105.662C74.5738 105.578 72.3057 105.421 69.9321 105.214C67.5584 105.016 65.2987 104.809 63.2376 104.67C61.1764 104.543 59.3223 104.454 57.7595 104.48C57.3709 104.484 56.9993 104.484 56.6487 104.488C56.2981 104.505 55.9687 104.522 55.6561 104.539C55.0353 104.564 54.5031 104.594 54.0723 104.648C53.6541 104.691 53.3205 104.724 53.0713 104.746C52.8432 104.767 52.7207 104.775 52.7207 104.775C52.7207 104.775 52.839 104.758 53.067 104.729C53.3162 104.699 53.6499 104.661 54.068 104.615C54.5031 104.556 55.0353 104.522 55.6561 104.492C55.9687 104.475 56.2981 104.454 56.6487 104.437C56.9993 104.433 57.3709 104.429 57.7637 104.425C59.3265 104.395 61.1849 104.475 63.246 104.598C65.3072 104.729 67.5668 104.936 69.9405 105.134C72.3142 105.341 74.5781 105.502 76.6392 105.586C77.1545 105.603 77.6571 105.62 78.1471 105.641C78.637 105.654 79.11 105.649 79.5704 105.654C80.4869 105.671 81.3401 105.633 82.1215 105.611C82.9029 105.603 83.604 105.519 84.2207 105.481C84.8415 105.447 85.3695 105.379 85.8003 105.32C86.2184 105.269 86.5521 105.227 86.7971 105.198C87.0294 105.16 87.1476 105.151 87.1476 105.151Z" fill="white"/>
<path d="M112.014 100.192C112.014 100.192 111.951 100.204 111.828 100.217C111.681 100.234 111.503 100.251 111.292 100.276C110.823 100.327 110.147 100.382 109.307 100.441C107.63 100.555 105.307 100.639 102.743 100.572C100.18 100.504 97.8608 100.297 96.1924 100.094C95.3561 99.993 94.6846 99.9001 94.22 99.8283C94.0088 99.7945 93.8314 99.7649 93.6878 99.7438C93.5653 99.7227 93.502 99.71 93.502 99.71C93.502 99.71 93.5653 99.7142 93.692 99.7269C93.8398 99.748 94.0172 99.7691 94.2284 99.7945C94.693 99.8578 95.3688 99.9423 96.2009 100.035C97.8692 100.221 100.184 100.415 102.743 100.483C105.303 100.551 107.626 100.474 109.303 100.377C110.139 100.327 110.819 100.28 111.288 100.242C111.499 100.225 111.676 100.213 111.828 100.2C111.947 100.191 112.014 100.192 112.014 100.192Z" fill="white"/>
<path d="M112.321 115.54C112.321 115.54 112.11 115.532 111.705 115.502C111.299 115.481 110.704 115.418 109.935 115.396C108.398 115.316 106.172 115.299 103.422 115.434C100.673 115.565 97.4119 115.895 93.8091 116.368C90.2021 116.837 86.2488 117.458 82.0843 117.994C77.9197 118.522 73.9242 118.86 70.2834 118.894C66.6426 118.927 63.3608 118.67 60.6492 118.197C57.9377 117.728 55.7836 117.124 54.3349 116.604C53.9674 116.49 53.6464 116.368 53.3719 116.254C53.1016 116.148 52.8693 116.055 52.675 115.979C52.2991 115.832 52.1006 115.747 52.1006 115.747C52.1006 115.747 52.2991 115.819 52.6792 115.962C52.8735 116.034 53.1058 116.127 53.3804 116.229C53.6549 116.338 53.9759 116.457 54.3433 116.571C55.7921 117.082 57.9461 117.677 60.6577 118.133C63.3693 118.598 66.6426 118.847 70.2792 118.813C73.9157 118.78 77.9071 118.437 82.0716 117.91C86.2361 117.373 90.1852 116.756 93.7964 116.292C97.4034 115.823 100.668 115.498 103.418 115.375C106.167 115.249 108.398 115.274 109.935 115.363C111.477 115.447 112.321 115.54 112.321 115.54Z" fill="white"/>
<path d="M89.0744 131.307C89.0744 131.307 87.0428 131.654 83.7315 132.008C82.0758 132.19 80.0991 132.35 77.9028 132.477C75.7065 132.591 73.2864 132.663 70.7438 132.646C68.2011 132.625 65.7852 132.519 63.5889 132.372C61.3926 132.215 59.4202 132.025 57.7687 131.822C54.4658 131.421 52.4385 131.045 52.4385 131.045C52.4385 131.045 52.5652 131.058 52.8102 131.092C53.072 131.13 53.4268 131.18 53.8703 131.248C54.3307 131.32 54.8924 131.4 55.5471 131.485C56.2017 131.569 56.9493 131.675 57.7729 131.763C59.4244 131.958 61.3968 132.143 63.5931 132.296C65.7894 132.435 68.2053 132.541 70.7438 132.562C73.2822 132.574 75.6981 132.507 77.8944 132.397C80.0907 132.274 82.0674 132.122 83.7188 131.949C84.5466 131.873 85.2942 131.78 85.9489 131.704C86.6078 131.632 87.1695 131.556 87.6299 131.493C88.0776 131.434 88.4324 131.387 88.6943 131.354C88.9435 131.32 89.0744 131.307 89.0744 131.307Z" fill="white"/>
<path d="M112.058 128.284C112.058 128.284 111.982 128.313 111.834 128.36C111.661 128.411 111.445 128.478 111.183 128.554C110.622 128.723 109.798 128.955 108.784 129.23C106.748 129.775 103.919 130.451 100.755 131.034C97.5916 131.612 94.7027 131.984 92.6077 132.195C91.5603 132.301 90.7113 132.377 90.1242 132.415C89.8497 132.432 89.6258 132.448 89.4484 132.461C89.2922 132.47 89.2119 132.47 89.2119 132.47C89.2119 132.47 89.2922 132.457 89.4484 132.44C89.6258 132.423 89.8497 132.402 90.1242 132.377C90.7113 132.326 91.5603 132.241 92.6035 132.127C94.6942 131.899 97.579 131.519 100.738 130.941C103.898 130.362 106.727 129.695 108.767 129.167C109.785 128.901 110.609 128.681 111.175 128.52C111.441 128.449 111.656 128.39 111.83 128.339C111.977 128.301 112.058 128.284 112.058 128.284Z" fill="white"/>
<path d="M72.9767 148.922C72.9767 148.922 71.7308 149.137 69.6907 149.243C68.6728 149.302 67.4522 149.306 66.1049 149.247C64.7575 149.175 63.2792 149.032 61.7376 148.778C60.2002 148.516 58.7557 148.17 57.4548 147.798C56.1582 147.414 55.0093 147.013 54.0675 146.628C52.1753 145.864 51.0645 145.252 51.0645 145.252C51.0645 145.252 51.1363 145.281 51.2756 145.344C51.4361 145.416 51.6304 145.509 51.8712 145.623C52.1288 145.746 52.4456 145.894 52.8173 146.05C53.1889 146.206 53.6113 146.4 54.0886 146.574C55.0347 146.954 56.1835 147.346 57.4759 147.727C58.7726 148.094 60.2171 148.436 61.7503 148.698C63.2835 148.951 64.7617 149.095 66.1049 149.171C67.4522 149.234 68.6644 149.234 69.6823 149.184C70.1933 149.175 70.6495 149.129 71.055 149.104C71.4604 149.078 71.8068 149.044 72.0898 149.011C72.3516 148.985 72.567 148.96 72.7444 148.943C72.8965 148.926 72.9767 148.922 72.9767 148.922Z" fill="white"/>
<path d="M113.606 147.844C113.606 147.844 113.462 147.874 113.187 147.916C112.896 147.963 112.491 148.026 111.979 148.11C110.932 148.279 109.411 148.507 107.532 148.778C103.773 149.314 98.5652 149.981 92.7999 150.556C87.0304 151.126 81.7973 151.498 78.0045 151.705C76.108 151.81 74.5749 151.886 73.5105 151.924C72.9952 151.945 72.5855 151.958 72.2899 151.971C72.0111 151.979 71.8633 151.979 71.8633 151.979C71.8633 151.979 72.0111 151.967 72.2899 151.95C72.5855 151.933 72.9952 151.912 73.5105 151.886C74.5875 151.827 76.1165 151.743 78.0002 151.637C81.7888 151.409 87.0219 151.033 92.7914 150.463C98.5567 149.888 103.76 149.234 107.524 148.71C109.39 148.444 110.907 148.224 111.975 148.072C112.486 147.996 112.892 147.937 113.183 147.895C113.458 147.861 113.606 147.844 113.606 147.844Z" fill="white"/>
<path d="M115.818 163.4C115.818 163.4 114.893 163.594 113.212 163.868C111.526 164.143 109.081 164.485 106.044 164.739C103.003 164.992 99.3708 165.131 95.3372 165C91.3036 164.87 86.8899 164.422 82.2735 163.856C77.6528 163.29 73.256 162.72 69.2393 162.403C65.2226 162.078 61.586 162.014 58.5408 162.166C55.4955 162.323 53.0501 162.669 51.3733 162.986C50.537 163.146 49.8865 163.281 49.4515 163.387C49.0123 163.488 48.7842 163.535 48.7842 163.535C48.7842 163.535 49.0123 163.476 49.4473 163.37C49.8823 163.256 50.5285 163.117 51.3648 162.952C53.0374 162.623 55.4871 162.268 58.5323 162.103C61.5776 161.947 65.2184 162.002 69.2393 162.323C73.2602 162.631 77.6612 163.201 82.2777 163.767C86.8941 164.333 91.3036 164.785 95.333 164.92C99.3623 165.055 102.995 164.92 106.031 164.679C109.068 164.434 111.518 164.101 113.199 163.839C114.04 163.704 114.694 163.598 115.138 163.518C115.585 163.433 115.818 163.4 115.818 163.4Z" fill="white"/>
<path d="M128.197 76.6115C128.197 76.6115 128.074 76.9451 127.8 77.5322C127.529 78.1151 127.073 78.9345 126.418 79.8848C125.768 80.8394 124.898 81.9037 123.876 83.0314C122.854 84.1634 121.68 85.3544 120.488 86.6469C119.302 87.9393 118.241 89.2402 117.405 90.5115C116.573 91.7828 115.956 93.0161 115.589 94.1058C115.217 95.1913 115.053 96.1163 115.002 96.7583C114.96 97.0793 114.972 97.3285 114.96 97.4974C114.951 97.6664 114.943 97.7551 114.943 97.7551C114.943 97.7551 114.926 97.396 114.968 96.7541C115.006 96.1121 115.162 95.1829 115.53 94.0847C115.889 92.9866 116.506 91.7448 117.338 90.465C118.174 89.1853 119.23 87.8802 120.421 86.5877C121.616 85.2953 122.79 84.1042 123.812 82.9807C124.835 81.8573 125.709 80.7971 126.364 79.851C127.022 78.9091 127.483 78.0982 127.762 77.5196C127.914 77.2366 128.002 77.0001 128.078 76.848C128.154 76.6917 128.197 76.6115 128.197 76.6115Z" fill="white"/>
<path d="M108.756 83.8907C108.756 83.8907 108.802 83.8527 108.899 83.7851C109.018 83.7049 109.157 83.612 109.322 83.4979C109.689 83.2572 110.209 82.8813 110.834 82.404C111.463 81.9267 112.181 81.3227 112.946 80.6132C113.706 79.8994 114.504 79.08 115.29 78.1635C116.067 77.2427 116.751 76.3219 117.338 75.4603C117.913 74.5902 118.398 73.7878 118.77 73.0909C119.146 72.3982 119.429 71.8238 119.611 71.4225C119.695 71.2409 119.767 71.0931 119.826 70.9621C119.877 70.8565 119.906 70.8059 119.906 70.8059C119.906 70.8059 119.56 71.7224 118.825 73.1204C118.458 73.8215 117.98 74.6325 117.406 75.5068C116.823 76.3726 116.139 77.3018 115.357 78.2226C114.572 79.1391 113.765 79.9585 113.001 80.6723C112.228 81.3776 111.505 81.9816 110.872 82.4505C109.609 83.405 108.756 83.8907 108.756 83.8907Z" fill="white"/>
<path d="M78.5752 103.637C78.5752 103.632 78.609 103.615 78.6766 103.59C78.7568 103.561 78.8582 103.523 78.9807 103.472C79.251 103.379 79.6396 103.21 80.1337 102.982C81.1052 102.5 82.4652 101.673 83.8717 100.325C85.2866 98.9906 86.7437 97.1702 88.1502 95.0161C89.5651 92.8621 90.98 90.4039 92.3189 87.7515C95.0052 82.4381 96.91 77.3824 98.2405 73.7205C98.9078 71.8875 99.4231 70.3965 99.7821 69.3659C99.9595 68.8633 100.099 68.4663 100.2 68.1791C100.247 68.0524 100.285 67.951 100.314 67.8708C100.34 67.8032 100.357 67.7694 100.361 67.7694C100.365 67.7694 100.357 67.8074 100.335 67.8792C100.31 67.9595 100.281 68.065 100.243 68.1918C100.15 68.479 100.023 68.8802 99.8624 69.3913C99.5245 70.4303 99.0303 71.9297 98.3799 73.7712C97.0832 77.45 95.1995 82.5226 92.5048 87.8486C91.1574 90.5095 89.7341 92.9719 88.3065 95.126C86.8831 97.2842 85.4091 99.1089 83.9646 100.435C82.537 101.778 81.1474 102.598 80.1591 103.058C79.6564 103.278 79.2637 103.438 78.9849 103.514C78.8582 103.552 78.7526 103.586 78.6723 103.611C78.6132 103.632 78.5752 103.641 78.5752 103.637Z" fill="#455A64"/>
<path d="M77.8566 112.575C77.8524 112.571 77.9326 112.508 78.0889 112.398C78.2621 112.28 78.4902 112.124 78.7689 111.925C79.3602 111.511 80.2092 110.911 81.2271 110.126C83.2755 108.567 85.966 106.24 88.855 103.583C90.3037 102.257 91.6933 101.003 92.897 99.8032C94.1007 98.6037 95.1102 97.4506 95.8747 96.42C96.6476 95.3937 97.1713 94.4941 97.505 93.8563C97.6824 93.5437 97.7922 93.2861 97.8809 93.1172C97.9654 92.9482 98.0118 92.8595 98.0203 92.8637C98.0287 92.868 97.9907 92.9609 97.9189 93.134C97.8429 93.3072 97.7458 93.5733 97.581 93.8943C97.2685 94.5447 96.7574 95.4613 95.9972 96.5087C95.2411 97.5562 94.2359 98.7262 93.0364 99.9383C91.8369 101.155 90.4473 102.413 88.9986 103.74C86.1054 106.401 83.3938 108.715 81.3158 110.244C80.281 111.013 79.4194 111.6 78.8111 111.993C78.507 112.187 78.2663 112.331 78.1058 112.432C77.9495 112.533 77.8608 112.584 77.8566 112.575Z" fill="#455A64"/>
<path d="M66.4469 157.731C66.4427 157.731 66.4596 157.697 66.4976 157.634C66.5398 157.562 66.5947 157.473 66.6623 157.368C66.8102 157.135 67.0382 156.793 67.3423 156.367C67.9548 155.509 68.8966 154.31 70.1384 152.895C72.643 150.082 76.1486 146.251 80.0133 142.011C83.8864 137.783 87.392 133.956 89.9431 131.173C91.2144 129.804 92.2449 128.689 92.9714 127.904C93.322 127.532 93.6007 127.236 93.8035 127.021C93.8922 126.928 93.964 126.856 94.0231 126.797C94.0738 126.746 94.0991 126.721 94.1034 126.725C94.1076 126.729 94.0822 126.759 94.04 126.81C93.9851 126.873 93.9175 126.953 93.8373 127.05C93.643 127.27 93.3769 127.574 93.0348 127.958C92.321 128.753 91.3073 129.88 90.0571 131.27C87.5187 134.066 84.03 137.905 80.1738 142.146C76.3049 146.374 72.8035 150.204 70.2566 152.988C69.0022 154.386 68.0435 155.568 67.4141 156.409C67.1016 156.831 66.8608 157.161 66.7003 157.389C66.6243 157.494 66.5652 157.579 66.5187 157.646C66.4723 157.706 66.4511 157.735 66.4469 157.731Z" fill="#455A64"/>
<path d="M105.904 81.819C105.891 81.8233 105.832 81.5952 105.743 81.177C105.697 80.9701 105.646 80.7124 105.608 80.4126C105.57 80.1127 105.507 79.7706 105.49 79.3904C105.456 79.0103 105.427 78.5922 105.431 78.1445C105.414 77.6968 105.443 77.2153 105.465 76.7126C105.541 75.7074 105.697 74.6008 105.971 73.4689C106.259 72.337 106.639 71.2895 107.044 70.3645C107.26 69.9084 107.458 69.4691 107.686 69.0805C107.893 68.6835 108.117 68.3287 108.324 68.0077C108.518 67.6783 108.734 67.408 108.907 67.1588C109.08 66.9096 109.245 66.7068 109.384 66.5463C109.659 66.2211 109.815 66.0437 109.828 66.0522C109.84 66.0606 109.705 66.2549 109.452 66.597C109.325 66.766 109.169 66.9729 109.004 67.2263C108.839 67.4798 108.637 67.7543 108.451 68.0837C108.252 68.409 108.041 68.7637 107.842 69.1608C107.627 69.5493 107.437 69.9844 107.226 70.4405C106.833 71.3613 106.466 72.3961 106.178 73.5154C105.904 74.6346 105.748 75.7243 105.659 76.7211C105.634 77.2195 105.596 77.6925 105.604 78.1402C105.596 78.5837 105.617 78.9976 105.638 79.3778C105.646 79.7579 105.697 80.0958 105.726 80.3957C105.752 80.6955 105.79 80.9532 105.824 81.1601C105.891 81.5825 105.917 81.819 105.904 81.819Z" fill="#455A64"/>
<path d="M112.037 96.9749C111.982 96.9961 111.222 95.3193 110.339 93.2243C109.456 91.1294 108.78 89.4146 108.835 89.3935C108.89 89.3724 109.65 91.0492 110.533 93.1441C111.416 95.2348 112.092 96.9538 112.037 96.9749Z" fill="#455A64"/>
<path d="M51.6624 83.5873C51.6286 83.6042 51.2992 83.0002 50.6783 82.0837C50.0574 81.1671 49.1155 79.9592 47.9076 78.7808C46.6954 77.6066 45.4578 76.7027 44.5244 76.1114C43.591 75.5159 42.9786 75.2076 42.9955 75.1738C43.0039 75.1611 43.1602 75.2287 43.4432 75.3596C43.7262 75.4906 44.1274 75.7017 44.6047 75.9847C45.5677 76.5465 46.8348 77.4461 48.0596 78.6329C49.2802 79.824 50.2179 81.0615 50.8092 82.0076C51.1049 82.4807 51.3287 82.8693 51.4681 83.1522C51.6033 83.4226 51.6751 83.5788 51.6624 83.5873Z" fill="#455A64"/>
<path d="M68.2576 73.595C68.2491 73.595 68.2322 73.4302 68.2534 73.1599C68.2745 72.8938 68.3505 72.5222 68.511 72.142C68.7222 71.6225 69.0432 71.2424 69.2206 71.0692L69.2459 71.0481L69.2586 71.0777C69.3093 71.1959 69.3304 71.2593 69.3219 71.2635C69.3135 71.2677 69.2797 71.2086 69.2164 71.0946L69.2501 71.0988C69.0939 71.2889 68.7982 71.669 68.587 72.1758C68.2703 72.9234 68.2872 73.5992 68.2576 73.595Z" fill="#455A64"/>
<path d="M73.8358 76.4963C73.8273 76.4963 73.7809 76.34 73.7471 76.0739C73.7175 75.8078 73.7091 75.4361 73.7724 75.0349C73.8358 74.6336 73.954 74.2788 74.0639 74.0381C74.1737 73.7931 74.2666 73.658 74.275 73.6622C74.3004 73.6749 73.9794 74.2535 73.8569 75.0476C73.7344 75.8416 73.8653 76.492 73.8358 76.4963Z" fill="#455A64"/>
<path d="M79.9374 76.0143C79.9079 76.0143 79.9501 75.4737 79.7769 74.8401C79.608 74.2066 79.2954 73.7631 79.3208 73.7462C79.3292 73.742 79.4179 73.8433 79.532 74.0292C79.646 74.215 79.7769 74.4938 79.8656 74.8148C79.9543 75.1358 79.9839 75.4399 79.9797 75.6595C79.9712 75.8791 79.9459 76.0143 79.9374 76.0143Z" fill="#455A64"/>
<path d="M85.2543 73.6812C85.229 73.6939 85.0474 73.149 84.6208 72.6084C84.1984 72.0635 83.7169 71.7552 83.7338 71.7341C83.7381 71.7256 83.8648 71.789 84.0506 71.9241C84.2364 72.0593 84.473 72.2747 84.6884 72.5535C84.9038 72.8322 85.0558 73.1152 85.1445 73.3264C85.2332 73.5376 85.267 73.677 85.2543 73.6812Z" fill="#455A64"/>
<path d="M88.9397 70.0596C88.9144 70.0765 88.8088 69.4134 88.209 68.9066C87.622 68.3913 86.9504 68.3829 86.9631 68.3533C86.9631 68.3491 87.0011 68.3448 87.0729 68.3448C87.1447 68.3448 87.2503 68.3575 87.3728 68.3829C87.6262 68.4378 87.9641 68.5814 88.264 68.839C88.5638 69.0967 88.7539 69.4134 88.8426 69.6542C88.889 69.7724 88.9144 69.8738 88.9271 69.9456C88.944 70.0174 88.9482 70.0554 88.9397 70.0596Z" fill="#455A64"/>
<path d="M90.9118 63.3698C90.8991 63.3952 90.4894 62.9602 89.801 62.8377C89.1125 62.7025 88.5761 62.9644 88.5719 62.939C88.5508 62.9264 89.0956 62.6138 89.8136 62.7532C90.5401 62.8799 90.9371 63.3656 90.9118 63.3698Z" fill="#455A64"/>
<path d="M64.5967 69.0876C64.5882 69.0876 64.6051 68.944 64.6854 68.7244C64.7656 68.509 64.9219 68.2218 65.1627 67.9599C65.4034 67.698 65.6737 67.5207 65.8849 67.4235C66.0961 67.3264 66.2355 67.2968 66.2397 67.3052C66.2524 67.3306 65.6948 67.508 65.2302 68.0233C64.7487 68.5301 64.622 69.1003 64.5967 69.0876Z" fill="#455A64"/>
<path d="M63.2517 64.6411C63.2432 64.6369 63.3108 64.4975 63.4629 64.299C63.6149 64.1004 63.8557 63.8512 64.1682 63.6401C64.485 63.4289 64.806 63.2937 65.0467 63.2304C65.2875 63.1628 65.4395 63.1544 65.4395 63.1628C65.448 63.1924 64.8355 63.2895 64.2189 63.7119C63.5938 64.1258 63.2728 64.658 63.2517 64.6411Z" fill="#455A64"/>
<path d="M52.762 90.5959C52.7578 90.6001 52.7409 90.5748 52.7324 90.6001C52.7198 90.6255 52.7071 90.6762 52.6986 90.7395C52.6775 90.8662 52.6522 91.0605 52.6311 91.3055C52.5804 91.7997 52.5255 92.5219 52.4663 93.4089C52.3439 95.187 52.2045 97.6452 52.0735 100.365C51.9426 103.085 51.8455 105.548 51.7821 107.326C51.7525 108.192 51.7314 108.901 51.7145 109.438C51.7061 109.666 51.6976 109.856 51.6892 110.012C51.6808 110.143 51.6723 110.211 51.6681 110.211C51.6596 110.211 51.6512 110.143 51.647 110.012C51.6427 109.856 51.6343 109.666 51.6301 109.438C51.6216 108.939 51.6174 108.217 51.6301 107.326C51.6512 105.539 51.723 103.077 51.8581 100.357C51.9891 97.6367 52.1538 95.1786 52.3143 93.4004C52.3945 92.5135 52.4748 91.7912 52.5508 91.297C52.5888 91.0478 52.6268 90.8578 52.6606 90.7311C52.6775 90.6677 52.6944 90.617 52.7198 90.5875C52.7578 90.5495 52.7662 90.6044 52.762 90.5959Z" fill="#086663"/>
<path d="M99.2769 5.2871C95.7544 4.21007 92.084 7.36513 88.4686 6.65556C86.2723 6.22475 84.6166 4.47193 82.6611 3.38223C79.7426 1.75191 75.6118 1.48582 72.6257 3.0021C69.6438 4.51839 67.7221 6.13605 67.3124 9.45584C64.5966 7.89731 60.0688 11.3142 58.5229 14.6129C56.9813 17.9116 57.3657 21.3201 58.2442 24.8552C59.752 30.9415 62.4678 36.7237 66.1889 41.7667C66.5183 42.2144 67.0463 42.7086 67.5489 42.4721C67.8952 42.3074 68.0093 41.8765 68.0726 41.4964C68.5921 38.2653 68.1824 34.9667 67.9037 31.706C67.6249 28.4453 67.4855 25.0833 68.5161 21.9747C69.5467 18.8661 71.9753 16.0321 75.1895 15.3985C77.5632 14.9297 80.0255 15.7026 82.1331 16.8852C84.2407 18.0679 86.0949 19.6517 88.1011 20.9991C90.1074 22.3464 92.3628 23.4826 94.7787 23.5882C97.1947 23.6937 99.7837 22.5534 100.814 20.3655C101.845 18.1777 100.688 15.0691 98.3224 14.5664C100.493 14.3679 102.39 12.4884 102.614 10.3217C102.837 8.1465 101.363 5.92487 99.2769 5.2871Z" fill="#263238"/>
<path d="M88.4171 61.9337L88.075 54.9394C88.075 54.9394 97.291 53.1739 97.0798 43.903C96.9785 39.4259 96.0197 30.2268 95.0525 21.9105C94.0177 12.9648 86.2842 6.31676 77.2878 6.62931L76.3924 6.65887C66.7709 7.55851 62.163 16.2339 63.3287 25.8258L65.5461 63.167C65.9178 69.4518 71.2945 74.2541 77.5835 73.9205C83.8809 73.591 88.7212 68.2312 88.4171 61.9337Z" fill="#FFBE9D"/>
<path d="M88.1142 54.9365C88.1142 54.9365 82.2729 55.6165 75.9121 51.9251C75.9121 51.9251 78.9996 58.4928 88.2198 57.3356L88.1142 54.9365Z" fill="#EB996E"/>
<path d="M91.9073 28.1964C91.958 28.8933 91.4047 29.5099 90.6783 29.5775C89.9518 29.6409 89.3225 29.1298 89.2718 28.4329C89.2211 27.736 89.7744 27.1151 90.5009 27.0518C91.2273 26.9842 91.8609 27.4995 91.9073 28.1964Z" fill="#263238"/>
<path d="M93.2624 26.5114C93.1062 26.6888 92.0756 25.9835 90.6522 26.0384C89.2289 26.0722 88.211 26.8409 88.0505 26.6719C87.9702 26.5959 88.1265 26.2791 88.57 25.9328C89.005 25.5864 89.761 25.2401 90.648 25.2105C91.535 25.1852 92.291 25.4851 92.7345 25.8019C93.1822 26.1229 93.3427 26.4312 93.2624 26.5114Z" fill="#263238"/>
<path d="M77.9054 29.1675C77.9561 29.8644 77.4028 30.4811 76.6763 30.5487C75.9498 30.612 75.3205 30.101 75.2698 29.4041C75.2191 28.7072 75.7724 28.0863 76.4989 28.0229C77.2296 27.9554 77.8589 28.4664 77.9054 29.1675Z" fill="#263238"/>
<path d="M79.2429 27.2677C79.0866 27.4451 78.0561 26.7397 76.6327 26.7946C75.2093 26.8284 74.1914 27.5971 74.0309 27.4282C73.9507 27.3521 74.107 27.0354 74.5504 26.689C74.9855 26.3427 75.7373 25.9964 76.6285 25.9668C77.5154 25.9414 78.2715 26.2413 78.715 26.5581C79.1584 26.8791 79.3189 27.1874 79.2429 27.2677Z" fill="#263238"/>
<path d="M84.7884 37.653C84.7799 37.5727 85.6584 37.3869 87.086 37.1546C87.4493 37.1039 87.7914 37.0194 87.8421 36.7702C87.9181 36.5042 87.7534 36.1198 87.5633 35.7017C87.1916 34.8358 86.7988 33.9235 86.3891 32.969C84.7588 29.079 83.5635 25.8775 83.7198 25.8099C83.8761 25.7465 85.329 28.8467 86.9593 32.7367C87.3521 33.6954 87.728 34.612 88.087 35.4863C88.2391 35.896 88.4925 36.3563 88.3278 36.9054C88.2391 37.1799 87.9815 37.3869 87.7492 37.4587C87.5169 37.5389 87.3141 37.5474 87.1325 37.5643C85.6922 37.6952 84.7968 37.7332 84.7884 37.653Z" fill="#263238"/>
<path d="M80.5569 38.7837C80.7892 38.7626 80.8441 40.3084 82.2083 41.3601C83.5683 42.416 85.2071 42.1837 85.2282 42.3991C85.2536 42.4963 84.8734 42.7117 84.1765 42.7539C83.4965 42.8004 82.4913 42.6188 81.6592 41.9726C80.8272 41.3263 80.4513 40.4436 80.3753 39.8101C80.2908 39.1681 80.4513 38.7795 80.5569 38.7837Z" fill="#263238"/>
<path d="M79.1322 19.9663C79.0055 20.3591 77.5779 20.2239 75.9138 20.4858C74.2454 20.7139 72.915 21.2503 72.6827 20.9081C72.5771 20.7434 72.801 20.3717 73.3331 19.9789C73.8611 19.5861 74.71 19.2018 75.7068 19.054C76.7078 18.9104 77.6286 19.0371 78.2452 19.2609C78.8661 19.489 79.1829 19.7804 79.1322 19.9663Z" fill="#263238"/>
<path d="M92.5861 22.4029C92.3454 22.7365 91.3528 22.4324 90.1744 22.4578C88.9918 22.4409 88.0035 22.7534 87.7627 22.4198C87.6571 22.2593 87.8007 21.9298 88.2273 21.6088C88.6455 21.2878 89.3593 21.0133 90.1702 21.0091C90.9812 21.0048 91.6949 21.2752 92.1173 21.5919C92.5439 21.9129 92.6917 22.2424 92.5861 22.4029Z" fill="#263238"/>
<path d="M64.2904 32.6736C64.1299 32.6102 57.8578 31.0137 58.2802 37.3407C58.7068 43.6677 64.9704 41.936 64.9704 41.7544C64.9704 41.5728 64.2904 32.6736 64.2904 32.6736Z" fill="#FFBE9D"/>
<path d="M62.8872 39.4917C62.8576 39.4748 62.7816 39.5762 62.5999 39.6733C62.4226 39.7704 62.1142 39.8465 61.7763 39.7451C61.0921 39.5466 60.4586 38.5203 60.3487 37.3841C60.2938 36.8097 60.3783 36.2522 60.5515 35.7833C60.712 35.3061 60.9907 34.9639 61.3244 34.8795C61.6538 34.7781 61.9073 34.9639 61.996 35.1371C62.0931 35.3103 62.0593 35.437 62.0973 35.4454C62.1142 35.4581 62.224 35.3314 62.1565 35.0738C62.1227 34.9513 62.0382 34.8077 61.8819 34.6936C61.7214 34.5796 61.4934 34.5331 61.2611 34.5754C60.7753 34.6429 60.3656 35.1202 60.1756 35.6355C59.9559 36.155 59.8504 36.7801 59.9137 37.4263C60.0404 38.6976 60.7711 39.8465 61.7045 40.0492C62.1565 40.1337 62.5197 39.9774 62.7013 39.8127C62.8829 39.6437 62.9083 39.5001 62.8872 39.4917Z" fill="#EB996E"/>
<path d="M96.9423 19.9106C92.9003 21.1397 88.2754 20.2696 84.9598 17.6509C82.6368 15.8179 80.8038 13.1316 77.9486 12.3629C76.0268 11.8434 73.9277 12.3291 72.2213 13.3513C70.515 14.3734 69.1549 15.8939 67.9977 17.5158C69.9532 22.1618 68.9353 27.4625 67.8878 32.3914C67.7738 32.9363 67.6302 33.5234 67.2036 33.8782C66.4729 34.4822 65.3368 34.0682 64.661 33.4093C63.5755 32.3534 63.1151 30.8203 62.7984 29.3378C62.0719 25.9631 61.8607 22.449 62.4985 19.0616C63.1362 15.67 64.6525 12.4052 67.06 9.93432C70.0715 6.84684 74.3838 5.14893 78.6919 5.06446C83.0043 4.97999 87.2828 6.44981 90.8138 8.92487C92.4526 10.0737 93.9731 11.476 94.8601 13.271" fill="#263238"/>
<path d="M102.022 7.42562C102.022 7.42562 102.069 7.6199 101.984 7.97891C101.904 8.32948 101.676 8.85321 101.144 9.31781C100.62 9.78241 99.7837 10.1119 98.8038 10.1921C98.3139 10.2301 97.7859 10.2343 97.2284 10.1499C96.6751 10.0612 96.0838 9.87111 95.5896 9.45719C95.1081 9.05594 94.7069 8.42662 94.7365 7.69593C94.7576 6.95679 95.332 6.31057 96.0247 6.03181C96.3752 5.88398 96.7638 5.81218 97.1608 5.84597C97.5536 5.87976 97.9507 6.04448 98.2674 6.2979C98.9179 6.80474 99.26 7.64102 99.2896 8.48153C99.3276 9.3347 98.9686 10.1963 98.373 10.8425C97.7775 11.493 96.9834 11.9576 96.1218 12.2237C94.3817 12.7685 92.4388 12.5024 90.686 11.8267C88.9163 11.1551 87.362 10.1499 85.9006 9.16998C84.4392 8.19432 83.0201 7.25667 81.5545 6.60623C80.0973 5.94312 78.581 5.61367 77.1661 5.69814C75.7512 5.78262 74.4672 6.2261 73.4113 6.80474C71.2783 7.98736 70.0577 9.63458 69.3439 10.7707C68.9849 11.3494 68.7441 11.8224 68.5879 12.1434C68.4316 12.4644 68.3513 12.6376 68.3387 12.6334C68.3345 12.6334 68.3471 12.5869 68.3809 12.4982C68.4147 12.4137 68.4612 12.2828 68.533 12.1181C68.6723 11.7844 68.8962 11.2987 69.2425 10.7074C69.931 9.54166 71.1389 7.84376 73.3099 6.61045C74.3869 6.00647 75.6963 5.53764 77.1576 5.4405C78.619 5.33913 80.1902 5.6728 81.6812 6.34014C83.1806 6.99903 84.6124 7.9409 86.078 8.91234C87.5394 9.888 89.0726 10.8763 90.8043 11.531C92.5148 12.1941 94.3817 12.4433 96.0373 11.928C96.8525 11.6746 97.6043 11.2396 98.1576 10.6356C98.7109 10.0358 99.0361 9.2629 99.0066 8.48575C98.9855 7.71705 98.6729 6.96101 98.1027 6.51331C97.5494 6.04026 96.7596 6.00647 96.1345 6.27256C95.5052 6.52175 95.011 7.0835 94.9899 7.7086C94.9561 8.3337 95.3067 8.91234 95.7459 9.28824C96.1936 9.66837 96.7469 9.85844 97.2749 9.95135C97.8071 10.0401 98.3266 10.0443 98.8038 10.0147C99.7626 9.95558 100.565 9.6557 101.076 9.22489C101.596 8.79408 101.836 8.30413 101.934 7.96624C102.022 7.6199 102.001 7.42562 102.022 7.42562Z" fill="#455A64"/>
<path d="M57.5755 20.1061C57.5966 20.0385 58.2977 20.444 59.5268 20.5411C60.1393 20.5834 60.8742 20.5116 61.6429 20.2455C62.4116 19.9921 63.2141 19.557 63.9786 19.0206C65.5075 17.914 66.3353 16.3217 66.669 15.1475C67.0154 13.9565 66.9604 13.1666 67.0196 13.1709C67.0365 13.1709 67.066 13.3652 67.0703 13.7199C67.0703 14.0747 67.0322 14.59 66.8802 15.2067C66.593 16.4315 65.7609 18.1125 64.1602 19.274C63.3661 19.8358 62.5425 20.2708 61.7273 20.52C60.9206 20.7819 60.1393 20.8326 59.5057 20.7608C58.8679 20.6847 58.3738 20.5158 58.0528 20.3722C57.7318 20.2286 57.5671 20.123 57.5755 20.1061Z" fill="#455A64"/>
<path d="M58.0313 24.6776C58.0398 24.6184 58.7831 24.7578 59.9742 24.648C61.1568 24.5466 62.804 24.12 64.2908 23.0641C65.7733 22.004 66.7151 20.5848 67.1966 19.4994C67.6908 18.4097 67.8006 17.6579 67.8597 17.6705C67.8766 17.6747 67.8682 17.8606 67.8091 18.1985C67.7499 18.5364 67.6274 19.0179 67.3994 19.5838C66.9601 20.72 66.014 22.2152 64.4724 23.3133C62.9308 24.4115 61.2075 24.8169 59.9911 24.8634C59.3787 24.8887 58.8845 24.8507 58.5466 24.7958C58.2087 24.7494 58.0271 24.6987 58.0313 24.6776Z" fill="#455A64"/>
<path d="M74.7063 33.4969C74.6217 33.518 74.537 33.4588 74.5116 33.3656C74.4905 33.2725 74.5413 33.1837 74.6259 33.1625C74.7106 33.1413 74.7952 33.2006 74.8206 33.2937C74.8418 33.3868 74.791 33.4799 74.7063 33.4969Z" fill="#EB996E"/>
<path d="M77.4002 32.7884C77.3155 32.8095 77.2267 32.7376 77.2013 32.6318C77.1759 32.526 77.2224 32.4244 77.3071 32.4032C77.3917 32.3821 77.4806 32.454 77.506 32.5598C77.5314 32.6656 77.4848 32.7672 77.4002 32.7884Z" fill="#EB996E"/>
<path d="M79.2206 32.677C79.1361 32.6897 79.0474 32.5883 79.0263 32.449C79.0052 32.3096 79.0558 32.1829 79.1403 32.1702C79.2248 32.1575 79.3135 32.2589 79.3346 32.3983C79.3599 32.5377 79.305 32.6601 79.2206 32.677Z" fill="#EB996E"/>
<path d="M76.1061 35.1574C76.0173 35.1616 75.9453 35.1193 75.9453 35.0642C75.9453 35.0092 76.013 34.9627 76.0977 34.9584C76.1866 34.9542 76.2585 34.9965 76.2585 35.0515C76.2585 35.1108 76.1908 35.1574 76.1061 35.1574Z" fill="#EB996E"/>
<path d="M78.5847 34.4918C78.5001 34.5045 78.4197 34.4325 78.407 34.3352C78.3943 34.2378 78.4535 34.149 78.5424 34.1405C78.6271 34.132 78.7075 34.1998 78.7202 34.2971C78.7286 34.3902 78.6694 34.4791 78.5847 34.4918Z" fill="#EB996E"/>
<path d="M91.4993 32.4874C91.4146 32.5086 91.3258 32.4451 91.3046 32.352C91.2834 32.2547 91.3342 32.1615 91.4189 32.1446C91.5035 32.1235 91.5924 32.1869 91.6136 32.2801C91.6347 32.3732 91.5839 32.4663 91.4993 32.4874Z" fill="#EB996E"/>
<path d="M93.3781 32.2537C93.2935 32.2664 93.2088 32.186 93.1962 32.076C93.1835 31.9659 93.2385 31.8686 93.3274 31.8601C93.412 31.8474 93.4966 31.9279 93.5093 32.0379C93.522 32.1479 93.4628 32.2453 93.3781 32.2537Z" fill="#EB996E"/>
<path d="M89.8729 32.5907C89.7882 32.6119 89.7036 32.5653 89.6867 32.4934C89.6697 32.4172 89.7247 32.341 89.8094 32.3241C89.894 32.3029 89.9787 32.3495 89.9956 32.4214C90.0126 32.4976 89.9575 32.5738 89.8729 32.5907Z" fill="#EB996E"/>
<path d="M91.3292 34.397C91.253 34.4351 91.1514 34.3928 91.1091 34.3039C91.0668 34.215 91.0922 34.1092 91.1726 34.0711C91.2488 34.033 91.3504 34.0753 91.3927 34.1685C91.435 34.2531 91.4054 34.3589 91.3292 34.397Z" fill="#EB996E"/>
<path d="M92.9197 34.023C92.8351 34.0018 92.7801 33.9298 92.797 33.8579C92.8139 33.7859 92.8944 33.7436 92.979 33.7648C93.0636 33.7859 93.1187 33.8579 93.1017 33.9298C93.0848 34.0018 93.0044 34.0441 92.9197 34.023Z" fill="#EB996E"/>
<path d="M89.7388 139.28L89.6375 129.891C89.6375 129.891 83.3738 121.211 85.8446 111.797C85.8446 111.797 89.9289 108.925 100.881 110.61C100.881 110.61 114.629 97.2168 133.057 100.621C151.484 104.025 153.199 120.084 153.372 124.455C153.545 128.827 153.507 137.316 147.168 145.616L146.741 153.852C146.741 153.852 145.229 156.956 140.858 156.745C136.482 156.534 136.731 155.887 136.731 155.887C136.731 155.887 131.249 160.318 131.004 161.48C130.759 162.641 129.906 167.021 129.906 167.021C129.906 167.021 128.005 169.614 123.891 169.914C121.948 170.058 120.348 169.538 119.195 168.951C118.088 168.385 117.243 167.41 116.867 166.223C116.348 164.576 115.009 161.796 111.698 160.272L108.859 159.528C108.859 159.528 107.715 160.567 103.732 160.998C99.7489 161.425 99.7362 160.01 99.7362 160.01C99.7362 160.01 93.5401 161.442 88.8814 155.368C85.2026 150.566 83.2091 141.924 89.7388 139.28Z" fill="#4DAAA7"/>
<path d="M127.952 139.82C127.948 139.816 128.016 139.714 128.155 139.533C128.295 139.347 128.502 139.076 128.759 138.722C129.279 138.016 130.009 136.973 130.808 135.626C131.602 134.278 132.468 132.618 133.232 130.692C133.616 129.729 133.975 128.703 134.292 127.626C134.601 126.557 134.875 125.383 134.596 124.243C134.313 123.098 133.473 122.216 132.569 121.578C131.652 120.936 130.66 120.48 129.705 120.091C127.788 119.322 125.942 118.955 124.384 118.811C122.825 118.659 121.554 118.731 120.684 118.811C120.249 118.854 119.911 118.896 119.683 118.93C119.455 118.959 119.332 118.972 119.332 118.963C119.332 118.955 119.45 118.93 119.678 118.883C119.906 118.832 120.24 118.778 120.679 118.723C121.554 118.617 122.829 118.52 124.405 118.651C125.976 118.778 127.843 119.128 129.786 119.897C130.753 120.285 131.758 120.742 132.7 121.396C133.625 122.042 134.516 122.967 134.816 124.184C135.112 125.4 134.82 126.604 134.508 127.681C134.182 128.766 133.819 129.797 133.426 130.764C132.645 132.694 131.766 134.359 130.947 135.702C130.123 137.045 129.372 138.075 128.831 138.768C128.561 139.114 128.341 139.376 128.193 139.554C128.041 139.735 127.957 139.828 127.952 139.82Z" fill="#263238"/>
<path d="M102.174 111.015C102.178 111.015 102.208 111.087 102.238 111.235C102.267 111.383 102.293 111.602 102.267 111.89C102.221 112.456 101.925 113.279 101.215 114.022C100.523 114.783 99.4753 115.404 98.4574 116.24C97.4269 117.072 96.3625 118.069 95.37 119.234C93.3722 121.553 92.0544 124.028 91.3068 125.882C90.9309 126.812 90.6775 127.585 90.5128 128.121C90.4367 128.37 90.3776 128.577 90.3269 128.742C90.2805 128.881 90.2551 128.957 90.2467 128.953C90.2382 128.953 90.2509 128.873 90.2847 128.729C90.3227 128.56 90.3734 128.353 90.4325 128.096C90.5719 127.551 90.8042 126.765 91.1674 125.823C91.8854 123.944 93.1906 121.431 95.2095 119.087C96.2105 117.912 97.2917 116.907 98.3392 116.079C99.3824 115.243 100.43 114.639 101.114 113.913C101.815 113.207 102.124 112.422 102.195 111.877C102.259 111.324 102.149 111.019 102.174 111.015Z" fill="#263238"/>
<g opacity="0.5">
<path opacity="0.5" d="M109.544 112.169L115.149 113.601C115.149 113.601 123.355 104.377 132.369 102.045L128.994 101.247C128.998 101.247 118.11 103.156 109.544 112.169Z" fill="black"/>
</g>
<path d="M130.544 101.602C123.22 103.236 116.416 107.122 111.284 112.596L109.544 112.165C109.544 112.165 117.493 103.439 128.994 101.243L130.544 101.602Z" fill="#4DAAA7"/>
<g opacity="0.7">
<g opacity="0.7">
<path opacity="0.7" d="M130.529 101.602C123.205 103.237 116.401 107.123 111.269 112.597L109.529 112.166C109.529 112.166 117.478 103.44 128.979 101.243L130.529 101.602Z" fill="black"/>
</g>
</g>
<path d="M87.0352 141.199C90.1438 136.756 97.9279 138.112 101.48 142.111C104.981 146.052 106.612 151.606 104.297 156.345C103.309 158.368 101.417 160.155 99.1655 160.104C101.476 157.616 102.295 154.026 101.573 150.706C100.851 147.391 98.76 144.464 96.116 142.335C94.7771 141.254 93.2693 140.067 91.5545 139.898C89.8439 139.725 88.467 139.674 87.0352 141.199Z" fill="#4DAAA7"/>
<g opacity="0.3">
<g opacity="0.3">
<path opacity="0.3" d="M87.0371 141.199C90.1457 136.756 97.9299 138.112 101.482 142.112C104.983 146.052 106.614 151.606 104.299 156.345C103.311 158.368 101.419 160.155 99.1674 160.104C101.478 157.617 102.297 154.027 101.575 150.707C100.853 147.391 98.762 144.464 96.1179 142.335C94.7791 141.254 93.2712 140.067 91.5564 139.898C89.8458 139.725 88.4689 139.675 87.0371 141.199Z" fill="black"/>
</g>
</g>
<g opacity="0.3">
<g opacity="0.3">
<path opacity="0.3" d="M128.251 139.563C128.197 140.505 129.054 141.337 129.987 141.446C130.921 141.556 131.854 141.062 132.475 140.357C133.096 139.651 133.459 138.752 133.742 137.856C134.714 134.815 135.216 130.271 134.705 127.116C133.362 131.2 130.963 136.294 128.18 139.571" fill="black"/>
</g>
</g>
<g opacity="0.3">
<g opacity="0.3">
<path opacity="0.3" d="M131.202 125.518C130.598 123.731 128.748 122.692 126.966 122.071C125.154 121.438 123.249 121.066 121.336 120.965C120.732 120.931 120.111 120.931 119.541 121.142C118.975 121.353 118.464 121.814 118.362 122.409C118.278 122.891 118.54 123.423 118.962 123.634C122.016 127.161 124.314 131.338 125.665 135.807C125.927 136.673 127.025 136.909 127.625 136.225C129.061 134.586 129.889 132.377 130.632 130.282C131.177 128.745 131.726 127.064 131.202 125.518Z" fill="black"/>
</g>
</g>
<g opacity="0.3">
<g opacity="0.3">
<path opacity="0.3" d="M90.8319 126.34C88.9186 123.38 87.9133 119.84 87.9894 116.313C88.0063 115.566 88.095 114.759 88.6187 114.223C89.248 113.577 90.2701 113.564 91.1698 113.623C93.6533 113.779 96.1283 114.126 98.5569 114.662C98.747 114.704 98.9624 114.768 99.0384 114.949C99.1525 115.22 99.1229 115.646 98.8737 115.798C95.0935 118.117 92.4115 122.383 90.9839 126.556" fill="black"/>
</g>
</g>
<path d="M86.1121 112.136C86.129 112.136 86.1163 112.364 86.0826 112.774C86.0445 113.183 86.0108 113.775 85.9854 114.505C85.9347 115.967 85.9812 117.994 86.3571 120.194C86.5514 121.293 86.809 122.323 87.0878 123.248C87.375 124.169 87.6749 124.988 87.9621 125.66C88.2493 126.331 88.4943 126.872 88.6801 127.235C88.8617 127.603 88.9546 127.81 88.942 127.818C88.9293 127.827 88.811 127.632 88.6041 127.278C88.3929 126.923 88.1226 126.391 87.8185 125.723C87.5101 125.056 87.1934 124.236 86.8935 123.307C86.6021 122.378 86.336 121.339 86.1417 120.228C85.7616 118.011 85.7404 115.962 85.8334 114.493C85.8798 113.758 85.9389 113.166 86.0023 112.761C86.0614 112.355 86.0994 112.132 86.1121 112.136Z" fill="#FAFAFA"/>
<path d="M128.68 100.939C128.68 100.948 128.609 100.973 128.461 101.019C128.292 101.07 128.081 101.129 127.827 101.205C127.548 101.281 127.215 101.374 126.826 101.501C126.438 101.623 125.99 101.75 125.508 101.923C124.537 102.244 123.397 102.679 122.151 103.211C120.909 103.756 119.57 104.403 118.202 105.163C116.842 105.931 115.587 106.738 114.476 107.511C113.374 108.297 112.407 109.044 111.625 109.703C111.224 110.024 110.886 110.337 110.578 110.607C110.27 110.873 110.012 111.11 109.801 111.308C109.602 111.486 109.442 111.633 109.311 111.752C109.197 111.853 109.133 111.904 109.129 111.895C109.125 111.887 109.176 111.828 109.281 111.718C109.404 111.591 109.556 111.435 109.742 111.241C109.94 111.034 110.189 110.784 110.493 110.51C110.793 110.235 111.127 109.91 111.524 109.581C112.297 108.901 113.256 108.14 114.358 107.342C115.469 106.557 116.723 105.737 118.092 104.964C119.464 104.2 120.816 103.554 122.066 103.017C123.321 102.493 124.474 102.071 125.458 101.767C125.943 101.602 126.395 101.484 126.788 101.374C127.181 101.26 127.523 101.176 127.802 101.112C128.064 101.053 128.275 101.007 128.448 100.969C128.6 100.948 128.68 100.935 128.68 100.939Z" fill="#FAFAFA"/>
<path d="M133.576 123.262C133.542 123.3 132.905 122.65 131.68 121.869C131.076 121.467 130.303 121.075 129.424 120.69C128.542 120.314 127.532 119.998 126.455 119.753C124.293 119.267 122.261 119.275 120.821 119.415C119.376 119.563 118.502 119.803 118.489 119.757C118.485 119.744 118.701 119.677 119.098 119.575C119.49 119.465 120.077 119.356 120.8 119.258C122.248 119.077 124.305 119.043 126.497 119.537C127.591 119.786 128.609 120.112 129.5 120.504C130.383 120.901 131.16 121.315 131.76 121.738C131.912 121.839 132.056 121.94 132.191 122.033C132.318 122.135 132.44 122.232 132.558 122.325C132.791 122.502 132.981 122.663 133.124 122.811C133.428 123.089 133.589 123.25 133.576 123.262Z" fill="#FAFAFA"/>
<path d="M95.799 159.42C95.7948 159.428 95.7272 159.407 95.5962 159.365C95.4695 159.318 95.271 159.263 95.0345 159.162C94.5488 158.976 93.8646 158.659 93.0621 158.182C91.4655 157.24 89.4297 155.53 87.9895 153.055C86.545 150.58 86.0508 147.965 86.017 146.115C85.9959 145.186 86.055 144.43 86.1311 143.919C86.1606 143.661 86.2071 143.463 86.2324 143.328C86.2578 143.192 86.2789 143.125 86.2831 143.125C86.3 143.129 86.262 143.412 86.2155 143.927C86.1691 144.443 86.1311 145.19 86.1733 146.111C86.2493 147.944 86.7562 150.512 88.1795 152.945C89.6029 155.378 91.588 157.084 93.1465 158.051C93.9279 158.541 94.5995 158.875 95.0683 159.086C95.5413 159.293 95.8074 159.398 95.799 159.42Z" fill="#FAFAFA"/>
<g opacity="0.2">
<g opacity="0.2">
<path opacity="0.2" d="M96.9122 149.657C96.266 149.412 95.4888 149.64 95.02 150.147C94.5512 150.654 94.3738 151.398 94.4836 152.078C94.5934 152.762 94.8004 153.349 95.2903 153.835C95.6282 154.168 96.2153 154.485 96.6841 154.515C97.3346 154.557 97.9343 154.088 98.2511 153.514C98.6228 152.842 98.6904 152.006 98.4285 151.288C98.1666 150.565 97.6345 149.928 96.9122 149.657Z" fill="black"/>
</g>
</g>
<path d="M96.2626 149.578C95.6544 150.309 95.4559 151.356 95.7558 152.26C96.0557 153.16 96.8413 153.886 97.762 154.106C97.4495 154.41 96.8159 154.621 96.3386 154.482C95.0716 154.118 94.2564 152.788 94.3535 151.474C94.3915 150.946 94.5901 150.418 94.966 150.047C95.3419 149.679 96.0557 149.536 96.2626 149.578Z" fill="#4DAAA7"/>
<g opacity="0.4">
<g opacity="0.4">
<path opacity="0.4" d="M96.2636 149.579C95.6554 150.31 95.4569 151.357 95.7568 152.261C96.0566 153.161 96.8422 153.887 97.763 154.107C97.4504 154.411 96.8169 154.622 96.3396 154.483C95.0725 154.119 94.2574 152.789 94.3545 151.475C94.3925 150.947 94.591 150.42 94.9669 150.048C95.3428 149.68 96.0566 149.537 96.2636 149.579Z" fill="black"/>
</g>
</g>
<g opacity="0.2">
<g opacity="0.2">
<path opacity="0.2" d="M90.6946 147.258C90.0695 147.022 89.3219 147.242 88.8699 147.732C88.4138 148.221 88.2448 148.935 88.3546 149.594C88.4602 150.253 88.6587 150.823 89.1318 151.292C89.457 151.613 90.023 151.921 90.4791 151.947C91.1085 151.985 91.6829 151.533 91.9912 150.984C92.3502 150.338 92.4136 149.531 92.1602 148.834C91.9025 148.133 91.3872 147.52 90.6946 147.258Z" fill="black"/>
</g>
</g>
<path d="M90.0589 147.182C89.4718 147.888 89.2818 148.897 89.569 149.767C89.8562 150.637 90.6164 151.334 91.5034 151.549C91.2035 151.841 90.5911 152.044 90.1307 151.913C88.9101 151.562 88.1245 150.278 88.2174 149.011C88.2554 148.504 88.4455 147.993 88.8087 147.634C89.1719 147.279 89.8604 147.14 90.0589 147.182Z" fill="#4DAAA7"/>
<g opacity="0.4">
<g opacity="0.4">
<path opacity="0.4" d="M90.0589 147.182C89.4718 147.887 89.2818 148.897 89.569 149.767C89.8562 150.637 90.6164 151.334 91.5034 151.549C91.2035 151.841 90.5911 152.043 90.1307 151.913C88.9101 151.562 88.1245 150.278 88.2174 149.011C88.2554 148.504 88.4455 147.993 88.8087 147.634C89.1719 147.279 89.8604 147.14 90.0589 147.182Z" fill="black"/>
</g>
</g>
<path d="M107.493 135.369C107.525 135.364 107.46 135.373 107.493 135.369V135.369Z" fill="white"/>
<path d="M106.721 135.61C106.738 135.597 106.763 135.593 106.78 135.58C106.788 135.576 106.797 135.568 106.81 135.563L106.721 135.61Z" fill="white"/>
<path d="M109.916 136.952C109.697 136.42 109.338 135.917 108.822 135.663C108.489 135.503 108.007 135.342 107.53 135.364L107.492 135.368C107.26 135.385 107.002 135.457 106.782 135.583C105.849 136.031 105.169 137.011 105.089 138.054C104.992 139.38 105.828 140.702 107.032 141.26C107.437 141.446 107.893 141.555 108.328 141.458C108.768 141.357 109.135 141.049 109.414 140.694C110.242 139.659 110.419 138.172 109.916 136.952Z" fill="white"/>
<path d="M94.3446 131.314C94.3689 131.306 94.3162 131.314 94.3446 131.314V131.314Z" fill="white"/>
<path d="M93.6816 131.523C93.6984 131.511 93.7193 131.511 93.7319 131.498C93.7403 131.494 93.7486 131.49 93.757 131.485L93.6816 131.523Z" fill="white"/>
<path d="M96.4476 132.685C96.2575 132.224 95.9492 131.789 95.5015 131.57C95.2143 131.43 94.7961 131.291 94.3822 131.308L94.3484 131.312C94.1457 131.325 93.9218 131.388 93.736 131.498C92.9293 131.886 92.338 132.731 92.2704 133.639C92.1859 134.788 92.9081 135.933 93.9556 136.418C94.3062 136.579 94.7032 136.676 95.0791 136.587C95.4592 136.499 95.776 136.233 96.021 135.924C96.7263 135.033 96.8784 133.741 96.4476 132.685Z" fill="white"/>
<path d="M97.2989 139.733C97.2989 139.725 97.3918 139.746 97.5607 139.788C97.7339 139.826 97.9789 139.906 98.2956 140.012C98.925 140.24 99.8119 140.65 100.779 141.359C101.742 142.069 102.777 143.091 103.617 144.443C104.462 145.79 105.091 147.45 105.383 149.257C105.666 151.069 105.619 152.831 105.324 154.393C105.032 155.952 104.395 157.299 103.571 158.186C102.752 159.082 101.839 159.525 101.197 159.707C100.547 159.893 100.171 159.846 100.171 159.846C100.167 159.817 100.547 159.829 101.172 159.622C101.793 159.424 102.671 158.968 103.453 158.081C104.238 157.202 104.847 155.889 105.121 154.351C105.4 152.818 105.442 151.069 105.163 149.291C104.876 147.509 104.264 145.874 103.44 144.548C102.625 143.213 101.62 142.196 100.678 141.482C99.7359 140.764 98.8701 140.337 98.2576 140.088C97.6494 139.847 97.2946 139.754 97.2989 139.733Z" fill="#263238"/>
<path d="M93.2494 134.736C93.2283 134.752 93.1185 134.66 93.0045 134.461C92.8904 134.263 92.7891 133.954 92.7891 133.604C92.7891 133.253 92.8862 132.941 93.0002 132.746C93.1101 132.548 93.2199 132.455 93.241 132.472C93.2959 132.505 93.0002 132.966 93.0087 133.608C93.0045 134.241 93.3043 134.702 93.2494 134.736Z" fill="#FAFAFA"/>
<path d="M105.952 139.403C105.931 139.415 105.826 139.306 105.733 139.082C105.64 138.858 105.581 138.516 105.64 138.148C105.703 137.781 105.868 137.477 106.029 137.295C106.189 137.113 106.324 137.042 106.341 137.063C106.388 137.109 105.957 137.51 105.855 138.182C105.737 138.858 106.012 139.373 105.952 139.403Z" fill="#FAFAFA"/>
<path d="M113.974 161.726C113.953 161.76 113.442 161.405 112.547 160.957C111.656 160.505 110.372 159.994 108.914 159.521C107.461 159.048 106.131 158.643 105.185 158.305C104.712 158.136 104.332 157.992 104.07 157.882C103.812 157.772 103.669 157.705 103.677 157.692C103.69 157.663 104.277 157.865 105.236 158.161C106.194 158.461 107.525 158.837 108.986 159.314C110.448 159.791 111.74 160.328 112.619 160.822C112.842 160.94 113.037 161.058 113.206 161.168C113.379 161.274 113.522 161.367 113.632 161.455C113.86 161.616 113.983 161.713 113.974 161.726Z" fill="#263238"/>
<path d="M143.952 148.122C143.964 148.13 143.825 148.342 143.567 148.717C143.31 149.093 142.913 149.621 142.397 150.255C141.371 151.526 139.821 153.169 137.98 154.842C136.138 156.514 134.419 157.963 133.203 159.044C132.615 159.568 132.134 159.999 131.767 160.328C131.429 160.632 131.234 160.797 131.226 160.784C131.217 160.772 131.386 160.59 131.707 160.265C132.028 159.94 132.501 159.484 133.101 158.93C134.292 157.819 135.999 156.35 137.836 154.681C139.673 153.013 141.232 151.395 142.283 150.158C142.807 149.537 143.225 149.03 143.504 148.667C143.779 148.304 143.939 148.113 143.952 148.122Z" fill="#263238"/>
<g opacity="0.2">
<g opacity="0.2">
<path opacity="0.2" d="M136.771 155.942C139.048 156.127 141.624 155.431 143.238 153.817C144.856 152.204 145.413 149.505 144.442 147.439C143.115 149.332 141.62 151.342 139.796 152.888C138.647 153.859 137.887 155.046 136.771 155.942Z" fill="black"/>
</g>
</g>
<g opacity="0.5">
<g opacity="0.5">
<path opacity="0.5" d="M128.669 102.817C131.609 107.172 137.686 108.544 140.618 112.903C141.754 114.588 142.311 116.586 142.856 118.546C145.112 126.672 147.367 134.803 149.622 142.929C149.901 137.645 148.63 132.416 147.363 127.276C146.113 122.204 144.867 117.127 143.616 112.054C143.342 110.939 143.055 109.795 142.4 108.848C141.733 107.89 140.74 107.218 139.773 106.568C136.301 104.236 132.728 101.863 128.656 100.933" fill="black"/>
</g>
</g>
<g opacity="0.3">
<g opacity="0.3">
<path opacity="0.3" d="M107.954 115.992C108.14 116.584 107.333 117.39 106.066 118.392C105.428 118.89 104.685 119.46 103.866 120.073C103.055 120.698 102.172 121.373 101.264 122.108C100.36 122.852 99.5194 123.574 98.7423 124.241C97.9736 124.917 97.264 125.534 96.6473 126.053C95.4098 127.088 94.4553 127.717 93.9146 127.413C93.3951 127.126 93.4078 125.91 94.13 124.224C94.4848 123.384 95.0381 122.446 95.7646 121.487C96.4995 120.537 97.416 119.57 98.4888 118.691C99.5701 117.817 100.702 117.12 101.779 116.596C102.865 116.081 103.895 115.731 104.791 115.553C106.586 115.19 107.781 115.427 107.954 115.992Z" fill="white"/>
</g>
</g>
<path d="M96.6515 149.327C96.6515 149.39 96.2123 149.428 95.6928 149.555C95.1733 149.677 94.7636 149.838 94.734 149.779C94.7044 149.728 95.093 149.47 95.6421 149.339C96.1954 149.208 96.6558 149.268 96.6515 149.327Z" fill="#FAFAFA"/>
<path d="M90.2545 146.996C90.246 147.06 89.8405 147.034 89.3633 147.149C88.886 147.254 88.5312 147.453 88.4932 147.402C88.4552 147.36 88.7846 147.056 89.3126 146.933C89.8363 146.811 90.2671 146.942 90.2545 146.996Z" fill="#FAFAFA"/>
<path d="M118.689 166.634C118.635 166.664 118.073 165.718 117.291 164.607C116.514 163.496 115.813 162.647 115.86 162.605C115.902 162.567 116.683 163.361 117.473 164.48C118.263 165.604 118.74 166.609 118.689 166.634Z" fill="#FAFAFA"/>
<path d="M93.5259 122.311C93.5808 122.349 92.7487 123.565 92.0265 125.225C91.2916 126.876 90.9579 128.312 90.8903 128.296C90.865 128.291 90.9115 127.924 91.0593 127.341C91.2029 126.762 91.4563 125.973 91.8238 125.132C92.1912 124.296 92.6051 123.574 92.9346 123.075C93.264 122.577 93.5048 122.294 93.5259 122.311Z" fill="#FAFAFA"/>
<path d="M113.996 114.135C113.983 114.189 112.902 113.999 111.626 113.552C110.351 113.108 109.383 112.58 109.409 112.53C109.438 112.47 110.435 112.905 111.698 113.345C112.961 113.788 114.008 114.071 113.996 114.135Z" fill="#FAFAFA"/>
<path d="M146.936 107.285C146.978 107.31 146.306 108.231 145.14 108.974C143.979 109.726 142.864 109.958 142.86 109.907C142.839 109.844 143.899 109.532 145.026 108.797C146.163 108.074 146.889 107.238 146.936 107.285Z" fill="#EB996E"/>
<path d="M159.298 104.462C157.03 99.2248 134.328 80.6323 134.328 80.6323L121.534 97.2481C121.716 96.9989 142.412 109.602 142.412 109.602L148.519 137.423L149.567 142.378C149.567 142.378 146.821 144.773 146.935 147.303C147.011 148.988 143.117 152.629 143.117 152.629C142.196 151.864 141.605 151.649 141.14 151.737L137.022 155.594L138.002 156.489C139.096 157.486 140.532 158.018 142.01 157.971L149.051 157.756C150.056 157.727 151.007 157.308 151.708 156.586C153.875 154.356 158.44 149.381 158.533 146.977C158.584 145.634 158.597 144.354 158.592 143.324C158.588 143.328 161.566 109.699 159.298 104.462Z" fill="#FFBE9D"/>
<path d="M152.553 148.963C152.561 148.975 152.426 149.073 152.164 149.212C151.902 149.356 151.505 149.524 151.045 149.778C150.58 150.023 150.12 150.437 149.664 150.969C149.212 151.497 148.675 152.092 147.983 152.54C146.606 153.465 145.06 153.71 143.996 153.638C143.729 153.621 143.48 153.609 143.273 153.516C143.062 153.436 142.923 153.233 142.935 153.068C142.931 152.903 143.011 152.785 143.083 152.743C143.159 152.696 143.206 152.709 143.206 152.713C143.21 152.722 143.163 152.73 143.113 152.777C143.062 152.823 143.007 152.929 143.024 153.064C143.028 153.203 143.138 153.338 143.328 153.406C143.51 153.478 143.751 153.482 144.012 153.49C145.051 153.524 146.542 153.262 147.877 152.367C148.553 151.932 149.064 151.37 149.528 150.842C149.993 150.314 150.496 149.883 150.986 149.651C151.467 149.41 151.868 149.263 152.139 149.144C152.401 149.022 152.548 148.946 152.553 148.963Z" fill="#EB996E"/>
<path d="M149.346 152.626C149.376 152.681 148.793 153.023 148.168 153.555C147.538 154.083 147.103 154.598 147.053 154.56C147.006 154.531 147.378 153.939 148.028 153.39C148.683 152.845 149.325 152.579 149.346 152.626Z" fill="#EB996E"/>
<path d="M152.198 141.101C152.202 141.164 151.577 141.202 150.897 141.527C150.213 141.844 149.787 142.3 149.74 142.258C149.694 142.228 150.078 141.675 150.809 141.337C151.535 140.986 152.202 141.046 152.198 141.101Z" fill="#EB996E"/>
<path d="M147.788 154.799C147.772 154.833 147.332 154.617 146.576 154.436C145.825 154.254 144.739 154.144 143.578 154.377C143.29 154.44 143.012 154.508 142.75 154.601C142.619 154.639 142.488 154.698 142.336 154.723C142.188 154.757 141.998 154.715 141.884 154.626C141.478 154.33 141.102 154.056 140.765 153.811C140.135 153.342 139.755 153.042 139.772 153.017C139.789 152.991 140.203 153.249 140.858 153.684C141.2 153.916 141.584 154.174 141.994 154.453C142.175 154.592 142.403 154.491 142.682 154.389C142.952 154.292 143.24 154.22 143.54 154.153C144.739 153.912 145.863 154.051 146.619 154.28C147.003 154.385 147.294 154.52 147.497 154.613C147.691 154.719 147.793 154.782 147.788 154.799Z" fill="#EB996E"/>
<path d="M100.026 90.259C97.3188 89.4861 96.1193 89.1482 96.1193 89.1482L96.1277 87.9191C96.1277 87.9191 96.1277 87.9191 97.2048 87.9064C98.2818 87.8938 99.8403 86.5633 99.8403 86.5633L102.151 83.0239L102.446 80.76C102.197 77.9597 98.8266 79.0579 98.8266 79.0579C98.6661 78.0822 94.3538 77.1023 91.11 76.4984C88.9095 76.0887 86.6414 76.6842 84.9266 78.1287L81.8138 80.7558L72.4838 88.9243L48.4048 109.261L32.5788 104.59C32.5788 104.59 27.5484 119.989 26.7248 125.518C25.1494 136.115 39.7125 143.177 46.1367 137.724C51.129 133.484 80.2468 102.132 85.0702 96.9281C85.0829 96.9281 85.0998 96.9281 85.1125 96.9281C88.0817 96.548 93.0867 93.5535 93.0867 93.5535L95.6589 93.8576C95.6589 93.8576 102.493 95.1627 103.304 93.8238C103.933 92.7636 102.734 91.0319 100.026 90.259Z" fill="#FFBE9D"/>
<path d="M86.0214 87.1761C86.0341 87.1719 86.089 87.2775 86.1735 87.4717C86.2622 87.666 86.3593 87.9617 86.4522 88.3376C86.6381 89.081 86.7437 90.158 86.5621 91.3237C86.3762 92.4894 85.9412 93.482 85.5315 94.1282C85.3287 94.4534 85.1429 94.7069 84.9993 94.8631C84.8599 95.0236 84.7755 95.1081 84.7628 95.0997C84.7332 95.0743 85.0289 94.7111 85.3963 94.048C85.7638 93.3933 86.1608 92.4176 86.3424 91.2857C86.5198 90.1538 86.4438 89.1021 86.296 88.3672C86.1566 87.6322 85.9876 87.1888 86.0214 87.1761Z" fill="#EB996E"/>
<path d="M87.749 78.5549C87.749 78.5465 87.8377 78.5296 88.0151 78.5043C88.1883 78.4789 88.4459 78.4451 88.7796 78.4156C89.4427 78.3607 90.4184 78.2762 91.6137 78.4494C92.2092 78.5423 92.8554 78.707 93.5016 79.0111C94.1436 79.3152 94.7898 79.7587 95.3009 80.388C95.8077 81.0131 96.1794 81.8367 96.1667 82.7321C96.1625 83.1756 96.0443 83.6318 95.8331 84.0372C95.6219 84.4469 95.3305 84.8102 95.0052 85.1354C94.359 85.7732 93.6495 86.2969 92.9357 86.7615C92.5724 86.9811 92.2303 87.2176 91.8248 87.3697C91.6263 87.4415 91.4151 87.4922 91.1913 87.4753C90.9717 87.4668 90.7478 87.357 90.6084 87.1796C90.4648 87.0022 90.4226 86.7784 90.4268 86.5756C90.431 86.3729 90.4733 86.1786 90.5324 85.997C90.6591 85.638 90.8281 85.3128 91.0266 85.0213C91.4278 84.4343 91.9473 83.9992 92.4795 83.7162L92.5048 83.8641C91.3096 83.636 90.3297 83.4501 89.6243 83.315C89.3033 83.2474 89.0457 83.1967 88.8429 83.1545C88.6656 83.1165 88.5726 83.0911 88.5726 83.0827C88.5726 83.0742 88.6698 83.0827 88.8514 83.108C89.0541 83.1376 89.316 83.1798 89.6412 83.2263C90.3508 83.3446 91.3349 83.5051 92.5344 83.7036L92.7583 83.7416L92.5598 83.8514C92.0529 84.1344 91.563 84.5567 91.1828 85.1185C90.9928 85.3972 90.8365 85.714 90.7182 86.0519C90.6127 86.3771 90.562 86.7826 90.7689 87.0487C90.9801 87.3232 91.3982 87.3063 91.7573 87.167C92.1205 87.0318 92.4668 86.7953 92.8216 86.5756C93.5227 86.1195 94.2239 85.5958 94.849 84.9749C95.4825 84.3498 95.9513 83.56 95.9513 82.7195C95.9682 81.8874 95.6219 81.106 95.1446 80.5063C94.6631 79.9023 94.0465 79.4672 93.4256 79.1674C92.8047 78.8633 92.1754 78.6943 91.5925 78.593C90.4226 78.4029 89.4511 78.462 88.788 78.4916C88.4755 78.5127 88.2178 78.5254 88.0193 78.538C87.8419 78.5592 87.749 78.5634 87.749 78.5549Z" fill="#EB996E"/>
<path d="M98.8664 79.1953C98.879 79.1953 98.9128 79.3558 98.9424 79.6515C98.972 79.9472 99.0015 80.3737 98.9931 80.9059C98.972 81.9576 98.7946 83.4823 97.9414 84.9015C97.1009 86.3164 95.7747 87.2287 94.6807 87.3681C94.1232 87.4357 93.684 87.1907 93.4897 86.9584C93.3883 86.8444 93.3334 86.7346 93.3123 86.6585C93.2869 86.5825 93.2869 86.5403 93.2912 86.5403C93.3123 86.5318 93.3461 86.7008 93.553 86.9035C93.7515 87.102 94.157 87.2963 94.6638 87.2203C95.6691 87.0513 96.9488 86.1559 97.7556 84.7917C98.5792 83.4232 98.7819 81.9407 98.841 80.9017C98.8875 79.8542 98.8284 79.1996 98.8664 79.1953Z" fill="#EB996E"/>
<path d="M92.9082 91.2559C92.8829 91.2305 93.1025 91.0363 93.3644 90.6604C93.6263 90.2887 93.9092 89.7058 93.9768 89.0174C94.0444 88.3289 93.8755 87.6996 93.6938 87.2857C93.5122 86.8633 93.3348 86.6352 93.3602 86.6141C93.3771 86.5972 93.6051 86.7957 93.8332 87.2181C94.0613 87.6362 94.2683 88.2993 94.1965 89.0385C94.1247 89.7776 93.7952 90.39 93.4911 90.7533C93.1828 91.125 92.9251 91.277 92.9082 91.2559Z" fill="#EB996E"/>
<path d="M88.784 83.2533C88.8094 83.2364 88.9783 83.587 88.9192 84.1783C88.8938 84.4655 88.8178 84.8203 88.6235 85.1624C88.4461 85.5003 88.2096 85.8593 87.9055 86.1845C87.2889 86.8476 86.5286 87.1771 86.0091 87.3967C85.4769 87.6121 85.139 87.7177 85.1263 87.6881C85.1137 87.6586 85.4304 87.5023 85.9415 87.2531C86.4441 86.9955 87.1621 86.6576 87.7408 86.0283C88.0322 85.7199 88.2603 85.382 88.4419 85.0568C88.632 84.7443 88.7122 84.4233 88.7587 84.1487C88.8558 83.6039 88.7502 83.2618 88.784 83.2533Z" fill="#EB996E"/>
<path d="M106.734 84.4993L94.8525 90.9784C94.8525 90.9784 101.209 92.5665 106.962 98.6528C112.178 104.173 114.193 110.154 114.193 110.154L126.031 102.277C126.027 102.281 119.671 87.8614 106.734 84.4993Z" fill="#20A23C"/>
<path d="M96.9613 90.7339C97.485 90.4341 100.725 88.5841 106.553 85.2516L106.579 85.2347L106.608 85.2432C108.171 85.6529 109.814 86.316 111.461 87.2452C113.1 88.1786 114.739 89.3739 116.301 90.8015C117.868 92.2249 119.368 93.8721 120.77 95.6967C122.168 97.5213 123.494 99.5064 124.626 101.677L124.673 101.762L124.592 101.817C124.394 101.948 124.183 102.091 123.972 102.235C120.77 104.376 117.678 106.437 114.84 108.338L114.734 108.41L114.684 108.292C113.269 104.832 111.419 101.851 109.421 99.4684C107.423 97.0821 105.299 95.2955 103.423 94.0073C101.54 92.7148 99.9009 91.9123 98.7606 91.4224C98.1861 91.1774 97.7384 91.0127 97.4301 90.9029C97.2823 90.8522 97.1682 90.8142 97.0795 90.7846C96.9909 90.7466 96.9571 90.7339 96.9613 90.7339C96.9951 90.7424 97.0289 90.7466 97.0838 90.7593C97.1725 90.7846 97.2907 90.8184 97.4386 90.8606C97.7469 90.9578 98.203 91.1141 98.7817 91.3464C99.9347 91.8152 101.59 92.605 103.491 93.889C105.387 95.1688 107.533 96.9511 109.552 99.3417C111.571 101.728 113.442 104.727 114.874 108.203L114.717 108.156C117.556 106.256 120.643 104.19 123.845 102.045C124.056 101.901 124.271 101.762 124.466 101.627L124.428 101.766C123.308 99.6205 121.986 97.6354 120.601 95.8192C119.207 94.003 117.721 92.36 116.166 90.9451C114.616 89.5217 112.994 88.3349 111.372 87.3972C109.742 86.4723 108.116 85.8049 106.57 85.391L106.629 85.3826C100.754 88.639 97.485 90.4425 96.9613 90.7339Z" fill="white"/>
<path d="M116.385 94.6363C116.077 96.4652 113.758 97.5718 111.211 97.1072C108.664 96.6426 106.848 94.7842 107.156 92.9553C107.465 91.1265 109.783 90.0199 112.33 90.4845C114.881 90.9491 116.697 92.8075 116.385 94.6363Z" fill="#FAFAFA"/>
<path d="M110.851 95.2274L110.442 95.6836L109.968 95.2232L110.365 94.784C109.998 94.37 109.728 93.8885 109.647 93.5L110.446 93.1536C110.539 93.5591 110.784 94.011 111.1 94.3236C111.426 94.6404 111.637 94.6657 111.759 94.5263C112.169 94.0702 110.298 92.8749 111.261 91.8147C111.666 91.3628 112.325 91.2868 113.039 91.8274L113.445 91.3755L113.918 91.8359L113.516 92.2793C113.787 92.5877 114.002 92.9509 114.099 93.2972L113.314 93.6647C113.183 93.2592 112.988 92.934 112.748 92.7017C112.418 92.3849 112.199 92.3849 112.068 92.5243C111.671 92.9636 113.533 94.1589 112.579 95.2148C112.194 95.6456 111.552 95.7301 110.851 95.2274Z" fill="#20A23C"/>
<path d="M99.6676 89.2077C99.6676 89.2077 101.682 90.2298 99.7479 91.725L96.7871 90.5761L99.6676 89.2077Z" fill="#FAFAFA"/>
<path d="M105.079 86.1688C105.079 86.1688 107.022 88.2215 108.876 86.0843L106.587 85.3199L105.079 86.1688Z" fill="#FAFAFA"/>
<path d="M113.539 105.55C113.539 105.55 116.153 103.43 117.682 106.289L114.76 108.244L113.539 105.55Z" fill="#FAFAFA"/>
<path d="M123.185 99.3955C123.185 99.3955 121.297 100.574 122.577 103.015L124.511 101.723L123.185 99.3955Z" fill="#FAFAFA"/>
<path d="M116.193 106.247C116.193 106.699 115.838 107.066 115.403 107.066C114.968 107.066 114.613 106.699 114.613 106.247C114.613 105.795 114.968 105.428 115.403 105.428C115.842 105.428 116.193 105.795 116.193 106.247Z" fill="#20A23C"/>
<path d="M124.123 101.204C124.123 101.656 123.768 102.024 123.333 102.024C122.898 102.024 122.543 101.656 122.543 101.204C122.543 100.752 122.898 100.385 123.333 100.385C123.768 100.385 124.123 100.752 124.123 101.204Z" fill="#20A23C"/>
<path d="M107.794 86.088C107.794 86.3794 107.389 86.616 106.89 86.616C106.392 86.616 105.986 86.3794 105.986 86.088C105.986 85.7966 106.392 85.5601 106.89 85.5601C107.389 85.5601 107.794 85.7966 107.794 86.088Z" fill="#20A23C"/>
<path d="M100.076 90.4682C100.076 90.8568 99.6836 91.1694 99.1979 91.1694C98.7121 91.1694 98.3193 90.8526 98.3193 90.4682C98.3193 90.0797 98.7121 89.7671 99.1979 89.7671C99.6836 89.7671 100.076 90.0839 100.076 90.4682Z" fill="#20A23C"/>
<path d="M107.37 90.0288C107.37 90.4765 106.812 90.8397 106.124 90.8397C105.435 90.8397 104.878 90.4765 104.878 90.0246C104.878 89.5769 105.435 89.2136 106.124 89.2136C106.812 89.2179 107.37 89.5811 107.37 90.0288Z" fill="#FAFAFA"/>
<path d="M117.368 100.883C116.807 101.137 116.114 100.782 115.818 100.089C115.527 99.3967 115.742 98.628 116.304 98.3704C116.866 98.117 117.558 98.4718 117.854 99.1644C118.145 99.8571 117.93 100.626 117.368 100.883Z" fill="#FAFAFA"/>
<path d="M99.8457 86.5612L104.72 91.693C104.72 91.693 106.671 93.9231 107.985 92.8714C109.298 91.8155 107.452 89.843 107.064 89.2728C106.675 88.6984 101.894 82.8993 101.894 82.8993L99.8457 86.5612Z" fill="#FFBE9D"/>
<path d="M102.36 81.932C102.386 81.9405 102.331 82.2826 102.174 82.8232C102.014 83.3638 101.744 84.0988 101.309 84.8463C100.873 85.5939 100.354 86.1937 99.9232 86.5611C99.4924 86.9328 99.1798 87.0933 99.1671 87.0764C99.146 87.0469 99.4248 86.8399 99.8176 86.4513C100.21 86.0628 100.696 85.4714 101.118 84.7407C101.963 83.2667 102.288 81.9067 102.36 81.932Z" fill="#EB996E"/>
<path d="M56.9845 102.025C56.9888 102.029 56.9127 102.109 56.7565 102.249C56.5833 102.401 56.3594 102.603 56.0764 102.857C55.4598 103.393 54.5982 104.141 53.538 105.057C51.3882 106.907 48.4021 109.441 45.0738 112.208C41.7456 114.974 38.7046 117.445 36.4703 119.194C35.3552 120.072 34.4387 120.761 33.7967 121.23C33.4884 121.449 33.2392 121.627 33.0534 121.762C32.8802 121.88 32.7915 121.939 32.7873 121.935C32.783 121.931 32.8675 121.859 33.028 121.728C33.2096 121.584 33.4462 121.399 33.746 121.166C34.3711 120.676 35.2708 119.967 36.3731 119.076C38.5821 117.297 41.6062 114.81 44.9345 112.043C48.2458 109.277 51.2446 106.772 53.4367 104.943C54.5137 104.048 55.3922 103.317 56.0173 102.798C56.313 102.557 56.5453 102.367 56.7269 102.219C56.8916 102.084 56.9803 102.02 56.9845 102.025Z" fill="#EB996E"/>
</svg>
