<svg width="191" height="173" viewBox="0 0 191 173" fill="none" xmlns="http://www.w3.org/2000/svg">
<path d="M57.1298 85.0965C59.364 100.485 48.6752 114.776 33.254 117.019C17.8328 119.262 3.51476 108.601 1.28061 93.2173C-0.958179 77.8286 9.73516 63.5383 25.1564 61.2995C40.5776 59.0515 54.8957 69.7077 57.1298 85.0965Z" fill="#F5F5F5"/>
<path d="M50.4926 86.0594C52.1983 97.7864 44.0497 108.674 32.2949 110.385C20.5448 112.095 9.63356 103.97 7.92782 92.2474C6.22207 80.5204 14.3707 69.6277 26.1255 67.922C37.8803 66.2116 48.7869 74.3324 50.4926 86.0594Z" fill="#EBEBEB"/>
<path d="M50.4148 85.3946C50.285 85.4177 50.0579 84.4954 49.4785 82.9148C48.8945 81.3434 47.9072 79.0954 46.0763 76.75C45.1632 75.5819 44.0415 74.3953 42.6973 73.2921C41.3438 72.2029 39.7771 71.1831 37.9972 70.3859C37.1119 69.9826 36.1756 69.6257 35.1976 69.3476C34.2195 69.0649 33.2044 68.8331 32.1522 68.6987C31.1047 68.5643 30.0293 68.4808 28.9354 68.5133C27.8415 68.5411 26.7384 68.6431 25.6306 68.8331C24.5274 69.0371 23.452 69.3198 22.4184 69.6674C21.3847 70.0197 20.4021 70.4647 19.4611 70.9514C18.5202 71.4381 17.6488 72.0082 16.8237 72.6061C15.9987 73.2041 15.2431 73.8623 14.5479 74.5436C13.1527 75.9017 12.031 77.3989 11.1364 78.8868C10.2511 80.384 9.6114 81.8857 9.15252 83.2948C8.24403 86.1269 8.09106 88.5789 8.08179 90.2522C8.08179 91.9348 8.1884 92.8757 8.05862 92.8989C7.96591 92.9175 7.64145 92.009 7.44214 90.2847C7.2521 88.5697 7.21965 86.0018 8.03544 82.9657C8.44334 81.4547 9.05981 79.8324 9.94977 78.2101C10.849 76.5924 12.0031 74.9608 13.4725 73.4683C14.2049 72.722 15.0021 71.9989 15.8782 71.3454C16.7542 70.6872 17.6859 70.0614 18.6963 69.5284C19.7022 68.9907 20.759 68.504 21.8761 68.1193C22.9885 67.7346 24.1519 67.4286 25.3385 67.2108C26.5298 67.0068 27.7257 66.8956 28.903 66.8724C30.0803 66.8492 31.2438 66.942 32.3747 67.0996C33.5057 67.2525 34.5996 67.5167 35.6472 67.8365C36.6994 68.1517 37.6959 68.555 38.6369 69.0046C40.528 69.8992 42.1735 71.0348 43.5779 72.24C44.9685 73.459 46.1088 74.7708 47.0126 76.0454C48.825 78.618 49.6778 81.0421 50.0904 82.7154C50.4983 84.4166 50.5075 85.3807 50.4148 85.3946Z" fill="#E0E0E0"/>
<path d="M33.4731 101.498L34.0664 105.197L30.7662 105.726L30.1914 102.129C26.8911 102.453 23.5909 101.934 21.5468 100.803L22.7195 96.4831C24.5689 97.4426 27.0858 97.9524 29.5007 97.8041L28.6154 92.2883C24.8053 91.987 20.5178 91.4168 19.7623 86.6936C19.2014 83.194 21.264 79.7826 26.3859 78.3503L25.7972 74.6839L29.1021 74.1555L29.6769 77.757C32.1845 77.5577 34.7014 77.8311 36.7038 78.6979L35.7026 83.0272C33.8624 82.3412 32.0594 82.0538 30.3722 82.1187L31.2714 87.7319C35.0722 88.0007 39.2995 88.5801 40.0458 93.2385C40.5927 96.6685 38.5579 100.043 33.4731 101.498ZM27.8321 87.4306L27.0812 82.7398C25.394 83.4165 24.8563 84.4873 25.0278 85.5765C25.2132 86.7353 26.3071 87.2035 27.8321 87.4306ZM34.7895 94.4807C34.6041 93.3219 33.5473 92.8491 32.0455 92.5803L32.7732 97.1366C34.3677 96.5155 34.9563 95.5375 34.7895 94.4807Z" fill="#E0E0E0"/>
<path d="M187.659 58.9713C192.997 67.7776 190.167 79.2532 181.344 84.6004C172.517 89.9517 161.037 87.1514 155.698 78.3451C150.36 69.5388 153.189 58.0674 162.013 52.7161C170.84 47.3647 182.32 50.165 187.659 58.9713Z" fill="#F5F5F5"/>
<path d="M183.859 61.2774C187.926 67.9888 185.772 76.7318 179.044 80.8076C172.32 84.8834 163.568 82.7505 159.501 76.0391C155.434 69.3277 157.588 60.5848 164.312 56.5089C171.04 52.4331 179.791 54.5661 183.859 61.2774Z" fill="#EBEBEB"/>
<path d="M183.627 60.8988C183.555 60.9452 183.179 60.4426 182.419 59.6274C181.655 58.8207 180.476 57.7057 178.753 56.7469C177.895 56.2696 176.903 55.8346 175.801 55.5094C174.694 55.1968 173.478 54.9772 172.185 54.9519C171.539 54.935 170.88 54.9603 170.208 55.0448C169.541 55.125 168.861 55.2475 168.185 55.4376C167.51 55.6234 166.834 55.8557 166.175 56.1556C165.516 56.4555 164.87 56.8018 164.245 57.2031C163.624 57.6128 163.041 58.0605 162.5 58.542C161.96 59.0235 161.474 59.5472 161.03 60.0878C160.583 60.6284 160.198 61.1986 159.852 61.7773C159.502 62.3559 159.214 62.9515 158.965 63.547C158.467 64.7381 158.167 65.9376 158.006 67.078C157.854 68.2183 157.85 69.2996 157.935 70.2795C158.112 72.2435 158.653 73.7767 159.079 74.7988C159.514 75.8251 159.823 76.3742 159.746 76.4207C159.692 76.4587 159.265 75.9856 158.695 74.9888C158.137 73.9921 157.453 72.4335 157.166 70.3724C157.026 69.3461 156.98 68.1972 157.102 66.9766C157.233 65.7602 157.516 64.4635 158.027 63.1753C158.281 62.5291 158.581 61.8871 158.944 61.2578C159.307 60.6284 159.717 60.0076 160.194 59.4205C160.667 58.8334 161.187 58.2632 161.77 57.7395C162.348 57.2157 162.978 56.73 163.645 56.2908C164.321 55.8599 165.018 55.484 165.731 55.163C166.445 54.8421 167.176 54.6013 167.907 54.407C168.637 54.2085 169.372 54.0902 170.09 54.0142C170.812 53.934 171.526 53.9213 172.215 53.9551C173.6 54.01 174.897 54.2803 176.062 54.652C177.228 55.0363 178.259 55.539 179.141 56.088C180.911 57.1862 182.056 58.4448 182.74 59.3614C183.428 60.2779 183.682 60.865 183.627 60.8988Z" fill="#E0E0E0"/>
<path d="M177.454 75.0828L178.771 77.1862L176.892 78.3603L175.612 76.3161C173.682 77.3678 171.536 77.9 169.999 77.7395L169.598 74.804C170.97 74.9096 172.639 74.5717 174.075 73.8579L172.111 70.724C169.712 71.5223 166.949 72.2867 165.268 69.6005C164.022 67.6112 164.398 64.9967 167.152 62.8047L165.847 60.7224L167.722 59.5482L169.002 61.5967C170.48 60.828 172.085 60.3465 173.53 60.3549L174.037 63.2524C172.74 63.3073 171.562 63.5987 170.552 64.076L172.55 67.269C174.94 66.4539 177.665 65.7147 179.32 68.3587C180.549 70.2974 180.178 72.878 177.454 75.0828ZM170.383 67.9575L168.715 65.2924C167.862 66.1413 167.807 66.9312 168.195 67.552C168.605 68.2109 169.391 68.2151 170.383 67.9575ZM176.444 70.4621C176.03 69.8032 175.266 69.7906 174.282 70.0144L175.903 72.6035C176.714 71.8095 176.82 71.0619 176.444 70.4621Z" fill="#E0E0E0"/>
<path d="M135.831 21.4808C130.405 24.8989 123.227 23.2639 119.798 17.8276C116.37 12.3913 117.99 5.20754 123.416 1.78939C128.842 -1.63386 136.02 0.00112509 139.449 5.44257C142.877 10.8789 141.257 18.0575 135.831 21.4808Z" fill="#F5F5F5"/>
<path d="M134.362 19.1328C130.229 21.7386 124.757 20.4919 122.146 16.3482C119.535 12.2046 120.766 6.73247 124.9 4.12671C129.033 1.52095 134.505 2.76762 137.116 6.91129C139.732 11.055 138.496 16.5271 134.362 19.1328Z" fill="#EBEBEB"/>
<path d="M134.616 18.9853C134.585 18.9393 134.897 18.6992 135.393 18.2189C135.888 17.7335 136.568 16.9876 137.145 15.9044C137.431 15.3628 137.692 14.7446 137.881 14.0497C138.065 13.3548 138.187 12.5986 138.187 11.7914C138.187 11.3877 138.167 10.979 138.111 10.56C138.055 10.1462 137.973 9.72208 137.845 9.30312C137.722 8.88415 137.569 8.46519 137.375 8.06155C137.181 7.6528 136.956 7.25427 136.701 6.87107C136.44 6.48787 136.154 6.13022 135.847 5.79811C135.541 5.46601 135.209 5.16967 134.866 4.89887C134.524 4.62808 134.166 4.39305 133.798 4.18357C133.436 3.97408 133.063 3.80036 132.69 3.65219C131.944 3.35585 131.193 3.18214 130.483 3.09528C129.772 3.01353 129.098 3.02375 128.49 3.08506C127.269 3.2179 126.318 3.57045 125.69 3.84635C125.056 4.12736 124.719 4.32663 124.689 4.28064C124.668 4.24999 124.954 3.97408 125.572 3.61132C126.186 3.25367 127.151 2.80915 128.429 2.60989C129.067 2.51281 129.783 2.47194 130.544 2.53325C131.305 2.59967 132.112 2.76317 132.92 3.06462C133.323 3.21279 133.727 3.39673 134.125 3.61643C134.519 3.83613 134.912 4.08138 135.285 4.37261C135.658 4.66384 136.016 4.98062 136.348 5.33317C136.68 5.69082 136.992 6.07402 137.273 6.48787C137.549 6.90173 137.789 7.33602 137.998 7.77543C138.203 8.21483 138.366 8.66956 138.494 9.11918C138.627 9.5688 138.709 10.0286 138.765 10.4783C138.821 10.9279 138.836 11.3724 138.826 11.8016C138.806 12.6651 138.652 13.4774 138.433 14.2081C138.208 14.9387 137.901 15.5876 137.574 16.1394C136.91 17.2532 136.139 17.9788 135.577 18.4182C134.999 18.8525 134.636 19.016 134.616 18.9853Z" fill="#E0E0E0"/>
<path d="M125.692 15.2984L124.399 16.1414L123.648 14.9867L124.91 14.1641C124.236 12.9737 123.878 11.6452 123.96 10.6847L125.784 10.4037C125.733 11.262 125.962 12.2941 126.422 13.1831L128.354 11.9262C127.832 10.4394 127.327 8.7278 128.977 7.64973C130.203 6.85268 131.833 7.05705 133.233 8.74824L134.516 7.91031L135.267 9.06502L134.005 9.88762C134.5 10.8022 134.817 11.7934 134.827 12.6926L133.029 13.0401C132.978 12.2328 132.783 11.5022 132.477 10.8788L130.51 12.1562C131.046 13.6328 131.537 15.324 129.907 16.3867C128.706 17.1735 127.092 16.9692 125.692 15.2984ZM130.05 10.8175L131.69 9.74967C131.154 9.22852 130.658 9.20297 130.28 9.45333C129.876 9.71391 129.881 10.2044 130.05 10.8175ZM128.558 14.6189C128.962 14.3532 128.962 13.878 128.813 13.2649L127.219 14.3021C127.72 14.8028 128.19 14.859 128.558 14.6189Z" fill="#E0E0E0"/>
<path d="M134.537 80.392C134.537 80.392 114.816 66.416 112.32 65.0433C109.942 63.734 102.395 62.7836 101.719 62.6189L88.2075 59.6793L67.5623 60.2959L61.6407 63.8564L46.6595 70.7579C42.5752 72.6374 39.3568 75.9994 37.6546 80.1597L28.1895 103.267L51.6687 110.211L52.3994 134.586L46.8622 172.987H115.589L112.13 99.3858L119.285 100.961L134.537 80.392Z" fill="#086663"/>
<path d="M52.0788 100.395C52.0788 100.395 51.8338 100.576 51.3523 100.855C50.8751 101.121 50.1486 101.523 49.156 101.658C48.1593 101.797 46.9724 101.556 45.7307 101.159C44.4805 100.767 43.1669 100.158 41.828 99.4615C40.4891 98.7646 39.2347 98.0592 38.0605 97.489C36.8863 96.9188 35.7924 96.4796 34.8421 96.205C33.896 95.922 33.102 95.7953 32.5529 95.7404C32.2783 95.7109 32.0629 95.6982 31.9193 95.694C31.7757 95.6855 31.6997 95.6771 31.6997 95.6771C31.6997 95.6771 32.008 95.6602 32.5571 95.7066C33.1104 95.7531 33.9044 95.8671 34.859 96.1459C35.8135 96.4162 36.9159 96.847 38.0943 97.4172C39.2769 97.9832 40.5313 98.6885 41.8702 99.3854C43.2049 100.082 44.5142 100.686 45.756 101.083C46.9935 101.48 48.1677 101.725 49.1518 101.594C50.1317 101.468 50.8539 101.079 51.3354 100.821C51.5762 100.686 51.762 100.576 51.8845 100.5C52.007 100.433 52.0788 100.395 52.0788 100.395Z" fill="white"/>
<path d="M51.0957 89.0115C51.0957 89.0115 51.0408 89.0157 50.9394 89.0115C50.8127 89.0073 50.6649 88.9988 50.4917 88.9904C50.1031 88.9735 49.5414 88.9313 48.8487 88.8595C47.4633 88.7243 45.5585 88.4498 43.4847 87.9767C41.4151 87.4995 39.5778 86.9124 38.2727 86.4266C37.618 86.1859 37.0943 85.9789 36.7395 85.8269C36.5832 85.7593 36.4481 85.7002 36.3298 85.6495C36.2369 85.6073 36.1904 85.5819 36.1904 85.5819C36.1904 85.5819 36.2411 85.5946 36.3383 85.6326C36.4565 85.6791 36.5959 85.7297 36.7564 85.7931C37.1196 85.9367 37.6434 86.1352 38.298 86.3675C39.6074 86.8363 41.4404 87.4108 43.5058 87.888C45.5711 88.3611 47.476 88.6441 48.8571 88.7961C49.5498 88.8721 50.1073 88.9228 50.4959 88.9524C50.6691 88.9651 50.8127 88.9777 50.9436 88.9904C51.045 88.9988 51.0957 89.0115 51.0957 89.0115Z" fill="white"/>
<path d="M65.8791 65.0445C65.8791 65.0445 65.706 65.3317 65.3301 65.8132C64.9584 66.2947 64.3502 66.9451 63.497 67.6209C62.6481 68.3009 61.5288 68.9767 60.2195 69.5807C58.9101 70.1847 57.415 70.7084 55.8269 71.1857C54.2346 71.6545 52.7098 72.0726 51.3456 72.5246C49.9813 72.9723 48.7776 73.4496 47.8062 73.9353C46.8347 74.421 46.0914 74.8898 45.6014 75.2488C45.348 75.4178 45.1748 75.574 45.0439 75.6712C44.9172 75.7683 44.8496 75.8148 44.8496 75.8148C44.8496 75.8148 45.0988 75.5867 45.5845 75.2193C46.0702 74.8518 46.8136 74.3703 47.7808 73.8761C48.748 73.3777 49.956 72.8963 51.3202 72.4401C52.6845 71.9839 54.2092 71.5658 55.8015 71.0928C57.3896 70.6197 58.8806 70.096 60.1857 69.5004C61.4866 68.9007 62.6058 68.2376 63.459 67.566C64.3122 66.8987 64.9246 66.2609 65.3005 65.7836C65.5032 65.5556 65.6257 65.3528 65.7271 65.2303C65.8242 65.1121 65.8791 65.0445 65.8791 65.0445Z" fill="white"/>
<path d="M108.127 68.1923C108.127 68.1923 108.064 68.1627 107.95 68.0952C107.831 68.0318 107.667 67.922 107.443 67.8122C106.999 67.5714 106.336 67.2547 105.483 66.9632C104.63 66.6676 103.587 66.393 102.413 66.1734C101.238 65.9495 99.9332 65.7764 98.5648 65.5821C95.8448 65.1977 93.3824 64.8472 91.5578 64.5895C90.6877 64.4628 89.9697 64.3572 89.4375 64.277C89.2094 64.2432 89.0193 64.2136 88.8631 64.1883C88.7321 64.1672 88.6646 64.1503 88.6646 64.1503C88.6646 64.1503 88.7364 64.1545 88.8673 64.1714C89.0236 64.1925 89.2179 64.2136 89.4459 64.2432C89.9823 64.315 90.7004 64.4121 91.5704 64.5262C93.395 64.7796 95.8574 65.1175 98.5774 65.4934C99.9459 65.6834 101.251 65.8608 102.425 66.0889C103.604 66.3128 104.647 66.5958 105.504 66.8999C106.362 67.1997 107.021 67.5292 107.46 67.7784C107.899 68.0276 108.127 68.1923 108.127 68.1923Z" fill="white"/>
<path d="M98.5462 72.8572C98.5462 72.8572 98.3899 72.929 98.09 73.0641C97.7901 73.1993 97.3424 73.3894 96.7638 73.6217C95.6023 74.082 93.9086 74.7156 91.763 75.3449C89.6174 75.97 87.0325 76.6204 84.1055 77.0344C81.1785 77.4821 77.9137 77.4821 74.5094 77.3723C71.1051 77.2624 67.8572 77.1146 64.9091 77.3004C61.9652 77.4736 59.3338 77.9847 57.222 78.7027C55.1017 79.4081 53.5221 80.3204 52.4958 81.0215C51.9889 81.3847 51.6003 81.6762 51.3554 81.8916C51.102 82.1027 50.9668 82.2083 50.9668 82.2083C50.9668 82.2083 51.0935 82.0943 51.3427 81.8789C51.5877 81.655 51.972 81.3636 52.4789 80.9919C53.501 80.2781 55.0848 79.3574 57.2051 78.6436C59.3212 77.9171 61.9567 77.3976 64.9048 77.2202C67.8572 77.0301 71.1094 77.178 74.5136 77.2878C77.9179 77.4018 81.1743 77.4018 84.0928 76.9583C87.0156 76.5486 89.6005 75.9066 91.7461 75.29C93.8917 74.6691 95.5896 74.044 96.7511 73.5963C97.334 73.3682 97.7817 73.1866 98.0858 73.0557C98.3857 72.9163 98.5462 72.8572 98.5462 72.8572Z" fill="white"/>
<path d="M105.034 76.9886C105.034 76.9928 105.009 77.0013 104.958 77.0224C104.886 77.0478 104.814 77.0773 104.734 77.1069C104.54 77.1787 104.257 77.2716 103.902 77.373C103.197 77.5715 102.192 77.7953 101.06 77.808C99.9276 77.8207 98.9182 77.6095 98.2128 77.3983C97.8581 77.2927 97.5793 77.1956 97.385 77.1196C97.309 77.09 97.2372 77.0604 97.1654 77.0309C97.1147 77.0097 97.0894 76.9971 97.0894 76.9928C97.0894 76.9886 97.1189 76.9971 97.1696 77.014C97.2414 77.0393 97.3174 77.0604 97.3935 77.0858C97.5877 77.1533 97.8707 77.242 98.2255 77.3392C98.9309 77.5335 99.9319 77.732 101.051 77.7193C102.17 77.7066 103.167 77.4955 103.877 77.3138C104.232 77.2209 104.519 77.1364 104.713 77.0773C104.793 77.052 104.869 77.0309 104.941 77.0097C105.004 76.9928 105.034 76.9844 105.034 76.9886Z" fill="white"/>
<path d="M91.7108 88.9363C91.7108 88.9363 89.6834 89.3629 86.3763 89.857C84.7207 90.1062 82.744 90.3512 80.5435 90.5708C78.3429 90.7778 75.9144 90.9552 73.3633 91.0523C70.8122 91.141 68.3794 91.141 66.1662 91.0946C63.953 91.0354 61.9636 90.9341 60.2953 90.8031C56.9586 90.5497 54.9102 90.271 54.9102 90.271C54.9102 90.271 55.0411 90.2794 55.2861 90.3005C55.5522 90.3259 55.9069 90.3639 56.3589 90.4061C57.2881 90.5033 58.6354 90.6215 60.3038 90.7398C61.9721 90.8623 63.9614 90.9552 66.1704 91.0101C68.3794 91.0523 70.8122 91.0523 73.3633 90.9636C75.9101 90.8665 78.3387 90.6933 80.5392 90.4906C82.7398 90.2752 84.7164 90.0344 86.3721 89.7937C88.0278 89.5572 89.3624 89.3418 90.2832 89.177C90.7309 89.101 91.0815 89.0376 91.3433 88.9954C91.5841 88.9532 91.7108 88.9363 91.7108 88.9363Z" fill="white"/>
<path d="M108.249 87.7371C108.249 87.7371 108.194 87.7456 108.097 87.7456C107.971 87.7498 107.827 87.754 107.658 87.7583C107.274 87.7709 106.72 87.7752 106.036 87.7752C104.668 87.7709 102.776 87.7203 100.693 87.5429C98.611 87.3612 96.74 87.0825 95.3926 86.8375C94.7211 86.715 94.1762 86.6094 93.8003 86.5292C93.6356 86.4912 93.4962 86.4616 93.3695 86.4363C93.2724 86.4151 93.2217 86.3983 93.2217 86.3983C93.2217 86.3983 93.2766 86.4025 93.3737 86.4194C93.5004 86.4405 93.6398 86.4658 93.8088 86.4954C94.2269 86.5714 94.7633 86.6643 95.4053 86.7784C96.7526 87.0065 98.6237 87.2768 100.702 87.4542C102.78 87.6316 104.668 87.6907 106.036 87.7118C106.687 87.716 107.232 87.7203 107.654 87.7245C107.823 87.7245 107.966 87.7287 108.093 87.7287C108.195 87.7329 108.249 87.7371 108.249 87.7371Z" fill="white"/>
<path d="M87.1511 105.151C87.1511 105.151 87.0328 105.172 86.8047 105.206C86.5555 105.24 86.2261 105.286 85.8079 105.346C85.3771 105.409 84.8449 105.481 84.2283 105.523C83.6074 105.565 82.9063 105.654 82.1249 105.667C81.3435 105.692 80.4904 105.738 79.5696 105.721C79.1092 105.717 78.6362 105.726 78.1462 105.713C77.6563 105.696 77.1537 105.679 76.6384 105.662C74.5773 105.578 72.3092 105.422 69.9355 105.215C67.5618 105.016 65.3021 104.809 63.241 104.67C61.1799 104.543 59.3257 104.454 57.7629 104.48C57.3744 104.484 57.0027 104.484 56.6521 104.488C56.3016 104.505 55.9721 104.522 55.6596 104.539C55.0387 104.564 54.5065 104.594 54.0757 104.649C53.6575 104.691 53.3239 104.725 53.0747 104.746C52.8466 104.767 52.7241 104.775 52.7241 104.775C52.7241 104.775 52.8424 104.758 53.0705 104.729C53.3197 104.699 53.6533 104.661 54.0715 104.615C54.5065 104.556 55.0387 104.522 55.6596 104.492C55.9721 104.475 56.3016 104.454 56.6521 104.437C57.0027 104.433 57.3744 104.429 57.7672 104.425C59.3299 104.395 61.1883 104.475 63.2494 104.598C65.3106 104.729 67.5702 104.936 69.9439 105.134C72.3176 105.341 74.5815 105.502 76.6426 105.586C77.1579 105.603 77.6605 105.62 78.1505 105.641C78.6404 105.654 79.1135 105.65 79.5738 105.654C80.4904 105.671 81.3435 105.633 82.1249 105.612C82.9063 105.603 83.6074 105.519 84.2241 105.481C84.845 105.447 85.3729 105.379 85.8037 105.32C86.2219 105.27 86.5555 105.227 86.8005 105.198C87.0328 105.16 87.1511 105.151 87.1511 105.151Z" fill="white"/>
<path d="M112.017 100.192C112.017 100.192 111.954 100.204 111.831 100.217C111.683 100.234 111.506 100.251 111.295 100.276C110.826 100.327 110.15 100.382 109.31 100.441C107.633 100.555 105.31 100.639 102.746 100.572C100.182 100.504 97.8637 100.297 96.1953 100.095C95.3591 99.9932 94.6875 99.9003 94.2229 99.8285C94.0117 99.7947 93.8343 99.7651 93.6907 99.744C93.5682 99.7229 93.5049 99.7102 93.5049 99.7102C93.5049 99.7102 93.5682 99.7144 93.6949 99.7271C93.8428 99.7482 94.0202 99.7693 94.2314 99.7947C94.696 99.858 95.3717 99.9425 96.2038 100.035C97.8721 100.221 100.187 100.416 102.746 100.483C105.306 100.551 107.629 100.475 109.306 100.378C110.142 100.327 110.822 100.28 111.291 100.242C111.502 100.225 111.679 100.213 111.831 100.2C111.95 100.192 112.017 100.192 112.017 100.192Z" fill="white"/>
<path d="M112.325 115.54C112.325 115.54 112.114 115.532 111.708 115.502C111.303 115.481 110.707 115.418 109.938 115.397C108.401 115.316 106.175 115.299 103.426 115.435C100.676 115.566 97.4153 115.895 93.8125 116.368C90.2055 116.837 86.2522 117.458 82.0877 117.994C77.9232 118.522 73.9276 118.86 70.2868 118.894C66.646 118.928 63.3642 118.67 60.6527 118.197C57.9411 117.728 55.787 117.124 54.3383 116.605C53.9709 116.491 53.6499 116.368 53.3753 116.254C53.105 116.148 52.8727 116.056 52.6784 115.979C52.3025 115.832 52.104 115.747 52.104 115.747C52.104 115.747 52.3025 115.819 52.6826 115.963C52.8769 116.034 53.1092 116.127 53.3838 116.229C53.6583 116.338 53.9793 116.457 54.3468 116.571C55.7955 117.082 57.9495 117.677 60.6611 118.134C63.3727 118.598 66.646 118.847 70.2826 118.814C73.9191 118.78 77.9105 118.438 82.075 117.91C86.2395 117.373 90.1886 116.757 93.7998 116.292C97.4068 115.823 100.672 115.498 103.421 115.376C106.171 115.249 108.401 115.274 109.938 115.363C111.48 115.447 112.325 115.54 112.325 115.54Z" fill="white"/>
<path d="M89.0773 131.307C89.0773 131.307 87.0457 131.654 83.7344 132.009C82.0787 132.19 80.1021 132.351 77.9058 132.477C75.7095 132.591 73.2893 132.663 70.7467 132.646C68.2041 132.625 65.7881 132.52 63.5918 132.372C61.3955 132.215 59.4231 132.025 57.7716 131.823C54.4688 131.421 52.4414 131.046 52.4414 131.046C52.4414 131.046 52.5681 131.058 52.8131 131.092C53.075 131.13 53.4297 131.181 53.8732 131.248C54.3336 131.32 54.8953 131.4 55.55 131.485C56.2047 131.569 56.9523 131.675 57.7759 131.764C59.4273 131.958 61.3998 132.144 63.5961 132.296C65.7924 132.435 68.2083 132.541 70.7467 132.562C73.2851 132.574 75.701 132.507 77.8973 132.397C80.0936 132.275 82.0703 132.123 83.7217 131.949C84.5496 131.873 85.2971 131.78 85.9518 131.704C86.6107 131.633 87.1725 131.557 87.6328 131.493C88.0805 131.434 88.4353 131.388 88.6972 131.354C88.9464 131.32 89.0773 131.307 89.0773 131.307Z" fill="white"/>
<path d="M112.061 128.284C112.061 128.284 111.985 128.314 111.837 128.36C111.664 128.411 111.448 128.478 111.186 128.554C110.625 128.723 109.801 128.956 108.787 129.23C106.751 129.775 103.922 130.451 100.758 131.034C97.5946 131.612 94.7056 131.984 92.6107 132.195C91.5632 132.301 90.7142 132.377 90.1272 132.415C89.8526 132.432 89.6288 132.449 89.4514 132.461C89.2951 132.47 89.2148 132.47 89.2148 132.47C89.2148 132.47 89.2951 132.457 89.4514 132.44C89.6288 132.423 89.8526 132.402 90.1272 132.377C90.7142 132.326 91.5632 132.242 92.6064 132.128C94.6971 131.9 97.5819 131.519 100.741 130.941C103.9 130.362 106.73 129.695 108.77 129.167C109.788 128.901 110.612 128.681 111.178 128.521C111.444 128.449 111.659 128.39 111.832 128.339C111.98 128.301 112.061 128.284 112.061 128.284Z" fill="white"/>
<path d="M72.9797 148.922C72.9797 148.922 71.7337 149.138 69.6937 149.243C68.6758 149.302 67.4551 149.306 66.1078 149.247C64.7604 149.176 63.2822 149.032 61.7405 148.779C60.2031 148.517 58.7586 148.17 57.4578 147.799C56.1611 147.414 55.0123 147.013 54.0704 146.629C52.1782 145.864 51.0674 145.252 51.0674 145.252C51.0674 145.252 51.1392 145.281 51.2786 145.345C51.4391 145.416 51.6333 145.509 51.8741 145.623C52.1317 145.746 52.4485 145.894 52.8202 146.05C53.1919 146.206 53.6142 146.401 54.0915 146.574C55.0376 146.954 56.1864 147.347 57.4789 147.727C58.7755 148.094 60.22 148.436 61.7532 148.698C63.2864 148.952 64.7647 149.095 66.1078 149.171C67.4551 149.235 68.6673 149.235 69.6852 149.184C70.1963 149.176 70.6524 149.129 71.0579 149.104C71.4634 149.078 71.8097 149.045 72.0927 149.011C72.3546 148.985 72.57 148.96 72.7474 148.943C72.8994 148.926 72.9797 148.922 72.9797 148.922Z" fill="white"/>
<path d="M113.609 147.844C113.609 147.844 113.465 147.874 113.191 147.916C112.899 147.963 112.494 148.026 111.983 148.111C110.935 148.279 109.415 148.508 107.535 148.778C103.776 149.314 98.5686 149.982 92.8033 150.556C87.0338 151.126 81.8007 151.498 78.0079 151.705C76.1115 151.81 74.5783 151.886 73.5139 151.924C72.9986 151.946 72.5889 151.958 72.2933 151.971C72.0145 151.979 71.8667 151.979 71.8667 151.979C71.8667 151.979 72.0145 151.967 72.2933 151.95C72.5889 151.933 72.9986 151.912 73.5139 151.886C74.5909 151.827 76.1199 151.743 78.0037 151.637C81.7923 151.409 87.0254 151.033 92.7949 150.463C98.5601 149.889 103.764 149.234 107.527 148.71C109.394 148.444 110.91 148.225 111.979 148.073C112.49 147.996 112.895 147.937 113.187 147.895C113.461 147.861 113.609 147.844 113.609 147.844Z" fill="white"/>
<path d="M115.82 163.4C115.82 163.4 114.895 163.594 113.214 163.869C111.529 164.143 109.083 164.485 106.047 164.739C103.006 164.992 99.3732 165.132 95.3396 165.001C91.3061 164.87 86.8924 164.422 82.2759 163.856C77.6552 163.29 73.2584 162.72 69.2417 162.403C65.225 162.078 61.5885 162.014 58.5432 162.167C55.498 162.323 53.0525 162.669 51.3757 162.986C50.5394 163.146 49.889 163.282 49.454 163.387C49.0147 163.489 48.7866 163.535 48.7866 163.535C48.7866 163.535 49.0147 163.476 49.4497 163.37C49.8848 163.256 50.531 163.117 51.3673 162.952C53.0398 162.623 55.4895 162.268 58.5348 162.103C61.58 161.947 65.2208 162.002 69.2417 162.323C73.2626 162.631 77.6637 163.201 82.2801 163.767C86.8966 164.333 91.3061 164.785 95.3354 164.92C99.3648 165.056 102.997 164.92 106.034 164.68C109.071 164.435 111.52 164.101 113.201 163.839C114.042 163.704 114.697 163.598 115.14 163.518C115.588 163.434 115.82 163.4 115.82 163.4Z" fill="white"/>
<path d="M128.2 76.6117C128.2 76.6117 128.077 76.9454 127.803 77.5324C127.532 78.1153 127.076 78.9347 126.421 79.885C125.771 80.8396 124.901 81.9039 123.879 83.0316C122.857 84.1636 121.682 85.3546 120.491 86.6471C119.305 87.9395 118.244 89.2404 117.408 90.5117C116.576 91.783 115.959 93.0163 115.592 94.106C115.22 95.1915 115.056 96.1165 115.005 96.7585C114.963 97.0795 114.975 97.3287 114.963 97.4976C114.954 97.6666 114.946 97.7553 114.946 97.7553C114.946 97.7553 114.929 97.3963 114.971 96.7543C115.009 96.1123 115.165 95.1831 115.533 94.0849C115.892 92.9868 116.508 91.745 117.341 90.4653C118.177 89.1855 119.233 87.8804 120.424 86.5879C121.619 85.2955 122.793 84.1044 123.815 82.981C124.837 81.8575 125.712 80.7973 126.366 79.8512C127.025 78.9094 127.486 78.0984 127.764 77.5198C127.917 77.2368 128.005 77.0003 128.081 76.8482C128.157 76.6919 128.2 76.6117 128.2 76.6117Z" fill="white"/>
<path d="M108.758 83.8909C108.758 83.8909 108.805 83.8529 108.902 83.7853C109.02 83.705 109.16 83.6121 109.324 83.4981C109.692 83.2573 110.211 82.8814 110.836 82.4042C111.466 81.9269 112.184 81.3229 112.948 80.6133C113.708 79.8995 114.507 79.0802 115.292 78.1636C116.069 77.2429 116.754 76.3221 117.341 75.4605C117.915 74.5904 118.401 73.7879 118.773 73.091C119.148 72.3983 119.431 71.8239 119.613 71.4227C119.698 71.2411 119.769 71.0932 119.828 70.9623C119.879 70.8567 119.909 70.806 119.909 70.806C119.909 70.806 119.562 71.7226 118.827 73.1206C118.46 73.8217 117.983 74.6326 117.408 75.5069C116.825 76.3728 116.141 77.302 115.36 78.2228C114.574 79.1393 113.768 79.9587 113.003 80.6725C112.23 81.3778 111.508 81.9818 110.874 82.4506C109.611 83.4052 108.758 83.8909 108.758 83.8909Z" fill="white"/>
<path d="M78.5767 103.637C78.5767 103.633 78.6105 103.616 78.678 103.59C78.7583 103.561 78.8596 103.523 78.9821 103.472C79.2524 103.379 79.641 103.21 80.1352 102.982C81.1066 102.501 82.4666 101.673 83.8731 100.325C85.288 98.9908 86.7452 97.1704 88.1517 95.0163C89.5666 92.8623 90.9815 90.4041 92.3204 87.7517C95.0066 82.4383 96.9115 77.3826 98.242 73.7207C98.9093 71.8877 99.4246 70.3967 99.7836 69.3661C99.961 68.8635 100.1 68.4665 100.202 68.1793C100.248 68.0526 100.286 67.9512 100.316 67.871C100.341 67.8034 100.358 67.7696 100.362 67.7696C100.366 67.7696 100.358 67.8076 100.337 67.8794C100.312 67.9597 100.282 68.0652 100.244 68.192C100.151 68.4792 100.024 68.8804 99.8638 69.3915C99.5259 70.4305 99.0318 71.9299 98.3813 73.7714C97.0847 77.4502 95.2009 82.5228 92.5063 87.8488C91.1589 90.5097 89.7355 92.9721 88.3079 95.1262C86.8846 97.2844 85.4105 99.1091 83.966 100.435C82.5384 101.778 81.1489 102.598 80.1605 103.058C79.6579 103.278 79.2651 103.438 78.9864 103.514C78.8596 103.552 78.7541 103.586 78.6738 103.611C78.6147 103.633 78.5767 103.641 78.5767 103.637Z" fill="#455A64"/>
<path d="M77.859 112.576C77.8548 112.571 77.9351 112.508 78.0913 112.398C78.2645 112.28 78.4926 112.124 78.7714 111.925C79.3627 111.511 80.2116 110.912 81.2295 110.126C83.278 108.567 85.9684 106.24 88.8574 103.584C90.3061 102.257 91.6957 101.003 92.8994 99.8034C94.1032 98.6039 95.1126 97.4508 95.8771 96.4202C96.65 95.3939 97.1738 94.4942 97.5074 93.8565C97.6848 93.5439 97.7947 93.2863 97.8834 93.1173C97.9678 92.9484 98.0143 92.8597 98.0227 92.8639C98.0312 92.8681 97.9932 92.9611 97.9214 93.1342C97.8453 93.3074 97.7482 93.5735 97.5835 93.8945C97.2709 94.5449 96.7599 95.4615 95.9996 96.5089C95.2436 97.5564 94.2383 98.7263 93.0388 99.9385C91.8393 101.155 90.4497 102.414 89.001 103.74C86.1078 106.401 83.3962 108.715 81.3182 110.244C80.2834 111.013 79.4218 111.6 78.8136 111.993C78.5095 112.187 78.2687 112.331 78.1082 112.432C77.952 112.533 77.8633 112.584 77.859 112.576Z" fill="#455A64"/>
<path d="M66.4489 157.731C66.4447 157.731 66.4615 157.697 66.4996 157.634C66.5418 157.562 66.5967 157.474 66.6643 157.368C66.8121 157.136 67.0402 156.794 67.3443 156.367C67.9567 155.51 68.8986 154.31 70.1403 152.895C72.645 150.082 76.1506 146.251 80.0152 142.011C83.8883 137.783 87.3939 133.956 89.945 131.173C91.2163 129.804 92.2469 128.689 92.9734 127.904C93.3239 127.532 93.6027 127.236 93.8054 127.021C93.8941 126.928 93.9659 126.856 94.0251 126.797C94.0757 126.746 94.1011 126.721 94.1053 126.725C94.1095 126.73 94.0842 126.759 94.042 126.81C93.987 126.873 93.9195 126.953 93.8392 127.051C93.6449 127.27 93.3788 127.574 93.0367 127.959C92.3229 128.753 91.3093 129.88 90.0591 131.27C87.5206 134.066 84.0319 137.905 80.1757 142.146C76.3069 146.374 72.8055 150.205 70.2586 152.988C69.0042 154.386 68.0454 155.569 67.4161 156.409C67.1035 156.832 66.8628 157.161 66.7023 157.389C66.6263 157.495 66.5671 157.579 66.5207 157.647C66.4742 157.706 66.4531 157.735 66.4489 157.731Z" fill="#455A64"/>
<path d="M105.907 81.8192C105.894 81.8234 105.835 81.5954 105.746 81.1772C105.7 80.9703 105.649 80.7126 105.611 80.4127C105.573 80.1129 105.51 79.7708 105.493 79.3906C105.459 79.0105 105.429 78.5924 105.434 78.1446C105.417 77.6969 105.446 77.2154 105.468 76.7128C105.544 75.7076 105.7 74.601 105.974 73.4691C106.262 72.3371 106.642 71.2897 107.047 70.3647C107.263 69.9085 107.461 69.4693 107.689 69.0807C107.896 68.6837 108.12 68.3289 108.327 68.0079C108.521 67.6785 108.737 67.4081 108.91 67.1589C109.083 66.9097 109.248 66.707 109.387 66.5465C109.662 66.2213 109.818 66.0439 109.831 66.0524C109.843 66.0608 109.708 66.2551 109.455 66.5972C109.328 66.7661 109.172 66.9731 109.007 67.2265C108.842 67.4799 108.639 67.7545 108.454 68.0839C108.255 68.4091 108.044 68.7639 107.845 69.161C107.63 69.5495 107.44 69.9846 107.229 70.4407C106.836 71.3615 106.469 72.3963 106.181 73.5155C105.907 74.6348 105.75 75.7245 105.662 76.7213C105.636 77.2197 105.598 77.6927 105.607 78.1404C105.598 78.5839 105.62 78.9978 105.641 79.378C105.649 79.7581 105.7 80.096 105.729 80.3959C105.755 80.6957 105.793 80.9534 105.827 81.1603C105.894 81.5827 105.919 81.8192 105.907 81.8192Z" fill="#455A64"/>
<path d="M112.039 96.9751C111.984 96.9963 111.223 95.3195 110.341 93.2245C109.458 91.1296 108.782 89.4148 108.837 89.3937C108.892 89.3726 109.652 91.0494 110.535 93.1443C111.418 95.235 112.094 96.954 112.039 96.9751Z" fill="#455A64"/>
<path d="M51.6648 83.5875C51.631 83.6044 51.3016 83.0004 50.6807 82.0839C50.0598 81.1673 49.118 79.9594 47.91 78.781C46.6978 77.6068 45.4603 76.703 44.5269 76.1116C43.5934 75.5161 42.981 75.2078 42.9979 75.174C43.0063 75.1613 43.1626 75.2289 43.4456 75.3598C43.7286 75.4908 44.1298 75.7019 44.6071 75.9849C45.5701 76.5467 46.8372 77.4463 48.0621 78.6332C49.2827 79.8242 50.2203 81.0618 50.8116 82.0079C51.1073 82.4809 51.3312 82.8695 51.4705 83.1525C51.6057 83.4228 51.6775 83.5791 51.6648 83.5875Z" fill="#455A64"/>
<path d="M68.2605 73.5951C68.2521 73.5951 68.2352 73.4304 68.2563 73.1601C68.2774 72.894 68.3534 72.5223 68.5139 72.1422C68.7251 71.6227 69.0461 71.2426 69.2235 71.0694L69.2488 71.0483L69.2615 71.0778C69.3122 71.1961 69.3333 71.2595 69.3249 71.2637C69.3164 71.2679 69.2826 71.2088 69.2193 71.0947L69.2531 71.099C69.0968 71.289 68.8011 71.6692 68.59 72.176C68.2732 72.9236 68.2901 73.5994 68.2605 73.5951Z" fill="#455A64"/>
<path d="M73.8392 76.4965C73.8307 76.4965 73.7843 76.3402 73.7505 76.0741C73.7209 75.808 73.7125 75.4363 73.7758 75.0351C73.8392 74.6338 73.9575 74.279 74.0673 74.0383C74.1771 73.7933 74.27 73.6582 74.2785 73.6624C74.3038 73.6751 73.9828 74.2537 73.8603 75.0478C73.7378 75.8418 73.8688 76.4922 73.8392 76.4965Z" fill="#455A64"/>
<path d="M79.9404 76.0145C79.9108 76.0145 79.953 75.4739 79.7799 74.8403C79.6109 74.2068 79.2984 73.7633 79.3237 73.7464C79.3322 73.7422 79.4209 73.8435 79.5349 74.0294C79.6489 74.2152 79.7799 74.494 79.8686 74.815C79.9573 75.136 79.9868 75.4401 79.9826 75.6597C79.9742 75.8793 79.9488 76.0145 79.9404 76.0145Z" fill="#455A64"/>
<path d="M85.2578 73.6814C85.2324 73.694 85.0508 73.1492 84.6242 72.6086C84.2018 72.0637 83.7204 71.7554 83.7372 71.7343C83.7415 71.7258 83.8682 71.7892 84.054 71.9243C84.2399 72.0595 84.4764 72.2749 84.6918 72.5537C84.9072 72.8324 85.0592 73.1154 85.1479 73.3266C85.2366 73.5378 85.2704 73.6771 85.2578 73.6814Z" fill="#455A64"/>
<path d="M88.9427 70.0598C88.9173 70.0767 88.8117 69.4136 88.212 68.9068C87.6249 68.3915 86.9533 68.383 86.966 68.3535C86.966 68.3493 87.004 68.345 87.0758 68.345C87.1476 68.345 87.2532 68.3577 87.3757 68.383C87.6291 68.438 87.967 68.5816 88.2669 68.8392C88.5668 69.0968 88.7568 69.4136 88.8455 69.6544C88.892 69.7726 88.9173 69.874 88.93 69.9458C88.9469 70.0176 88.9511 70.0556 88.9427 70.0598Z" fill="#455A64"/>
<path d="M90.9147 63.37C90.902 63.3954 90.4923 62.9603 89.8039 62.8378C89.1154 62.7027 88.579 62.9646 88.5748 62.9392C88.5537 62.9265 89.0985 62.614 89.8166 62.7534C90.543 62.8801 90.9401 63.3658 90.9147 63.37Z" fill="#455A64"/>
<path d="M64.5996 69.0878C64.5912 69.0878 64.6081 68.9442 64.6883 68.7246C64.7686 68.5092 64.9248 68.222 65.1656 67.9601C65.4063 67.6982 65.6767 67.5209 65.8878 67.4237C66.099 67.3266 66.2384 67.297 66.2426 67.3054C66.2553 67.3308 65.6978 67.5082 65.2332 68.0235C64.7517 68.5303 64.625 69.1005 64.5996 69.0878Z" fill="#455A64"/>
<path d="M63.2546 64.6413C63.2462 64.637 63.3137 64.4976 63.4658 64.2991C63.6178 64.1006 63.8586 63.8514 64.1711 63.6402C64.4879 63.4291 64.8089 63.2939 65.0497 63.2306C65.2904 63.163 65.4425 63.1545 65.4425 63.163C65.4509 63.1925 64.8385 63.2897 64.2218 63.7121C63.5967 64.126 63.2757 64.6582 63.2546 64.6413Z" fill="#455A64"/>
<path d="M52.7649 90.5961C52.7607 90.6003 52.7438 90.575 52.7354 90.6003C52.7227 90.6257 52.71 90.6763 52.7016 90.7397C52.6805 90.8664 52.6551 91.0607 52.634 91.3057C52.5833 91.7998 52.5284 92.5221 52.4693 93.409C52.3468 95.1872 52.2074 97.6454 52.0765 100.365C51.9455 103.085 51.8484 105.548 51.785 107.326C51.7555 108.192 51.7344 108.901 51.7175 109.438C51.709 109.666 51.7006 109.856 51.6921 110.012C51.6837 110.143 51.6752 110.211 51.671 110.211C51.6626 110.211 51.6541 110.143 51.6499 110.012C51.6457 109.856 51.6372 109.666 51.633 109.438C51.6245 108.939 51.6203 108.217 51.633 107.326C51.6541 105.539 51.7259 103.077 51.8611 100.357C51.992 97.6369 52.1567 95.1788 52.3172 93.4006C52.3975 92.5136 52.4777 91.7914 52.5537 91.2972C52.5918 91.048 52.6298 90.858 52.6636 90.7313C52.6805 90.6679 52.6974 90.6172 52.7227 90.5876C52.7607 90.5496 52.7692 90.6045 52.7649 90.5961Z" fill="#086663"/>
<path d="M99.2798 5.2873C95.7573 4.21027 92.087 7.36533 88.4715 6.65576C86.2752 6.22494 84.6196 4.47213 82.664 3.38243C79.7455 1.7521 75.6148 1.48601 72.6286 3.0023C69.6467 4.51859 67.725 6.13625 67.3153 9.45603C64.5995 7.89751 60.0717 11.3144 58.5259 14.6131C56.9842 17.9118 57.3686 21.3203 58.2471 24.8554C59.755 30.9417 62.4708 36.7239 66.1918 41.7669C66.5212 42.2146 67.0492 42.7088 67.5518 42.4723C67.8982 42.3076 68.0122 41.8767 68.0755 41.4966C68.5951 38.2655 68.1854 34.9669 67.9066 31.7062C67.6278 28.4455 67.4885 25.0835 68.519 21.9749C69.5496 18.8663 71.9782 16.0323 75.1924 15.3987C77.5661 14.9299 80.0285 15.7028 82.1361 16.8854C84.2437 18.0681 86.0978 19.6519 88.1041 20.9993C90.1103 22.3466 92.3657 23.4828 94.7817 23.5884C97.1976 23.6939 99.7867 22.5536 100.817 20.3657C101.848 18.1779 100.691 15.0693 98.3253 14.5666C100.496 14.3681 102.393 12.4886 102.617 10.3219C102.84 8.1467 101.366 5.92507 99.2798 5.2873Z" fill="#263238"/>
<path d="M88.4196 61.9339L88.0775 54.9395C88.0775 54.9395 97.2935 53.1741 97.0823 43.9032C96.9809 39.4261 96.0221 30.227 95.0549 21.9106C94.0201 12.9649 86.2866 6.31693 77.2903 6.62948L76.3949 6.65904C66.7734 7.55868 62.1654 16.234 63.3311 25.826L65.5485 63.1672C65.9202 69.452 71.2969 74.2543 77.5859 73.9206C83.8834 73.5912 88.7237 68.2314 88.4196 61.9339Z" fill="#FFBE9D"/>
<path d="M88.1172 54.9368C88.1172 54.9368 82.2759 55.6168 75.915 51.9253C75.915 51.9253 79.0025 58.4931 88.2227 57.3358L88.1172 54.9368Z" fill="#EB996E"/>
<path d="M91.9103 28.1965C91.9609 28.8934 91.4076 29.5101 90.6812 29.5777C89.9547 29.641 89.3254 29.13 89.2747 28.433C89.224 27.7361 89.7773 27.1153 90.5038 27.0519C91.2303 26.9843 91.8638 27.4996 91.9103 28.1965Z" fill="#263238"/>
<path d="M93.2654 26.5116C93.1091 26.689 92.0785 25.9837 90.6552 26.0386C89.2318 26.0724 88.2139 26.8411 88.0534 26.6721C87.9731 26.5961 88.1294 26.2793 88.5729 25.933C89.0079 25.5866 89.764 25.2403 90.6509 25.2107C91.5379 25.1854 92.2939 25.4853 92.7374 25.802C93.1851 26.123 93.3456 26.4314 93.2654 26.5116Z" fill="#263238"/>
<path d="M77.9083 29.1678C77.959 29.8647 77.4057 30.4813 76.6792 30.5489C75.9528 30.6122 75.3234 30.1012 75.2728 29.4043C75.2221 28.7074 75.7754 28.0865 76.5018 28.0231C77.2325 27.9556 77.8618 28.4666 77.9083 29.1678Z" fill="#263238"/>
<path d="M79.2458 27.2678C79.0896 27.4452 78.059 26.7399 76.6356 26.7948C75.2123 26.8286 74.1943 27.5973 74.0339 27.4283C73.9536 27.3523 74.1099 27.0355 74.5534 26.6892C74.9884 26.3429 75.7402 25.9965 76.6314 25.967C77.5184 25.9416 78.2744 26.2415 78.7179 26.5583C79.1614 26.8793 79.3219 27.1876 79.2458 27.2678Z" fill="#263238"/>
<path d="M84.7913 37.6532C84.7829 37.573 85.6614 37.3871 87.089 37.1548C87.4522 37.1041 87.7943 37.0197 87.845 36.7705C87.921 36.5044 87.7563 36.12 87.5662 35.7019C87.1946 34.836 86.8018 33.9237 86.3921 32.9692C84.7617 29.0792 83.5664 25.8777 83.7227 25.8101C83.879 25.7467 85.3319 28.8469 86.9623 32.7369C87.3551 33.6956 87.731 34.6122 88.09 35.4865C88.242 35.8962 88.4954 36.3565 88.3307 36.9056C88.242 37.1802 87.9844 37.3871 87.7521 37.4589C87.5198 37.5392 87.317 37.5476 87.1354 37.5645C85.6952 37.6954 84.7998 37.7335 84.7913 37.6532Z" fill="#263238"/>
<path d="M80.5603 38.7839C80.7926 38.7628 80.8475 40.3086 82.2117 41.3603C83.5718 42.4162 85.2105 42.1839 85.2316 42.3993C85.257 42.4965 84.8769 42.7119 84.18 42.7541C83.5 42.8006 82.4947 42.619 81.6627 41.9728C80.8306 41.3265 80.4547 40.4438 80.3787 39.8103C80.2942 39.1683 80.4547 38.7797 80.5603 38.7839Z" fill="#263238"/>
<path d="M79.1351 19.9664C79.0084 20.3592 77.5808 20.2241 75.9167 20.4859C74.2484 20.714 72.9179 21.2504 72.6856 20.9083C72.58 20.7436 72.8039 20.3719 73.3361 19.9791C73.864 19.5863 74.713 19.202 75.7098 19.0541C76.7108 18.9105 77.6315 19.0372 78.2482 19.2611C78.869 19.4892 79.1858 19.7806 79.1351 19.9664Z" fill="#263238"/>
<path d="M92.5891 22.4031C92.3483 22.7367 91.3558 22.4326 90.1774 22.458C88.9947 22.4411 88.0064 22.7536 87.7657 22.42C87.6601 22.2595 87.8037 21.93 88.2303 21.609C88.6484 21.288 89.3622 21.0135 90.1731 21.0093C90.9841 21.005 91.6979 21.2754 92.1202 21.5921C92.5468 21.9131 92.6947 22.2426 92.5891 22.4031Z" fill="#263238"/>
<path d="M64.2929 32.6737C64.1324 32.6104 57.8602 31.0139 58.2826 37.3409C58.7092 43.6679 64.9729 41.9362 64.9729 41.7546C64.9729 41.573 64.2929 32.6737 64.2929 32.6737Z" fill="#FFBE9D"/>
<path d="M62.8891 39.4919C62.8595 39.475 62.7835 39.5764 62.6019 39.6735C62.4245 39.7706 62.1162 39.8467 61.7783 39.7453C61.0941 39.5468 60.4605 38.5204 60.3507 37.3843C60.2958 36.8099 60.3803 36.2524 60.5534 35.7835C60.7139 35.3063 60.9927 34.9641 61.3264 34.8797C61.6558 34.7783 61.9092 34.9641 61.9979 35.1373C62.0951 35.3105 62.0613 35.4372 62.0993 35.4456C62.1162 35.4583 62.226 35.3316 62.1584 35.074C62.1246 34.9515 62.0402 34.8079 61.8839 34.6938C61.7234 34.5798 61.4953 34.5333 61.263 34.5756C60.7773 34.6431 60.3676 35.1204 60.1775 35.6357C59.9579 36.1552 59.8523 36.7803 59.9157 37.4265C60.0424 38.6978 60.7731 39.8467 61.7065 40.0494C62.1584 40.1339 62.5217 39.9776 62.7033 39.8129C62.8849 39.6439 62.9102 39.5003 62.8891 39.4919Z" fill="#EB996E"/>
<path d="M96.9452 19.9108C92.9032 21.1399 88.2783 20.2698 84.9628 17.6511C82.6397 15.8181 80.8067 13.1318 77.9515 12.3631C76.0297 11.8436 73.9306 12.3293 72.2242 13.3515C70.5179 14.3736 69.1579 15.8941 68.0006 17.516C69.9561 22.162 68.9382 27.4627 67.8908 32.3917C67.7767 32.9365 67.6331 33.5236 67.2065 33.8784C66.4759 34.4824 65.3397 34.0685 64.6639 33.4096C63.5784 32.3537 63.1181 30.8205 62.8013 29.338C62.0748 25.9633 61.8636 22.4492 62.5014 19.0618C63.1392 15.6702 64.6555 12.4054 67.0629 9.93454C70.0744 6.84705 74.3867 5.14915 78.6949 5.06467C83.0072 4.9802 87.2858 6.45003 90.8167 8.92509C92.4555 10.0739 93.976 11.4762 94.863 13.2712" fill="#263238"/>
<path d="M102.025 7.42578C102.025 7.42578 102.071 7.62007 101.987 7.97908C101.906 8.32964 101.678 8.85337 101.146 9.31798C100.622 9.78258 99.7862 10.112 98.8063 10.1923C98.3163 10.2303 97.7884 10.2345 97.2309 10.15C96.6776 10.0613 96.0862 9.87127 95.5921 9.45736C95.1106 9.05611 94.7093 8.42679 94.7389 7.6961C94.76 6.95696 95.3344 6.31074 96.0271 6.03198C96.3777 5.88415 96.7663 5.81235 97.1633 5.84614C97.5561 5.87993 97.9531 6.04465 98.2699 6.29807C98.9203 6.80491 99.2624 7.64119 99.292 8.48169C99.33 9.33487 98.971 10.1965 98.3755 10.8427C97.7799 11.4932 96.9859 11.9578 96.1243 12.2238C94.3841 12.7687 92.4412 12.5026 90.6884 11.8268C88.9187 11.1553 87.3644 10.15 85.903 9.17015C84.4417 8.19449 83.0225 7.25684 81.5569 6.6064C80.0997 5.94328 78.5835 5.61384 77.1685 5.69831C75.7536 5.78278 74.4696 6.22627 73.4137 6.80491C71.2808 7.98753 70.0601 9.63475 69.3463 10.7709C68.9873 11.3496 68.7466 11.8226 68.5903 12.1436C68.434 12.4646 68.3538 12.6378 68.3411 12.6335C68.3369 12.6335 68.3496 12.5871 68.3833 12.4984C68.4171 12.4139 68.4636 12.283 68.5354 12.1183C68.6748 11.7846 68.8986 11.2989 69.245 10.7076C69.9334 9.54183 71.1414 7.84392 73.3123 6.61062C74.3894 6.00664 75.6987 5.53781 77.1601 5.44067C78.6215 5.3393 80.1927 5.67297 81.6836 6.34031C83.183 6.99919 84.6148 7.94107 86.0804 8.91251C87.5418 9.88817 89.075 10.8765 90.8067 11.5312C92.5173 12.1943 94.3841 12.4435 96.0398 11.9282C96.855 11.6748 97.6068 11.2397 98.1601 10.6358C98.7134 10.036 99.0386 9.26307 99.009 8.48592C98.9879 7.71721 98.6753 6.96118 98.1052 6.51348C97.5519 6.04043 96.762 6.00664 96.1369 6.27273C95.5076 6.52192 95.0134 7.08367 94.9923 7.70877C94.9585 8.33387 95.3091 8.91251 95.7484 9.28841C96.1961 9.66854 96.7494 9.8586 97.2773 9.95152C97.8095 10.0402 98.329 10.0444 98.8063 10.0149C99.765 9.95575 100.568 9.65587 101.079 9.22506C101.598 8.79424 101.839 8.3043 101.936 7.96641C102.025 7.62007 102.004 7.42578 102.025 7.42578Z" fill="#455A64"/>
<path d="M57.5784 20.1063C57.5996 20.0387 58.3007 20.4442 59.5298 20.5413C60.1422 20.5835 60.8771 20.5117 61.6458 20.2456C62.4145 19.9922 63.217 19.5572 63.9815 19.0208C65.5104 17.9142 66.3383 16.3219 66.6719 15.1477C67.0183 13.9566 66.9634 13.1668 67.0225 13.171C67.0394 13.171 67.069 13.3653 67.0732 13.7201C67.0732 14.0749 67.0352 14.5902 66.8831 15.2068C66.5959 16.4317 65.7639 18.1127 64.1631 19.2742C63.3691 19.836 62.5454 20.271 61.7303 20.5202C60.9236 20.782 60.1422 20.8327 59.5086 20.7609C58.8709 20.6849 58.3767 20.516 58.0557 20.3724C57.7347 20.2287 57.57 20.1232 57.5784 20.1063Z" fill="#455A64"/>
<path d="M58.0343 24.6777C58.0427 24.6186 58.7861 24.758 59.9771 24.6482C61.1598 24.5468 62.807 24.1202 64.2937 23.0643C65.7762 22.0042 66.7181 20.585 67.1996 19.4995C67.6937 18.4098 67.8035 17.658 67.8627 17.6707C67.8796 17.6749 67.8711 17.8608 67.812 18.1986C67.7529 18.5365 67.6304 19.018 67.4023 19.584C66.963 20.7202 66.0169 22.2153 64.4753 23.3135C62.9337 24.4116 61.2104 24.8171 59.994 24.8636C59.3816 24.8889 58.8874 24.8509 58.5495 24.796C58.2116 24.7495 58.03 24.6988 58.0343 24.6777Z" fill="#455A64"/>
<path d="M74.7092 33.497C74.6246 33.5182 74.54 33.4589 74.5146 33.3658C74.4934 33.2727 74.5442 33.1838 74.6288 33.1627C74.7135 33.1415 74.7981 33.2008 74.8235 33.2939C74.8447 33.387 74.7939 33.4801 74.7092 33.497Z" fill="#EB996E"/>
<path d="M77.4031 32.7886C77.3185 32.8097 77.2296 32.7378 77.2042 32.632C77.1788 32.5262 77.2253 32.4246 77.31 32.4034C77.3946 32.3823 77.4835 32.4542 77.5089 32.56C77.5343 32.6658 77.4878 32.7674 77.4031 32.7886Z" fill="#EB996E"/>
<path d="M79.2235 32.6772C79.139 32.6899 79.0503 32.5885 79.0292 32.4491C79.0081 32.3098 79.0588 32.1831 79.1432 32.1704C79.2277 32.1577 79.3164 32.2591 79.3375 32.3985C79.3629 32.5378 79.308 32.6603 79.2235 32.6772Z" fill="#EB996E"/>
<path d="M76.1091 35.1575C76.0202 35.1618 75.9482 35.1194 75.9482 35.0644C75.9482 35.0094 76.016 34.9628 76.1006 34.9586C76.1895 34.9544 76.2614 34.9967 76.2614 35.0517C76.2614 35.111 76.1937 35.1575 76.1091 35.1575Z" fill="#EB996E"/>
<path d="M78.5882 34.492C78.5035 34.5047 78.4231 34.4327 78.4104 34.3354C78.3977 34.238 78.457 34.1491 78.5458 34.1407C78.6305 34.1322 78.7109 34.1999 78.7236 34.2973C78.7321 34.3904 78.6728 34.4793 78.5882 34.492Z" fill="#EB996E"/>
<path d="M91.5022 32.4877C91.4176 32.5088 91.3287 32.4453 91.3075 32.3522C91.2864 32.2549 91.3372 32.1618 91.4218 32.1448C91.5065 32.1237 91.5953 32.1872 91.6165 32.2803C91.6377 32.3734 91.5869 32.4665 91.5022 32.4877Z" fill="#EB996E"/>
<path d="M93.3806 32.2539C93.2959 32.2666 93.2113 32.1862 93.1986 32.0762C93.1859 31.9661 93.2409 31.8688 93.3298 31.8603C93.4144 31.8476 93.4991 31.928 93.5118 32.0381C93.5245 32.1481 93.4652 32.2455 93.3806 32.2539Z" fill="#EB996E"/>
<path d="M89.8758 32.5909C89.7912 32.6121 89.7065 32.5655 89.6896 32.4936C89.6727 32.4174 89.7277 32.3412 89.8123 32.3243C89.897 32.3031 89.9816 32.3497 89.9986 32.4216C90.0155 32.4978 89.9605 32.574 89.8758 32.5909Z" fill="#EB996E"/>
<path d="M91.3321 34.3972C91.2559 34.4353 91.1544 34.393 91.112 34.3041C91.0697 34.2152 91.0951 34.1094 91.1755 34.0713C91.2517 34.0332 91.3533 34.0756 91.3956 34.1687C91.4379 34.2533 91.4083 34.3591 91.3321 34.3972Z" fill="#EB996E"/>
<path d="M92.9232 34.0232C92.8385 34.002 92.7835 33.93 92.8004 33.8581C92.8174 33.7861 92.8978 33.7438 92.9824 33.765C93.0671 33.7861 93.1221 33.8581 93.1052 33.93C93.0882 34.002 93.0078 34.0443 92.9232 34.0232Z" fill="#EB996E"/>
<path d="M89.7418 139.28L89.6404 129.891C89.6404 129.891 83.3767 121.212 85.8476 111.797C85.8476 111.797 89.9318 108.925 100.884 110.61C100.884 110.61 114.632 97.217 133.059 100.621C151.487 104.025 153.202 120.084 153.375 124.455C153.548 128.827 153.51 137.316 147.171 145.616L146.744 153.852C146.744 153.852 145.232 156.956 140.861 156.745C136.485 156.534 136.734 155.888 136.734 155.888C136.734 155.888 131.252 160.318 131.007 161.48C130.762 162.641 129.909 167.021 129.909 167.021C129.909 167.021 128.008 169.614 123.894 169.914C121.951 170.058 120.351 169.538 119.197 168.951C118.091 168.385 117.246 167.41 116.87 166.223C116.351 164.576 115.012 161.797 111.7 160.272L108.862 159.528C108.862 159.528 107.718 160.567 103.735 160.998C99.7518 161.425 99.7391 160.01 99.7391 160.01C99.7391 160.01 93.543 161.442 88.8844 155.368C85.2056 150.566 83.212 141.924 89.7418 139.28Z" fill="#4DAAA7"/>
<path d="M127.955 139.82C127.951 139.816 128.019 139.714 128.158 139.533C128.298 139.347 128.505 139.077 128.762 138.722C129.282 138.016 130.012 136.973 130.811 135.626C131.605 134.278 132.471 132.619 133.235 130.693C133.619 129.73 133.978 128.703 134.295 127.626C134.603 126.558 134.878 125.383 134.599 124.243C134.316 123.098 133.476 122.216 132.572 121.578C131.655 120.936 130.663 120.48 129.708 120.091C127.791 119.323 125.945 118.955 124.386 118.811C122.828 118.659 121.557 118.731 120.687 118.811C120.251 118.854 119.914 118.896 119.686 118.93C119.457 118.959 119.335 118.972 119.335 118.964C119.335 118.955 119.453 118.93 119.681 118.883C119.909 118.833 120.243 118.778 120.682 118.723C121.557 118.617 122.832 118.52 124.408 118.651C125.979 118.778 127.846 119.128 129.788 119.897C130.756 120.286 131.761 120.742 132.703 121.396C133.628 122.043 134.519 122.968 134.819 124.184C135.115 125.4 134.823 126.604 134.511 127.681C134.185 128.767 133.822 129.797 133.429 130.764C132.648 132.695 131.769 134.359 130.95 135.702C130.126 137.045 129.375 138.076 128.834 138.768C128.564 139.115 128.344 139.376 128.196 139.554C128.044 139.735 127.96 139.828 127.955 139.82Z" fill="#263238"/>
<path d="M102.178 111.015C102.182 111.015 102.211 111.087 102.241 111.235C102.271 111.383 102.296 111.603 102.271 111.89C102.224 112.456 101.928 113.279 101.219 114.023C100.526 114.783 99.4788 115.404 98.4609 116.24C97.4303 117.072 96.3659 118.069 95.3734 119.235C93.3756 121.553 92.0578 124.029 91.3102 125.883C90.9343 126.812 90.6809 127.585 90.5162 128.121C90.4402 128.37 90.381 128.577 90.3303 128.742C90.2839 128.881 90.2585 128.957 90.2501 128.953C90.2416 128.953 90.2543 128.873 90.2881 128.729C90.3261 128.56 90.3768 128.354 90.4359 128.096C90.5753 127.551 90.8076 126.765 91.1708 125.824C91.8889 123.944 93.194 121.431 95.2129 119.087C96.2139 117.913 97.2951 116.907 98.3426 116.08C99.3858 115.243 100.433 114.639 101.118 113.913C101.819 113.208 102.127 112.422 102.199 111.877C102.262 111.324 102.152 111.02 102.178 111.015Z" fill="#263238"/>
<g opacity="0.5">
<path opacity="0.5" d="M109.547 112.169L115.152 113.601C115.152 113.601 123.358 104.377 132.371 102.045L128.997 101.247C129.001 101.247 118.112 103.156 109.547 112.169Z" fill="black"/>
</g>
<path d="M130.547 101.602C123.223 103.236 116.419 107.122 111.287 112.596L109.547 112.165C109.547 112.165 117.496 103.439 128.997 101.243L130.547 101.602Z" fill="#4DAAA7"/>
<g opacity="0.7">
<g opacity="0.7">
<path opacity="0.7" d="M130.533 101.603C123.209 103.237 116.405 107.123 111.273 112.597L109.533 112.166C109.533 112.166 117.482 103.44 128.983 101.244L130.533 101.603Z" fill="black"/>
</g>
</g>
<path d="M87.0381 141.199C90.1467 136.756 97.9309 138.112 101.483 142.111C104.984 146.052 106.615 151.606 104.3 156.345C103.312 158.368 101.42 160.155 99.1684 160.104C101.479 157.616 102.298 154.026 101.576 150.707C100.854 147.391 98.7629 144.464 96.1189 142.335C94.78 141.254 93.2722 140.067 91.5574 139.898C89.8468 139.725 88.4699 139.674 87.0381 141.199Z" fill="#4DAAA7"/>
<g opacity="0.3">
<g opacity="0.3">
<path opacity="0.3" d="M87.04 141.199C90.1486 136.756 97.9328 138.112 101.485 142.112C104.986 146.052 106.617 151.607 104.302 156.345C103.314 158.369 101.422 160.155 99.1703 160.105C101.481 157.617 102.3 154.027 101.578 150.707C100.856 147.391 98.7649 144.464 96.1209 142.336C94.782 141.254 93.2741 140.068 91.5593 139.899C89.8488 139.725 88.4719 139.675 87.04 141.199Z" fill="black"/>
</g>
</g>
<g opacity="0.3">
<g opacity="0.3">
<path opacity="0.3" d="M128.254 139.563C128.199 140.505 129.056 141.337 129.99 141.447C130.923 141.557 131.857 141.062 132.478 140.357C133.098 139.652 133.462 138.752 133.745 137.857C134.716 134.816 135.219 130.271 134.708 127.116C133.365 131.2 130.966 136.294 128.182 139.571" fill="black"/>
</g>
</g>
<g opacity="0.3">
<g opacity="0.3">
<path opacity="0.3" d="M131.205 125.518C130.601 123.731 128.751 122.692 126.969 122.072C125.157 121.438 123.252 121.066 121.339 120.965C120.735 120.931 120.114 120.931 119.544 121.142C118.978 121.354 118.467 121.814 118.365 122.409C118.281 122.891 118.543 123.423 118.965 123.634C122.019 127.161 124.317 131.338 125.668 135.807C125.93 136.673 127.028 136.909 127.628 136.225C129.064 134.586 129.892 132.377 130.635 130.282C131.18 128.745 131.729 127.064 131.205 125.518Z" fill="black"/>
</g>
</g>
<g opacity="0.3">
<g opacity="0.3">
<path opacity="0.3" d="M90.8353 126.341C88.922 123.38 87.9168 119.84 87.9928 116.314C88.0097 115.566 88.0984 114.759 88.6221 114.223C89.2514 113.577 90.2736 113.564 91.1732 113.623C93.6567 113.779 96.1318 114.126 98.5604 114.662C98.7504 114.704 98.9658 114.768 99.0418 114.949C99.1559 115.22 99.1263 115.646 98.8771 115.798C95.097 118.117 92.4149 122.383 90.9874 126.556" fill="black"/>
</g>
</g>
<path d="M86.1155 112.136C86.1324 112.136 86.1198 112.364 86.086 112.774C86.048 113.183 86.0142 113.775 85.9888 114.505C85.9381 115.967 85.9846 117.994 86.3605 120.195C86.5548 121.293 86.8124 122.323 87.0912 123.248C87.3784 124.169 87.6783 124.988 87.9655 125.66C88.2527 126.332 88.4977 126.872 88.6835 127.235C88.8651 127.603 88.9581 127.81 88.9454 127.818C88.9327 127.827 88.8144 127.632 88.6075 127.278C88.3963 126.923 88.126 126.391 87.8219 125.723C87.5136 125.056 87.1968 124.237 86.8969 123.307C86.6055 122.378 86.3394 121.339 86.1451 120.228C85.765 118.011 85.7439 115.963 85.8368 114.493C85.8832 113.758 85.9424 113.166 86.0057 112.761C86.0648 112.356 86.1029 112.132 86.1155 112.136Z" fill="#FAFAFA"/>
<path d="M128.683 100.939C128.683 100.948 128.611 100.973 128.463 101.02C128.294 101.07 128.083 101.129 127.83 101.205C127.551 101.281 127.217 101.374 126.829 101.501C126.44 101.624 125.992 101.75 125.511 101.923C124.539 102.244 123.399 102.679 122.153 103.212C120.911 103.757 119.572 104.403 118.204 105.163C116.844 105.932 115.59 106.738 114.479 107.511C113.376 108.297 112.409 109.045 111.628 109.703C111.227 110.024 110.889 110.337 110.58 110.607C110.272 110.873 110.014 111.11 109.803 111.308C109.605 111.486 109.444 111.634 109.313 111.752C109.199 111.853 109.136 111.904 109.132 111.895C109.127 111.887 109.178 111.828 109.284 111.718C109.406 111.591 109.558 111.435 109.744 111.241C109.943 111.034 110.192 110.785 110.496 110.51C110.796 110.236 111.129 109.91 111.526 109.581C112.299 108.901 113.258 108.141 114.36 107.342C115.471 106.557 116.726 105.737 118.094 104.964C119.467 104.2 120.818 103.554 122.069 103.017C123.323 102.494 124.476 102.071 125.46 101.767C125.946 101.602 126.398 101.484 126.791 101.374C127.183 101.26 127.526 101.176 127.804 101.113C128.066 101.053 128.277 101.007 128.451 100.969C128.603 100.948 128.683 100.935 128.683 100.939Z" fill="#FAFAFA"/>
<path d="M133.579 123.263C133.545 123.301 132.908 122.65 131.683 121.869C131.079 121.468 130.306 121.075 129.427 120.69C128.545 120.315 127.535 119.998 126.458 119.753C124.296 119.267 122.264 119.276 120.824 119.415C119.379 119.563 118.505 119.804 118.492 119.757C118.488 119.744 118.703 119.677 119.1 119.575C119.493 119.466 120.08 119.356 120.803 119.259C122.251 119.077 124.308 119.043 126.5 119.537C127.594 119.787 128.612 120.112 129.503 120.505C130.386 120.902 131.163 121.316 131.763 121.738C131.915 121.839 132.059 121.941 132.194 122.034C132.32 122.135 132.443 122.232 132.561 122.325C132.794 122.502 132.984 122.663 133.127 122.811C133.431 123.09 133.592 123.25 133.579 123.263Z" fill="#FAFAFA"/>
<path d="M95.8014 159.42C95.7972 159.428 95.7296 159.407 95.5987 159.365C95.472 159.318 95.2735 159.264 95.0369 159.162C94.5512 158.976 93.867 158.66 93.0645 158.182C91.468 157.24 89.4322 155.53 87.9919 153.055C86.5474 150.58 86.0533 147.965 86.0195 146.115C85.9983 145.186 86.0575 144.43 86.1335 143.919C86.1631 143.661 86.2095 143.463 86.2349 143.328C86.2602 143.193 86.2813 143.125 86.2856 143.125C86.3024 143.129 86.2644 143.412 86.218 143.927C86.1715 144.443 86.1335 145.19 86.1757 146.111C86.2518 147.944 86.7586 150.512 88.182 152.945C89.6053 155.378 91.5905 157.084 93.149 158.051C93.9304 158.541 94.6019 158.875 95.0707 159.086C95.5438 159.293 95.8099 159.399 95.8014 159.42Z" fill="#FAFAFA"/>
<g opacity="0.2">
<g opacity="0.2">
<path opacity="0.2" d="M96.9161 149.658C96.2699 149.413 95.4927 149.641 95.0239 150.147C94.5551 150.654 94.3777 151.398 94.4875 152.078C94.5973 152.762 94.8043 153.349 95.2942 153.835C95.6321 154.168 96.2192 154.485 96.688 154.515C97.3385 154.557 97.9382 154.088 98.255 153.514C98.6267 152.842 98.6943 152.006 98.4324 151.288C98.1705 150.566 97.6384 149.928 96.9161 149.658Z" fill="black"/>
</g>
</g>
<path d="M96.266 149.578C95.6578 150.309 95.4593 151.356 95.7592 152.26C96.0591 153.16 96.8447 153.886 97.7654 154.106C97.4529 154.41 96.8193 154.621 96.3421 154.482C95.075 154.119 94.2598 152.788 94.357 151.475C94.395 150.947 94.5935 150.419 94.9694 150.047C95.3453 149.679 96.0591 149.536 96.266 149.578Z" fill="#4DAAA7"/>
<g opacity="0.4">
<g opacity="0.4">
<path opacity="0.4" d="M96.2665 149.579C95.6583 150.31 95.4598 151.357 95.7597 152.261C96.0596 153.161 96.8452 153.887 97.7659 154.107C97.4534 154.411 96.8198 154.622 96.3426 154.483C95.0755 154.12 94.2603 152.789 94.3574 151.476C94.3955 150.948 94.594 150.42 94.9699 150.048C95.3458 149.681 96.0596 149.537 96.2665 149.579Z" fill="black"/>
</g>
</g>
<g opacity="0.2">
<g opacity="0.2">
<path opacity="0.2" d="M90.6975 147.259C90.0724 147.022 89.3248 147.242 88.8729 147.732C88.4167 148.222 88.2478 148.935 88.3576 149.594C88.4632 150.253 88.6617 150.823 89.1347 151.292C89.4599 151.613 90.0259 151.922 90.4821 151.947C91.1114 151.985 91.6858 151.533 91.9941 150.984C92.3531 150.338 92.4165 149.531 92.1631 148.834C91.9054 148.133 91.3902 147.521 90.6975 147.259Z" fill="black"/>
</g>
</g>
<path d="M90.0623 147.182C89.4752 147.888 89.2852 148.897 89.5724 149.767C89.8596 150.637 90.6198 151.334 91.5068 151.55C91.2069 151.841 90.5945 152.044 90.1341 151.913C88.9135 151.562 88.1279 150.278 88.2208 149.011C88.2588 148.504 88.4489 147.993 88.8121 147.634C89.1754 147.28 89.8638 147.14 90.0623 147.182Z" fill="#4DAAA7"/>
<g opacity="0.4">
<g opacity="0.4">
<path opacity="0.4" d="M90.0618 147.182C89.4748 147.888 89.2847 148.897 89.5719 149.767C89.8591 150.637 90.6194 151.334 91.5063 151.549C91.2064 151.841 90.594 152.044 90.1336 151.913C88.913 151.562 88.1274 150.278 88.2203 149.011C88.2583 148.504 88.4484 147.993 88.8116 147.634C89.1749 147.279 89.8633 147.14 90.0618 147.182Z" fill="black"/>
</g>
</g>
<path d="M107.496 135.369C107.529 135.365 107.464 135.373 107.496 135.369V135.369Z" fill="white"/>
<path d="M106.724 135.61C106.741 135.597 106.766 135.593 106.783 135.58C106.791 135.576 106.8 135.568 106.813 135.564L106.724 135.61Z" fill="white"/>
<path d="M109.919 136.952C109.7 136.42 109.341 135.917 108.825 135.664C108.492 135.503 108.01 135.343 107.533 135.364L107.495 135.368C107.263 135.385 107.005 135.457 106.785 135.583C105.852 136.031 105.172 137.011 105.092 138.054C104.995 139.381 105.831 140.703 107.035 141.26C107.44 141.446 107.896 141.556 108.331 141.459C108.77 141.357 109.138 141.049 109.417 140.694C110.244 139.659 110.422 138.173 109.919 136.952Z" fill="white"/>
<path d="M94.348 131.314C94.3723 131.306 94.3196 131.314 94.348 131.314V131.314Z" fill="white"/>
<path d="M93.6846 131.523C93.7013 131.511 93.7223 131.511 93.7348 131.498C93.7432 131.494 93.7516 131.49 93.76 131.486L93.6846 131.523Z" fill="white"/>
<path d="M96.4505 132.685C96.2604 132.225 95.9521 131.79 95.5044 131.57C95.2172 131.431 94.799 131.291 94.3851 131.308L94.3513 131.312C94.1486 131.325 93.9247 131.388 93.7389 131.498C92.9322 131.887 92.3409 132.731 92.2733 133.639C92.1888 134.788 92.9111 135.933 93.9585 136.419C94.3091 136.579 94.7061 136.676 95.082 136.588C95.4622 136.499 95.7789 136.233 96.0239 135.924C96.7292 135.033 96.8813 133.741 96.4505 132.685Z" fill="white"/>
<path d="M97.3013 139.733C97.3013 139.725 97.3942 139.746 97.5632 139.788C97.7363 139.826 97.9813 139.907 98.2981 140.012C98.9274 140.24 99.8144 140.65 100.782 141.359C101.745 142.069 102.779 143.091 103.62 144.443C104.465 145.79 105.094 147.45 105.385 149.258C105.668 151.07 105.622 152.831 105.326 154.394C105.035 155.952 104.397 157.299 103.573 158.186C102.754 159.082 101.842 159.525 101.2 159.707C100.549 159.893 100.173 159.846 100.173 159.846C100.169 159.817 100.549 159.829 101.174 159.623C101.795 159.424 102.674 158.968 103.455 158.081C104.241 157.202 104.849 155.889 105.123 154.351C105.402 152.818 105.444 151.07 105.166 149.291C104.879 147.509 104.266 145.875 103.442 144.548C102.627 143.214 101.622 142.196 100.68 141.482C99.7384 140.764 98.8725 140.337 98.2601 140.088C97.6519 139.847 97.2971 139.754 97.3013 139.733Z" fill="#263238"/>
<path d="M93.2529 134.736C93.2317 134.753 93.1219 134.66 93.0079 134.461C92.8939 134.263 92.7925 133.954 92.7925 133.604C92.7925 133.253 92.8896 132.941 93.0037 132.746C93.1135 132.548 93.2233 132.455 93.2444 132.472C93.2993 132.506 93.0037 132.966 93.0121 133.608C93.0079 134.242 93.3078 134.702 93.2529 134.736Z" fill="#FAFAFA"/>
<path d="M105.956 139.403C105.935 139.416 105.829 139.306 105.736 139.082C105.643 138.858 105.584 138.516 105.643 138.148C105.707 137.781 105.871 137.477 106.032 137.295C106.192 137.114 106.328 137.042 106.344 137.063C106.391 137.109 105.96 137.511 105.859 138.182C105.74 138.858 106.015 139.373 105.956 139.403Z" fill="#FAFAFA"/>
<path d="M113.977 161.726C113.956 161.76 113.445 161.405 112.55 160.957C111.659 160.505 110.375 159.994 108.917 159.521C107.464 159.048 106.134 158.643 105.188 158.305C104.715 158.136 104.335 157.992 104.073 157.882C103.815 157.773 103.672 157.705 103.68 157.692C103.693 157.663 104.28 157.866 105.239 158.161C106.197 158.461 107.528 158.837 108.989 159.314C110.451 159.792 111.743 160.328 112.621 160.822C112.845 160.94 113.04 161.059 113.209 161.168C113.382 161.274 113.525 161.367 113.635 161.456C113.863 161.616 113.986 161.713 113.977 161.726Z" fill="#263238"/>
<path d="M143.955 148.122C143.967 148.131 143.828 148.342 143.57 148.718C143.313 149.094 142.916 149.621 142.4 150.255C141.374 151.526 139.824 153.169 137.982 154.842C136.141 156.514 134.422 157.963 133.205 159.044C132.618 159.568 132.137 159.999 131.769 160.328C131.432 160.633 131.237 160.797 131.229 160.785C131.22 160.772 131.389 160.59 131.71 160.265C132.031 159.94 132.504 159.484 133.104 158.93C134.295 157.82 136.002 156.35 137.839 154.681C139.676 153.013 141.235 151.395 142.286 150.158C142.81 149.537 143.228 149.03 143.507 148.667C143.781 148.304 143.942 148.114 143.955 148.122Z" fill="#263238"/>
<g opacity="0.2">
<g opacity="0.2">
<path opacity="0.2" d="M136.774 155.942C139.051 156.128 141.627 155.431 143.241 153.817C144.858 152.204 145.416 149.505 144.445 147.44C143.118 149.332 141.623 151.342 139.799 152.888C138.65 153.86 137.889 155.046 136.774 155.942Z" fill="black"/>
</g>
</g>
<g opacity="0.5">
<g opacity="0.5">
<path opacity="0.5" d="M128.672 102.817C131.612 107.172 137.69 108.545 140.621 112.903C141.757 114.589 142.315 116.586 142.86 118.546C145.115 126.672 147.37 134.803 149.626 142.929C149.905 137.645 148.633 132.417 147.366 127.276C146.116 122.204 144.87 117.127 143.62 112.054C143.345 110.939 143.058 109.795 142.403 108.849C141.736 107.89 140.744 107.218 139.776 106.568C136.304 104.236 132.731 101.863 128.66 100.934" fill="black"/>
</g>
</g>
<g opacity="0.3">
<g opacity="0.3">
<path opacity="0.3" d="M107.957 115.993C108.143 116.584 107.336 117.391 106.069 118.392C105.431 118.89 104.688 119.46 103.868 120.073C103.058 120.698 102.175 121.374 101.267 122.109C100.363 122.852 99.5223 123.574 98.7452 124.241C97.9765 124.917 97.2669 125.534 96.6503 126.053C95.4127 127.088 94.4582 127.718 93.9176 127.413C93.3981 127.126 93.4107 125.91 94.133 124.225C94.4878 123.384 95.0411 122.446 95.7675 121.488C96.5024 120.537 97.419 119.57 98.4918 118.692C99.573 117.817 100.705 117.12 101.782 116.597C102.867 116.081 103.898 115.731 104.793 115.553C106.589 115.19 107.784 115.427 107.957 115.993Z" fill="white"/>
</g>
</g>
<path d="M96.6545 149.327C96.6545 149.39 96.2152 149.428 95.6957 149.555C95.1762 149.677 94.7665 149.838 94.7369 149.779C94.7074 149.728 95.0959 149.47 95.645 149.34C96.1983 149.209 96.6587 149.268 96.6545 149.327Z" fill="#FAFAFA"/>
<path d="M90.2579 146.997C90.2494 147.06 89.844 147.035 89.3667 147.149C88.8894 147.254 88.5346 147.453 88.4966 147.402C88.4586 147.36 88.7881 147.056 89.316 146.933C89.8397 146.811 90.2706 146.942 90.2579 146.997Z" fill="#FAFAFA"/>
<path d="M118.692 166.634C118.637 166.664 118.075 165.718 117.294 164.607C116.517 163.496 115.816 162.647 115.862 162.605C115.904 162.567 116.686 163.361 117.475 164.48C118.265 165.604 118.743 166.609 118.692 166.634Z" fill="#FAFAFA"/>
<path d="M93.5283 122.311C93.5832 122.349 92.7512 123.565 92.0289 125.225C91.294 126.877 90.9604 128.313 90.8928 128.296C90.8674 128.292 90.9139 127.924 91.0617 127.341C91.2053 126.763 91.4588 125.973 91.8262 125.132C92.1937 124.296 92.6076 123.574 92.937 123.075C93.2665 122.577 93.5072 122.294 93.5283 122.311Z" fill="#FAFAFA"/>
<path d="M113.998 114.135C113.986 114.19 112.905 114 111.629 113.552C110.353 113.108 109.386 112.58 109.412 112.53C109.441 112.471 110.438 112.906 111.701 113.345C112.964 113.788 114.011 114.071 113.998 114.135Z" fill="#FAFAFA"/>
<path d="M146.939 107.285C146.981 107.31 146.31 108.231 145.144 108.974C143.982 109.726 142.867 109.958 142.863 109.908C142.842 109.844 143.902 109.532 145.03 108.797C146.166 108.075 146.892 107.238 146.939 107.285Z" fill="#EB996E"/>
<path d="M159.301 104.462C157.033 99.2249 134.331 80.6324 134.331 80.6324L121.538 97.2483C121.719 96.9991 142.415 109.602 142.415 109.602L148.522 137.424L149.57 142.378C149.57 142.378 146.825 144.773 146.939 147.303C147.015 148.988 143.12 152.629 143.12 152.629C142.2 151.864 141.608 151.649 141.144 151.738L137.026 155.594L138.006 156.489C139.1 157.486 140.536 158.018 142.014 157.972L149.055 157.756C150.06 157.727 151.01 157.309 151.711 156.586C153.878 154.356 158.444 149.381 158.537 146.977C158.587 145.634 158.6 144.355 158.596 143.324C158.592 143.328 161.569 109.7 159.301 104.462Z" fill="#FFBE9D"/>
<path d="M152.557 148.963C152.565 148.976 152.43 149.073 152.168 149.212C151.906 149.356 151.509 149.525 151.049 149.778C150.584 150.023 150.124 150.437 149.668 150.969C149.216 151.497 148.679 152.093 147.987 152.54C146.61 153.465 145.064 153.71 143.999 153.638C143.733 153.622 143.484 153.609 143.277 153.516C143.066 153.436 142.927 153.233 142.939 153.068C142.935 152.904 143.015 152.785 143.087 152.743C143.163 152.697 143.21 152.709 143.21 152.713C143.214 152.722 143.167 152.73 143.117 152.777C143.066 152.823 143.011 152.929 143.028 153.064C143.032 153.203 143.142 153.339 143.332 153.406C143.514 153.478 143.754 153.482 144.016 153.491C145.055 153.524 146.546 153.263 147.881 152.367C148.557 151.932 149.068 151.37 149.532 150.842C149.997 150.314 150.5 149.884 150.99 149.651C151.471 149.411 151.872 149.263 152.143 149.145C152.404 149.022 152.552 148.946 152.557 148.963Z" fill="#EB996E"/>
<path d="M149.349 152.626C149.379 152.681 148.796 153.023 148.171 153.555C147.541 154.083 147.106 154.598 147.056 154.56C147.009 154.531 147.381 153.94 148.031 153.39C148.686 152.846 149.328 152.58 149.349 152.626Z" fill="#EB996E"/>
<path d="M152.202 141.101C152.206 141.164 151.581 141.202 150.901 141.527C150.217 141.844 149.79 142.3 149.744 142.258C149.697 142.228 150.081 141.675 150.812 141.337C151.539 140.987 152.206 141.046 152.202 141.101Z" fill="#EB996E"/>
<path d="M147.792 154.799C147.776 154.833 147.336 154.618 146.58 154.436C145.828 154.254 144.743 154.145 143.581 154.377C143.294 154.44 143.015 154.508 142.754 154.601C142.623 154.639 142.492 154.698 142.34 154.723C142.192 154.757 142.002 154.715 141.888 154.626C141.482 154.33 141.106 154.056 140.768 153.811C140.139 153.342 139.759 153.042 139.776 153.017C139.793 152.992 140.207 153.249 140.861 153.684C141.204 153.916 141.588 154.174 141.998 154.453C142.179 154.592 142.407 154.491 142.686 154.39C142.956 154.292 143.244 154.221 143.543 154.153C144.743 153.912 145.866 154.052 146.622 154.28C147.007 154.385 147.298 154.52 147.501 154.613C147.695 154.719 147.797 154.782 147.792 154.799Z" fill="#EB996E"/>
<path d="M100.029 90.2592C97.3217 89.4862 96.1222 89.1484 96.1222 89.1484L96.1307 87.9193C96.1307 87.9193 96.1307 87.9193 97.2077 87.9066C98.2847 87.8939 99.8433 86.5635 99.8433 86.5635L102.154 83.0241L102.449 80.7602C102.2 77.9599 98.8296 79.0581 98.8296 79.0581C98.6691 78.0824 94.3567 77.1025 91.113 76.4985C88.9125 76.0888 86.6444 76.6844 84.9296 78.1289L81.8167 80.756L72.4867 88.9245L48.4077 109.261L32.5817 104.59C32.5817 104.59 27.5513 119.989 26.7277 125.518C25.1523 136.115 39.7154 143.177 46.1396 137.725C51.1319 133.484 80.2498 102.132 85.0732 96.9283C85.0858 96.9283 85.1027 96.9283 85.1154 96.9283C88.0846 96.5482 93.0896 93.5536 93.0896 93.5536L95.6618 93.8577C95.6618 93.8577 102.496 95.1628 103.307 93.8239C103.936 92.7638 102.736 91.0321 100.029 90.2592Z" fill="#FFBE9D"/>
<path d="M86.0239 87.1763C86.0365 87.172 86.0914 87.2776 86.1759 87.4719C86.2646 87.6662 86.3618 87.9619 86.4547 88.3378C86.6405 89.0811 86.7461 90.1582 86.5645 91.3239C86.3787 92.4896 85.9436 93.4822 85.5339 94.1284C85.3312 94.4536 85.1454 94.707 85.0017 94.8633C84.8624 95.0238 84.7779 95.1083 84.7652 95.0998C84.7357 95.0745 85.0313 94.7113 85.3988 94.0481C85.7662 93.3935 86.1632 92.4178 86.3449 91.2859C86.5223 90.1539 86.4462 89.1023 86.2984 88.3673C86.159 87.6324 85.9901 87.1889 86.0239 87.1763Z" fill="#EB996E"/>
<path d="M87.752 78.5552C87.752 78.5467 87.8406 78.5298 88.018 78.5045C88.1912 78.4791 88.4489 78.4453 88.7825 78.4158C89.4456 78.3609 90.4213 78.2764 91.6166 78.4496C92.2121 78.5425 92.8583 78.7072 93.5046 79.0113C94.1466 79.3154 94.7928 79.7589 95.3038 80.3882C95.8107 81.0133 96.1823 81.8369 96.1697 82.7323C96.1655 83.1758 96.0472 83.632 95.836 84.0374C95.6248 84.4471 95.3334 84.8104 95.0082 85.1356C94.362 85.7734 93.6524 86.2971 92.9386 86.7617C92.5754 86.9813 92.2332 87.2179 91.8278 87.3699C91.6293 87.4417 91.4181 87.4924 91.1942 87.4755C90.9746 87.467 90.7507 87.3572 90.6114 87.1798C90.4678 87.0024 90.4255 86.7786 90.4297 86.5759C90.434 86.3731 90.4762 86.1788 90.5353 85.9972C90.662 85.6382 90.831 85.313 91.0295 85.0216C91.4307 84.4345 91.9503 83.9994 92.4824 83.7165L92.5078 83.8643C91.3125 83.6362 90.3326 83.4504 89.6273 83.3152C89.3063 83.2476 89.0486 83.1969 88.8459 83.1547C88.6685 83.1167 88.5756 83.0914 88.5756 83.0829C88.5756 83.0745 88.6727 83.0829 88.8543 83.1082C89.0571 83.1378 89.3189 83.18 89.6441 83.2265C90.3537 83.3448 91.3378 83.5053 92.5373 83.7038L92.7612 83.7418L92.5627 83.8516C92.0558 84.1346 91.5659 84.557 91.1858 85.1187C90.9957 85.3975 90.8394 85.7142 90.7212 86.0521C90.6156 86.3773 90.5649 86.7828 90.7719 87.0489C90.983 87.3234 91.4012 87.3066 91.7602 87.1672C92.1234 87.032 92.4698 86.7955 92.8246 86.5759C93.5257 86.1197 94.2268 85.596 94.8519 84.9751C95.4854 84.35 95.9543 83.5602 95.9543 82.7197C95.9712 81.8876 95.6248 81.1062 95.1476 80.5065C94.6661 79.9025 94.0494 79.4675 93.4285 79.1676C92.8077 78.8635 92.1783 78.6945 91.5955 78.5932C90.4255 78.4031 89.4541 78.4622 88.791 78.4918C88.4784 78.5129 88.2208 78.5256 88.0223 78.5383C87.8449 78.5594 87.752 78.5636 87.752 78.5552Z" fill="#EB996E"/>
<path d="M98.8688 79.1956C98.8815 79.1956 98.9153 79.3561 98.9448 79.6517C98.9744 79.9474 99.004 80.374 98.9955 80.9061C98.9744 81.9578 98.797 83.4826 97.9438 84.9017C97.1033 86.3166 95.7771 87.2289 94.6832 87.3683C94.1257 87.4359 93.6864 87.1909 93.4921 86.9586C93.3907 86.8446 93.3358 86.7348 93.3147 86.6587C93.2894 86.5827 93.2894 86.5405 93.2936 86.5405C93.3147 86.532 93.3485 86.701 93.5555 86.9037C93.754 87.1022 94.1594 87.2965 94.6663 87.2205C95.6715 87.0515 96.9513 86.1561 97.758 84.7919C98.5816 83.4234 98.7843 81.9409 98.8435 80.9019C98.8899 79.8544 98.8308 79.1998 98.8688 79.1956Z" fill="#EB996E"/>
<path d="M92.9102 91.2561C92.8849 91.2307 93.1045 91.0364 93.3664 90.6605C93.6282 90.2888 93.9112 89.706 93.9788 89.0175C94.0464 88.3291 93.8774 87.6998 93.6958 87.2858C93.5142 86.8635 93.3368 86.6354 93.3621 86.6143C93.379 86.5974 93.6071 86.7959 93.8352 87.2183C94.0633 87.6364 94.2702 88.2995 94.1984 89.0386C94.1266 89.7778 93.7972 90.3902 93.4931 90.7534C93.1847 91.1251 92.9271 91.2772 92.9102 91.2561Z" fill="#EB996E"/>
<path d="M88.786 83.2535C88.8113 83.2366 88.9803 83.5872 88.9211 84.1785C88.8958 84.4657 88.8198 84.8205 88.6255 85.1626C88.4481 85.5005 88.2116 85.8595 87.9075 86.1847C87.2908 86.8478 86.5306 87.1773 86.011 87.3969C85.4789 87.6123 85.141 87.7179 85.1283 87.6883C85.1156 87.6588 85.4324 87.5025 85.9435 87.2533C86.4461 86.9957 87.1641 86.6578 87.7427 86.0285C88.0342 85.7201 88.2622 85.3822 88.4439 85.057C88.6339 84.7445 88.7142 84.4235 88.7606 84.1489C88.8578 83.6041 88.7522 83.262 88.786 83.2535Z" fill="#EB996E"/>
<path d="M106.737 84.4995L94.8555 90.9786C94.8555 90.9786 101.212 92.5667 106.965 98.653C112.181 104.173 114.196 110.154 114.196 110.154L126.034 102.277C126.03 102.281 119.674 87.8615 106.737 84.4995Z" fill="#20A23C"/>
<path d="M96.9642 90.7341C97.4879 90.4342 100.727 88.5843 106.556 85.2518L106.581 85.2349L106.611 85.2434C108.174 85.6531 109.817 86.3162 111.464 87.2454C113.103 88.1788 114.742 89.3741 116.304 90.8017C117.871 92.2251 119.371 93.8723 120.773 95.6969C122.171 97.5215 123.497 99.5066 124.629 101.678L124.676 101.762L124.595 101.817C124.397 101.948 124.186 102.091 123.974 102.235C120.773 104.376 117.681 106.438 114.843 108.338L114.737 108.41L114.687 108.292C113.272 104.833 111.422 101.851 109.424 99.4686C107.426 97.0823 105.302 95.2957 103.426 94.0074C101.543 92.715 99.9039 91.9125 98.7635 91.4226C98.1891 91.1776 97.7414 91.0129 97.433 90.9031C97.2852 90.8524 97.1712 90.8144 97.0825 90.7848C96.9938 90.7468 96.96 90.7341 96.9642 90.7341C96.998 90.7426 97.0318 90.7468 97.0867 90.7595C97.1754 90.7848 97.2937 90.8186 97.4415 90.8608C97.7498 90.958 98.206 91.1142 98.7846 91.3465C99.9377 91.8154 101.593 92.6052 103.494 93.8892C105.39 95.1689 107.536 96.9513 109.555 99.3419C111.574 101.728 113.445 104.727 114.877 108.203L114.72 108.157C117.559 106.256 120.646 104.191 123.848 102.045C124.059 101.901 124.274 101.762 124.469 101.627L124.431 101.766C123.311 99.6207 121.989 97.6355 120.604 95.8194C119.21 94.0032 117.723 92.3602 116.169 90.9453C114.619 89.5219 112.997 88.3351 111.375 87.3974C109.745 86.4725 108.119 85.8051 106.573 85.3912L106.632 85.3827C100.757 88.6392 97.4879 90.4427 96.9642 90.7341Z" fill="white"/>
<path d="M116.388 94.6365C116.079 96.4654 113.761 97.572 111.214 97.1074C108.667 96.6428 106.851 94.7844 107.159 92.9555C107.467 91.1267 109.786 90.0201 112.333 90.4847C114.884 90.9493 116.7 92.8077 116.388 94.6365Z" fill="#FAFAFA"/>
<path d="M110.855 95.2276L110.445 95.6838L109.972 95.2234L110.369 94.7842C110.001 94.3702 109.731 93.8887 109.651 93.5002L110.449 93.1538C110.542 93.5593 110.787 94.0112 111.104 94.3238C111.429 94.6406 111.64 94.6659 111.763 94.5265C112.172 94.0704 110.301 92.8751 111.264 91.8149C111.67 91.363 112.329 91.287 113.042 91.8276L113.448 91.3757L113.921 91.8361L113.52 92.2795C113.79 92.5879 114.005 92.9511 114.103 93.2974L113.317 93.6649C113.186 93.2594 112.992 92.9342 112.751 92.7019C112.422 92.3851 112.202 92.3851 112.071 92.5245C111.674 92.9638 113.537 94.1591 112.582 95.215C112.198 95.6458 111.556 95.7303 110.855 95.2276Z" fill="#20A23C"/>
<path d="M99.6711 89.2079C99.6711 89.2079 101.686 90.23 99.7513 91.7252L96.7905 90.5763L99.6711 89.2079Z" fill="#FAFAFA"/>
<path d="M105.083 86.169C105.083 86.169 107.025 88.2217 108.88 86.0845L106.59 85.3201L105.083 86.169Z" fill="#FAFAFA"/>
<path d="M113.542 105.55C113.542 105.55 116.156 103.43 117.685 106.289L114.762 108.245L113.542 105.55Z" fill="#FAFAFA"/>
<path d="M123.188 99.3957C123.188 99.3957 121.3 100.574 122.58 103.015L124.514 101.723L123.188 99.3957Z" fill="#FAFAFA"/>
<path d="M116.196 106.247C116.196 106.699 115.841 107.067 115.406 107.067C114.971 107.067 114.616 106.699 114.616 106.247C114.616 105.795 114.971 105.428 115.406 105.428C115.845 105.428 116.196 105.795 116.196 106.247Z" fill="#20A23C"/>
<path d="M124.125 101.205C124.125 101.656 123.77 102.024 123.335 102.024C122.9 102.024 122.545 101.656 122.545 101.205C122.545 100.753 122.9 100.385 123.335 100.385C123.77 100.385 124.125 100.753 124.125 101.205Z" fill="#20A23C"/>
<path d="M107.797 86.0882C107.797 86.3796 107.392 86.6162 106.893 86.6162C106.395 86.6162 105.989 86.3796 105.989 86.0882C105.989 85.7968 106.395 85.5602 106.893 85.5602C107.392 85.5602 107.797 85.7968 107.797 86.0882Z" fill="#20A23C"/>
<path d="M100.079 90.4684C100.079 90.857 99.6865 91.1695 99.2008 91.1695C98.7151 91.1695 98.3223 90.8528 98.3223 90.4684C98.3223 90.0798 98.7151 89.7673 99.2008 89.7673C99.6865 89.7673 100.079 90.084 100.079 90.4684Z" fill="#20A23C"/>
<path d="M107.373 90.029C107.373 90.4767 106.815 90.8399 106.127 90.8399C105.438 90.8399 104.881 90.4767 104.881 90.0247C104.881 89.577 105.438 89.2138 106.127 89.2138C106.815 89.218 107.373 89.5813 107.373 90.029Z" fill="#FAFAFA"/>
<path d="M117.371 100.884C116.81 101.137 116.117 100.782 115.821 100.09C115.53 99.3969 115.745 98.6282 116.307 98.3706C116.869 98.1172 117.561 98.472 117.857 99.1646C118.148 99.8573 117.933 100.626 117.371 100.884Z" fill="#FAFAFA"/>
<path d="M99.8486 86.5614L104.723 91.6932C104.723 91.6932 106.674 93.9233 107.988 92.8716C109.301 91.8157 107.455 89.8432 107.067 89.273C106.678 88.6986 101.897 82.8995 101.897 82.8995L99.8486 86.5614Z" fill="#FFBE9D"/>
<path d="M102.363 81.9322C102.388 81.9407 102.334 82.2828 102.177 82.8234C102.017 83.364 101.746 84.099 101.311 84.8466C100.876 85.5941 100.357 86.1939 99.9261 86.5614C99.4953 86.933 99.1827 87.0935 99.1701 87.0766C99.149 87.0471 99.4277 86.8401 99.8205 86.4515C100.213 86.063 100.699 85.4717 101.121 84.741C101.966 83.2669 102.291 81.9069 102.363 81.9322Z" fill="#EB996E"/>
<path d="M56.9875 102.025C56.9917 102.029 56.9157 102.109 56.7594 102.249C56.5862 102.401 56.3624 102.604 56.0794 102.857C55.4627 103.393 54.6011 104.141 53.541 105.057C51.3911 106.907 48.405 109.442 45.0768 112.208C41.7485 114.975 38.7075 117.445 36.4732 119.194C35.3582 120.073 34.4416 120.761 33.7996 121.23C33.4913 121.449 33.2421 121.627 33.0563 121.762C32.8831 121.88 32.7944 121.939 32.7902 121.935C32.786 121.931 32.8704 121.859 33.0309 121.728C33.2126 121.585 33.4491 121.399 33.749 121.166C34.3741 120.677 35.2737 119.967 36.3761 119.076C38.585 117.298 41.6092 114.81 44.9374 112.043C48.2487 109.277 51.2475 106.772 53.4396 104.943C54.5166 104.048 55.3951 103.317 56.0202 102.798C56.3159 102.557 56.5482 102.367 56.7298 102.219C56.8945 102.084 56.9832 102.021 56.9875 102.025Z" fill="#EB996E"/>
</svg>
