<svg width="16" height="16" viewBox="0 0 16 16" fill="none" xmlns="http://www.w3.org/2000/svg">
<path d="M8.1414 15.9234C6.61617 15.9234 5.12519 15.4711 3.857 14.6238C2.58882 13.7764 1.60039 12.572 1.01671 11.1629C0.433029 9.75373 0.280311 8.20316 0.577869 6.70723C0.875427 5.21131 1.6099 3.83721 2.6884 2.75871C3.7669 1.68021 5.141 0.94574 6.63692 0.648182C8.13285 0.350624 9.68341 0.503341 11.0925 1.08702C12.5017 1.6707 13.7061 2.65913 14.5535 3.92732C15.4008 5.1955 15.8531 6.68648 15.8531 8.21171C15.8509 10.2563 15.0377 12.2165 13.592 13.6623C12.1462 15.108 10.186 15.9212 8.1414 15.9234ZM8.1414 2.42793C6.99748 2.42793 5.87924 2.76714 4.9281 3.40267C3.97696 4.0382 3.23564 4.94151 2.79788 5.99836C2.36012 7.0552 2.24558 8.21813 2.46875 9.34007C2.69192 10.462 3.24277 11.4926 4.05165 12.3015C4.86053 13.1103 5.8911 13.6612 7.01304 13.8844C8.13498 14.1075 9.29791 13.993 10.3548 13.5552C11.4116 13.1175 12.3149 12.3761 12.9504 11.425C13.586 10.4739 13.9252 9.35564 13.9252 8.21171C13.9235 6.67828 13.3136 5.20814 12.2293 4.12384C11.145 3.03954 9.67483 2.42963 8.1414 2.42793Z" fill="#9A9A9A"/>
<path d="M7.17485 9.59612C7.16534 9.10044 7.28878 8.61126 7.53233 8.17943C7.77587 7.74761 8.13064 7.38889 8.55974 7.14058C8.69546 7.06643 8.80915 6.95768 8.88926 6.82538C8.96937 6.69308 9.01305 6.54195 9.01587 6.38731C9.01869 6.23267 8.98054 6.08005 8.9053 5.94492C8.83006 5.80979 8.7204 5.69698 8.58747 5.61793C8.45454 5.53888 8.30305 5.49641 8.1484 5.49483C7.99375 5.49325 7.84143 5.53262 7.70691 5.60894C7.57239 5.68526 7.46045 5.79581 7.38247 5.92937C7.30449 6.06293 7.26323 6.21475 7.26289 6.36941H5.33496C5.33489 5.95879 5.42499 5.55317 5.5989 5.18119C5.7728 4.80922 6.02627 4.47997 6.34139 4.21671C6.6565 3.95344 7.02559 3.76259 7.42257 3.65763C7.81954 3.55266 8.23473 3.53615 8.63879 3.60926C9.20954 3.71222 9.73433 3.98959 10.1409 4.40318C10.5475 4.81677 10.8158 5.34623 10.909 5.91866C11.0022 6.49109 10.9156 7.07832 10.6612 7.5995C10.4067 8.12068 9.997 8.55016 9.48836 8.8288C9.36289 8.91211 9.26133 9.02671 9.19371 9.16128C9.12609 9.29585 9.09474 9.44573 9.10277 9.59612H7.17485Z" fill="#9A9A9A"/>
<path d="M9.14961 10.7786H7.22168V12.7066H9.14961V10.7786Z" fill="#9A9A9A"/>
</svg>
