<svg width="18" height="18" viewBox="0 0 18 18" fill="none" xmlns="http://www.w3.org/2000/svg">
<path d="M9.0163 17.6942C7.2794 17.6942 5.5815 17.1792 4.13733 16.2142C2.69315 15.2492 1.56755 13.8777 0.902863 12.273C0.23818 10.6683 0.0642688 8.90255 0.403121 7.19903C0.741973 5.4955 1.57837 3.93071 2.80654 2.70254C4.03472 1.47437 5.59951 0.637969 7.30303 0.299117C9.00656 -0.0397351 10.7723 0.134176 12.377 0.798859C13.9817 1.46354 15.3532 2.58914 16.3182 4.03332C17.2832 5.4775 17.7982 7.1754 17.7982 8.91229C17.7957 11.2406 16.8697 13.4729 15.2233 15.1193C13.5769 16.7657 11.3446 17.6917 9.0163 17.6942ZM9.0163 2.32586C7.71362 2.32586 6.4402 2.71214 5.35707 3.43587C4.27393 4.1596 3.42973 5.18826 2.93122 6.39177C2.43271 7.59529 2.30228 8.9196 2.55642 10.1972C2.81055 11.4749 3.43785 12.6485 4.35898 13.5696C5.28011 14.4907 6.4537 15.118 7.73135 15.3722C9.00899 15.6263 10.3333 15.4959 11.5368 14.9974C12.7403 14.4989 13.769 13.6547 14.4927 12.5715C15.2164 11.4884 15.6027 10.215 15.6027 8.91229C15.6008 7.16606 14.9063 5.49189 13.6715 4.25712C12.4367 3.02234 10.7625 2.32779 9.0163 2.32586Z" fill="#9A9A9A"/>
<path d="M7.91724 10.4888C7.90642 9.92429 8.04699 9.36722 8.32433 8.87547C8.60168 8.38371 9.00567 7.97522 9.49433 7.69245C9.64889 7.608 9.77835 7.48416 9.86958 7.3335C9.96081 7.18284 10.0105 7.01073 10.0138 6.83464C10.017 6.65854 9.97352 6.48473 9.88784 6.33085C9.80216 6.17697 9.67729 6.0485 9.52591 5.95848C9.37452 5.86846 9.20202 5.8201 9.0259 5.8183C8.84979 5.8165 8.67633 5.86133 8.52314 5.94824C8.36995 6.03515 8.24248 6.16105 8.15368 6.31314C8.06487 6.46524 8.01789 6.63813 8.0175 6.81425H5.82202C5.82194 6.34665 5.92455 5.88473 6.12259 5.46114C6.32062 5.03754 6.60926 4.6626 6.96812 4.3628C7.32697 4.063 7.74727 3.84566 8.19934 3.72613C8.65141 3.6066 9.12421 3.5878 9.58434 3.67106C10.2343 3.7883 10.8319 4.10417 11.2949 4.57515C11.7579 5.04614 12.0635 5.64908 12.1696 6.30095C12.2757 6.95281 12.1771 7.62155 11.8874 8.21505C11.5976 8.80855 11.131 9.29764 10.5518 9.61495C10.4089 9.70982 10.2933 9.84032 10.2163 9.99357C10.1393 10.1468 10.1036 10.3175 10.1127 10.4888H7.91724Z" fill="#9A9A9A"/>
<path d="M10.162 11.8354H7.96655V14.0309H10.162V11.8354Z" fill="#9A9A9A"/>
</svg>
