<svg width="19" height="18" viewBox="0 0 19 18" fill="none" xmlns="http://www.w3.org/2000/svg">
<path d="M9.28192 17.5638C7.54502 17.5638 5.84713 17.0488 4.40295 16.0838C2.95877 15.1189 1.83317 13.7473 1.16849 12.1426C0.503805 10.5379 0.329894 8.77218 0.668746 7.06866C1.0076 5.36513 1.844 3.80034 3.07217 2.57217C4.30034 1.344 5.86513 0.507598 7.56866 0.168746C9.27218 -0.170106 11.0379 0.00380508 12.6426 0.668488C14.2473 1.33317 15.6189 2.45877 16.5838 3.90295C17.5488 5.34713 18.0638 7.04502 18.0638 8.78192C18.0613 11.1103 17.1353 13.3425 15.4889 14.9889C13.8425 16.6353 11.6103 17.5613 9.28192 17.5638ZM9.28192 2.19548C7.97925 2.19548 6.70583 2.58177 5.62269 3.3055C4.53956 4.02923 3.69536 5.05789 3.19685 6.2614C2.69833 7.46492 2.5679 8.78923 2.82204 10.0669C3.07618 11.3445 3.70348 12.5181 4.62461 13.4392C5.54574 14.3604 6.71933 14.9877 7.99697 15.2418C9.27462 15.4959 10.5989 15.3655 11.8024 14.867C13.006 14.3685 14.0346 13.5243 14.7583 12.4412C15.4821 11.358 15.8684 10.0846 15.8684 8.78192C15.8664 7.03569 15.1719 5.36152 13.9371 4.12675C12.7023 2.89197 11.0282 2.19742 9.28192 2.19548Z" fill="#9A9A9A"/>
<path d="M8.18297 10.3584C8.17215 9.79391 8.31272 9.23685 8.59006 8.74509C8.86741 8.25334 9.2714 7.84484 9.76006 7.56207C9.91462 7.47762 10.0441 7.35378 10.1353 7.20313C10.2265 7.05247 10.2763 6.88036 10.2795 6.70426C10.2827 6.52816 10.2393 6.35435 10.1536 6.20048C10.0679 6.0466 9.94302 5.91813 9.79164 5.82811C9.64025 5.73809 9.46775 5.68972 9.29163 5.68793C9.11552 5.68613 8.94206 5.73096 8.78887 5.81787C8.63568 5.90478 8.50821 6.03067 8.41941 6.18277C8.3306 6.33487 8.28362 6.50775 8.28323 6.68388H6.08775C6.08768 6.21628 6.19028 5.75436 6.38832 5.33076C6.58636 4.90717 6.875 4.53222 7.23385 4.23243C7.5927 3.93263 8.013 3.71529 8.46507 3.59576C8.91714 3.47623 9.38994 3.45743 9.85007 3.54068C10.5 3.65793 11.0977 3.97379 11.5606 4.44478C12.0236 4.91576 12.3292 5.5187 12.4353 6.17057C12.5414 6.82244 12.4428 7.49117 12.1531 8.08468C11.8634 8.67818 11.3968 9.16726 10.8175 9.48458C10.6747 9.57945 10.559 9.70995 10.482 9.86319C10.405 10.0164 10.3693 10.1871 10.3785 10.3584H8.18297Z" fill="#9A9A9A"/>
<path d="M10.4276 11.705H8.23212V13.9005H10.4276V11.705Z" fill="#9A9A9A"/>
</svg>
