<svg width="19" height="19" viewBox="0 0 19 19" fill="none" xmlns="http://www.w3.org/2000/svg">
<path d="M9.54755 18.4945C7.81065 18.4945 6.11275 17.9795 4.66858 17.0145C3.2244 16.0495 2.0988 14.678 1.43411 13.0733C0.76943 11.4686 0.595519 9.70285 0.934371 7.99932C1.27322 6.29579 2.10962 4.73101 3.33779 3.50283C4.56597 2.27466 6.13076 1.43826 7.83428 1.09941C9.53781 0.760558 11.3036 0.934469 12.9082 1.59915C14.5129 2.26383 15.8845 3.38943 16.8494 4.83361C17.8144 6.27779 18.3295 7.97569 18.3295 9.71259C18.327 12.0409 17.4009 14.2732 15.7545 15.9196C14.1081 17.5659 11.8759 18.492 9.54755 18.4945ZM9.54755 3.12615C8.24487 3.12615 6.97145 3.51244 5.88832 4.23616C4.80518 4.95989 3.96098 5.98855 3.46247 7.19207C2.96396 8.39558 2.83353 9.71989 3.08767 10.9975C3.3418 12.2752 3.9691 13.4488 4.89023 14.3699C5.81136 15.291 6.98495 15.9183 8.2626 16.1725C9.54024 16.4266 10.8646 16.2962 12.0681 15.7977C13.2716 15.2992 14.3002 14.455 15.024 13.3718C15.7477 12.2887 16.134 11.0153 16.134 9.71259C16.1321 7.96635 15.4375 6.29219 14.2027 5.05741C12.9679 3.82263 11.2938 3.12808 9.54755 3.12615Z" fill="#9A9A9A"/>
<path d="M8.44874 11.289C8.43791 10.7246 8.57848 10.1675 8.85583 9.67576C9.13317 9.184 9.53717 8.77551 10.0258 8.49273C10.1804 8.40829 10.3098 8.28445 10.4011 8.13379C10.4923 7.98313 10.542 7.81102 10.5453 7.63492C10.5485 7.45883 10.505 7.28502 10.4193 7.13114C10.3337 6.97726 10.2088 6.84879 10.0574 6.75877C9.90602 6.66875 9.73351 6.62039 9.5574 6.61859C9.38128 6.61679 9.20782 6.66162 9.05463 6.74853C8.90144 6.83544 8.77398 6.96134 8.68517 7.11343C8.59637 7.26553 8.54938 7.43842 8.549 7.61454H6.35352C6.35344 7.14694 6.45604 6.68502 6.65408 6.26143C6.85212 5.83783 7.14076 5.46289 7.49961 5.16309C7.85846 4.86329 8.27877 4.64595 8.73083 4.52642C9.1829 4.40689 9.6557 4.38809 10.1158 4.47135C10.7658 4.58859 11.3634 4.90445 11.8264 5.37544C12.2894 5.84643 12.595 6.44937 12.7011 7.10124C12.8072 7.7531 12.7086 8.42183 12.4189 9.01534C12.1291 9.60884 11.6625 10.0979 11.0833 10.4152C10.9404 10.5101 10.8248 10.6406 10.7478 10.7939C10.6708 10.9471 10.6351 11.1178 10.6442 11.289H8.44874Z" fill="#9A9A9A"/>
<path d="M10.693 12.6357H8.49756V14.8312H10.693V12.6357Z" fill="#9A9A9A"/>
</svg>
