<svg width="21" height="20" viewBox="0 0 21 20" fill="none" xmlns="http://www.w3.org/2000/svg">
<path d="M19.5883 6.9686C19.1832 6.90975 18.7965 6.76024 18.4571 6.53123C18.1177 6.30221 17.8343 5.99959 17.6281 5.64588C17.4219 5.29217 17.2981 4.8965 17.266 4.48833C17.2339 4.08016 17.2943 3.67001 17.4427 3.28841C17.537 3.03894 17.5509 2.76621 17.4824 2.50844C17.414 2.25067 17.2665 2.0208 17.0608 1.85106C16.1526 1.0884 15.1188 0.489279 14.0056 0.080401C13.7521 -0.013768 13.4753 -0.0255337 13.2147 0.04678C12.9541 0.119094 12.723 0.271798 12.5543 0.483138C12.3004 0.807865 11.9758 1.0705 11.6053 1.25113C11.2347 1.43175 10.8279 1.52562 10.4156 1.52562C10.0034 1.52562 9.59658 1.43175 9.22603 1.25113C8.85547 1.0705 8.53091 0.807865 8.27696 0.483138C8.10825 0.271798 7.87713 0.119094 7.61655 0.04678C7.35598 -0.0255337 7.07922 -0.013768 6.82572 0.080401C5.79781 0.457893 4.83675 0.997028 3.97878 1.67746C3.76252 1.84867 3.60674 2.08462 3.53427 2.35076C3.4618 2.61691 3.47644 2.89926 3.57605 3.15648C3.73628 3.54817 3.80248 3.97196 3.76934 4.39386C3.7362 4.81575 3.60465 5.22401 3.38523 5.58588C3.16581 5.94775 2.86464 6.25316 2.50587 6.47761C2.1471 6.70206 1.74072 6.8393 1.31933 6.87833C1.04575 6.90758 0.788791 7.0239 0.586283 7.21016C0.383776 7.39641 0.246421 7.64277 0.19444 7.91295C0.0651458 8.55296 1.50265e-05 9.20426 1.50265e-05 9.8572C-0.000935291 10.4038 0.0431913 10.9496 0.131946 11.489C0.176119 11.7678 0.310919 12.0243 0.515505 12.2189C0.720091 12.4134 0.983068 12.5352 1.26378 12.5653C1.69442 12.6057 2.10913 12.7487 2.47317 12.9822C2.83722 13.2158 3.14002 13.5332 3.35623 13.9078C3.57244 14.2825 3.69576 14.7034 3.71589 15.1355C3.73601 15.5676 3.65234 15.9982 3.47189 16.3913C3.3538 16.647 3.3245 16.9348 3.38866 17.209C3.45282 17.4833 3.60675 17.7282 3.82602 17.905C4.72879 18.6538 5.75261 19.2432 6.8535 19.6479C6.99427 19.6966 7.14198 19.7224 7.29095 19.7243C7.49522 19.7238 7.6964 19.6744 7.87762 19.5802C8.05885 19.4859 8.21484 19.3496 8.33251 19.1827C8.58 18.8221 8.91175 18.5273 9.29897 18.3241C9.68619 18.1208 10.1172 18.0151 10.5545 18.0161C10.9783 18.0166 11.396 18.1161 11.7745 18.3066C12.1531 18.497 12.4819 18.7733 12.7349 19.1132C12.9031 19.3394 13.1414 19.5036 13.4127 19.5802C13.684 19.6568 13.973 19.6415 14.2347 19.5368C15.2413 19.1317 16.1785 18.5717 17.0122 17.8772C17.2216 17.7041 17.3708 17.469 17.4381 17.2057C17.5055 16.9424 17.4877 16.6646 17.3872 16.4121C17.2238 16.0255 17.1526 15.6061 17.1792 15.1873C17.2057 14.7684 17.3292 14.3614 17.54 13.9984C17.7507 13.6355 18.043 13.3265 18.3937 13.0958C18.7443 12.8652 19.1438 12.7192 19.5606 12.6694C19.8308 12.632 20.0821 12.5096 20.2781 12.3199C20.4741 12.1301 20.6046 11.8829 20.6507 11.614C20.7622 11.0348 20.8227 10.4469 20.8313 9.8572C20.8314 9.23514 20.7733 8.61444 20.6577 8.00322C20.6108 7.74026 20.4822 7.49876 20.2903 7.31303C20.0983 7.1273 19.8527 7.00678 19.5883 6.9686V6.9686ZM13.8875 9.8572C13.8875 10.5439 13.6839 11.2151 13.3024 11.7861C12.9209 12.357 12.3787 12.802 11.7443 13.0648C11.1099 13.3276 10.4118 13.3963 9.73831 13.2624C9.06483 13.1284 8.4462 12.7977 7.96065 12.3122C7.4751 11.8266 7.14444 11.208 7.01048 10.5345C6.87651 9.86105 6.94527 9.16297 7.20804 8.52857C7.47082 7.89417 7.91582 7.35194 8.48677 6.97044C9.05772 6.58895 9.72897 6.38532 10.4156 6.38532C11.3364 6.38532 12.2195 6.75111 12.8706 7.40221C13.5217 8.05332 13.8875 8.9364 13.8875 9.8572Z" fill="#4DAAA7"/>
</svg>
