<svg width="161" height="34" viewBox="0 0 161 34" fill="none" xmlns="http://www.w3.org/2000/svg">
<g clip-path="url(#clip0_301_2426)">
<path d="M37.4244 33.178C37.1039 32.9394 36.8446 32.6285 36.6679 32.2706C36.4911 31.9127 36.4019 31.5181 36.4075 31.1191V3.53716C36.3959 2.66426 36.7156 1.81928 37.3023 1.1718C37.8891 0.524319 38.6996 0.12225 39.5711 0.0462872C40.0341 0.0155344 40.4984 0.0799651 40.9355 0.235588C41.3725 0.391211 41.7728 0.634713 42.1117 0.95101C42.4505 1.26731 42.7207 1.64966 42.9055 2.07439C43.0902 2.49913 43.1856 2.95719 43.1857 3.4202V30.6185C43.1857 33.2436 40.1891 35.1695 37.4244 33.178Z" fill="#3F8F8B"/>
<path d="M3.16335 33.9563C2.29207 33.8801 1.48183 33.4781 0.895121 32.8308C0.308408 32.1836 -0.0114102 31.3389 -0.000203415 30.4662V2.88929C-0.00523224 2.49068 0.0842659 2.09653 0.260986 1.73902C0.437707 1.3815 0.696641 1.07075 1.01665 0.832128C3.78224 -1.16025 6.77801 0.765659 6.77801 3.38991V30.5815C6.77799 31.0446 6.68268 31.5027 6.49798 31.9276C6.31328 32.3524 6.04312 32.7349 5.70424 33.0512C5.36536 33.3676 4.96499 33.6112 4.52792 33.7669C4.09085 33.9226 3.6264 33.987 3.16335 33.9563Z" fill="#4DAAA7"/>
<path d="M126.204 33.1418C125.884 32.9033 125.624 32.5923 125.448 32.2344C125.271 31.8765 125.182 31.4819 125.187 31.083V2.91202C125.182 2.51307 125.271 2.11847 125.448 1.76059C125.624 1.4027 125.884 1.09173 126.204 0.853176C128.969 -1.13836 131.965 0.787548 131.965 3.41264V30.5832C131.965 33.2083 128.969 35.1342 126.204 33.1427" fill="#4DAAA7"/>
<path d="M15.2516 33.9647C14.5421 33.9644 13.8505 33.7419 13.2743 33.3286C12.6981 32.9153 12.2664 32.3321 12.04 31.661L5.91105 16.0308C5.74751 15.6577 5.66309 15.255 5.66309 14.8478C5.66309 14.4406 5.74751 14.0378 5.91105 13.6648L11.8891 1.93182C13.0223 -0.435814 16.5569 -0.885109 18.1926 2.10009C18.3788 2.45318 18.4785 2.84531 18.4835 3.24429C18.4885 3.64327 18.3986 4.03775 18.2213 4.39537L13.0156 15.2718L18.4633 29.5029C18.6339 30.0115 18.6809 30.5533 18.6005 31.0836C18.5201 31.6139 18.3146 32.1175 18.0009 32.553C17.6871 32.9885 17.2742 33.3434 16.7961 33.5884C16.3179 33.8334 15.7883 33.9615 15.2508 33.9622" fill="#4DAAA7"/>
<path d="M54.9902 34C52.2522 33.9969 49.6273 32.91 47.6913 30.9779C45.7554 29.0458 44.6667 26.4262 44.664 23.694V10.3338C44.6517 8.97282 44.9097 7.6229 45.423 6.36198C45.9364 5.10106 46.6951 3.95413 47.6551 2.9874C48.6152 2.02068 49.7577 1.25332 51.0166 0.729643C52.2755 0.205965 53.6259 -0.0636597 54.9898 -0.0636597C56.3537 -0.0636597 57.7041 0.205965 58.9631 0.729643C60.222 1.25332 61.3644 2.02068 62.3245 2.9874C63.2846 3.95413 64.0432 5.10106 64.5566 6.36198C65.07 7.6229 65.328 8.97282 65.3157 10.3338V23.694C65.3125 26.4258 64.2237 29.0448 62.288 30.9765C60.3523 32.9083 57.7278 33.995 54.9902 33.9983V34ZM54.9902 6.79159C54.0496 6.7927 53.1478 7.16608 52.4826 7.82981C51.8175 8.49354 51.4433 9.39344 51.4422 10.3321V23.694C51.4422 24.633 51.816 25.5335 52.4814 26.1975C53.1468 26.8615 54.0492 27.2345 54.9902 27.2345C55.9312 27.2345 56.8337 26.8615 57.4991 26.1975C58.1645 25.5335 58.5383 24.633 58.5383 23.694V10.3338C58.5372 9.39512 58.163 8.49523 57.4979 7.83149C56.8327 7.16776 55.9309 6.79439 54.9902 6.79327" fill="#4DAAA7"/>
<path d="M95.6587 0.852308C95.3381 1.09095 95.0788 1.40206 94.902 1.7601C94.7253 2.11814 94.6361 2.51291 94.6419 2.912V23.694C94.6415 24.1796 94.5411 24.66 94.347 25.1053C94.1529 25.5506 93.8692 25.9513 93.5134 26.2827C93.1576 26.614 92.7374 26.8689 92.2789 27.0314C91.8203 27.194 91.3332 27.2608 90.8476 27.2278C89.9363 27.1458 89.0895 26.7235 88.4767 26.0454C87.8639 25.3673 87.5302 24.4833 87.5424 23.5703V3.41093C87.5423 2.9602 87.4519 2.51404 87.2765 2.09868C87.1012 1.68332 86.8443 1.30713 86.5211 0.992243C86.198 0.677355 85.815 0.430116 85.3947 0.265062C84.9743 0.100009 84.5252 0.0204711 84.0736 0.0311253C83.2282 0.041818 82.4077 0.318279 81.7288 0.821177C81.3976 1.05988 81.1284 1.37425 80.9439 1.738C80.7594 2.10175 80.6648 2.5043 80.6681 2.912V23.694C80.6678 24.1796 80.5676 24.66 80.3735 25.1054C80.1794 25.5508 79.8957 25.9516 79.5399 26.2829C79.1841 26.6143 78.7638 26.8692 78.3052 27.0317C77.8466 27.1942 77.3594 27.261 76.8738 27.2278C75.9626 27.1456 75.1159 26.7233 74.5032 26.0452C73.8904 25.3671 73.5566 24.4833 73.5686 23.5703V3.41093C73.5686 0.785839 70.5729 -1.14007 67.8073 0.851467C67.4874 1.09078 67.2289 1.40223 67.0527 1.76035C66.8766 2.11847 66.7878 2.51311 66.7938 2.912V23.4702C66.772 26.1586 67.7892 28.752 69.634 30.7114C71.4787 32.6708 74.0091 33.8456 76.6993 33.9916C78.8236 34.0802 80.9231 33.5084 82.7077 32.3551C83.1354 32.0801 83.6338 31.9346 84.1426 31.9364C84.6514 31.9382 85.1488 32.0871 85.5745 32.3652C87.1262 33.3772 88.9281 33.9413 90.781 33.9949C92.1625 34.0352 93.5381 33.7986 94.8263 33.2992C96.1146 32.7998 97.2894 32.0476 98.2813 31.0873C99.2732 30.1269 100.062 28.9778 100.601 27.7079C101.14 26.438 101.419 25.0731 101.42 23.694V3.41093C101.42 0.785839 98.4235 -1.14007 95.6587 0.851467" fill="#4DAAA7"/>
<path d="M109.054 33.9647H108.587C107.079 33.9629 105.633 33.3643 104.567 32.3003C103.501 31.2362 102.901 29.7936 102.899 28.2888V5.71466C102.901 4.21044 103.501 2.76856 104.567 1.70507C105.634 0.641583 107.079 0.0432622 108.586 0.0412598H109.053C112.938 0.0457134 116.663 1.58779 119.41 4.32919C122.158 7.07059 123.703 10.7874 123.707 14.6644V19.3441C123.703 23.221 122.158 26.9379 119.41 29.6793C116.663 32.4207 112.938 33.9628 109.053 33.9672L109.054 33.9647ZM109.675 8.96321V25.0427C109.675 25.3207 109.743 25.5947 109.873 25.8405C110.003 26.0863 110.191 26.2966 110.422 26.4529C110.652 26.6092 110.917 26.7067 111.194 26.7369C111.471 26.7671 111.751 26.7291 112.01 26.6262C113.463 26.0372 114.706 25.0297 115.583 23.7322C116.459 22.4347 116.928 20.9061 116.929 19.3416V14.6618C116.928 13.0973 116.459 11.5686 115.583 10.2711C114.707 8.9736 113.463 7.96609 112.01 7.37722C111.751 7.27429 111.471 7.2363 111.194 7.26656C110.917 7.29682 110.652 7.39441 110.421 7.55078C110.191 7.70715 110.002 7.91753 109.872 8.16348C109.742 8.40943 109.675 8.68345 109.675 8.96153" fill="#4DAAA7"/>
<path d="M138.578 30.9146C138.578 31.4214 138.428 31.9167 138.146 32.338C137.863 32.7593 137.462 33.0877 136.993 33.2816C136.524 33.4755 136.008 33.5263 135.51 33.4274C135.012 33.3286 134.554 33.0846 134.195 32.7263C133.836 32.368 133.592 31.9115 133.493 31.4145C133.394 30.9175 133.444 30.4024 133.639 29.9342C133.833 29.4661 134.162 29.066 134.584 28.7844C135.007 28.5029 135.503 28.3527 136.011 28.3527C136.692 28.3527 137.345 28.6226 137.826 29.1031C138.308 29.5835 138.578 30.2352 138.578 30.9146Z" fill="#333333"/>
<path d="M158.681 33.2326C158.066 33.2324 157.477 32.9887 157.042 32.555C156.608 32.1212 156.364 31.5331 156.363 30.9197V20.957C156.363 20.3433 156.608 19.7548 157.042 19.3209C157.477 18.887 158.067 18.6432 158.682 18.6432C159.297 18.6432 159.887 18.887 160.322 19.3209C160.756 19.7548 161.001 20.3433 161.001 20.957V30.9155C161 31.5289 160.756 32.117 160.322 32.5507C159.887 32.9845 159.297 33.2282 158.683 33.2284" fill="#333333"/>
<path d="M158.68 16.8957C158.528 16.8949 158.378 16.8802 158.229 16.8519C158.081 16.8202 157.936 16.7763 157.795 16.7207C157.656 16.6619 157.522 16.59 157.396 16.5061C157.14 16.3401 156.921 16.1219 156.755 15.8658C156.671 15.7402 156.599 15.607 156.54 15.4678C156.484 15.3273 156.44 15.1824 156.408 15.0345C156.38 14.8865 156.365 14.736 156.364 14.5852C156.365 14.4331 156.38 14.2813 156.408 14.1317C156.44 13.9839 156.484 13.839 156.54 13.6984C156.599 13.5593 156.671 13.426 156.755 13.3005C156.838 13.173 156.934 13.0543 157.041 12.9462C157.476 12.5131 158.066 12.2698 158.68 12.2698C159.294 12.2698 159.884 12.5131 160.319 12.9462C160.427 13.0542 160.525 13.1728 160.61 13.3005C160.694 13.4252 160.765 13.5586 160.821 13.6984C160.881 13.8376 160.925 13.9829 160.953 14.1317C160.985 14.2808 161.001 14.4328 161.001 14.5852C161.001 14.7363 160.985 14.8869 160.953 15.0345C160.925 15.1833 160.881 15.3286 160.821 15.4678C160.765 15.6076 160.694 15.7411 160.61 15.8658C160.525 15.9934 160.427 16.1121 160.319 16.22C159.882 16.6505 159.294 16.8923 158.68 16.8931" fill="#333333"/>
<path d="M154.885 25.7705C154.885 25.6535 154.874 25.5408 154.868 25.4255V21.0504C154.877 20.463 154.667 19.893 154.28 19.4507C153.892 19.0083 153.354 18.7248 152.77 18.655C152.397 18.6192 152.021 18.6747 151.674 18.8165C151.199 19.0291 150.661 19.0496 150.171 18.8737C149.231 18.5056 148.225 18.3338 147.216 18.3689C145.247 18.4015 143.373 19.213 142.004 20.625C140.635 22.037 139.884 23.9337 139.917 25.898C139.95 27.8622 140.763 29.7331 142.178 31.099C143.593 32.4649 145.494 33.2139 147.462 33.1813C148.265 33.181 149.063 33.0488 149.823 32.7901C150.093 32.7043 150.378 32.675 150.66 32.704C150.942 32.7329 151.214 32.8195 151.461 32.9584C151.81 33.1436 152.2 33.2363 152.595 33.2276C153.213 33.1982 153.796 32.9301 154.22 32.4799C154.643 32.0298 154.875 31.4329 154.866 30.8154V26.1155C154.872 26.0002 154.884 25.8875 154.884 25.7705H154.885ZM147.464 28.5521C146.925 28.5523 146.399 28.3969 145.947 28.1047C145.495 27.8126 145.138 27.3961 144.918 26.9057C144.698 26.4153 144.626 25.8719 144.709 25.3411C144.792 24.8103 145.027 24.3149 145.386 23.9148C145.746 23.5146 146.213 23.2268 146.733 23.086C147.252 22.9453 147.801 22.9577 148.314 23.1218C148.827 23.2858 149.281 23.5945 149.621 24.0105C149.962 24.4264 150.175 24.932 150.234 25.4659V26.0742C150.158 26.7547 149.834 27.3835 149.323 27.8405C148.812 28.2974 148.15 28.5505 147.464 28.5512" fill="#333333"/>
<path d="M1.49637 28.8861H3.87747V29.1831H4.17595V31.263H3.87747V31.56H1.49637V31.263H1.19873V29.1806H1.49637V28.8861ZM3.28219 29.1831H1.79401V30.669H2.09164V30.372H2.38928V30.075H2.68692V29.778H2.98456V29.4751H3.28219V29.1831ZM2.09164 31.2596H3.57983V29.7746H3.28219V30.0716H2.98456V30.3686H2.68692V30.6656H2.38928V30.9626H2.09164V31.2596Z" fill="white"/>
<path d="M4.47461 28.8861H5.66516V31.56H5.06988V29.1806H4.47461V28.8861Z" fill="white"/>
<path d="M35.669 17.387C35.6627 18.1894 35.3604 18.9612 34.8199 19.5553C34.7802 19.6029 34.7361 19.6468 34.6884 19.6865C33.7231 20.2985 32.6027 20.6228 31.4591 20.6213H31.3073C31.2356 20.6213 31.1673 20.6213 31.1117 20.6213C31.2753 20.6213 32.6184 20.6213 32.6665 20.6331C32.567 20.6448 31.5341 20.665 31.3823 20.7088C28.094 21.5998 26.9245 25.0099 26.9245 27.9026V30.6202C26.9245 31.4845 26.5805 32.3133 25.9681 32.9244C25.3556 33.5355 24.525 33.8789 23.6589 33.8789C22.7929 33.8789 21.9622 33.5355 21.3498 32.9244C20.7374 32.3133 20.3934 31.4845 20.3934 30.6202V27.9068C20.3025 24.3087 21.5319 20.8014 23.8503 18.0442C23.8598 18.03 23.8705 18.0168 23.8824 18.0046C25.4168 16.2703 27.4286 15.025 29.6673 14.4237C30.0182 14.3245 30.375 14.2475 30.7356 14.1932H30.8309C31.0063 14.1932 31.1496 14.1932 31.2694 14.1932H31.3368C31.492 14.1932 32.5248 14.1932 32.6488 14.1856H32.6648C33.4527 14.2507 34.1903 14.5986 34.7408 15.1648C35.2913 15.731 35.6175 16.4772 35.6589 17.265C35.6589 17.3046 35.6589 17.345 35.6589 17.3845" fill="#333333"/>
<path d="M30.9878 20.7484C30.9878 20.7685 30.976 20.7845 30.9237 20.7845C30.8715 20.7845 30.9355 20.7685 30.9878 20.7484Z" fill="#333333"/>
<path d="M30.9878 20.7508C30.9901 20.7351 30.9986 20.7209 31.0114 20.7113H31.0392C31.0831 20.7113 31.0392 20.7315 30.9878 20.7475" fill="#333333"/>
<path d="M26.9282 10.3565C26.9387 11.3655 27.3433 12.3307 28.0557 13.0468C28.7682 13.7629 29.7324 14.1736 30.7435 14.1915H30.8388C31.0141 14.1915 31.1575 14.1915 31.2772 14.1915H31.3447C31.4998 14.1915 32.5327 14.1915 32.6566 14.1839H32.6726C33.4606 14.249 34.1981 14.5969 34.7487 15.1631C35.2992 15.7293 35.6254 16.4755 35.6667 17.2633C35.6667 17.3029 35.6667 17.3433 35.6667 17.3828V17.4308C35.6669 18.2416 35.3642 19.0234 34.8177 19.6234C34.7779 19.671 34.7339 19.715 34.6861 19.7547C34.172 20.2401 33.5122 20.5434 32.8084 20.6179C32.7603 20.6179 32.7131 20.6297 32.6651 20.6339C32.4121 20.6617 31.2654 20.6819 31.0824 20.6936H31.0622C31.0444 20.6938 31.0268 20.6978 31.0108 20.7054H30.8354C28.2736 20.7081 25.8002 19.7708 23.886 18.0719C23.8743 18.0623 23.8636 18.0516 23.854 18.0399C22.2837 16.6407 21.1781 14.7972 20.6846 12.755C20.191 10.7128 20.333 8.569 21.0916 6.60938C21.8501 4.64976 23.1892 2.9674 24.9303 1.78657C26.6715 0.605731 28.7319 -0.0174856 30.8371 -8.43566e-06C31.4273 -8.43566e-06 31.1642 0.027757 32.117 0.0513155L32.4753 0.0715085C32.9059 0.0784024 33.3308 0.170165 33.7256 0.341518C34.1205 0.51287 34.4775 0.760432 34.7761 1.06996C35.0747 1.37949 35.3091 1.74489 35.4657 2.14512C35.6223 2.54536 35.698 2.97254 35.6886 3.4021C35.6791 3.83165 35.5847 4.25511 35.4106 4.6481C35.2366 5.0411 34.9864 5.39588 34.6744 5.69204C34.3625 5.9882 33.9949 6.21989 33.5929 6.37379C33.1909 6.5277 32.7624 6.60077 32.332 6.58881L31.95 6.56861C31.133 6.54842 31.3522 6.51729 30.8379 6.51729C29.8097 6.51056 28.8208 6.91091 28.0879 7.63057C27.355 8.35023 26.938 9.33049 26.9282 10.3565Z" fill="#333333"/>
</g>
<defs>
<clipPath id="clip0_301_2426">
<rect width="161" height="34" fill="white"/>
</clipPath>
</defs>
</svg>
