<svg width="24" height="25" viewBox="0 0 24 25" fill="none" xmlns="http://www.w3.org/2000/svg">
<path d="M14.9997 13.0084C14.4467 13.0084 13.9997 13.4565 13.9997 14.0083V18.0084C13.9997 18.5593 13.5517 19.0083 12.9996 19.0083H9.99971V4.00864C9.99971 3.15465 9.45572 2.39167 8.6378 2.10768L8.34173 2.00862H12.9996C13.5517 2.00862 13.9997 2.45759 13.9997 3.00872V6.00865C13.9997 6.56052 14.4467 7.00857 14.9997 7.00857C15.5526 7.00857 15.9996 6.56052 15.9996 6.00865V3.00872C15.9996 1.35477 14.6536 0.00878906 12.9996 0.00878906H2.24995C2.21186 0.00878906 2.18 0.0258175 2.14302 0.0307612C2.09486 0.026733 2.0489 0.00878906 2.00002 0.00878906C0.897013 0.00878906 0 0.905619 0 2.00862V20.0082C0 20.8622 0.543994 21.6252 1.36191 21.9092L7.3799 23.9152C7.58387 23.9782 7.78675 24.0082 7.99988 24.0082C9.10288 24.0082 9.99971 23.1112 9.99971 22.0082V21.0083H12.9996C14.6536 21.0083 15.9996 19.6623 15.9996 18.0084V14.0083C15.9996 13.4565 15.5526 13.0084 14.9997 13.0084V13.0084Z" fill="#4DAAA7"/>
<path d="M23.7068 9.30166L19.7068 5.30181C19.421 5.01581 18.9909 4.92975 18.617 5.08465C18.244 5.23974 17.9999 5.60466 17.9999 6.00876V9.0087H14.0001C13.448 9.0087 13 9.45656 13 10.0086C13 10.5607 13.448 11.0085 14.0001 11.0085H17.9999V14.0085C17.9999 14.4126 18.244 14.7775 18.617 14.9326C18.9909 15.0875 19.421 15.0014 19.7068 14.7156L23.7068 10.7156C24.0978 10.3246 24.0978 9.69258 23.7068 9.30166V9.30166Z" fill="#4DAAA7"/>
</svg>
