<svg width="161" height="34" viewBox="0 0 161 34" fill="none" xmlns="http://www.w3.org/2000/svg">
<g clip-path="url(#clip0_301_21)">
<path d="M37.4254 33.178C37.1049 32.9394 36.8456 32.6285 36.6688 32.2706C36.4921 31.9127 36.4029 31.5181 36.4085 31.1191V3.53716C36.3969 2.66426 36.7165 1.81928 37.3033 1.1718C37.8901 0.524319 38.7006 0.12225 39.5721 0.0462872C40.035 0.0155344 40.4994 0.0799651 40.9364 0.235588C41.3734 0.391211 41.7738 0.634713 42.1126 0.95101C42.4515 1.26731 42.7217 1.64966 42.9064 2.07439C43.0912 2.49913 43.1866 2.95719 43.1867 3.4202V30.6185C43.1867 33.2436 40.1901 35.1695 37.4254 33.178Z" fill="#3F8F8B"/>
<path d="M3.16384 33.9563C2.29256 33.8801 1.48232 33.4781 0.895609 32.8308C0.308896 32.1836 -0.0109219 31.3389 0.000284866 30.4662V2.88929C-0.00474395 2.49068 0.0847542 2.09653 0.261475 1.73902C0.438195 1.3815 0.697129 1.07075 1.01714 0.832128C3.78273 -1.16025 6.77849 0.765659 6.77849 3.38991V30.5815C6.77848 31.0446 6.68317 31.5027 6.49847 31.9276C6.31376 32.3524 6.0436 32.7349 5.70473 33.0512C5.36585 33.3676 4.96547 33.6112 4.52841 33.7669C4.09134 33.9226 3.62689 33.987 3.16384 33.9563Z" fill="#4DAAA7"/>
<path d="M126.205 33.1418C125.884 32.9033 125.625 32.5923 125.448 32.2344C125.271 31.8765 125.182 31.4819 125.188 31.083V2.91202C125.182 2.51307 125.271 2.11847 125.448 1.76059C125.625 1.4027 125.884 1.09173 126.205 0.853176C128.969 -1.13836 131.966 0.787548 131.966 3.41264V30.5832C131.966 33.2083 128.969 35.1342 126.205 33.1427" fill="#4DAAA7"/>
<path d="M15.2526 33.9647C14.543 33.9644 13.8514 33.7419 13.2753 33.3286C12.6991 32.9153 12.2674 32.3321 12.041 31.661L5.91203 16.0308C5.74849 15.6577 5.66406 15.255 5.66406 14.8478C5.66406 14.4406 5.74849 14.0378 5.91203 13.6648L11.8901 1.93182C13.0233 -0.435814 16.5578 -0.885109 18.1936 2.10009C18.3798 2.45318 18.4795 2.84531 18.4845 3.24429C18.4895 3.64327 18.3996 4.03775 18.2222 4.39537L13.0165 15.2718L18.4642 29.5029C18.6348 30.0115 18.6819 30.5533 18.6015 31.0836C18.5211 31.6139 18.3156 32.1175 18.0019 32.553C17.6881 32.9885 17.2752 33.3434 16.797 33.5884C16.3189 33.8334 15.7893 33.9615 15.2518 33.9622" fill="#4DAAA7"/>
<path d="M54.9907 34C52.2527 33.9969 49.6277 32.91 47.6918 30.9779C45.7559 29.0458 44.6672 26.4262 44.6645 23.694V10.3338C44.6522 8.97282 44.9101 7.6229 45.4235 6.36198C45.9369 5.10106 46.6956 3.95413 47.6556 2.9874C48.6157 2.02068 49.7582 1.25332 51.0171 0.729643C52.276 0.205965 53.6264 -0.0636597 54.9903 -0.0636597C56.3542 -0.0636597 57.7046 0.205965 58.9635 0.729643C60.2225 1.25332 61.3649 2.02068 62.325 2.9874C63.285 3.95413 64.0437 5.10106 64.5571 6.36198C65.0705 7.6229 65.3285 8.97282 65.3161 10.3338V23.694C65.313 26.4258 64.2242 29.0448 62.2885 30.9765C60.3528 32.9083 57.7283 33.995 54.9907 33.9983V34ZM54.9907 6.79159C54.0501 6.7927 53.1483 7.16608 52.4831 7.82981C51.818 8.49354 51.4438 9.39344 51.4427 10.3321V23.694C51.4427 24.633 51.8165 25.5335 52.4819 26.1975C53.1473 26.8615 54.0497 27.2345 54.9907 27.2345C55.9317 27.2345 56.8342 26.8615 57.4996 26.1975C58.165 25.5335 58.5388 24.633 58.5388 23.694V10.3338C58.5377 9.39512 58.1635 8.49523 57.4983 7.83149C56.8332 7.16776 55.9314 6.79439 54.9907 6.79327" fill="#4DAAA7"/>
<path d="M95.6592 0.852308C95.3386 1.09095 95.0793 1.40206 94.9025 1.7601C94.7257 2.11814 94.6366 2.51291 94.6424 2.912V23.694C94.642 24.1796 94.5416 24.66 94.3475 25.1053C94.1534 25.5506 93.8696 25.9513 93.5139 26.2827C93.1581 26.614 92.7379 26.8689 92.2794 27.0314C91.8208 27.194 91.3336 27.2608 90.8481 27.2278C89.9368 27.1458 89.09 26.7235 88.4772 26.0454C87.8644 25.3673 87.5307 24.4833 87.5429 23.5703V3.41093C87.5428 2.9602 87.4524 2.51404 87.277 2.09868C87.1016 1.68332 86.8448 1.30713 86.5216 0.992243C86.1985 0.677355 85.8155 0.430116 85.3951 0.265062C84.9748 0.100009 84.5257 0.0204711 84.0741 0.0311253C83.2287 0.041818 82.4082 0.318279 81.7293 0.821177C81.3981 1.05988 81.1289 1.37425 80.9444 1.738C80.7598 2.10175 80.6653 2.5043 80.6686 2.912V23.694C80.6683 24.1796 80.5681 24.66 80.374 25.1054C80.1799 25.5508 79.8962 25.9516 79.5404 26.2829C79.1846 26.6143 78.7643 26.8692 78.3057 27.0317C77.8471 27.1942 77.3599 27.261 76.8743 27.2278C75.963 27.1456 75.1164 26.7233 74.5036 26.0452C73.8909 25.3671 73.5571 24.4833 73.5691 23.5703V3.41093C73.5691 0.785839 70.5734 -1.14007 67.8078 0.851467C67.4879 1.09078 67.2293 1.40223 67.0532 1.76035C66.8771 2.11847 66.7883 2.51311 66.7943 2.912V23.4702C66.7725 26.1586 67.7897 28.752 69.6344 30.7114C71.4792 32.6708 74.0096 33.8456 76.6998 33.9916C78.8241 34.0802 80.9236 33.5084 82.7082 32.3551C83.1359 32.0801 83.6343 31.9346 84.1431 31.9364C84.6519 31.9382 85.1492 32.0871 85.575 32.3652C87.1266 33.3772 88.9286 33.9413 90.7815 33.9949C92.163 34.0352 93.5385 33.7986 94.8268 33.2992C96.1151 32.7998 97.2899 32.0476 98.2818 31.0873C99.2737 30.1269 100.063 28.9778 100.602 27.7079C101.141 26.438 101.419 25.0731 101.421 23.694V3.41093C101.421 0.785839 98.424 -1.14007 95.6592 0.851467" fill="#4DAAA7"/>
<path d="M109.055 33.9647H108.587C107.079 33.9629 105.634 33.3643 104.567 32.3003C103.501 31.2362 102.901 29.7936 102.899 28.2888V5.71466C102.902 4.21044 103.502 2.76856 104.568 1.70507C105.634 0.641583 107.079 0.0432622 108.587 0.0412598H109.054C112.939 0.0457134 116.664 1.58779 119.411 4.32919C122.158 7.07059 123.703 10.7874 123.708 14.6644V19.3441C123.703 23.221 122.158 26.9379 119.411 29.6793C116.664 32.4207 112.939 33.9628 109.054 33.9672L109.055 33.9647ZM109.676 8.96321V25.0427C109.675 25.3207 109.743 25.5947 109.873 25.8405C110.003 26.0863 110.192 26.2966 110.422 26.4529C110.653 26.6092 110.918 26.7067 111.195 26.7369C111.472 26.7671 111.752 26.7291 112.011 26.6262C113.463 26.0372 114.707 25.0297 115.583 23.7322C116.459 22.4347 116.928 20.9061 116.93 19.3416V14.6618C116.928 13.0973 116.459 11.5686 115.583 10.2711C114.707 8.9736 113.463 7.96609 112.011 7.37722C111.752 7.27429 111.472 7.2363 111.195 7.26656C110.918 7.29682 110.652 7.39441 110.422 7.55078C110.191 7.70715 110.003 7.91753 109.873 8.16348C109.743 8.40943 109.675 8.68345 109.676 8.96153" fill="#4DAAA7"/>
<path d="M138.579 30.9146C138.579 31.4214 138.429 31.9167 138.147 32.338C137.864 32.7593 137.463 33.0877 136.994 33.2816C136.525 33.4755 136.009 33.5263 135.511 33.4274C135.013 33.3286 134.555 33.0846 134.196 32.7263C133.837 32.368 133.593 31.9115 133.494 31.4145C133.395 30.9175 133.445 30.4024 133.64 29.9342C133.834 29.4661 134.163 29.066 134.585 28.7844C135.008 28.5029 135.504 28.3527 136.012 28.3527C136.693 28.3527 137.346 28.6226 137.827 29.1031C138.309 29.5835 138.579 30.2352 138.579 30.9146Z" fill="#333333"/>
<path d="M158.681 33.2326C158.066 33.2324 157.477 32.9887 157.042 32.555C156.608 32.1212 156.364 31.5331 156.363 30.9197V20.957C156.363 20.3433 156.608 19.7548 157.042 19.3209C157.477 18.887 158.067 18.6432 158.682 18.6432C159.297 18.6432 159.887 18.887 160.322 19.3209C160.756 19.7548 161.001 20.3433 161.001 20.957V30.9155C161 31.5289 160.756 32.117 160.322 32.5507C159.887 32.9845 159.297 33.2282 158.683 33.2284" fill="#333333"/>
<path d="M158.68 16.8957C158.528 16.8949 158.378 16.8802 158.229 16.8519C158.081 16.8202 157.936 16.7763 157.795 16.7207C157.656 16.6619 157.522 16.59 157.396 16.5061C157.14 16.3401 156.921 16.1219 156.755 15.8658C156.671 15.7402 156.599 15.607 156.54 15.4678C156.484 15.3273 156.44 15.1824 156.408 15.0345C156.38 14.8865 156.365 14.736 156.364 14.5852C156.365 14.4331 156.38 14.2813 156.408 14.1317C156.44 13.9839 156.484 13.839 156.54 13.6984C156.599 13.5593 156.671 13.426 156.755 13.3005C156.838 13.173 156.934 13.0543 157.041 12.9462C157.476 12.5131 158.066 12.2698 158.68 12.2698C159.294 12.2698 159.884 12.5131 160.319 12.9462C160.427 13.0542 160.525 13.1728 160.61 13.3005C160.694 13.4252 160.765 13.5586 160.821 13.6984C160.881 13.8376 160.925 13.9829 160.953 14.1317C160.985 14.2808 161.001 14.4328 161.001 14.5852C161.001 14.7363 160.985 14.8869 160.953 15.0345C160.925 15.1833 160.881 15.3286 160.821 15.4678C160.765 15.6076 160.694 15.7411 160.61 15.8658C160.525 15.9934 160.427 16.1121 160.319 16.22C159.882 16.6505 159.294 16.8923 158.68 16.8931" fill="#333333"/>
<path d="M154.885 25.7705C154.885 25.6535 154.874 25.5408 154.868 25.4255V21.0504C154.877 20.463 154.667 19.893 154.28 19.4507C153.892 19.0083 153.354 18.7248 152.77 18.655C152.397 18.6192 152.021 18.6747 151.674 18.8165C151.199 19.0291 150.661 19.0496 150.171 18.8737C149.231 18.5056 148.225 18.3338 147.216 18.3689C145.247 18.4015 143.373 19.213 142.004 20.625C140.635 22.037 139.884 23.9337 139.917 25.898C139.95 27.8622 140.763 29.7331 142.178 31.099C143.593 32.4649 145.494 33.2139 147.462 33.1813C148.265 33.181 149.063 33.0488 149.823 32.7901C150.093 32.7043 150.378 32.675 150.66 32.704C150.942 32.7329 151.214 32.8195 151.461 32.9584C151.81 33.1436 152.2 33.2363 152.595 33.2276C153.213 33.1982 153.796 32.9301 154.22 32.4799C154.643 32.0298 154.875 31.4329 154.866 30.8154V26.1155C154.872 26.0002 154.884 25.8875 154.884 25.7705H154.885ZM147.464 28.5521C146.925 28.5523 146.399 28.3969 145.947 28.1047C145.495 27.8126 145.138 27.3961 144.918 26.9057C144.698 26.4153 144.626 25.8719 144.709 25.3411C144.792 24.8103 145.027 24.3149 145.386 23.9148C145.746 23.5146 146.213 23.2268 146.733 23.086C147.252 22.9453 147.801 22.9577 148.314 23.1218C148.827 23.2858 149.281 23.5945 149.621 24.0105C149.962 24.4264 150.175 24.932 150.234 25.4659V26.0742C150.158 26.7547 149.834 27.3835 149.323 27.8405C148.812 28.2974 148.15 28.5505 147.464 28.5512" fill="#333333"/>
<path d="M1.49686 28.8861H3.87796V29.1831H4.17644V31.263H3.87796V31.56H1.49686V31.263H1.19922V29.1806H1.49686V28.8861ZM3.28268 29.1831H1.79449V30.669H2.09213V30.372H2.38977V30.075H2.68741V29.778H2.98504V29.4751H3.28268V29.1831ZM2.09213 31.2596H3.58032V29.7746H3.28268V30.0716H2.98504V30.3686H2.68741V30.6656H2.38977V30.9626H2.09213V31.2596Z" fill="white"/>
<path d="M4.47461 28.8861H5.66516V31.56H5.06988V29.1806H4.47461V28.8861Z" fill="white"/>
<path d="M35.67 17.387C35.6637 18.1894 35.3614 18.9612 34.8209 19.5553C34.7811 19.6029 34.7371 19.6468 34.6894 19.6865C33.724 20.2985 32.6037 20.6228 31.4601 20.6213H31.3083C31.2366 20.6213 31.1683 20.6213 31.1127 20.6213C31.2762 20.6213 32.6194 20.6213 32.6675 20.6331C32.568 20.6448 31.5351 20.665 31.3833 20.7088C28.095 21.5998 26.9255 25.0099 26.9255 27.9026V30.6202C26.9255 31.4845 26.5815 32.3133 25.969 32.9244C25.3566 33.5355 24.526 33.8789 23.6599 33.8789C22.7938 33.8789 21.9632 33.5355 21.3508 32.9244C20.7384 32.3133 20.3943 31.4845 20.3943 30.6202V27.9068C20.3035 24.3087 21.5329 20.8014 23.8513 18.0442C23.8608 18.03 23.8715 18.0168 23.8834 18.0046C25.4177 16.2703 27.4296 15.025 29.6683 14.4237C30.0192 14.3245 30.376 14.2475 30.7366 14.1932H30.8319C31.0073 14.1932 31.1506 14.1932 31.2703 14.1932H31.3378C31.4929 14.1932 32.5258 14.1932 32.6498 14.1856H32.6658C33.4537 14.2507 34.1913 14.5986 34.7418 15.1648C35.2923 15.731 35.6185 16.4772 35.6599 17.265C35.6599 17.3046 35.6599 17.345 35.6599 17.3845" fill="#333333"/>
<path d="M30.9888 20.7484C30.9888 20.7685 30.977 20.7845 30.9247 20.7845C30.8724 20.7845 30.9365 20.7685 30.9888 20.7484Z" fill="#333333"/>
<path d="M30.9883 20.7508C30.9906 20.7351 30.9991 20.7209 31.0119 20.7113H31.0397C31.0836 20.7113 31.0397 20.7315 30.9883 20.7475" fill="#333333"/>
<path d="M26.9286 10.3565C26.9392 11.3655 27.3437 12.3307 28.0562 13.0468C28.7687 13.7629 29.7329 14.1736 30.744 14.1915H30.8392C31.0146 14.1915 31.158 14.1915 31.2777 14.1915H31.3451C31.5003 14.1915 32.5332 14.1915 32.6571 14.1839H32.6731C33.461 14.249 34.1986 14.5969 34.7491 15.1631C35.2997 15.7293 35.6258 16.4755 35.6672 17.2633C35.6672 17.3029 35.6672 17.3433 35.6672 17.3828V17.4308C35.6674 18.2416 35.3647 19.0234 34.8181 19.6234C34.7784 19.671 34.7343 19.715 34.6866 19.7547C34.1725 20.2401 33.5127 20.5434 32.8089 20.6179C32.7608 20.6179 32.7136 20.6297 32.6655 20.6339C32.4126 20.6617 31.2659 20.6819 31.0829 20.6936H31.0627C31.0449 20.6938 31.0273 20.6978 31.0112 20.7054H30.8359C28.2741 20.7081 25.8007 19.7708 23.8865 18.0719C23.8748 18.0623 23.8641 18.0516 23.8545 18.0399C22.2842 16.6407 21.1786 14.7972 20.6851 12.755C20.1915 10.7128 20.3335 8.569 21.0921 6.60938C21.8506 4.64976 23.1897 2.9674 24.9308 1.78657C26.672 0.605731 28.7324 -0.0174856 30.8376 -8.43566e-06C31.4278 -8.43566e-06 31.1647 0.027757 32.1175 0.0513155L32.4758 0.0715085C32.9063 0.0784024 33.3312 0.170165 33.7261 0.341518C34.1209 0.51287 34.478 0.760432 34.7766 1.06996C35.0752 1.37949 35.3096 1.74489 35.4662 2.14512C35.6227 2.54536 35.6985 2.97254 35.6891 3.4021C35.6796 3.83165 35.5851 4.25511 35.4111 4.6481C35.2371 5.0411 34.9869 5.39588 34.6749 5.69204C34.363 5.9882 33.9954 6.21989 33.5934 6.37379C33.1914 6.5277 32.7629 6.60077 32.3325 6.58881L31.9505 6.56861C31.1335 6.54842 31.3527 6.51729 30.8384 6.51729C29.8102 6.51056 28.8213 6.91091 28.0884 7.63057C27.3555 8.35023 26.9384 9.33049 26.9286 10.3565Z" fill="#333333"/>
</g>
<defs>
<clipPath id="clip0_301_21">
<rect width="161" height="34" fill="white"/>
</clipPath>
</defs>
</svg>
