<svg width="31" height="51" viewBox="0 0 31 51" fill="none" xmlns="http://www.w3.org/2000/svg">
<path d="M6.72511 16.8704C6.72353 17.4191 6.89464 17.9542 7.21422 18.4001L7.48974 18.8003C7.84862 19.3088 8.01814 19.9266 7.96932 20.5467C7.92089 21.1673 7.65688 21.7513 7.22295 22.1975L6.97403 22.4464C6.81444 22.6143 6.72511 22.837 6.72511 23.0689V24.2607V24.2603C7.10861 24.0606 7.50681 23.8911 7.91696 23.7537C7.91696 23.745 7.91696 23.745 7.92569 23.745H7.94356V23.7446C8.9793 23.3742 10.0715 23.1845 11.1716 23.1845C11.4074 23.1845 11.6337 23.0908 11.8005 22.924C11.9672 22.7573 12.0609 22.531 12.0609 22.2952V21.4059C10.9854 20.806 10.089 19.9302 9.46368 18.869C8.8384 17.8079 8.5073 16.5994 8.50373 15.3675V8.95587C8.50373 8.46478 8.90193 8.06658 9.39302 8.06658H12.7365C13.2479 8.06619 13.7485 7.91771 14.1773 7.63981L16.0627 6.43058V6.43019C16.3612 6.23764 16.7459 6.24121 17.0409 6.43932L18.7837 7.61328C19.2239 7.90626 19.7401 8.06427 20.2688 8.06665H21.8429C22.0787 8.06665 22.305 8.16034 22.4718 8.32708C22.6385 8.49382 22.7322 8.72012 22.7322 8.95594V15.1722C22.731 17.7138 21.3756 20.0625 19.1751 21.3349V22.2952C19.1711 22.5271 19.2648 22.7494 19.4331 22.909C19.5947 23.0865 19.8242 23.1865 20.0643 23.1845C21.1577 23.1881 22.2427 23.3747 23.2745 23.736C23.2833 23.7447 23.3011 23.736 23.3102 23.7447C23.317 23.7459 23.3234 23.7487 23.3281 23.7538C23.7307 23.9027 24.1253 24.0718 24.5108 24.2604V24.2247V24.2251C24.5084 23.7705 24.3262 23.3358 24.0038 23.0155C23.3345 22.3608 22.9565 21.4639 22.9546 20.5275C22.953 19.591 23.3278 18.6929 23.9951 18.0354C24.3234 17.7151 24.5092 17.276 24.5108 16.8175V5.39905C24.5088 4.69199 24.2269 4.01471 23.7271 3.51488C23.2273 3.01505 22.55 2.73318 21.843 2.7312H20.0644C19.5733 2.7312 19.1751 3.1294 19.1751 3.62049C19.1751 4.11157 18.7769 4.50977 18.2858 4.50977C17.7947 4.50977 17.3965 4.11157 17.3965 3.62049C17.3945 2.91343 17.1127 2.23615 16.6128 1.73632C16.113 1.23649 15.4357 0.954619 14.7287 0.952637H11.1715C9.99239 0.952637 8.86142 1.4211 8.02722 2.25476C7.19351 3.08885 6.7251 4.21992 6.7251 5.39907L6.72511 16.8704Z" fill="white"/>
<path d="M30.1862 34.1762C30.0222 33.9714 29.7729 33.8535 29.5105 33.8562H1.72919C1.46677 33.8535 1.21745 33.9714 1.05349 34.1762C0.882782 34.3747 0.810928 34.6395 0.857771 34.8968L3.02783 47.1954H28.2124L30.3825 34.8968C30.4293 34.6395 30.3575 34.3747 30.1868 34.1762H30.1862ZM15.6202 44.5275C14.3494 44.5275 13.175 43.8494 12.5395 42.749C11.9043 41.6485 11.9043 40.2923 12.5395 39.1918C13.1751 38.0913 14.3495 37.4132 15.6202 37.4132C16.1113 37.4132 16.5095 37.8114 16.5095 38.3025C16.5095 38.7936 16.1113 39.1918 15.6202 39.1918C15.1485 39.1918 14.696 39.3792 14.3625 39.7127C14.029 40.0461 13.8416 40.4987 13.8416 40.9704C13.8416 41.442 14.029 41.8946 14.3625 42.2281C14.696 42.5616 15.1485 42.749 15.6202 42.749C16.0918 42.749 16.5444 42.5616 16.8779 42.2281C17.2114 41.8946 17.3988 41.442 17.3988 40.9704C17.3988 40.4793 17.797 40.0811 18.288 40.0811C18.7791 40.0811 19.1773 40.4793 19.1773 40.9704C19.1773 41.9137 18.8026 42.8185 18.1356 43.4858C17.4682 44.1528 16.5634 44.5275 15.6202 44.5275Z" fill="white"/>
<path d="M2.2832 49.8635C2.2832 50.0993 2.3769 50.3256 2.54364 50.4924C2.71038 50.6591 2.93667 50.7528 3.17249 50.7528H28.0725C28.3083 50.7528 28.5346 50.6591 28.7014 50.4924C28.8681 50.3256 28.9618 50.0993 28.9618 49.8635V48.9742H2.2832V49.8635Z" fill="white"/>
<path d="M9.56494 25.1231C10.8536 27.2332 13.1483 28.5202 15.6208 28.5202C18.0933 28.5202 20.388 27.2332 21.6767 25.1231C21.1471 25.0159 20.6079 24.9623 20.0673 24.9631C19.3598 24.9631 18.6809 24.682 18.1808 24.1818C17.6806 23.6815 17.3994 23.0026 17.3994 22.2953V22.0642C16.8182 22.2135 16.2211 22.2913 15.6209 22.2953H15.4696C14.9214 22.2937 14.375 22.2282 13.8423 22.0995V22.2953C13.8403 23.0023 13.5584 23.6796 13.0586 24.1794C12.5588 24.6793 11.8815 24.9611 11.1744 24.9631C10.6337 24.9627 10.0946 25.0163 9.56497 25.1231L9.56494 25.1231Z" fill="white"/>
<path d="M15.6203 20.5171C17.036 20.514 18.3925 19.9498 19.393 18.9478C20.3931 17.9458 20.9552 16.5884 20.956 15.1727V9.84571H20.2712C19.3875 9.8469 18.5232 9.58369 17.7903 9.08982L16.5366 8.245L15.1404 9.13428H15.14C14.427 9.60235 13.5921 9.84968 12.7389 9.84571H10.2847V15.368C10.2906 16.738 10.8397 18.0498 11.8119 19.0153C12.7838 19.9804 14.099 20.5207 15.4691 20.5171H15.6203ZM17.3989 12.5136C17.3989 12.0225 17.7971 11.6243 18.2882 11.6243C18.7793 11.6243 19.1774 12.0225 19.1774 12.5136V13.4029C19.1774 13.8939 18.7793 14.2921 18.2882 14.2921C17.7971 14.2921 17.3989 13.8939 17.3989 13.4029V12.5136ZM12.0632 12.5136C12.0632 12.0225 12.4614 11.6243 12.9524 11.6243C13.4435 11.6243 13.8417 12.0225 13.8417 12.5136V13.4029C13.8417 13.8939 13.4435 14.2921 12.9524 14.2921C12.4614 14.2921 12.0632 13.8939 12.0632 13.4029V12.5136ZM12.3248 16.3323C12.6718 15.9857 13.2339 15.9857 13.5813 16.3323C14.122 16.8714 14.8544 17.1748 15.6187 17.1748C16.3825 17.1748 17.115 16.8714 17.6557 16.3323C18.0043 15.9945 18.5589 15.9984 18.9028 16.3411C19.2462 16.6837 19.2517 17.2383 18.9151 17.5877C18.0405 18.4607 16.8554 18.951 15.6195 18.951C14.3837 18.951 13.1982 18.4607 12.3236 17.5877C11.9778 17.2407 11.9782 16.6789 12.3248 16.3323L12.3248 16.3323Z" fill="white"/>
<path d="M3.22392 32.0779H7.13678C7.32257 31.5741 7.57705 31.0981 7.89267 30.6638C8.03202 30.4728 8.24124 30.345 8.47468 30.3085C8.70812 30.2715 8.94671 30.3291 9.13767 30.4685C9.53547 30.7579 9.6232 31.3157 9.3334 31.7135C9.25399 31.8298 9.18253 31.9517 9.1202 32.0779H22.1211C22.0587 31.9517 21.9873 31.8298 21.9079 31.7135C21.618 31.3157 21.7058 30.7579 22.1036 30.4685C22.5014 30.1786 23.0588 30.266 23.3486 30.6638C23.6642 31.0981 23.9187 31.5741 24.1045 32.0779H28.0173C27.7001 29.2842 25.9418 26.8609 23.3839 25.6929C22.3644 27.5608 20.7057 28.9983 18.7119 29.742C16.7182 30.4856 14.5228 30.4856 12.529 29.742C10.5353 28.9984 8.87655 27.5608 7.85707 25.6929C5.29521 26.8561 3.53493 29.2818 3.22363 32.0779H3.22392Z" fill="white"/>
</svg>
