<svg width="27" height="25" viewBox="0 0 27 25" fill="none" xmlns="http://www.w3.org/2000/svg">
<path d="M10.0792 24.8692C9.61565 24.8692 9.18121 24.6954 8.8625 24.3767L1.27269 16.5552C0.548475 15.8889 0.519558 14.7591 1.2147 14.0349C1.88093 13.3107 3.01071 13.2818 3.73493 13.9769L9.29693 17.9456C9.61559 18.2354 10.1081 18.1774 10.3687 17.8298L23.5495 1.54938C24.1288 0.767173 25.2586 0.593412 26.0408 1.20182C26.823 1.78114 26.9968 2.91092 26.3884 3.69313L11.4984 24.1451C11.1798 24.5506 10.7162 24.8113 10.2238 24.8404C10.166 24.8693 10.1369 24.8693 10.0791 24.8693L10.0792 24.8692Z" fill="#969698"/>
</svg>
