<svg width="17" height="17" viewBox="0 0 17 17" fill="none" xmlns="http://www.w3.org/2000/svg">
<path d="M8.36409 6.30086C8.9306 6.30086 9.38589 5.83432 9.38589 5.26796C9.38589 4.71256 8.93046 4.24616 8.36409 4.24616C7.7976 4.24603 7.34217 4.71256 7.34217 5.26782C7.34217 5.83432 7.7976 6.30086 8.36409 6.30086ZM9.45253 7.73369C9.45253 7.26715 9.07482 6.90068 8.61953 6.90068H7.78652C7.31999 6.90068 6.95352 7.26728 6.95352 7.73369C6.95352 8.18911 7.32012 8.56669 7.78652 8.56669V10.9992C7.31999 10.9992 6.95352 11.3769 6.95352 11.8322C6.95352 12.2988 7.32012 12.6652 7.78652 12.6652H9.45253C9.90796 12.6652 10.2855 12.2986 10.2855 11.8322C10.2855 11.3768 9.90783 10.9992 9.45253 10.9992V7.73369ZM8.45295 0.169556C13.0515 0.169556 16.7833 3.90137 16.7833 8.49995C16.7833 13.0985 13.0515 16.8303 8.45295 16.8303C3.84347 16.8303 0.122559 13.0985 0.122559 8.49995C0.122559 3.90137 3.84347 0.169556 8.45295 0.169556Z" fill="#4DAAA7"/>
</svg>
