<svg width="37" height="40" viewBox="0 0 37 40" fill="none" xmlns="http://www.w3.org/2000/svg">
<path d="M33.6874 0.101074H3.74735C2.09917 0.101074 0.757812 1.43708 0.757812 3.07997V36.3767C0.757812 38.0196 2.09917 39.3556 3.74735 39.3556H33.6867C35.3352 39.3556 36.6762 38.0196 36.6762 36.3767L36.6765 3.07997C36.6765 1.43708 35.3352 0.101074 33.687 0.101074H33.6874ZM33.2005 35.8914H4.23432V3.5643H33.2005V35.8914Z" fill="#333333"/>
<path d="M16.2213 15.4435C16.2213 16.8043 15.1144 17.9075 13.7487 17.9075C12.3827 17.9075 11.2759 16.8043 11.2759 15.4435C11.2759 14.0826 12.3827 12.9794 13.7487 12.9794C15.1144 12.9794 16.2213 14.0826 16.2213 15.4435Z" fill="#4DAAA7"/>
<path d="M8.00242 20.8408V29.0005C8.00242 29.7495 8.42578 30.4143 9.13509 30.778C9.44251 30.9355 9.8507 31.0533 10.2841 31.0533C10.6805 31.0533 11.0987 30.9549 11.4792 30.6976L13.7966 29.1839L15.7671 30.64C16.3906 31.0986 17.203 31.1671 17.8882 30.8237C18.58 30.4748 19.01 29.7724 19.01 28.9894V21.0159C20.4987 19.6191 21.4336 17.6425 21.4336 15.4442C21.4336 11.214 17.9924 7.78543 13.7475 7.78543C9.50185 7.78543 6.06055 11.2144 6.06055 15.4442C6.06055 17.4103 6.81018 19.1975 8.03217 20.5538C8.01614 20.6474 8.00269 20.7426 8.00269 20.841L8.00242 20.8408ZM15.534 26.1553L13.9193 24.9614L11.4785 26.5561V22.7632C12.1952 22.9836 12.9569 23.1029 13.7466 23.1029C14.3629 23.1029 14.9592 23.0227 15.5337 22.8861L15.5334 26.1553L15.534 26.1553ZM13.7469 11.2481C16.0687 11.2481 17.9576 13.1302 17.9576 15.4437C17.9576 17.7572 16.0687 19.6394 13.7469 19.6394C11.4249 19.6394 9.53599 17.7569 9.53599 15.4437C9.53599 13.1302 11.4249 11.2481 13.7469 11.2481Z" fill="#4DAAA7"/>
<path d="M24.8042 16.2221H29.4388C30.3986 16.2221 31.1766 15.4469 31.1766 14.4905C31.1766 13.5336 30.3986 12.7589 29.4388 12.7589H24.8042C23.8444 12.7589 23.0664 13.5341 23.0664 14.4905C23.0661 15.4469 23.8444 16.2221 24.8042 16.2221Z" fill="#333333"/>
<path d="M23.648 22.5725H29.4415C30.4013 22.5725 31.1793 21.7973 31.1793 20.8409C31.1793 19.884 30.4013 19.1093 29.4415 19.1093L23.648 19.109C22.6882 19.109 21.9102 19.8842 21.9102 20.8406C21.9102 21.7975 22.6882 22.5725 23.648 22.5725V22.5725Z" fill="#333333"/>
<path d="M23.648 28.9218H29.4415C30.4013 28.9218 31.1793 28.1466 31.1793 27.1902C31.1793 26.2338 30.4013 25.4586 29.4415 25.4586H23.648C22.6882 25.4586 21.9102 26.2338 21.9102 27.1902C21.9102 28.1466 22.6882 28.9218 23.648 28.9218Z" fill="#333333"/>
</svg>
