<svg width="28" height="31" viewBox="0 0 28 31" fill="none" xmlns="http://www.w3.org/2000/svg">
<path d="M15.8199 9.93231C15.3755 9.4879 14.7723 9.26556 14.201 9.26556C13.6297 9.26556 13.0265 9.48788 12.5821 9.93231L5.50306 17.0113C4.61421 17.9002 4.61421 19.3605 5.50306 20.281C6.39191 21.1699 7.85221 21.1699 8.77275 20.281L11.8837 17.1701V28.6299C11.8837 29.8995 12.9312 30.9472 14.2009 30.9472C15.4706 30.9472 16.5182 29.8996 16.5182 28.6299L16.5185 17.1384L19.6294 20.2493C20.5182 21.1381 21.9785 21.1381 22.899 20.2493C23.7879 19.3604 23.7879 17.9001 22.899 16.9796L15.8199 9.93231Z" fill="#969698"/>
<path d="M2.80178 11.5833C4.07145 11.5833 5.11907 10.5357 5.11907 9.266V5.36125H23.3404V9.26577C23.3404 10.5354 24.388 11.5831 25.6577 11.5831C26.9274 11.5831 27.975 10.5355 27.975 9.26577V3.07559C27.975 1.80593 26.9274 0.758301 25.6577 0.758301H2.80167C1.532 0.758301 0.484375 1.80587 0.484375 3.07559V9.26577C0.484154 10.5357 1.50009 11.5833 2.80167 11.5833H2.80178Z" fill="#969698"/>
</svg>
