<svg width="30" height="51" viewBox="0 0 30 51" fill="none" xmlns="http://www.w3.org/2000/svg">
<path d="M6.22511 16.8704C6.22353 17.4191 6.39464 17.9542 6.71422 18.4001L6.98974 18.8003C7.34862 19.3088 7.51814 19.9266 7.46932 20.5467C7.42089 21.1673 7.15688 21.7513 6.72295 22.1975L6.47403 22.4464C6.31444 22.6143 6.22511 22.837 6.22511 23.0689V24.2607V24.2603C6.60861 24.0606 7.00681 23.8911 7.41696 23.7537C7.41696 23.745 7.41696 23.745 7.42569 23.745H7.44356V23.7446C8.4793 23.3742 9.57155 23.1845 10.6716 23.1845C10.9074 23.1845 11.1337 23.0908 11.3005 22.924C11.4672 22.7573 11.5609 22.531 11.5609 22.2952V21.4059C10.4854 20.806 9.58902 19.9302 8.96368 18.869C8.3384 17.8079 8.0073 16.5994 8.00373 15.3675V8.95587C8.00373 8.46478 8.40193 8.06658 8.89302 8.06658H12.2365C12.7479 8.06619 13.2485 7.91771 13.6773 7.63981L15.5627 6.43058V6.43019C15.8612 6.23764 16.2459 6.24121 16.5409 6.43932L18.2837 7.61328C18.7239 7.90626 19.2401 8.06427 19.7688 8.06665H21.3429C21.5787 8.06665 21.805 8.16034 21.9718 8.32708C22.1385 8.49382 22.2322 8.72012 22.2322 8.95594V15.1722C22.231 17.7138 20.8756 20.0625 18.6751 21.3349V22.2952C18.6711 22.5271 18.7648 22.7494 18.9331 22.909C19.0947 23.0865 19.3242 23.1865 19.5643 23.1845C20.6577 23.1881 21.7427 23.3747 22.7745 23.736C22.7833 23.7447 22.8011 23.736 22.8102 23.7447C22.817 23.7459 22.8234 23.7487 22.8281 23.7538C23.2307 23.9027 23.6253 24.0718 24.0108 24.2604V24.2247V24.2251C24.0084 23.7705 23.8262 23.3358 23.5038 23.0155C22.8345 22.3608 22.4565 21.4639 22.4546 20.5275C22.453 19.591 22.8278 18.6929 23.4951 18.0354C23.8234 17.7151 24.0092 17.276 24.0108 16.8175V5.39905C24.0088 4.69199 23.7269 4.01471 23.2271 3.51488C22.7273 3.01505 22.05 2.73318 21.343 2.7312H19.5644C19.0733 2.7312 18.6751 3.1294 18.6751 3.62049C18.6751 4.11157 18.2769 4.50977 17.7858 4.50977C17.2947 4.50977 16.8965 4.11157 16.8965 3.62049C16.8945 2.91343 16.6127 2.23615 16.1128 1.73632C15.613 1.23649 14.9357 0.954619 14.2287 0.952637H10.6715C9.49239 0.952637 8.36142 1.4211 7.52722 2.25476C6.69351 3.08885 6.2251 4.21992 6.2251 5.39907L6.22511 16.8704Z" fill="white"/>
<path d="M29.6862 34.1762C29.5222 33.9714 29.2729 33.8535 29.0105 33.8562H1.22919C0.966773 33.8535 0.717449 33.9714 0.553495 34.1762C0.382782 34.3747 0.310928 34.6395 0.357771 34.8968L2.52783 47.1954H27.7124L29.8825 34.8968C29.9293 34.6395 29.8575 34.3747 29.6868 34.1762H29.6862ZM15.1202 44.5275C13.8494 44.5275 12.675 43.8494 12.0395 42.749C11.4043 41.6485 11.4043 40.2923 12.0395 39.1918C12.6751 38.0913 13.8495 37.4132 15.1202 37.4132C15.6113 37.4132 16.0095 37.8114 16.0095 38.3025C16.0095 38.7936 15.6113 39.1918 15.1202 39.1918C14.6485 39.1918 14.196 39.3792 13.8625 39.7127C13.529 40.0461 13.3416 40.4987 13.3416 40.9704C13.3416 41.442 13.529 41.8946 13.8625 42.2281C14.196 42.5616 14.6485 42.749 15.1202 42.749C15.5918 42.749 16.0444 42.5616 16.3779 42.2281C16.7114 41.8946 16.8988 41.442 16.8988 40.9704C16.8988 40.4793 17.297 40.0811 17.788 40.0811C18.2791 40.0811 18.6773 40.4793 18.6773 40.9704C18.6773 41.9137 18.3026 42.8185 17.6356 43.4858C16.9682 44.1528 16.0634 44.5275 15.1202 44.5275Z" fill="white"/>
<path d="M1.7832 49.8635C1.7832 50.0993 1.8769 50.3256 2.04364 50.4924C2.21038 50.6591 2.43667 50.7528 2.67249 50.7528H27.5725C27.8083 50.7528 28.0346 50.6591 28.2014 50.4924C28.3681 50.3256 28.4618 50.0993 28.4618 49.8635V48.9742H1.7832V49.8635Z" fill="white"/>
<path d="M9.06494 25.1231C10.3536 27.2332 12.6483 28.5202 15.1208 28.5202C17.5933 28.5202 19.888 27.2332 21.1767 25.1231C20.6471 25.0159 20.1079 24.9623 19.5673 24.9631C18.8598 24.9631 18.1809 24.682 17.6808 24.1818C17.1806 23.6815 16.8994 23.0026 16.8994 22.2953V22.0642C16.3182 22.2135 15.7211 22.2913 15.1209 22.2953H14.9696C14.4214 22.2937 13.875 22.2282 13.3423 22.0995V22.2953C13.3403 23.0023 13.0584 23.6796 12.5586 24.1794C12.0588 24.6793 11.3815 24.9611 10.6744 24.9631C10.1337 24.9627 9.59458 25.0163 9.06497 25.1231L9.06494 25.1231Z" fill="white"/>
<path d="M15.1203 20.5171C16.536 20.514 17.8925 19.9498 18.893 18.9478C19.8931 17.9458 20.4552 16.5884 20.456 15.1727V9.84571H19.7712C18.8875 9.8469 18.0232 9.58369 17.2903 9.08982L16.0366 8.245L14.6404 9.13428H14.64C13.927 9.60235 13.0921 9.84968 12.2389 9.84571H9.78467V15.368C9.79062 16.738 10.3397 18.0498 11.3119 19.0153C12.2838 19.9804 13.599 20.5207 14.9691 20.5171H15.1203ZM16.8989 12.5136C16.8989 12.0225 17.2971 11.6243 17.7882 11.6243C18.2793 11.6243 18.6774 12.0225 18.6774 12.5136V13.4029C18.6774 13.8939 18.2793 14.2921 17.7882 14.2921C17.2971 14.2921 16.8989 13.8939 16.8989 13.4029V12.5136ZM11.5632 12.5136C11.5632 12.0225 11.9614 11.6243 12.4524 11.6243C12.9435 11.6243 13.3417 12.0225 13.3417 12.5136V13.4029C13.3417 13.8939 12.9435 14.2921 12.4524 14.2921C11.9614 14.2921 11.5632 13.8939 11.5632 13.4029V12.5136ZM11.8248 16.3323C12.1718 15.9857 12.7339 15.9857 13.0813 16.3323C13.622 16.8714 14.3544 17.1748 15.1187 17.1748C15.8825 17.1748 16.615 16.8714 17.1557 16.3323C17.5043 15.9945 18.0589 15.9984 18.4028 16.3411C18.7462 16.6837 18.7517 17.2383 18.4151 17.5877C17.5405 18.4607 16.3554 18.951 15.1195 18.951C13.8837 18.951 12.6982 18.4607 11.8236 17.5877C11.4778 17.2407 11.4782 16.6789 11.8248 16.3323L11.8248 16.3323Z" fill="white"/>
<path d="M2.72392 32.0779H6.63678C6.82257 31.5741 7.07705 31.0981 7.39267 30.6638C7.53202 30.4728 7.74124 30.345 7.97468 30.3085C8.20812 30.2715 8.44671 30.3291 8.63767 30.4685C9.03547 30.7579 9.1232 31.3157 8.8334 31.7135C8.75399 31.8298 8.68253 31.9517 8.6202 32.0779H21.6211C21.5587 31.9517 21.4873 31.8298 21.4079 31.7135C21.118 31.3157 21.2058 30.7579 21.6036 30.4685C22.0014 30.1786 22.5588 30.266 22.8486 30.6638C23.1642 31.0981 23.4187 31.5741 23.6045 32.0779H27.5173C27.2001 29.2842 25.4418 26.8609 22.8839 25.6929C21.8644 27.5608 20.2057 28.9983 18.2119 29.742C16.2182 30.4856 14.0228 30.4856 12.029 29.742C10.0353 28.9984 8.37655 27.5608 7.35707 25.6929C4.79521 26.8561 3.03493 29.2818 2.72363 32.0779H2.72392Z" fill="white"/>
</svg>
