<svg width="38" height="38" viewBox="0 0 38 38" fill="none" xmlns="http://www.w3.org/2000/svg">
<path d="M23.7781 0.675841C20.8945 0.675841 18.7688 1.43334 17.459 2.92692C16.5438 3.97081 16.2364 5.14728 16.1427 5.99167C15.0489 5.42681 13.7612 5.14016 12.298 5.14016C5.67213 5.14016 5.28676 10.7883 5.28206 10.8807V13.8009C4.86838 14.2521 4.64448 14.7711 4.64448 15.2868V17.4904C4.64448 18.1786 4.95237 18.8199 5.48027 19.2532C6.00603 21.237 7.30115 22.7356 7.80513 23.2619V25.0108C7.80513 25.5127 7.53083 25.9733 7.0573 26.2321L2.81607 28.8945C1.18972 29.7807 0.179688 31.4819 0.179688 33.3326V35.7546H17.4008C17.7533 35.7546 18.0378 35.4693 18.0378 35.1168C18.0378 34.7637 17.7533 34.4787 17.4008 34.4787H10.3848V33.0513C10.3848 31.4118 11.2788 29.9046 12.7175 29.12L18.4082 26.0164C19.36 25.4966 19.9519 24.5 19.9519 23.4162V20.8525L19.8034 20.6756C19.8015 20.674 19.786 20.6541 19.7632 20.6255C19.6165 20.4391 19.0753 19.7249 18.5505 18.6807L18.5211 18.6219C18.5182 18.6159 18.5153 18.6099 18.5125 18.6044C18.4429 18.4647 18.3747 18.3164 18.3059 18.1634L18.2744 18.0915C18.2387 18.0101 18.203 17.9266 18.167 17.8392C18.155 17.809 18.1421 17.7794 18.1303 17.7487C18.0964 17.6647 18.0628 17.5788 18.0269 17.4807C17.961 17.3069 17.9009 17.1258 17.8426 16.9402L17.7967 16.7903C17.7368 16.5924 17.6814 16.3903 17.6329 16.1813C17.6321 16.1769 17.63 16.1727 17.6292 16.1682L17.6182 16.122L17.572 15.9162L17.3538 15.775C16.984 15.5372 16.7635 15.1374 16.7635 14.7065V12.1556C16.7635 11.7979 16.9152 11.4637 17.1906 11.2149L17.4008 11.0251V6.82795L17.3838 6.81404C17.3612 6.35416 17.389 4.94229 18.4185 3.76763C19.4753 2.56226 21.279 1.95071 23.7784 1.95071C26.2691 1.95071 28.0693 2.55784 29.1276 3.75506C30.3694 5.15859 30.1644 6.95448 30.1623 6.96973L30.1562 11.0252L30.3673 11.2155C30.6426 11.4635 30.7941 11.7977 30.7941 12.1554V14.7062C30.7941 15.2632 30.4303 15.7504 29.8872 15.9176C29.5512 16.021 29.3622 16.379 29.4662 16.715C29.5696 17.0515 29.925 17.2389 30.2636 17.136C31.344 16.8035 32.0703 15.8265 32.0703 14.7062V12.1554C32.0703 11.5412 31.8412 10.9456 31.4325 10.4813V7.08864C31.4687 6.73796 31.6086 4.65016 30.0985 2.92744C28.7887 1.43286 26.662 0.675293 23.7786 0.675293L23.7781 0.675841ZM28.7819 20.447C28.4764 20.447 28.2128 20.6649 28.1556 20.9652L27.9267 22.155C27.8459 22.5771 27.5716 22.9136 27.1742 23.0784C26.7757 23.244 26.3444 23.1989 25.988 22.9577L24.9848 22.2791C24.7323 22.109 24.3926 22.1403 24.1766 22.3566L22.9269 23.6052C22.7038 23.8275 22.6768 24.179 22.8629 24.4333L23.4411 25.2221C23.7015 25.5764 23.759 26.0151 23.5976 26.4243C23.4369 26.8345 23.0967 27.1167 22.6652 27.1999L21.7444 27.3761C21.4444 27.4335 21.2271 27.6963 21.2271 28.0023V29.7694C21.2271 30.0836 21.4565 30.3519 21.7678 30.4002L22.7345 30.5485C23.17 30.6154 23.5201 30.885 23.6962 31.2879C23.8724 31.6916 23.8314 32.132 23.5844 32.4969L23.0592 33.2728C22.8875 33.5256 22.9201 33.865 23.1364 34.0815L24.385 35.331C24.6071 35.5538 24.958 35.5803 25.2131 35.395L26.0019 34.8167C26.3562 34.5571 26.7954 34.4981 27.2033 34.6603C27.6136 34.8209 27.8968 35.1611 27.9797 35.5927L28.1561 36.5137C28.2134 36.8129 28.4761 37.0303 28.7824 37.0303H30.5492C30.8637 37.0303 31.1314 36.8003 31.1792 36.489L31.2842 35.8097C31.3511 35.3709 31.6359 35.0086 32.0451 34.8388C32.4556 34.6695 32.9123 34.7252 33.2704 34.9874L33.8242 35.3937C34.0786 35.5806 34.4308 35.5536 34.6523 35.3305L35.9021 34.081C36.1181 33.8647 36.1509 33.5248 35.9792 33.2715L35.4527 32.4956C35.2059 32.1313 35.166 31.691 35.3416 31.2874C35.5173 30.8845 35.8674 30.6141 36.3032 30.5472L37.2694 30.3989C37.5802 30.3506 37.8098 30.0823 37.8098 29.7681V28.0019C37.8098 27.6966 37.592 27.4333 37.2917 27.375L36.3709 27.1989C35.9388 27.1157 35.5995 26.8335 35.4388 26.4233C35.2774 26.0138 35.3346 25.5755 35.5947 25.2211L36.173 24.4323C36.3594 24.1787 36.3326 23.8265 36.1089 23.6042L34.8595 22.3555C34.6435 22.1392 34.3038 22.108 34.0513 22.2784L33.2749 22.8036C32.9105 23.0511 32.4703 23.0916 32.0659 22.9154C31.663 22.7401 31.3934 22.3889 31.3265 21.9532L31.1781 20.9875C31.1312 20.6767 30.8629 20.4462 30.5482 20.4462H28.7814L28.7819 20.447ZM29.519 25.55C31.2774 25.55 32.7076 26.9808 32.7076 28.7386C32.7076 30.497 31.2774 31.9278 29.519 31.9278C27.7606 31.9278 26.3298 30.497 26.3298 28.7386C26.3298 26.9805 27.7606 25.55 29.519 25.55ZM29.519 26.8252C28.4638 26.8252 27.6052 27.6837 27.6052 28.7387C27.6052 29.7939 28.4638 30.6517 29.519 30.6517C30.5736 30.6517 31.432 29.7936 31.432 28.7387C31.432 27.6841 30.5737 26.8252 29.519 26.8252Z" fill="#969698"/>
</svg>
