<svg width="15" height="17" viewBox="0 0 15 17" fill="none" xmlns="http://www.w3.org/2000/svg">
<path d="M5.09425 5.3745L6.71679 3.75197V10.9112C6.71679 11.4799 7.16845 11.9315 7.73714 11.9315C8.30583 11.9315 8.7575 11.4799 8.7575 10.9112V3.73524L10.38 5.35777C10.5807 5.55846 10.8317 5.6588 11.0992 5.6588C11.3669 5.6588 11.6177 5.55846 11.8184 5.35777C12.2199 4.95629 12.2199 4.32072 11.8184 3.91924L8.45629 0.573816C8.05481 0.172335 7.41924 0.172335 7.01775 0.573816L3.6556 3.93597C3.25412 4.33745 3.25412 4.97302 3.6556 5.3745C4.05708 5.77589 4.69265 5.77589 5.09414 5.3745H5.09425Z" fill="#4DAAA7"/>
<path d="M13.7881 10.3596C13.2195 10.3596 12.7678 10.8112 12.7678 11.3799V14.1398H2.68133V11.3799C2.68133 10.8112 2.22967 10.3596 1.66098 10.3596C1.09229 10.3596 0.640625 10.8112 0.640625 11.3799V15.1602C0.640625 15.7289 1.09229 16.1806 1.66098 16.1806H13.7881C14.3568 16.1806 14.8085 15.7289 14.8085 15.1602V11.3799C14.8085 10.8112 14.357 10.3596 13.7881 10.3596Z" fill="#4DAAA7"/>
</svg>
