<svg width="35" height="44" viewBox="0 0 35 44" fill="none" xmlns="http://www.w3.org/2000/svg">
<path d="M26.0058 12.794C26.0058 12.2686 25.9519 11.7594 25.8643 11.2606L29.296 9.27979L26.2887 4.0708L22.8604 6.04916C22.0786 5.39373 21.1808 4.87637 20.2037 4.52243V0.557617H14.1887V4.52277C13.2117 4.8781 12.3124 5.39404 11.5307 6.0495L8.10303 4.0708L5.0957 9.27979L8.52836 11.2629C8.44213 11.7617 8.38825 12.2709 8.38825 12.7944C8.38825 13.3174 8.44213 13.8267 8.52836 14.3258L5.0957 16.3066L8.10303 21.5156L11.5314 19.5372C12.3131 20.1927 13.212 20.711 14.1894 21.064V25.0291H20.2044V21.064C21.1828 20.7086 22.0794 20.1927 22.8611 19.5349L26.2903 21.5157L29.2977 16.3067L25.865 14.3236C25.9519 13.8255 26.0058 13.3172 26.0058 12.7942L26.0058 12.794ZM17.1965 16.9236C14.9157 16.9236 13.066 15.0762 13.066 12.794C13.066 10.5122 14.9157 8.66245 17.1965 8.66245C19.4763 8.66245 21.3271 10.5122 21.3271 12.7944C21.3271 15.0762 19.4763 16.9236 17.1965 16.9236Z" fill="white"/>
<path d="M20.1169 12.792C20.1169 14.406 18.8084 15.7145 17.1945 15.7145C15.5805 15.7145 14.272 14.406 14.272 12.792C14.272 11.1781 15.5805 9.86957 17.1945 9.86957C18.8084 9.86957 20.1169 11.1781 20.1169 12.792Z" fill="white"/>
<path d="M11.7089 39.4345L13.2322 33.4256C13.7681 31.0138 13.0874 29.7676 10.8214 26.997C8.41996 24.0598 6.68613 25.7751 8.67862 29.1388C10.0295 31.4196 8.812 31.9518 8.812 31.9518C5.86563 29.5399 4.27657 27.7822 3.07085 22.9614C2.12474 19.1734 0.0968909 19.0572 0.241743 22.5775C0.414186 26.7737 -0.31129 28.2085 1.73174 31.3971C3.9597 34.8769 5.81752 39.5009 5.81752 39.5009L11.7089 39.4345Z" fill="white"/>
<path d="M12.8752 42.4552V40.9009C12.8742 40.5193 12.5636 40.2088 12.1831 40.2088H5.2705C4.8899 40.2088 4.57837 40.5203 4.57837 40.9009V42.4552C4.57837 42.8368 4.88991 43.1474 5.2705 43.1474H12.1831C12.5636 43.146 12.8738 42.8368 12.8752 42.4552Z" fill="white"/>
<path d="M22.6812 39.4345L21.1579 33.4256C20.622 31.0138 21.3027 29.7676 23.5698 26.997C25.9702 24.0598 27.705 25.7751 25.7115 29.1388C24.3606 31.4196 25.5781 31.9518 25.5781 31.9518C28.5245 29.5399 30.1145 27.7822 31.3193 22.9614C32.2654 19.1734 34.2932 19.0572 34.1484 22.5775C33.9759 26.7737 34.7014 28.2085 32.6573 31.3971C30.4294 34.8769 28.574 39.5009 28.574 39.5009L22.6812 39.4345Z" fill="white"/>
<path d="M21.5095 42.4552V40.9009C21.5095 40.5193 21.8211 40.2088 22.2003 40.2088H29.1129C29.4935 40.2088 29.806 40.5203 29.805 40.9009V42.4552C29.806 42.8368 29.4934 43.1474 29.1129 43.1474H22.2003C21.8197 43.146 21.5095 42.8368 21.5095 42.4552Z" fill="white"/>
</svg>
