<svg width="31" height="35" viewBox="0 0 31 35" fill="none" xmlns="http://www.w3.org/2000/svg">
<path d="M10.0564 10.9464L13.5377 7.46507V22.8258C13.5377 24.046 14.5068 25.0151 15.727 25.0151C16.9472 25.0151 17.9162 24.046 17.9162 22.8258V7.42918L21.3975 10.9105C21.8281 11.3411 22.3666 11.5563 22.9406 11.5563C23.5149 11.5563 24.0532 11.3411 24.4838 10.9105C25.3452 10.0491 25.3452 8.68538 24.4838 7.82397L17.27 0.64606C16.4086 -0.215353 15.0449 -0.215353 14.1835 0.64606L6.96967 7.85986C6.10826 8.72127 6.10826 10.0849 6.96967 10.9464C7.83108 11.8076 9.19475 11.8076 10.0562 10.9464H10.0564Z" fill="#333333"/>
<path d="M28.7092 21.6416C27.489 21.6416 26.5199 22.6107 26.5199 23.8309V29.7525H4.87852V23.8309C4.87852 22.6107 3.90944 21.6416 2.68926 21.6416C1.46908 21.6416 0.5 22.6107 0.5 23.8309V31.9419C0.5 33.1621 1.46908 34.1312 2.68926 34.1312H28.7092C29.9294 34.1312 30.8984 33.1621 30.8984 31.9419V23.8309C30.8984 22.6107 29.9296 21.6416 28.7092 21.6416Z" fill="#4DAAA7"/>
</svg>
