<svg width="19" height="19" viewBox="0 0 19 19" fill="none" xmlns="http://www.w3.org/2000/svg">
<path fill-rule="evenodd" clip-rule="evenodd" d="M5.9375 7.125C7.48838 7.125 8.80769 6.13344 9.29694 4.75H17.8125C18.468 4.75 19 4.218 19 3.5625C19 2.907 18.468 2.375 17.8125 2.375H9.29694C8.80769 0.991563 7.48838 0 5.9375 0C4.38662 0 3.06731 0.991563 2.57806 2.375H1.1875C0.532 2.375 0 2.907 0 3.5625C0 4.218 0.532 4.75 1.1875 4.75H2.57806C3.06731 6.13344 4.38662 7.125 5.9375 7.125ZM17.8125 14.25C18.468 14.25 19 14.782 19 15.4375C19 16.093 18.468 16.625 17.8125 16.625H16.4219C15.9327 18.0084 14.6134 19 13.0625 19C11.5116 19 10.1923 18.0084 9.70306 16.625H1.1875C0.532 16.625 0 16.093 0 15.4375C0 14.782 0.532 14.25 1.1875 14.25H9.70306C10.1923 12.8666 11.5116 11.875 13.0625 11.875C14.6134 11.875 15.9327 12.8666 16.4219 14.25H17.8125Z" fill="white"/>
</svg>
