<svg width="38" height="38" viewBox="0 0 38 38" fill="none" xmlns="http://www.w3.org/2000/svg">
<path d="M6.09875 24.0259C5.89066 24.441 5.97171 24.9427 6.29956 25.2709L6.5629 25.5342C7.32376 24.6326 8.21055 23.6541 9.28608 22.5788C9.36208 22.5028 9.44033 22.4661 9.51661 22.396L7.8224 20.7015C6.83746 22.4829 6.2631 23.7001 6.09875 24.0259Z" fill="#969698"/>
<path d="M15.3959 28.6736C14.3179 29.7517 13.3419 30.6402 12.4453 31.4016L12.802 31.7583C13.133 32.0893 13.6395 32.1689 14.0559 31.9546C14.6138 31.6672 15.491 31.2544 17.3532 30.2172L15.5791 28.4431C15.509 28.5197 15.4722 28.5976 15.3959 28.6736Z" fill="#969698"/>
<path d="M14.8088 23.1544C14.0306 22.3762 11.8419 23.074 10.8138 24.1018C7.37434 27.5413 5.82092 29.9798 5.12344 31.4196C4.92347 31.8322 5.00677 32.326 5.33097 32.6502C5.65573 32.9753 6.15045 33.0577 6.56327 32.8578C7.97085 32.1743 10.3796 30.6282 13.86 27.1481C14.9905 26.017 15.5484 23.8943 14.8096 23.1553L14.8088 23.1544Z" fill="#969698"/>
<path d="M4.10362 14.8107L1.05764 17.8567C0.713244 18.2011 0.64257 18.7343 0.886563 19.1566C1.12467 19.5734 1.62331 19.7857 2.09783 19.6586C3.74408 19.2172 5.19261 19.0307 6.16802 19.2809C7.55569 16.8137 9.04685 14.5426 10.6261 12.4796C9.71264 11.8941 6.69414 12.2202 4.10362 14.8107Z" fill="#969698"/>
<path d="M18.952 37.117C19.3668 37.3267 19.8691 37.2457 20.1975 36.917L23.2438 33.871C25.6021 31.5121 26.0171 28.4687 25.482 27.5037C23.1812 29.2377 20.8504 30.7019 18.6758 31.9278C18.8258 32.775 18.726 33.597 18.3712 35.9977C18.3019 36.4624 18.542 36.912 18.952 37.117Z" fill="#969698"/>
<path d="M22.1243 11.2758C20.8648 12.5356 20.8648 14.5849 22.1243 15.8447C23.3841 17.1044 25.4336 17.1044 26.6934 15.8447C27.9532 14.5849 27.9532 12.5356 26.6934 11.2758C25.4336 10.016 23.3841 10.016 22.1243 11.2758Z" fill="#969698"/>
<path d="M37.4415 1.52313C37.4028 0.990556 36.9787 0.569599 36.4478 0.529775C33.8029 0.330655 31.1683 0.655978 28.5859 1.44573C28.7803 3.21986 29.6979 5.13983 31.2645 6.70643C32.8499 8.29154 34.822 9.20889 36.6279 9.38053C37.3234 6.94313 37.6532 4.33269 37.4415 1.52313Z" fill="#969698"/>
<path d="M29.7558 8.2295C27.9637 6.43741 26.8694 4.28804 26.5182 2.19531C20.0513 4.84754 13.8607 10.6394 8.96875 18.7759L11.3991 21.2062C13.0597 20.532 15.0756 20.354 16.3541 21.6323C17.6344 22.9128 17.453 24.9278 16.779 26.5861L19.2893 29.0965C25.5496 25.3235 32.8379 19.3794 35.9372 11.471C33.7934 11.147 31.577 10.0507 29.7558 8.2295ZM28.2324 17.3674C26.1332 19.4666 22.717 19.4666 20.6176 17.3674C18.5181 15.268 18.5181 11.8515 20.6176 9.75235C22.717 7.65317 26.1332 7.65317 28.2324 9.75235C30.3318 11.8518 30.3318 15.268 28.2324 17.3674Z" fill="#969698"/>
</svg>
