<svg width="38" height="38" viewBox="0 0 38 38" fill="none" xmlns="http://www.w3.org/2000/svg">
<path d="M6.09875 24.0262C5.89066 24.4413 5.97171 24.943 6.29956 25.2711L6.5629 25.5345C7.32376 24.6328 8.21055 23.6543 9.28608 22.5791C9.36208 22.5031 9.44033 22.4663 9.51661 22.3962L7.8224 20.7017C6.83746 22.4831 6.2631 23.7003 6.09875 24.0262Z" fill="white"/>
<path d="M15.3959 28.6739C14.3179 29.7519 13.3419 30.6404 12.4453 31.4018L12.802 31.7586C13.133 32.0895 13.6395 32.1692 14.0559 31.9549C14.6138 31.6674 15.491 31.2546 17.3532 30.2175L15.5791 28.4434C15.509 28.5199 15.4722 28.5979 15.3959 28.6739Z" fill="white"/>
<path d="M14.8088 23.1547C14.0306 22.3764 11.8419 23.0742 10.8138 24.1021C7.37434 27.5415 5.82092 29.98 5.12344 31.4199C4.92347 31.8324 5.00677 32.3263 5.33097 32.6505C5.65573 32.9755 6.15045 33.058 6.56327 32.858C7.97085 32.1746 10.3796 30.6284 13.86 27.1483C14.9905 26.0173 15.5484 23.8945 14.8096 23.1555L14.8088 23.1547Z" fill="white"/>
<path d="M4.10362 14.811L1.05764 17.857C0.713244 18.2014 0.64257 18.7345 0.886563 19.1569C1.12467 19.5736 1.62331 19.7859 2.09783 19.6589C3.74408 19.2174 5.19261 19.0309 6.16802 19.2811C7.55569 16.814 9.04685 14.5429 10.6261 12.4799C9.71264 11.8943 6.69414 12.2205 4.10362 14.811Z" fill="white"/>
<path d="M18.952 37.1172C19.3668 37.327 19.8691 37.2459 20.1975 36.9172L23.2438 33.8713C25.6021 31.5124 26.0171 28.4689 25.482 27.5039C23.1812 29.2379 20.8504 30.7022 18.6758 31.928C18.8258 32.7753 18.726 33.5973 18.3712 35.9979C18.3019 36.4626 18.542 36.9122 18.952 37.1172Z" fill="white"/>
<path d="M22.1243 11.2761C20.8648 12.5359 20.8648 14.5851 22.1243 15.8449C23.3841 17.1047 25.4336 17.1047 26.6934 15.8449C27.9532 14.5851 27.9532 12.5359 26.6934 11.2761C25.4336 10.0163 23.3841 10.0163 22.1243 11.2761Z" fill="white"/>
<path d="M37.4415 1.52338C37.4028 0.9908 36.9787 0.569843 36.4478 0.530019C33.8029 0.330899 31.1683 0.656222 28.5859 1.44597C28.7803 3.22011 29.6979 5.14007 31.2645 6.70667C32.8499 8.29178 34.822 9.20914 36.6279 9.38077C37.3234 6.94337 37.6532 4.33293 37.4415 1.52338Z" fill="white"/>
<path d="M29.7558 8.22974C27.9637 6.43766 26.8694 4.28828 26.5182 2.19556C20.0513 4.84778 13.8607 10.6397 8.96875 18.7761L11.3991 21.2065C13.0597 20.5323 15.0756 20.3542 16.3541 21.6325C17.6344 22.913 17.453 24.9281 16.779 26.5864L19.2893 29.0967C25.5496 25.3238 32.8379 19.3796 35.9372 11.4712C33.7934 11.1473 31.577 10.051 29.7558 8.22974ZM28.2324 17.3677C26.1332 19.4669 22.717 19.4669 20.6176 17.3677C18.5181 15.2682 18.5181 11.8518 20.6176 9.75259C22.717 7.65341 26.1332 7.65341 28.2324 9.75259C30.3318 11.852 30.3318 15.2682 28.2324 17.3677Z" fill="white"/>
</svg>
