<svg width="17" height="18" viewBox="0 0 17 18" fill="none" xmlns="http://www.w3.org/2000/svg">
<path d="M2.47673 10.8942C2.38048 11.0862 2.41797 11.3182 2.5696 11.47L2.6914 11.5918C3.0433 11.1748 3.45344 10.7222 3.95087 10.2249C3.98602 10.1897 4.02221 10.1728 4.05749 10.1403L3.27392 9.35663C2.81838 10.1805 2.55274 10.7435 2.47673 10.8942Z" fill="white"/>
<path d="M6.7758 13.0436C6.2772 13.5422 5.82581 13.9532 5.41113 14.3053L5.57612 14.4703C5.72918 14.6234 5.96343 14.6602 6.15605 14.5611C6.41404 14.4281 6.81977 14.2372 7.68104 13.7576L6.8605 12.937C6.82807 12.9724 6.81108 13.0085 6.7758 13.0436V13.0436Z" fill="white"/>
<path d="M6.50495 10.491C6.145 10.1311 5.13276 10.4538 4.65724 10.9292C3.06649 12.5199 2.34803 13.6478 2.02545 14.3137C1.93297 14.5045 1.97149 14.7329 2.12143 14.8829C2.27164 15.0332 2.50044 15.0713 2.69137 14.9788C3.34238 14.6627 4.45645 13.9477 6.06614 12.3381C6.589 11.815 6.84699 10.8332 6.50533 10.4914L6.50495 10.491Z" fill="white"/>
<path d="M1.55466 6.63201L0.145896 8.04078C-0.0133864 8.20006 -0.046073 8.44664 0.0667737 8.64198C0.176897 8.83473 0.407519 8.93292 0.626987 8.87416C1.38838 8.67 2.05832 8.58374 2.50945 8.69944C3.15125 7.55839 3.84091 6.50801 4.57131 5.55387C4.14884 5.28304 2.75279 5.43389 1.55466 6.63201V6.63201Z" fill="white"/>
<path d="M8.42449 16.9485C8.61633 17.0455 8.84864 17.008 9.00053 16.856L10.4094 15.4472C11.5002 14.3562 11.6921 12.9486 11.4446 12.5023C10.3805 13.3043 9.30249 13.9815 8.29673 14.5485C8.36612 14.9403 8.31995 15.3205 8.15587 16.4308C8.12383 16.6457 8.23486 16.8537 8.42449 16.9485V16.9485Z" fill="white"/>
<path d="M9.89099 4.99729C9.30847 5.57994 9.30847 6.52773 9.89099 7.11038C10.4736 7.69303 11.4216 7.69303 12.0042 7.11038C12.5869 6.52773 12.5869 5.57994 12.0042 4.99729C11.4216 4.41464 10.4736 4.41464 9.89099 4.99729Z" fill="white"/>
<path d="M16.9687 0.486335C16.9508 0.240018 16.7547 0.0453244 16.5092 0.0269058C15.2859 -0.0651875 14.0674 0.0852748 12.873 0.450535C12.9629 1.27107 13.3873 2.15906 14.1119 2.88362C14.8451 3.61673 15.7573 4.04101 16.5925 4.12039C16.9141 2.99309 17.0667 1.78576 16.9687 0.486335V0.486335Z" fill="white"/>
<path d="M13.4158 3.58812C12.5869 2.75928 12.0808 1.76519 11.9184 0.797302C8.92747 2.02396 6.06427 4.70271 3.80176 8.46582L4.92582 9.58988C5.69382 9.27806 6.62617 9.1957 7.21751 9.78691C7.80963 10.3792 7.72571 11.3111 7.41402 12.0781L8.57505 13.2391C11.4704 11.4941 14.8413 8.74496 16.2747 5.0873C15.2832 4.93748 14.2581 4.43045 13.4158 3.58812V3.58812ZM12.7112 7.81443C11.7403 8.7853 10.1603 8.7853 9.18935 7.81443C8.21835 6.84343 8.21835 5.26331 9.18935 4.29244C10.1603 3.32157 11.7403 3.32157 12.7112 4.29244C13.6822 5.26344 13.6822 6.84343 12.7112 7.81443Z" fill="white"/>
</svg>
