<svg width="38" height="38" viewBox="0 0 38 38" fill="none" xmlns="http://www.w3.org/2000/svg">
<path d="M5.59875 24.0262C5.39066 24.4413 5.47171 24.943 5.79956 25.2711L6.0629 25.5345C6.82376 24.6328 7.71055 23.6543 8.78608 22.5791C8.86208 22.5031 8.94033 22.4663 9.01661 22.3962L7.3224 20.7017C6.33746 22.4831 5.7631 23.7003 5.59875 24.0262Z" fill="white"/>
<path d="M14.8959 28.6739C13.8179 29.7519 12.8419 30.6404 11.9453 31.4018L12.302 31.7586C12.633 32.0895 13.1395 32.1692 13.5559 31.9549C14.1138 31.6674 14.991 31.2546 16.8532 30.2175L15.0791 28.4434C15.009 28.5199 14.9722 28.5979 14.8959 28.6739Z" fill="white"/>
<path d="M14.3088 23.1547C13.5306 22.3764 11.3419 23.0742 10.3138 24.1021C6.87434 27.5415 5.32092 29.98 4.62344 31.4199C4.42347 31.8324 4.50677 32.3263 4.83097 32.6505C5.15573 32.9755 5.65045 33.058 6.06327 32.858C7.47085 32.1746 9.87965 30.6284 13.36 27.1483C14.4905 26.0173 15.0484 23.8945 14.3096 23.1555L14.3088 23.1547Z" fill="white"/>
<path d="M3.60362 14.811L0.557638 17.857C0.213244 18.2014 0.14257 18.7345 0.386563 19.1569C0.624666 19.5736 1.12331 19.7859 1.59783 19.6589C3.24408 19.2174 4.69261 19.0309 5.66802 19.2811C7.05569 16.814 8.54685 14.5429 10.1261 12.4799C9.21264 11.8943 6.19414 12.2205 3.60362 14.811Z" fill="white"/>
<path d="M18.4518 37.1172C18.8666 37.327 19.3689 37.2459 19.6973 36.9172L22.7435 33.8713C25.1018 31.5124 25.5169 28.4689 24.9818 27.5039C22.681 29.2379 20.3502 30.7022 18.1755 31.928C18.3256 32.7753 18.2257 33.5973 17.871 35.9979C17.8017 36.4626 18.0418 36.9122 18.4518 37.1172Z" fill="white"/>
<path d="M21.6241 11.2761C20.3646 12.5359 20.3646 14.5851 21.6241 15.8449C22.8839 17.1047 24.9334 17.1047 26.1932 15.8449C27.453 14.5851 27.453 12.5359 26.1932 11.2761C24.9334 10.0163 22.8839 10.0163 21.6241 11.2761Z" fill="white"/>
<path d="M36.9412 1.52338C36.9025 0.9908 36.4785 0.569843 35.9476 0.530019C33.3026 0.330899 30.6681 0.656222 28.0857 1.44597C28.28 3.22011 29.1977 5.14007 30.7643 6.70667C32.3497 8.29178 34.3218 9.20914 36.1276 9.38077C36.8231 6.94337 37.153 4.33293 36.9412 1.52338Z" fill="white"/>
<path d="M29.2558 8.22974C27.4637 6.43766 26.3694 4.28828 26.0182 2.19556C19.5513 4.84778 13.3607 10.6397 8.46875 18.7761L10.8991 21.2065C12.5597 20.5323 14.5756 20.3542 15.8541 21.6325C17.1344 22.913 16.953 24.9281 16.279 26.5864L18.7893 29.0967C25.0496 25.3238 32.3379 19.3796 35.4372 11.4712C33.2934 11.1473 31.077 10.051 29.2558 8.22974ZM27.7324 17.3677C25.6332 19.4669 22.217 19.4669 20.1176 17.3677C18.0181 15.2682 18.0181 11.8518 20.1176 9.75259C22.217 7.65341 25.6332 7.65341 27.7324 9.75259C29.8318 11.852 29.8318 15.2682 27.7324 17.3677Z" fill="white"/>
</svg>
