<svg width="14" height="14" viewBox="0 0 14 14" fill="none" xmlns="http://www.w3.org/2000/svg">
<path d="M12.4735 0H11.1651V1.30841C11.1651 1.57009 10.947 1.74455 10.729 1.74455C10.5109 1.74455 10.2928 1.57009 10.2928 1.30841V0H3.31464V1.30841C3.31464 1.57009 3.09657 1.74455 2.8785 1.74455C2.66044 1.74455 2.44237 1.57009 2.44237 1.30841V0H1.13396C0.479751 0 0 0.566978 0 1.30841V2.8785H13.9564V1.30841C13.9564 0.566978 13.1713 0 12.4735 0ZM0 3.79439V11.7757C0 12.5607 0.479751 13.0841 1.17757 13.0841H12.5171C13.215 13.0841 14 12.5171 14 11.7757V3.79439H0ZM3.88162 11.1215H2.83489C2.66044 11.1215 2.48598 10.9907 2.48598 10.7726V9.68224C2.48598 9.50779 2.61682 9.33333 2.83489 9.33333H3.92523C4.09969 9.33333 4.27414 9.46418 4.27414 9.68224V10.7726C4.23053 10.9907 4.09969 11.1215 3.88162 11.1215ZM3.88162 7.19626H2.83489C2.66044 7.19626 2.48598 7.06542 2.48598 6.84735V5.75701C2.48598 5.58255 2.61682 5.4081 2.83489 5.4081H3.92523C4.09969 5.4081 4.27414 5.53894 4.27414 5.75701V6.84735C4.23053 7.06542 4.09969 7.19626 3.88162 7.19626ZM7.37072 11.1215H6.28037C6.10592 11.1215 5.93146 10.9907 5.93146 10.7726V9.68224C5.93146 9.50779 6.06231 9.33333 6.28037 9.33333H7.37072C7.54517 9.33333 7.71963 9.46418 7.71963 9.68224V10.7726C7.71963 10.9907 7.58879 11.1215 7.37072 11.1215ZM7.37072 7.19626H6.28037C6.10592 7.19626 5.93146 7.06542 5.93146 6.84735V5.75701C5.93146 5.58255 6.06231 5.4081 6.28037 5.4081H7.37072C7.54517 5.4081 7.71963 5.53894 7.71963 5.75701V6.84735C7.71963 7.06542 7.58879 7.19626 7.37072 7.19626ZM10.8598 11.1215H9.76947C9.59502 11.1215 9.42056 10.9907 9.42056 10.7726V9.68224C9.42056 9.50779 9.5514 9.33333 9.76947 9.33333H10.8598C11.0343 9.33333 11.2087 9.46418 11.2087 9.68224V10.7726C11.2087 10.9907 11.0779 11.1215 10.8598 11.1215ZM10.8598 7.19626H9.76947C9.59502 7.19626 9.42056 7.06542 9.42056 6.84735V5.75701C9.42056 5.58255 9.5514 5.4081 9.76947 5.4081H10.8598C11.0343 5.4081 11.2087 5.53894 11.2087 5.75701V6.84735C11.2087 7.06542 11.0779 7.19626 10.8598 7.19626Z" fill="#4DAAA7"/>
</svg>
