<svg width="17" height="16" viewBox="0 0 17 16" fill="none" xmlns="http://www.w3.org/2000/svg">
<g clip-path="url(#clip0_301_4797)">
<path d="M6.66663 0H1.66663C1.02332 0 0.5 0.523315 0.5 1.16663V4.16663C0.5 4.81006 1.02332 5.33337 1.66663 5.33337H6.66663C7.31006 5.33337 7.83337 4.81006 7.83337 4.16663V1.16663C7.83337 0.523315 7.31006 0 6.66663 0Z" fill="#4DAAA7"/>
<path d="M6.66663 6.66663H1.66663C1.02332 6.66663 0.5 7.18994 0.5 7.83337V14.8334C0.5 15.4767 1.02332 16 1.66663 16H6.66663C7.31006 16 7.83337 15.4767 7.83337 14.8334V7.83337C7.83337 7.18994 7.31006 6.66663 6.66663 6.66663Z" fill="#4DAAA7"/>
<path d="M15.3334 10.6666H10.3334C9.68994 10.6666 9.16663 11.1899 9.16663 11.8334V14.8334C9.16663 15.4767 9.68994 16 10.3334 16H15.3334C15.9767 16 16.5 15.4767 16.5 14.8334V11.8334C16.5 11.1899 15.9767 10.6666 15.3334 10.6666Z" fill="#4DAAA7"/>
<path d="M15.3334 0H10.3334C9.68994 0 9.16663 0.523315 9.16663 1.16663V8.16663C9.16663 8.81006 9.68994 9.33337 10.3334 9.33337H15.3334C15.9767 9.33337 16.5 8.81006 16.5 8.16663V1.16663C16.5 0.523315 15.9767 0 15.3334 0V0Z" fill="#4DAAA7"/>
</g>
<defs>
<clipPath id="clip0_301_4797">
<rect width="16" height="16" fill="white" transform="translate(0.5)"/>
</clipPath>
</defs>
</svg>
