<svg width="95" height="48" viewBox="0 0 95 48" fill="none" xmlns="http://www.w3.org/2000/svg">
<path d="M71.2502 35.5395C66.915 35.5395 62.8387 33.8513 59.7742 30.7857C56.7084 27.7208 55.02 23.6451 55.02 19.3098C55.02 10.3601 62.3011 3.07968 71.2508 3.07968C80.2005 3.07968 87.4815 10.3601 87.4815 19.3098C87.4815 28.2587 80.2005 35.5398 71.2508 35.5398L71.2502 35.5395ZM71.2502 4.56541C63.1196 4.56568 56.5049 11.1801 56.5049 19.3101C56.5049 23.2485 58.0388 26.9515 60.8236 29.7363C63.609 32.52 67.3119 34.0537 71.2506 34.0537C79.3812 34.0537 85.9959 27.4395 85.9959 19.3091C85.9959 11.1791 79.3809 4.5644 71.2506 4.5644L71.2502 4.56541Z" fill="#4DAAA7"/>
<path d="M69.0746 24.039C68.8609 24.039 68.6478 23.9476 68.5012 23.7689C68.2401 23.4527 68.2855 22.9848 68.602 22.7235L72.7428 19.31L68.602 15.8964C68.2855 15.6353 68.2407 15.1672 68.5012 14.851C68.7618 14.5348 69.2304 14.4898 69.5466 14.7503L74.3826 18.7372C74.5535 18.8777 74.6532 19.0879 74.6532 19.3097C74.6532 19.5316 74.5535 19.7418 74.3826 19.8828L69.5469 23.8691C69.408 23.9836 69.241 24.039 69.0746 24.039L69.0746 24.039Z" fill="#4DAAA7"/>
<path d="M23.7498 35.5395C28.085 35.5395 32.1613 33.8513 35.2258 30.7857C38.2916 27.7208 39.98 23.6451 39.98 19.3098C39.98 10.3601 32.6989 3.07968 23.7492 3.07968C14.7995 3.07968 7.51847 10.3601 7.51847 19.3098C7.51847 28.2587 14.7995 35.5398 23.7492 35.5398L23.7498 35.5395ZM23.7498 4.56541C31.8804 4.56568 38.4951 11.1801 38.4951 19.3101C38.4951 23.2485 36.9612 26.9515 34.1764 29.7363C31.391 32.52 27.6881 34.0537 23.7494 34.0537C15.6188 34.0537 9.00407 27.4395 9.00407 19.3091C9.00407 11.1791 15.6191 4.5644 23.7494 4.5644L23.7498 4.56541Z" fill="#D9D9D9"/>
<path d="M25.9254 24.039C26.1391 24.039 26.3522 23.9476 26.4988 23.7689C26.7599 23.4527 26.7145 22.9848 26.398 22.7235L22.2572 19.31L26.398 15.8964C26.7145 15.6353 26.7593 15.1672 26.4988 14.851C26.2382 14.5348 25.7696 14.4898 25.4534 14.7503L20.6174 18.7372C20.4465 18.8777 20.3468 19.0879 20.3468 19.3097C20.3468 19.5316 20.4465 19.7418 20.6174 19.8828L25.4531 23.8691C25.592 23.9836 25.759 24.039 25.9254 24.039L25.9254 24.039Z" fill="#D9D9D9"/>
</svg>
