<svg width="19" height="19" viewBox="0 0 19 19" fill="none" xmlns="http://www.w3.org/2000/svg">
<path d="M9.21942 18.4437C7.48252 18.4437 5.78463 17.9287 4.34045 16.9637C2.89627 15.9987 1.77067 14.6272 1.10599 13.0225C0.441305 11.4178 0.267394 9.65206 0.606246 7.94854C0.945098 6.24501 1.7815 4.68022 3.00967 3.45205C4.23784 2.22388 5.80263 1.38748 7.50616 1.04863C9.20968 0.709777 10.9754 0.883688 12.5801 1.54837C14.1848 2.21305 15.5564 3.33865 16.5213 4.78283C17.4863 6.22701 18.0013 7.92491 18.0013 9.66181C17.9988 11.9901 17.0728 14.2224 15.4264 15.8688C13.78 17.5152 11.5478 18.4412 9.21942 18.4437ZM9.21942 3.07537C7.91675 3.07537 6.64333 3.46165 5.56019 4.18538C4.47706 4.90911 3.63286 5.93777 3.13435 7.14128C2.63583 8.3448 2.5054 9.66911 2.75954 10.9468C3.01368 12.2244 3.64098 13.398 4.56211 14.3191C5.48324 15.2403 6.65683 15.8676 7.93447 16.1217C9.21212 16.3758 10.5364 16.2454 11.7399 15.7469C12.9435 15.2484 13.9721 14.4042 14.6958 13.321C15.4196 12.2379 15.8059 10.9645 15.8059 9.66181C15.8039 7.91557 15.1094 6.24141 13.8746 5.00663C12.6398 3.77185 10.9657 3.0773 9.21942 3.07537Z" fill="#9A9A9A"/>
<path d="M8.12037 11.2383C8.10955 10.6738 8.25011 10.1167 8.52746 9.62497C8.8048 9.13322 9.2088 8.72472 9.69745 8.44195C9.85201 8.35751 9.98148 8.23367 10.0727 8.08301C10.1639 7.93235 10.2137 7.76024 10.2169 7.58414C10.2201 7.40805 10.1766 7.23424 10.091 7.08036C10.0053 6.92648 9.88041 6.79801 9.72903 6.70799C9.57765 6.61797 9.40514 6.56961 9.22903 6.56781C9.05291 6.56601 8.87945 6.61084 8.72626 6.69775C8.57308 6.78466 8.44561 6.91055 8.3568 7.06265C8.268 7.21475 8.22102 7.38764 8.22063 7.56376H6.02515C6.02507 7.09616 6.12767 6.63424 6.32571 6.21065C6.52375 5.78705 6.81239 5.41211 7.17124 5.11231C7.53009 4.81251 7.9504 4.59517 8.40247 4.47564C8.85453 4.35611 9.32733 4.33731 9.78747 4.42057C10.4374 4.53781 11.035 4.85367 11.498 5.32466C11.961 5.79564 12.2666 6.39859 12.3727 7.05045C12.4788 7.70232 12.3802 8.37105 12.0905 8.96456C11.8008 9.55806 11.3342 10.0471 10.7549 10.3645C10.6121 10.4593 10.4964 10.5898 10.4194 10.7431C10.3424 10.8963 10.3067 11.067 10.3158 11.2383H8.12037Z" fill="#9A9A9A"/>
<path d="M10.3652 12.5849H8.16968V14.7804H10.3652V12.5849Z" fill="#9A9A9A"/>
</svg>
