<svg width="20" height="20" viewBox="0 0 20 20" fill="none" xmlns="http://www.w3.org/2000/svg">
<path d="M10.5898 2.94982C11.588 3.09322 12.3577 3.9541 12.3577 4.99138C12.3577 6.02866 11.588 6.8895 10.5898 7.03294V9.4111H14.1256V10.295C14.1256 10.7824 14.5222 11.179 15.0096 11.179C15.497 11.179 15.8935 10.7824 15.8935 10.295V9.4111H20.0009C19.7091 4.34716 15.6583 0.292095 10.5898 0V2.94982Z" fill="#4DAAA7"/>
<path d="M2.94982 9.4111C3.09322 8.41291 3.9541 7.64321 4.99138 7.64321C6.02866 7.64321 6.8895 8.41291 7.03294 9.4111H9.4111V5.87532H10.295C10.7824 5.87532 11.179 5.47877 11.179 4.99138C11.179 4.50399 10.7824 4.10744 10.295 4.10744H9.4111V0C4.34696 0.29182 0.292095 4.34284 0 9.4111H2.94982Z" fill="#4DAAA7"/>
<path d="M9.4111 17.0511C8.41287 16.9077 7.64321 16.0468 7.64321 15.0096C7.64321 13.9723 8.41287 13.1114 9.4111 12.968V10.5898H5.87532V9.7059C5.87532 9.21852 5.47881 8.82196 4.99138 8.82196C4.50395 8.82196 4.10744 9.21852 4.10744 9.7059V10.5898H0C0.29182 15.6538 4.34268 19.7089 9.4111 20.001V17.0511Z" fill="#4DAAA7"/>
<path d="M17.0505 10.5895C16.9071 11.5877 16.0461 12.3574 15.0089 12.3574C13.9717 12.3574 13.1108 11.5877 12.9673 10.5895H10.5892V14.1253H9.70523C9.21781 14.1253 8.82129 14.5219 8.82129 15.0093C8.82129 15.4966 9.21781 15.8932 9.70523 15.8932H10.5892V20.0006C15.6531 19.7088 19.7082 15.6579 20.0003 10.5895H17.0505Z" fill="#4DAAA7"/>
</svg>
