<svg width="21" height="20" viewBox="0 0 21 20" fill="none" xmlns="http://www.w3.org/2000/svg">
<path d="M11.0894 2.94982C12.0875 3.09322 12.8572 3.9541 12.8572 4.99138C12.8572 6.02866 12.0875 6.8895 11.0894 7.03294V9.4111H14.6251V10.295C14.6251 10.7824 15.0217 11.179 15.5091 11.179C15.9965 11.179 16.393 10.7824 16.393 10.295V9.4111H20.5005C20.2086 4.34716 16.1578 0.292095 11.0894 0V2.94982Z" fill="#4DAAA7"/>
<path d="M3.44982 9.4111C3.59322 8.41291 4.4541 7.64321 5.49138 7.64321C6.52866 7.64321 7.3895 8.41291 7.53294 9.4111H9.9111V5.87532H10.795C11.2824 5.87532 11.679 5.47877 11.679 4.99138C11.679 4.50399 11.2824 4.10744 10.795 4.10744H9.9111V0C4.84696 0.29182 0.792095 4.34284 0.5 9.4111H3.44982Z" fill="#4DAAA7"/>
<path d="M9.9111 17.0511C8.91287 16.9077 8.14321 16.0468 8.14321 15.0095C8.14321 13.9723 8.91287 13.1114 9.9111 12.968V10.5898H6.37532V9.70584C6.37532 9.21846 5.97881 8.8219 5.49138 8.8219C5.00395 8.8219 4.60744 9.21846 4.60744 9.70584V10.5898H0.5C0.79182 15.6538 4.84268 19.7088 9.9111 20.0009V17.0511Z" fill="#4DAAA7"/>
<path d="M17.5502 10.5895C17.4068 11.5877 16.5459 12.3574 15.5087 12.3574C14.4714 12.3574 13.6105 11.5877 13.4671 10.5895H11.0889V14.1253H10.205C9.71756 14.1253 9.32104 14.5218 9.32104 15.0092C9.32104 15.4966 9.71756 15.8931 10.205 15.8931H11.0889V20.0006C16.1529 19.7088 20.2079 15.6579 20.5 10.5895H17.5502Z" fill="#4DAAA7"/>
</svg>
