<svg width="18" height="18" viewBox="0 0 18 18" fill="none" xmlns="http://www.w3.org/2000/svg">
<path d="M9.0163 17.6942C7.2794 17.6942 5.5815 17.1792 4.13733 16.2142C2.69315 15.2492 1.56755 13.8777 0.902863 12.273C0.23818 10.6683 0.0642688 8.90255 0.403121 7.19903C0.741973 5.4955 1.57837 3.93071 2.80654 2.70254C4.03472 1.47437 5.59951 0.637969 7.30303 0.299117C9.00656 -0.0397351 10.7723 0.134176 12.377 0.798859C13.9817 1.46354 15.3532 2.58914 16.3182 4.03332C17.2832 5.4775 17.7982 7.1754 17.7982 8.91229C17.7957 11.2406 16.8697 13.4729 15.2233 15.1193C13.5769 16.7657 11.3446 17.6917 9.0163 17.6942ZM9.0163 2.32586C7.71362 2.32586 6.4402 2.71214 5.35707 3.43587C4.27393 4.1596 3.42973 5.18826 2.93122 6.39177C2.43271 7.59529 2.30228 8.9196 2.55642 10.1972C2.81055 11.4749 3.43785 12.6485 4.35898 13.5696C5.28011 14.4907 6.4537 15.118 7.73135 15.3722C9.00899 15.6263 10.3333 15.4959 11.5368 14.9974C12.7403 14.4989 13.769 13.6547 14.4927 12.5715C15.2164 11.4884 15.6027 10.215 15.6027 8.91229C15.6008 7.16606 14.9063 5.49189 13.6715 4.25712C12.4367 3.02234 10.7625 2.32779 9.0163 2.32586Z" fill="#9A9A9A"/>
<path d="M7.91736 10.4888C7.90654 9.92428 8.04711 9.36722 8.32445 8.87546C8.6018 8.38371 9.00579 7.97521 9.49445 7.69244C9.64901 7.608 9.77847 7.48416 9.8697 7.3335C9.96093 7.18284 10.0107 7.01073 10.0139 6.83463C10.0171 6.65854 9.97364 6.48473 9.88796 6.33085C9.80228 6.17697 9.67741 6.0485 9.52603 5.95848C9.37464 5.86846 9.20214 5.8201 9.02602 5.8183C8.84991 5.8165 8.67645 5.86133 8.52326 5.94824C8.37007 6.03515 8.2426 6.16105 8.1538 6.31314C8.06499 6.46524 8.01801 6.63813 8.01762 6.81425H5.82214C5.82207 6.34665 5.92467 5.88473 6.12271 5.46114C6.32075 5.03754 6.60939 4.6626 6.96824 4.3628C7.32709 4.063 7.74739 3.84566 8.19946 3.72613C8.65153 3.6066 9.12433 3.5878 9.58446 3.67106C10.2344 3.7883 10.832 4.10416 11.295 4.57515C11.758 5.04613 12.0636 5.64908 12.1697 6.30094C12.2758 6.95281 12.1772 7.62154 11.8875 8.21505C11.5978 8.80855 11.1312 9.29764 10.5519 9.61495C10.4091 9.70982 10.2934 9.84032 10.2164 9.99357C10.1394 10.1468 10.1037 10.3175 10.1128 10.4888H7.91736Z" fill="#9A9A9A"/>
<path d="M10.162 11.8354H7.96649V14.0309H10.162V11.8354Z" fill="#9A9A9A"/>
</svg>
