<svg width="19" height="18" viewBox="0 0 19 18" fill="none" xmlns="http://www.w3.org/2000/svg">
<path d="M9.5163 17.6942C7.7794 17.6942 6.0815 17.1792 4.63733 16.2142C3.19315 15.2492 2.06755 13.8777 1.40286 12.273C0.73818 10.6683 0.564269 8.90255 0.903121 7.19903C1.24197 5.4955 2.07837 3.93071 3.30654 2.70254C4.53472 1.47437 6.09951 0.637969 7.80303 0.299117C9.50656 -0.0397351 11.2723 0.134176 12.877 0.798859C14.4817 1.46354 15.8532 2.58914 16.8182 4.03332C17.7832 5.4775 18.2982 7.1754 18.2982 8.91229C18.2957 11.2406 17.3697 13.4729 15.7233 15.1193C14.0769 16.7657 11.8446 17.6917 9.5163 17.6942ZM9.5163 2.32586C8.21362 2.32586 6.9402 2.71214 5.85707 3.43587C4.77393 4.1596 3.92973 5.18826 3.43122 6.39177C2.93271 7.59529 2.80228 8.9196 3.05642 10.1972C3.31055 11.4749 3.93785 12.6485 4.85898 13.5696C5.78011 14.4907 6.9537 15.118 8.23135 15.3722C9.50899 15.6263 10.8333 15.4959 12.0368 14.9974C13.2403 14.4989 14.269 13.6547 14.9927 12.5715C15.7164 11.4884 16.1027 10.215 16.1027 8.91229C16.1008 7.16606 15.4063 5.49189 14.1715 4.25712C12.9367 3.02234 11.2625 2.32779 9.5163 2.32586Z" fill="#9A9A9A"/>
<path d="M8.41749 10.4888C8.40666 9.92428 8.54723 9.36722 8.82458 8.87546C9.10192 8.38371 9.50592 7.97521 9.99457 7.69244C10.1491 7.60799 10.2786 7.48416 10.3698 7.3335C10.4611 7.18284 10.5108 7.01073 10.514 6.83463C10.5172 6.65854 10.4738 6.48473 10.3881 6.33085C10.3024 6.17697 10.1775 6.0485 10.0261 5.95848C9.87477 5.86846 9.70226 5.82009 9.52615 5.8183C9.35003 5.8165 9.17657 5.86133 9.02338 5.94824C8.87019 6.03515 8.74273 6.16104 8.65392 6.31314C8.56512 6.46524 8.51813 6.63813 8.51775 6.81425H6.32227C6.32219 6.34665 6.42479 5.88473 6.62283 5.46113C6.82087 5.03754 7.10951 4.6626 7.46836 4.3628C7.82721 4.063 8.24752 3.84566 8.69958 3.72613C9.15165 3.6066 9.62445 3.5878 10.0846 3.67105C10.7345 3.7883 11.3322 4.10416 11.7952 4.57515C12.2582 5.04613 12.5637 5.64907 12.6698 6.30094C12.7759 6.95281 12.6773 7.62154 12.3876 8.21505C12.0979 8.80855 11.6313 9.29764 11.0521 9.61495C10.9092 9.70982 10.7935 9.84032 10.7165 9.99356C10.6395 10.1468 10.6038 10.3175 10.613 10.4888H8.41749Z" fill="#9A9A9A"/>
<path d="M10.6618 11.8354H8.46631V14.0309H10.6618V11.8354Z" fill="#9A9A9A"/>
</svg>
