<svg width="22" height="20" viewBox="0 0 22 20" fill="none" xmlns="http://www.w3.org/2000/svg">
<path d="M20.0883 6.9686C19.6832 6.90975 19.2965 6.76024 18.9571 6.53123C18.6177 6.30221 18.3343 5.99959 18.1281 5.64588C17.9219 5.29217 17.7981 4.8965 17.766 4.48833C17.7339 4.08016 17.7943 3.67001 17.9427 3.28841C18.037 3.03894 18.0509 2.76621 17.9825 2.50844C17.914 2.25067 17.7665 2.0208 17.5608 1.85106C16.6526 1.0884 15.6188 0.489279 14.5056 0.080401C14.2521 -0.013768 13.9753 -0.0255337 13.7147 0.04678C13.4541 0.119094 13.223 0.271798 13.0543 0.483139C12.8004 0.807865 12.4758 1.0705 12.1053 1.25113C11.7347 1.43175 11.3279 1.52562 10.9156 1.52562C10.5034 1.52562 10.0966 1.43175 9.72603 1.25113C9.35547 1.0705 9.03091 0.807865 8.77696 0.483139C8.60825 0.271798 8.37713 0.119094 8.11655 0.04678C7.85598 -0.0255337 7.57922 -0.013768 7.32572 0.080401C6.29781 0.457893 5.33675 0.997028 4.47878 1.67746C4.26252 1.84867 4.10674 2.08462 4.03427 2.35076C3.9618 2.61691 3.97644 2.89926 4.07605 3.15648C4.23628 3.54817 4.30248 3.97196 4.26934 4.39386C4.2362 4.81575 4.10465 5.22401 3.88523 5.58588C3.66581 5.94775 3.36464 6.25316 3.00587 6.47761C2.6471 6.70206 2.24072 6.8393 1.81933 6.87833C1.54575 6.90758 1.28879 7.0239 1.08628 7.21016C0.883776 7.39641 0.746421 7.64277 0.69444 7.91295C0.565146 8.55296 0.500015 9.20426 0.500015 9.8572C0.499065 10.4038 0.543191 10.9496 0.631946 11.489C0.676119 11.7678 0.810919 12.0243 1.01551 12.2189C1.22009 12.4134 1.48307 12.5352 1.76378 12.5653C2.19442 12.6057 2.60913 12.7487 2.97317 12.9822C3.33722 13.2158 3.64002 13.5332 3.85623 13.9078C4.07244 14.2825 4.19576 14.7034 4.21589 15.1355C4.23601 15.5676 4.15234 15.9982 3.97189 16.3913C3.8538 16.647 3.8245 16.9348 3.88866 17.209C3.95282 17.4833 4.10675 17.7282 4.32602 17.905C5.22879 18.6538 6.25261 19.2432 7.3535 19.6479C7.49427 19.6966 7.64198 19.7224 7.79095 19.7243C7.99522 19.7238 8.1964 19.6744 8.37762 19.5802C8.55885 19.4859 8.71484 19.3496 8.83251 19.1827C9.08 18.8221 9.41175 18.5273 9.79897 18.3241C10.1862 18.1208 10.6172 18.0151 11.0545 18.0161C11.4783 18.0166 11.896 18.1161 12.2745 18.3066C12.6531 18.497 12.9819 18.7733 13.2349 19.1132C13.4031 19.3394 13.6414 19.5036 13.9127 19.5802C14.184 19.6568 14.473 19.6415 14.7347 19.5368C15.7413 19.1317 16.6785 18.5717 17.5122 17.8772C17.7216 17.7041 17.8708 17.469 17.9381 17.2057C18.0055 16.9424 17.9877 16.6646 17.8872 16.4121C17.7238 16.0255 17.6526 15.6061 17.6792 15.1873C17.7057 14.7684 17.8292 14.3614 18.04 13.9984C18.2507 13.6355 18.543 13.3265 18.8937 13.0958C19.2443 12.8652 19.6438 12.7192 20.0606 12.6694C20.3308 12.632 20.5821 12.5096 20.7781 12.3199C20.9741 12.1301 21.1046 11.8829 21.1507 11.614C21.2622 11.0348 21.3227 10.4469 21.3313 9.8572C21.3314 9.23514 21.2733 8.61444 21.1577 8.00322C21.1108 7.74026 20.9822 7.49876 20.7903 7.31303C20.5983 7.1273 20.3527 7.00678 20.0883 6.9686ZM14.3875 9.8572C14.3875 10.5439 14.1839 11.2151 13.8024 11.7861C13.4209 12.357 12.8787 12.802 12.2443 13.0648C11.6099 13.3276 10.9118 13.3963 10.2383 13.2624C9.56483 13.1284 8.9462 12.7977 8.46065 12.3122C7.9751 11.8266 7.64444 11.208 7.51048 10.5345C7.37651 9.86105 7.44527 9.16297 7.70805 8.52857C7.97082 7.89417 8.41582 7.35194 8.98677 6.97044C9.55772 6.58895 10.229 6.38532 10.9156 6.38532C11.8364 6.38532 12.7195 6.75111 13.3706 7.40221C14.0217 8.05332 14.3875 8.9364 14.3875 9.8572Z" fill="#4DAAA7"/>
</svg>
