<svg width="25" height="25" viewBox="0 0 25 25" fill="none" xmlns="http://www.w3.org/2000/svg">
<path d="M15.4997 13.0084C14.9467 13.0084 14.4997 13.4565 14.4997 14.0083V18.0084C14.4997 18.5593 14.0517 19.0083 13.4996 19.0083H10.4997V4.00864C10.4997 3.15465 9.95572 2.39167 9.1378 2.10768L8.84173 2.00862H13.4996C14.0517 2.00862 14.4997 2.45759 14.4997 3.00872V6.00865C14.4997 6.56052 14.9467 7.00857 15.4997 7.00857C16.0526 7.00857 16.4996 6.56052 16.4996 6.00865V3.00872C16.4996 1.35477 15.1536 0.00878906 13.4996 0.00878906H2.74995C2.71186 0.00878906 2.68 0.0258175 2.64302 0.0307612C2.59486 0.026733 2.5489 0.00878906 2.50002 0.00878906C1.39701 0.00878906 0.5 0.905619 0.5 2.00862V20.0082C0.5 20.8622 1.04399 21.6252 1.86191 21.9092L7.8799 23.9152C8.08387 23.9782 8.28675 24.0082 8.49988 24.0082C9.60288 24.0082 10.4997 23.1112 10.4997 22.0082V21.0083H13.4996C15.1536 21.0083 16.4996 19.6623 16.4996 18.0084V14.0083C16.4996 13.4565 16.0526 13.0084 15.4997 13.0084Z" fill="#4DAAA7"/>
<path d="M24.2073 9.30166L20.2073 5.30181C19.9215 5.01581 19.4914 4.92975 19.1175 5.08465C18.7445 5.23974 18.5004 5.60466 18.5004 6.00876V9.0087H14.5006C13.9485 9.0087 13.5005 9.45656 13.5005 10.0086C13.5005 10.5607 13.9485 11.0085 14.5006 11.0085H18.5004V14.0085C18.5004 14.4126 18.7445 14.7775 19.1175 14.9326C19.4914 15.0875 19.9215 15.0014 20.2073 14.7156L24.2073 10.7156C24.5983 10.3246 24.5983 9.69258 24.2073 9.30166Z" fill="#4DAAA7"/>
</svg>
