<svg width="257" height="54" viewBox="0 0 257 54" fill="none" xmlns="http://www.w3.org/2000/svg">
<g clip-path="url(#clip0_301_7807)">
<path d="M59.7399 52.6944C59.2283 52.3155 58.8144 51.8216 58.5323 51.2532C58.2501 50.6848 58.1077 50.0581 58.1167 49.4244V5.61777C58.0982 4.23141 58.6084 2.88938 59.545 1.86103C60.4817 0.832674 61.7754 0.194093 63.1666 0.0734467C63.9056 0.0246041 64.6469 0.126935 65.3445 0.374101C66.0421 0.621268 66.6811 1.00801 67.2221 1.51036C67.763 2.01271 68.1943 2.61998 68.4892 3.29456C68.7841 3.96913 68.9364 4.69664 68.9366 5.43202V48.6294C68.9366 52.7986 64.1532 55.8574 59.7399 52.6944Z" fill="#3F8F8B"/>
<path d="M5.04987 53.9305C3.65906 53.8096 2.3657 53.1711 1.42915 52.1431C0.492594 51.1151 -0.0179227 49.7735 -3.3557e-05 48.3875V4.58883C-0.00806093 3.95575 0.134803 3.32975 0.416897 2.76193C0.698991 2.19411 1.11232 1.70056 1.62315 1.32157C6.03778 -1.84279 10.8198 1.216 10.8198 5.38393V48.5706C10.8198 49.3061 10.6677 50.0337 10.3728 50.7085C10.078 51.3832 9.64676 51.9906 9.10581 52.4931C8.56487 52.9956 7.92577 53.3825 7.22809 53.6297C6.53041 53.877 5.78902 53.9793 5.04987 53.9305Z" fill="#4DAAA7"/>
<path d="M201.457 52.6369C200.945 52.2581 200.531 51.7642 200.249 51.1958C199.967 50.6274 199.824 50.0006 199.833 49.367V4.62492C199.824 3.99129 199.967 3.36458 200.249 2.79617C200.531 2.22777 200.945 1.73387 201.457 1.35499C205.87 -1.80804 210.653 1.25075 210.653 5.42002V48.5732C210.653 52.7425 205.87 55.8013 201.457 52.6383" fill="#4DAAA7"/>
<path d="M24.3465 53.9438C23.2138 53.9433 22.1098 53.59 21.1901 52.9336C20.2704 52.2772 19.5813 51.3508 19.2199 50.285L9.43635 25.4605C9.17529 24.8681 9.04053 24.2284 9.04053 23.5817C9.04053 22.935 9.17529 22.2953 9.43635 21.7029L18.9789 3.06812C20.7879 -0.692236 26.43 -1.40582 29.0411 3.33538C29.3384 3.89617 29.4975 4.51895 29.5055 5.15263C29.5134 5.78631 29.37 6.41284 29.0868 6.98081L20.7771 24.2552L29.4731 46.8574C29.7455 47.6652 29.8206 48.5257 29.6922 49.368C29.5639 50.2102 29.2358 51.0102 28.735 51.7018C28.2342 52.3935 27.575 52.9571 26.8118 53.3462C26.0486 53.7353 25.2031 53.9388 24.3451 53.9398" fill="#4DAAA7"/>
<path d="M87.7796 54C83.409 53.995 79.2188 52.2688 76.1285 49.2002C73.0383 46.1315 71.3004 41.971 71.2961 37.6316V16.4124C71.2764 14.2509 71.6882 12.1069 72.5077 10.1043C73.3273 8.10166 74.5382 6.28006 76.0708 4.74467C77.6033 3.20929 79.427 1.99054 81.4366 1.15882C83.4461 0.327091 85.6017 -0.101135 87.7789 -0.101135C89.9561 -0.101135 92.1117 0.327091 94.1213 1.15882C96.1309 1.99054 97.9545 3.20929 99.4871 4.74467C101.02 6.28006 102.231 8.10166 103.05 10.1043C103.87 12.1069 104.281 14.2509 104.262 16.4124V37.6316C104.257 41.9703 102.519 46.1299 99.4288 49.198C96.3389 52.266 92.1495 53.992 87.7796 53.9973V54ZM87.7796 10.7866C86.2781 10.7884 84.8385 11.3814 83.7768 12.4356C82.715 13.4897 82.1177 14.919 82.116 16.4098V37.6316C82.116 39.123 82.7127 40.5532 83.7748 41.6078C84.8369 42.6623 86.2775 43.2548 87.7796 43.2548C89.2817 43.2548 90.7223 42.6623 91.7844 41.6078C92.8465 40.5532 93.4433 39.123 93.4433 37.6316V16.4124C93.4415 14.9216 92.8442 13.4924 91.7824 12.4382C90.7207 11.3841 89.2811 10.7911 87.7796 10.7893" fill="#4DAAA7"/>
<path d="M152.697 1.35364C152.186 1.73265 151.772 2.22677 151.49 2.79542C151.207 3.36407 151.065 3.99106 151.074 4.62491V37.6316C151.074 38.4029 150.913 39.1658 150.604 39.873C150.294 40.5803 149.841 41.2168 149.273 41.743C148.705 42.2693 148.034 42.6741 147.302 42.9323C146.57 43.1905 145.793 43.2966 145.018 43.2441C143.563 43.1139 142.211 42.4432 141.233 41.3662C140.255 40.2892 139.722 38.8853 139.742 37.4351V5.41733C139.741 4.70147 139.597 3.99286 139.317 3.33317C139.037 2.67347 138.627 2.076 138.111 1.57589C137.596 1.07577 136.984 0.683097 136.313 0.420953C135.642 0.158809 134.925 0.0324842 134.205 0.0494056C132.855 0.0663881 131.545 0.505472 130.461 1.30419C129.933 1.6833 129.503 2.1826 129.209 2.76032C128.914 3.33804 128.763 3.9774 128.768 4.62491V37.6316C128.768 38.4029 128.608 39.1659 128.298 39.8733C127.988 40.5806 127.535 41.2172 126.967 41.7435C126.399 42.2698 125.729 42.6745 124.997 42.9327C124.264 43.1908 123.487 43.2968 122.712 43.2441C121.257 43.1136 119.906 42.4428 118.927 41.3659C117.949 40.289 117.417 38.8852 117.436 37.4351V5.41733C117.436 1.24807 112.654 -1.81073 108.239 1.3523C107.728 1.73239 107.316 2.22704 107.034 2.79582C106.753 3.36461 106.612 3.99138 106.621 4.62491V37.2761C106.586 41.5459 108.21 45.6648 111.155 48.7769C114.1 51.8889 118.139 53.7547 122.433 53.9866C125.824 54.1273 129.175 53.2192 132.024 51.3875C132.707 50.9506 133.502 50.7197 134.315 50.7225C135.127 50.7253 135.921 50.9619 136.6 51.4035C139.077 53.0108 141.954 53.9067 144.911 53.9919C147.117 54.0559 149.312 53.6802 151.369 52.887C153.425 52.0937 155.3 50.8992 156.884 49.3738C158.467 47.8485 159.726 46.0235 160.587 44.0066C161.448 41.9897 161.892 39.822 161.894 37.6316V5.41733C161.894 1.24807 157.111 -1.81073 152.697 1.3523" fill="#4DAAA7"/>
<path d="M174.08 53.9438H173.334C170.927 53.941 168.62 52.9903 166.917 51.3004C165.215 49.6104 164.258 47.3191 164.255 44.9291V9.07612C164.259 6.68707 165.217 4.39702 166.918 2.70795C168.62 1.01888 170.927 0.06861 173.333 0.0654297H174.079C180.281 0.0725032 186.226 2.52168 190.612 6.87567C194.997 11.2297 197.464 17.1329 197.471 23.2904V30.7229C197.464 36.8804 194.997 42.7836 190.612 47.1376C186.226 51.4916 180.281 53.9408 174.079 53.9478L174.08 53.9438ZM175.072 14.2356V39.7737C175.071 40.2152 175.179 40.6503 175.387 41.0407C175.594 41.4312 175.895 41.7651 176.263 42.0133C176.631 42.2615 177.054 42.4164 177.497 42.4644C177.939 42.5124 178.386 42.452 178.799 42.2886C181.118 41.3532 183.103 39.753 184.502 37.6923C185.9 35.6315 186.648 33.2038 186.651 30.7189V23.2864C186.649 20.8014 185.9 18.3736 184.502 16.3128C183.103 14.2521 181.118 12.6519 178.799 11.7167C178.386 11.5532 177.938 11.4928 177.496 11.5409C177.054 11.589 176.63 11.744 176.263 11.9923C175.895 12.2407 175.594 12.5748 175.386 12.9654C175.179 13.3561 175.071 13.7913 175.072 14.2329" fill="#4DAAA7"/>
<path d="M221.209 49.0997C221.209 49.9045 220.969 50.6912 220.519 51.3604C220.068 52.0295 219.428 52.5511 218.679 52.859C217.931 53.167 217.106 53.2476 216.311 53.0906C215.516 52.9336 214.786 52.5461 214.213 51.977C213.64 51.4079 213.25 50.6829 213.091 49.8936C212.933 49.1043 213.014 48.2861 213.325 47.5426C213.635 46.7991 214.16 46.1636 214.834 45.7165C215.508 45.2693 216.3 45.0307 217.111 45.0307C218.198 45.0307 219.24 45.4594 220.009 46.2225C220.778 46.9856 221.209 48.0206 221.209 49.0997Z" fill="#333333"/>
<path d="M253.299 52.7813C252.317 52.7809 251.376 52.3938 250.683 51.705C249.989 51.0161 249.599 50.082 249.599 49.1078V33.2846C249.599 32.31 249.989 31.3753 250.683 30.6861C251.377 29.997 252.318 29.6098 253.3 29.6098C254.282 29.6098 255.223 29.997 255.917 30.6861C256.611 31.3753 257.001 32.31 257.001 33.2846V49.1011C257.001 50.0753 256.611 51.0094 255.917 51.6983C255.223 52.3871 254.282 52.7743 253.301 52.7746" fill="#333333"/>
<path d="M253.296 26.8343C253.055 26.8331 252.814 26.8098 252.577 26.7648C252.341 26.7145 252.109 26.6448 251.884 26.5564C251.662 26.463 251.448 26.3489 251.248 26.2156C250.838 25.9519 250.489 25.6054 250.223 25.1987C250.089 24.9992 249.974 24.7876 249.88 24.5666C249.791 24.3434 249.721 24.1132 249.67 23.8784C249.624 23.6432 249.601 23.4043 249.6 23.1648C249.601 22.9231 249.625 22.682 249.67 22.4445C249.721 22.2098 249.791 21.9796 249.88 21.7563C249.974 21.5354 250.089 21.3237 250.223 21.1243C250.356 20.9218 250.509 20.7333 250.681 20.5617C251.375 19.8737 252.316 19.4873 253.297 19.4873C254.278 19.4873 255.218 19.8737 255.912 20.5617C256.086 20.7331 256.242 20.9216 256.377 21.1243C256.512 21.3224 256.625 21.5343 256.715 21.7563C256.81 21.9774 256.88 22.2082 256.925 22.4445C256.975 22.6813 257.001 22.9227 257.001 23.1648C257.001 23.4047 256.976 23.6439 256.925 23.8784C256.88 24.1147 256.81 24.3455 256.715 24.5666C256.625 24.7886 256.512 25.0005 256.377 25.1987C256.242 25.4013 256.086 25.5898 255.912 25.7612C255.216 26.4449 254.277 26.8289 253.297 26.8303" fill="#333333"/>
<path d="M247.239 40.9296C247.239 40.7439 247.221 40.5648 247.211 40.3817V33.433C247.225 32.5 246.891 31.5948 246.273 30.8922C245.654 30.1896 244.796 29.7394 243.862 29.6285C243.267 29.5717 242.666 29.6597 242.113 29.8851C241.355 30.2227 240.495 30.2553 239.714 29.9759C238.214 29.3913 236.608 29.1184 234.997 29.1742C231.855 29.2259 228.862 30.5148 226.677 32.7574C224.492 34.9999 223.294 38.0124 223.346 41.1321C223.398 44.2517 224.696 47.2231 226.955 49.3925C229.214 51.5618 232.248 52.7515 235.39 52.6998C236.672 52.6992 237.945 52.4893 239.158 52.0784C239.589 51.9422 240.044 51.8956 240.494 51.9416C240.944 51.9876 241.38 52.1251 241.774 52.3456C242.33 52.6399 242.953 52.7871 243.584 52.7733C244.571 52.7265 245.5 52.3007 246.177 51.5858C246.853 50.8709 247.223 49.9228 247.208 48.9421V41.4775C247.218 41.2944 247.237 41.1154 247.237 40.9296H247.239ZM235.393 45.3474C234.533 45.3477 233.692 45.1009 232.971 44.6369C232.25 44.1729 231.68 43.5115 231.329 42.7326C230.978 41.9537 230.862 41.0906 230.995 40.2476C231.127 39.4047 231.503 38.6179 232.076 37.9823C232.65 37.3467 233.396 36.8896 234.225 36.6661C235.055 36.4426 235.932 36.4623 236.75 36.7228C237.568 36.9834 238.293 37.4736 238.837 38.1343C239.38 38.7949 239.72 39.5978 239.814 40.4459V41.412C239.693 42.4928 239.175 43.4915 238.36 44.2172C237.544 44.9429 236.488 45.3448 235.393 45.3461" fill="#333333"/>
<path d="M2.38917 45.8779H6.19006V46.3497H6.66652V49.653H6.19006V50.1247H2.38917V49.653H1.91406V46.3456H2.38917V45.8779ZM5.23984 46.3497H2.86428V48.7096H3.3394V48.2378H3.81451V47.7661H4.28962V47.2944H4.76473V46.8133H5.23984V46.3497ZM3.3394 49.6476H5.71495V47.2891H5.23984V47.7608H4.76473V48.2325H4.28962V48.7042H3.81451V49.1759H3.3394V49.6476Z" fill="white"/>
<path d="M7.14258 45.8779H9.04302V50.1247H8.0928V46.3456H7.14258V45.8779Z" fill="white"/>
<path d="M56.938 27.6147C56.9279 28.8889 56.4454 30.1149 55.5826 31.0583C55.5191 31.134 55.4489 31.2037 55.3726 31.2668C53.8317 32.2387 52.0434 32.7538 50.2178 32.7514H49.9755C49.8611 32.7514 49.7521 32.7514 49.6632 32.7514C49.9244 32.7514 52.0684 32.7514 52.1451 32.7701C51.9863 32.7888 50.3376 32.8209 50.0953 32.8904C44.8462 34.3055 42.9794 39.7216 42.9794 44.3158V48.632C42.9794 50.0047 42.4302 51.3211 41.4526 52.2917C40.475 53.2623 39.1491 53.8075 37.7666 53.8075C36.3841 53.8075 35.0582 53.2623 34.0807 52.2917C33.1031 51.3211 32.5539 50.0047 32.5539 48.632V44.3225C32.4089 38.6078 34.3713 33.0374 38.0722 28.6583C38.0872 28.6359 38.1044 28.6148 38.1233 28.5955C40.5726 25.8411 43.7841 23.8631 47.3577 22.9082C47.9178 22.7506 48.4873 22.6283 49.063 22.5421H49.2151C49.495 22.5421 49.7238 22.5421 49.9149 22.5421H50.0226C50.2703 22.5421 51.919 22.5421 52.1169 22.53H52.1424C53.4002 22.6334 54.5775 23.1859 55.4563 24.0852C56.3351 24.9845 56.8558 26.1696 56.9218 27.4209C56.9218 27.4837 56.9218 27.5478 56.9218 27.6106" fill="#333333"/>
<path d="M49.4653 32.9532C49.4653 32.9853 49.4465 33.0106 49.3631 33.0106C49.2796 33.0106 49.3819 32.9853 49.4653 32.9532Z" fill="#333333"/>
<path d="M49.4653 32.9572C49.4691 32.9322 49.4828 32.9096 49.5033 32.8944H49.5481C49.6186 32.8944 49.5481 32.9265 49.4653 32.9519" fill="#333333"/>
<path d="M42.9847 16.4485C43.0016 18.0511 43.6473 19.584 44.7846 20.7214C45.9219 21.8587 47.4611 22.5109 49.075 22.5394H49.2271C49.5071 22.5394 49.7359 22.5394 49.927 22.5394H50.0347C50.2823 22.5394 51.9311 22.5394 52.1289 22.5274H52.1545C53.4122 22.6307 54.5896 23.1832 55.4684 24.0825C56.3472 24.9818 56.8678 26.1669 56.9339 27.4182C56.9339 27.481 56.9339 27.5452 56.9339 27.608V27.6841C56.9342 28.9719 56.4509 30.2136 55.5785 31.1665C55.515 31.2422 55.4448 31.312 55.3686 31.375C54.5479 32.146 53.4947 32.6277 52.3712 32.7461C52.2945 32.7461 52.2191 32.7648 52.1424 32.7715C51.7386 32.8155 49.9081 32.8476 49.6161 32.8663H49.5838C49.5554 32.8666 49.5273 32.8729 49.5017 32.885H49.2217C45.1324 32.8893 41.1842 31.4007 38.1286 28.7024C38.11 28.6871 38.0929 28.6701 38.0775 28.6516C35.5709 26.4294 33.8061 23.5013 33.0183 20.2579C32.2304 17.0144 32.4571 13.6096 33.6679 10.4972C34.8788 7.38488 37.0163 4.71291 39.7957 2.83746C42.575 0.962015 45.8641 -0.0278 49.2244 -4.21203e-05C50.1666 -4.21203e-05 49.7466 0.0440559 51.2675 0.0814724L51.8395 0.113544C52.5268 0.124493 53.205 0.270233 53.8353 0.542382C54.4656 0.81453 55.0355 1.20772 55.5122 1.69932C55.9889 2.19093 56.3629 2.77126 56.6129 3.40693C56.8629 4.0426 56.9838 4.72107 56.9687 5.4033C56.9537 6.08554 56.8029 6.75808 56.525 7.38225C56.2472 8.00642 55.8479 8.5699 55.3499 9.04027C54.852 9.51064 54.2652 9.87862 53.6235 10.1231C52.9818 10.3675 52.2978 10.4835 51.6107 10.4645L51.001 10.4325C49.6968 10.4004 50.0468 10.351 49.2258 10.351C47.5845 10.3403 46.0059 10.9761 44.836 12.1191C43.6661 13.2621 43.0004 14.819 42.9847 16.4485Z" fill="#333333"/>
</g>
<defs>
<clipPath id="clip0_301_7807">
<rect width="257" height="54" fill="white"/>
</clipPath>
</defs>
</svg>
