<svg width="162" height="34" viewBox="0 0 162 34" fill="none" xmlns="http://www.w3.org/2000/svg">
<g clip-path="url(#clip0_301_6277)">
<path d="M37.9249 33.178C37.6044 32.9394 37.3451 32.6285 37.1684 32.2706C36.9916 31.9127 36.9024 31.5181 36.908 31.1191V3.53716C36.8964 2.66426 37.2161 1.81928 37.8028 1.1718C38.3896 0.524319 39.2001 0.12225 40.0716 0.0462872C40.5346 0.0155344 40.9989 0.0799651 41.4359 0.235588C41.873 0.391211 42.2733 0.634713 42.6122 0.95101C42.951 1.26731 43.2212 1.64966 43.406 2.07439C43.5907 2.49913 43.6861 2.95719 43.6862 3.4202V30.6185C43.6862 33.2436 40.6896 35.1695 37.9249 33.178Z" fill="#3F8F8B"/>
<path d="M3.6636 33.9563C2.79231 33.8801 1.98208 33.4781 1.39537 32.8308C0.808652 32.1836 0.488834 31.3389 0.500041 30.4662V2.88929C0.495012 2.49068 0.58451 2.09653 0.761231 1.73902C0.937951 1.3815 1.19688 1.07075 1.5169 0.832128C4.28248 -1.16025 7.27825 0.765659 7.27825 3.38991V30.5815C7.27824 31.0446 7.18293 31.5027 6.99822 31.9276C6.81352 32.3524 6.54336 32.7349 6.20448 33.0512C5.8656 33.3676 5.46523 33.6112 5.02816 33.7669C4.5911 33.9226 4.12665 33.987 3.6636 33.9563Z" fill="#4DAAA7"/>
<path d="M126.704 33.1418C126.384 32.9033 126.125 32.5923 125.948 32.2344C125.771 31.8765 125.682 31.4819 125.688 31.083V2.91202C125.682 2.51307 125.771 2.11847 125.948 1.76059C126.125 1.4027 126.384 1.09173 126.704 0.853176C129.469 -1.13836 132.466 0.787548 132.466 3.41264V30.5832C132.466 33.2083 129.469 35.1342 126.704 33.1427" fill="#4DAAA7"/>
<path d="M15.7521 33.9647C15.0426 33.9644 14.351 33.7419 13.7748 33.3286C13.1986 32.9153 12.7669 32.3321 12.5405 31.661L6.41154 16.0308C6.248 15.6577 6.16357 15.255 6.16357 14.8478C6.16357 14.4406 6.248 14.0378 6.41154 13.6648L12.3896 1.93182C13.5228 -0.435814 17.0574 -0.885109 18.6931 2.10009C18.8793 2.45318 18.979 2.84531 18.984 3.24429C18.989 3.64327 18.8991 4.03775 18.7218 4.39537L13.5161 15.2718L18.9637 29.5029C19.1344 30.0115 19.1814 30.5533 19.101 31.0836C19.0206 31.6139 18.8151 32.1175 18.5014 32.553C18.1876 32.9885 17.7747 33.3434 17.2965 33.5884C16.8184 33.8334 16.2888 33.9615 15.7513 33.9622" fill="#4DAAA7"/>
<path d="M55.4905 34C52.7525 33.9969 50.1275 32.91 48.1916 30.9779C46.2557 29.0458 45.1669 26.4262 45.1642 23.694V10.3338C45.1519 8.97282 45.4099 7.6229 45.9233 6.36198C46.4367 5.10106 47.1953 3.95413 48.1554 2.9874C49.1155 2.02068 50.2579 1.25332 51.5168 0.729643C52.7758 0.205965 54.1262 -0.0636597 55.4901 -0.0636597C56.854 -0.0636597 58.2044 0.205965 59.4633 0.729643C60.7222 1.25332 61.8647 2.02068 62.8247 2.9874C63.7848 3.95413 64.5435 5.10106 65.0568 6.36198C65.5702 7.6229 65.8282 8.97282 65.8159 10.3338V23.694C65.8128 26.4258 64.7239 29.0448 62.7883 30.9765C60.8526 32.9083 58.2281 33.995 55.4905 33.9983V34ZM55.4905 6.79159C54.5498 6.7927 53.648 7.16608 52.9829 7.82981C52.3177 8.49354 51.9436 9.39344 51.9424 10.3321V23.694C51.9424 24.633 52.3163 25.5335 52.9816 26.1975C53.647 26.8615 54.5495 27.2345 55.4905 27.2345C56.4315 27.2345 57.3339 26.8615 57.9993 26.1975C58.6647 25.5335 59.0385 24.633 59.0385 23.694V10.3338C59.0374 9.39512 58.6632 8.49523 57.9981 7.83149C57.333 7.16776 56.4311 6.79439 55.4905 6.79327" fill="#4DAAA7"/>
<path d="M96.159 0.852308C95.8384 1.09095 95.579 1.40206 95.4023 1.7601C95.2255 2.11814 95.1364 2.51291 95.1421 2.912V23.694C95.1418 24.1796 95.0414 24.66 94.8473 25.1053C94.6531 25.5506 94.3694 25.9513 94.0136 26.2827C93.6579 26.614 93.2377 26.8689 92.7791 27.0314C92.3205 27.194 91.8334 27.2608 91.3479 27.2278C90.4365 27.1458 89.5898 26.7235 88.9769 26.0454C88.3641 25.3673 88.0305 24.4833 88.0427 23.5703V3.41093C88.0426 2.9602 87.9522 2.51404 87.7768 2.09868C87.6014 1.68332 87.3446 1.30713 87.0214 0.992243C86.6982 0.677355 86.3152 0.430116 85.8949 0.265062C85.4746 0.100009 85.0254 0.0204711 84.5739 0.0311253C83.7285 0.041818 82.9079 0.318279 82.229 0.821177C81.8978 1.05988 81.6287 1.37425 81.4441 1.738C81.2596 2.10175 81.165 2.5043 81.1683 2.912V23.694C81.1681 24.1796 81.0678 24.66 80.8737 25.1054C80.6796 25.5508 80.3959 25.9516 80.0401 26.2829C79.6843 26.6143 79.2641 26.8692 78.8055 27.0317C78.3468 27.1942 77.8596 27.261 77.3741 27.2278C76.4628 27.1456 75.6162 26.7233 75.0034 26.0452C74.3906 25.3671 74.0569 24.4833 74.0689 23.5703V3.41093C74.0689 0.785839 71.0731 -1.14007 68.3075 0.851467C67.9877 1.09078 67.7291 1.40223 67.553 1.76035C67.3768 2.11847 67.2881 2.51311 67.294 2.912V23.4702C67.2723 26.1586 68.2895 28.752 70.1342 30.7114C71.9789 32.6708 74.5093 33.8456 77.1996 33.9916C79.3239 34.0802 81.4233 33.5084 83.2079 32.3551C83.6356 32.0801 84.134 31.9346 84.6428 31.9364C85.1516 31.9382 85.649 32.0871 86.0747 32.3652C87.6264 33.3772 89.4283 33.9413 91.2813 33.9949C92.6628 34.0352 94.0383 33.7986 95.3266 33.2992C96.6148 32.7998 97.7897 32.0476 98.7816 31.0873C99.7735 30.1269 100.562 28.9778 101.101 27.7079C101.641 26.438 101.919 25.0731 101.92 23.694V3.41093C101.92 0.785839 98.9237 -1.14007 96.159 0.851467" fill="#4DAAA7"/>
<path d="M109.554 33.9647H109.087C107.579 33.9629 106.133 33.3643 105.067 32.3003C104.001 31.2362 103.401 29.7936 103.399 28.2888V5.71466C103.402 4.21044 104.002 2.76856 105.068 1.70507C106.134 0.641583 107.579 0.0432622 109.086 0.0412598H109.553C113.439 0.0457134 117.163 1.58779 119.911 4.32919C122.658 7.07059 124.203 10.7874 124.208 14.6644V19.3441C124.203 23.221 122.658 26.9379 119.911 29.6793C117.163 32.4207 113.439 33.9628 109.553 33.9672L109.554 33.9647ZM110.176 8.96321V25.0427C110.175 25.3207 110.243 25.5947 110.373 25.8405C110.503 26.0863 110.691 26.2966 110.922 26.4529C111.152 26.6092 111.418 26.7067 111.695 26.7369C111.971 26.7671 112.252 26.7291 112.51 26.6262C113.963 26.0372 115.207 25.0297 116.083 23.7322C116.959 22.4347 117.428 20.9061 117.429 19.3416V14.6618C117.428 13.0973 116.959 11.5686 116.083 10.2711C115.207 8.9736 113.963 7.96609 112.51 7.37722C112.252 7.27429 111.971 7.2363 111.694 7.26656C111.417 7.29682 111.152 7.39441 110.922 7.55078C110.691 7.70715 110.503 7.91753 110.373 8.16348C110.243 8.40943 110.175 8.68345 110.176 8.96153" fill="#4DAAA7"/>
<path d="M139.078 30.9146C139.078 31.4214 138.928 31.9167 138.646 32.338C138.364 32.7593 137.963 33.0877 137.494 33.2816C137.024 33.4755 136.508 33.5263 136.01 33.4274C135.512 33.3286 135.055 33.0846 134.696 32.7263C134.337 32.368 134.092 31.9115 133.993 31.4145C133.894 30.9175 133.945 30.4024 134.139 29.9342C134.333 29.4661 134.662 29.066 135.085 28.7844C135.507 28.5029 136.003 28.3527 136.511 28.3527C137.192 28.3527 137.845 28.6226 138.326 29.1031C138.808 29.5835 139.078 30.2352 139.078 30.9146Z" fill="#333333"/>
<path d="M159.181 33.2326C158.567 33.2324 157.977 32.9887 157.543 32.555C157.108 32.1212 156.864 31.5331 156.864 30.9197V20.957C156.864 20.3433 157.108 19.7548 157.543 19.3209C157.977 18.887 158.567 18.6432 159.182 18.6432C159.797 18.6432 160.387 18.887 160.822 19.3209C161.257 19.7548 161.501 20.3433 161.501 20.957V30.9155C161.501 31.5289 161.256 32.117 160.822 32.5507C160.387 32.9845 159.798 33.2282 159.183 33.2284" fill="#333333"/>
<path d="M159.18 16.8957C159.028 16.8949 158.878 16.8802 158.729 16.8519C158.581 16.8202 158.436 16.7763 158.295 16.7207C158.156 16.6619 158.022 16.59 157.896 16.5061C157.64 16.3401 157.421 16.1219 157.255 15.8658C157.171 15.7402 157.099 15.607 157.04 15.4678C156.984 15.3273 156.94 15.1824 156.908 15.0345C156.88 14.8865 156.865 14.736 156.864 14.5852C156.865 14.4331 156.88 14.2813 156.908 14.1317C156.94 13.9839 156.984 13.839 157.04 13.6984C157.099 13.5593 157.171 13.426 157.255 13.3005C157.338 13.173 157.434 13.0543 157.541 12.9462C157.976 12.5131 158.566 12.2698 159.18 12.2698C159.794 12.2698 160.384 12.5131 160.819 12.9462C160.927 13.0542 161.025 13.1728 161.11 13.3005C161.194 13.4252 161.265 13.5586 161.321 13.6984C161.381 13.8376 161.425 13.9829 161.453 14.1317C161.485 14.2808 161.501 14.4328 161.501 14.5852C161.501 14.7363 161.485 14.8869 161.453 15.0345C161.425 15.1833 161.381 15.3286 161.321 15.4678C161.265 15.6076 161.194 15.7411 161.11 15.8658C161.025 15.9934 160.927 16.1121 160.819 16.22C160.382 16.6505 159.794 16.8923 159.18 16.8931" fill="#333333"/>
<path d="M155.385 25.7705C155.385 25.6535 155.374 25.5408 155.368 25.4255V21.0504C155.377 20.463 155.167 19.893 154.78 19.4507C154.392 19.0083 153.854 18.7248 153.27 18.655C152.897 18.6192 152.521 18.6747 152.174 18.8165C151.699 19.0291 151.161 19.0496 150.671 18.8737C149.731 18.5056 148.725 18.3338 147.716 18.3689C145.747 18.4015 143.873 19.213 142.504 20.625C141.135 22.037 140.384 23.9337 140.417 25.898C140.45 27.8622 141.263 29.7331 142.678 31.099C144.093 32.4649 145.994 33.2139 147.962 33.1813C148.765 33.181 149.563 33.0488 150.323 32.7901C150.593 32.7043 150.878 32.675 151.16 32.704C151.442 32.7329 151.714 32.8195 151.961 32.9584C152.31 33.1436 152.7 33.2363 153.095 33.2276C153.713 33.1982 154.296 32.9301 154.72 32.4799C155.143 32.0298 155.375 31.4329 155.366 30.8154V26.1155C155.372 26.0002 155.384 25.8875 155.384 25.7705H155.385ZM147.964 28.5521C147.425 28.5523 146.899 28.3969 146.447 28.1047C145.995 27.8126 145.638 27.3961 145.418 26.9057C145.198 26.4153 145.126 25.8719 145.209 25.3411C145.292 24.8103 145.527 24.3149 145.886 23.9148C146.246 23.5146 146.713 23.2268 147.233 23.086C147.752 22.9453 148.301 22.9577 148.814 23.1218C149.327 23.2858 149.781 23.5945 150.121 24.0105C150.462 24.4264 150.675 24.932 150.734 25.4659V26.0742C150.658 26.7547 150.334 27.3835 149.823 27.8405C149.312 28.2974 148.65 28.5505 147.964 28.5512" fill="#333333"/>
<path d="M1.99661 28.8861H4.37771V29.1831H4.67619V31.263H4.37771V31.56H1.99661V31.263H1.69897V29.1806H1.99661V28.8861ZM3.78244 29.1831H2.29425V30.669H2.59189V30.372H2.88953V30.075H3.18716V29.778H3.4848V29.4751H3.78244V29.1831ZM2.59189 31.2596H4.08008V29.7746H3.78244V30.0716H3.4848V30.3686H3.18716V30.6656H2.88953V30.9626H2.59189V31.2596Z" fill="white"/>
<path d="M4.97461 28.8861H6.16516V31.56H5.56988V29.1806H4.97461V28.8861Z" fill="white"/>
<path d="M36.1692 17.387C36.1629 18.1894 35.8607 18.9612 35.3202 19.5553C35.2804 19.6029 35.2364 19.6468 35.1886 19.6865C34.2233 20.2985 33.103 20.6228 31.9593 20.6213H31.8075C31.7359 20.6213 31.6676 20.6213 31.6119 20.6213C31.7755 20.6213 33.1187 20.6213 33.1667 20.6331C33.0672 20.6448 32.0344 20.665 31.8826 20.7088C28.5942 21.5998 27.4248 25.0099 27.4248 27.9026V30.6202C27.4248 31.4845 27.0807 32.3133 26.4683 32.9244C25.8559 33.5355 25.0253 33.8789 24.1592 33.8789C23.2931 33.8789 22.4625 33.5355 21.8501 32.9244C21.2377 32.3133 20.8936 31.4845 20.8936 30.6202V27.9068C20.8028 24.3087 22.0321 20.8014 24.3506 18.0442C24.36 18.03 24.3708 18.0168 24.3826 18.0046C25.917 16.2703 27.9289 15.025 30.1676 14.4237C30.5185 14.3245 30.8753 14.2475 31.2359 14.1932H31.3312C31.5065 14.1932 31.6499 14.1932 31.7696 14.1932H31.8371C31.9922 14.1932 33.0251 14.1932 33.149 14.1856H33.165C33.953 14.2507 34.6905 14.5986 35.2411 15.1648C35.7916 15.731 36.1178 16.4772 36.1591 17.265C36.1591 17.3046 36.1591 17.345 36.1591 17.3845" fill="#333333"/>
<path d="M31.4881 20.7484C31.4881 20.7685 31.4763 20.7845 31.424 20.7845C31.3717 20.7845 31.4358 20.7685 31.4881 20.7484Z" fill="#333333"/>
<path d="M31.488 20.7508C31.4904 20.7351 31.4989 20.7209 31.5116 20.7113H31.5395C31.5833 20.7113 31.5395 20.7315 31.488 20.7475" fill="#333333"/>
<path d="M27.4282 10.3565C27.4387 11.3655 27.8433 12.3307 28.5557 13.0468C29.2682 13.7629 30.2324 14.1736 31.2435 14.1915H31.3388C31.5141 14.1915 31.6575 14.1915 31.7772 14.1915H31.8447C31.9998 14.1915 33.0327 14.1915 33.1566 14.1839H33.1726C33.9606 14.249 34.6981 14.5969 35.2487 15.1631C35.7992 15.7293 36.1254 16.4755 36.1667 17.2633C36.1667 17.3029 36.1667 17.3433 36.1667 17.3828V17.4308C36.1669 18.2416 35.8642 19.0234 35.3177 19.6234C35.2779 19.671 35.2339 19.715 35.1861 19.7547C34.672 20.2401 34.0122 20.5434 33.3084 20.6179C33.2603 20.6179 33.2131 20.6297 33.1651 20.6339C32.9121 20.6617 31.7654 20.6819 31.5824 20.6936H31.5622C31.5444 20.6938 31.5268 20.6978 31.5108 20.7054H31.3354C28.7736 20.7081 26.3002 19.7708 24.386 18.0719C24.3743 18.0623 24.3636 18.0516 24.354 18.0399C22.7837 16.6407 21.6781 14.7972 21.1846 12.755C20.691 10.7128 20.833 8.569 21.5916 6.60938C22.3501 4.64976 23.6892 2.9674 25.4303 1.78657C27.1715 0.605731 29.2319 -0.0174856 31.3371 -8.43566e-06C31.9273 -8.43566e-06 31.6642 0.027757 32.617 0.0513155L32.9753 0.0715085C33.4059 0.0784024 33.8308 0.170165 34.2256 0.341518C34.6205 0.51287 34.9775 0.760432 35.2761 1.06996C35.5747 1.37949 35.8091 1.74489 35.9657 2.14512C36.1223 2.54536 36.198 2.97254 36.1886 3.4021C36.1791 3.83165 36.0847 4.25511 35.9106 4.6481C35.7366 5.0411 35.4864 5.39588 35.1744 5.69204C34.8625 5.9882 34.4949 6.21989 34.0929 6.37379C33.6909 6.5277 33.2624 6.60077 32.832 6.58881L32.45 6.56861C31.633 6.54842 31.8522 6.51729 31.3379 6.51729C30.3097 6.51056 29.3208 6.91091 28.5879 7.63057C27.855 8.35023 27.438 9.33049 27.4282 10.3565Z" fill="#333333"/>
</g>
<defs>
<clipPath id="clip0_301_6277">
<rect width="161" height="34" fill="white" transform="translate(0.5)"/>
</clipPath>
</defs>
</svg>
