<svg width="39" height="38" viewBox="0 0 39 38" fill="none" xmlns="http://www.w3.org/2000/svg">
<path d="M24.2781 0.675841C21.3945 0.675841 19.2688 1.43334 17.959 2.92692C17.0438 3.97081 16.7364 5.14728 16.6427 5.99167C15.5489 5.42681 14.2612 5.14016 12.798 5.14016C6.17213 5.14016 5.78676 10.7883 5.78206 10.8807V13.8009C5.36838 14.2521 5.14448 14.7711 5.14448 15.2868V17.4904C5.14448 18.1786 5.45237 18.8199 5.98027 19.2532C6.50603 21.237 7.80115 22.7356 8.30513 23.2619V25.0108C8.30513 25.5127 8.03083 25.9733 7.5573 26.2321L3.31607 28.8945C1.68972 29.7807 0.679688 31.4819 0.679688 33.3326V35.7546H17.9008C18.2533 35.7546 18.5378 35.4693 18.5378 35.1168C18.5378 34.7637 18.2533 34.4787 17.9008 34.4787H10.8848V33.0513C10.8848 31.4118 11.7788 29.9046 13.2175 29.12L18.9082 26.0164C19.86 25.4966 20.4519 24.5 20.4519 23.4162V20.8525L20.3034 20.6756C20.3015 20.674 20.286 20.6541 20.2632 20.6255C20.1165 20.4391 19.5753 19.7249 19.0505 18.6807L19.0211 18.6219C19.0182 18.6159 19.0153 18.6099 19.0125 18.6044C18.9429 18.4647 18.8747 18.3164 18.8059 18.1634L18.7744 18.0915C18.7387 18.0101 18.703 17.9266 18.667 17.8392C18.655 17.809 18.6421 17.7794 18.6303 17.7487C18.5964 17.6647 18.5628 17.5788 18.5269 17.4807C18.461 17.3069 18.4009 17.1258 18.3426 16.9402L18.2967 16.7903C18.2368 16.5924 18.1814 16.3903 18.1329 16.1813C18.1321 16.1769 18.13 16.1727 18.1292 16.1682L18.1182 16.122L18.072 15.9162L17.8538 15.775C17.484 15.5372 17.2635 15.1374 17.2635 14.7065V12.1556C17.2635 11.7979 17.4152 11.4637 17.6906 11.2149L17.9008 11.0251V6.82795L17.8838 6.81404C17.8612 6.35416 17.889 4.94229 18.9185 3.76763C19.9753 2.56226 21.779 1.95071 24.2784 1.95071C26.7691 1.95071 28.5693 2.55784 29.6276 3.75506C30.8694 5.15859 30.6644 6.95448 30.6623 6.96973L30.6562 11.0252L30.8673 11.2155C31.1426 11.4635 31.2941 11.7977 31.2941 12.1554V14.7062C31.2941 15.2632 30.9303 15.7504 30.3872 15.9176C30.0512 16.021 29.8622 16.379 29.9662 16.715C30.0696 17.0515 30.425 17.2389 30.7636 17.136C31.844 16.8035 32.5703 15.8265 32.5703 14.7062V12.1554C32.5703 11.5412 32.3412 10.9456 31.9325 10.4813V7.08864C31.9687 6.73796 32.1086 4.65016 30.5985 2.92744C29.2887 1.43286 27.162 0.675293 24.2786 0.675293L24.2781 0.675841ZM29.2819 20.447C28.9764 20.447 28.7128 20.6649 28.6556 20.9652L28.4267 22.155C28.3459 22.5771 28.0716 22.9136 27.6742 23.0784C27.2757 23.244 26.8444 23.1989 26.488 22.9577L25.4848 22.2791C25.2323 22.109 24.8926 22.1403 24.6766 22.3566L23.4269 23.6052C23.2038 23.8275 23.1768 24.179 23.3629 24.4333L23.9411 25.2221C24.2015 25.5764 24.259 26.0151 24.0976 26.4243C23.9369 26.8345 23.5967 27.1167 23.1652 27.1999L22.2444 27.3761C21.9444 27.4335 21.7271 27.6963 21.7271 28.0023V29.7694C21.7271 30.0836 21.9565 30.3519 22.2678 30.4002L23.2345 30.5485C23.67 30.6154 24.0201 30.885 24.1962 31.2879C24.3724 31.6916 24.3314 32.132 24.0844 32.4969L23.5592 33.2728C23.3875 33.5256 23.4201 33.865 23.6364 34.0815L24.885 35.331C25.1071 35.5538 25.458 35.5803 25.7131 35.395L26.5019 34.8167C26.8562 34.5571 27.2954 34.4981 27.7033 34.6603C28.1136 34.8209 28.3968 35.1611 28.4797 35.5927L28.6561 36.5137C28.7134 36.8129 28.9761 37.0303 29.2824 37.0303H31.0492C31.3637 37.0303 31.6314 36.8003 31.6792 36.489L31.7842 35.8097C31.8511 35.3709 32.1359 35.0086 32.5451 34.8388C32.9556 34.6695 33.4123 34.7252 33.7704 34.9874L34.3242 35.3937C34.5786 35.5806 34.9308 35.5536 35.1523 35.3305L36.4021 34.081C36.6181 33.8647 36.6509 33.5248 36.4792 33.2715L35.9527 32.4956C35.7059 32.1313 35.666 31.691 35.8416 31.2874C36.0173 30.8845 36.3674 30.6141 36.8032 30.5472L37.7694 30.3989C38.0802 30.3506 38.3098 30.0823 38.3098 29.7681V28.0019C38.3098 27.6966 38.092 27.4333 37.7917 27.375L36.8709 27.1989C36.4388 27.1157 36.0995 26.8335 35.9388 26.4233C35.7774 26.0138 35.8346 25.5755 36.0947 25.2211L36.673 24.4323C36.8594 24.1787 36.8326 23.8265 36.6089 23.6042L35.3595 22.3555C35.1435 22.1392 34.8038 22.108 34.5513 22.2784L33.7749 22.8036C33.4105 23.0511 32.9703 23.0916 32.5659 22.9154C32.163 22.7401 31.8934 22.3889 31.8265 21.9532L31.6781 20.9875C31.6312 20.6767 31.3629 20.4462 31.0482 20.4462H29.2814L29.2819 20.447ZM30.019 25.55C31.7774 25.55 33.2076 26.9808 33.2076 28.7386C33.2076 30.497 31.7774 31.9278 30.019 31.9278C28.2606 31.9278 26.8298 30.497 26.8298 28.7386C26.8298 26.9805 28.2606 25.55 30.019 25.55ZM30.019 26.8252C28.9638 26.8252 28.1052 27.6837 28.1052 28.7387C28.1052 29.7939 28.9638 30.6517 30.019 30.6517C31.0736 30.6517 31.932 29.7936 31.932 28.7387C31.932 27.6841 31.0737 26.8252 30.019 26.8252Z" fill="white"/>
</svg>
