<svg width="31" height="35" viewBox="0 0 31 35" fill="none" xmlns="http://www.w3.org/2000/svg">
<path d="M10.0565 10.9464L13.5378 7.46507V22.8258C13.5378 24.046 14.5069 25.0151 15.7271 25.0151C16.9473 25.0151 17.9164 24.046 17.9164 22.8258V7.42918L21.3976 10.9105C21.8282 11.3411 22.3667 11.5563 22.9408 11.5563C23.5151 11.5563 24.0533 11.3411 24.4839 10.9105C25.3453 10.0491 25.3453 8.68538 24.4839 7.82397L17.2701 0.64606C16.4087 -0.215353 15.045 -0.215353 14.1836 0.64606L6.96979 7.85986C6.10838 8.72127 6.10838 10.0849 6.96979 10.9464C7.8312 11.8076 9.19488 11.8076 10.0563 10.9464H10.0565Z" fill="#333333"/>
<path d="M28.7092 21.6416C27.489 21.6416 26.5199 22.6107 26.5199 23.8308V29.7525H4.87852V23.8308C4.87852 22.6107 3.90944 21.6416 2.68926 21.6416C1.46908 21.6416 0.5 22.6107 0.5 23.8308V31.9419C0.5 33.162 1.46908 34.1311 2.68926 34.1311H28.7092C29.9294 34.1311 30.8984 33.162 30.8984 31.9419V23.8308C30.8984 22.6107 29.9296 21.6416 28.7092 21.6416Z" fill="#4DAAA7"/>
</svg>
