<svg width="47" height="54" viewBox="0 0 47 54" fill="none" xmlns="http://www.w3.org/2000/svg">
<path d="M42.8002 14.607H19.7532C17.7979 14.607 16.2075 16.1974 16.2075 18.1526V50.0638C16.2075 52.0191 17.7979 53.6095 19.7532 53.6095H42.8002C44.7555 53.6095 46.3458 52.0191 46.3458 50.0638V18.1526C46.3458 16.1974 44.7555 14.607 42.8002 14.607ZM26.8446 42.9724H23.2989V39.4268H26.8446V42.9724ZM26.8446 35.8811H23.2989V32.3354H26.8446V35.8811ZM26.8446 28.7897H23.2989V25.244H26.8446V28.7897ZM40.1409 42.9724H28.6174V39.4268H40.1409V42.9724ZM40.1409 35.8811H28.6174V32.3354H40.1409V35.8811ZM40.1409 28.7897H28.6174V25.244H40.1409V28.7897Z" fill="#4DAAA7"/>
<path d="M28.6155 12.8342H30.3883V3.97C30.3883 2.01471 28.7979 0.424316 26.8426 0.424316H3.79569C1.84039 0.424316 0.25 2.01471 0.25 3.97V35.8812C0.25 37.8365 1.84039 39.4269 3.79569 39.4269H14.4327V18.1527C14.4327 15.2197 16.8182 12.8342 19.7513 12.8342H28.6155Z" fill="#333333"/>
</svg>
