<svg width="49" height="43" viewBox="0 0 49 43" fill="none" xmlns="http://www.w3.org/2000/svg">
<path fill-rule="evenodd" clip-rule="evenodd" d="M36.7495 9.71227H6.8425C6.04959 9.71256 5.28935 10.0277 4.72859 10.5885C4.16784 11.1489 3.85269 11.9095 3.85239 12.7024V36.628L11.7658 29.5879C12.0102 29.3443 12.3312 29.1927 12.6747 29.1588C13.0181 29.1249 13.3628 29.2108 13.6499 29.4021L21.6051 34.7042L32.7006 23.6094C32.9226 23.3875 33.2085 23.2408 33.5184 23.1903C33.828 23.1401 34.1458 23.1883 34.4267 23.3285L39.7369 29.1495V12.7021C39.7369 11.9089 39.4218 11.1481 38.8607 10.587C38.2997 10.0263 37.5388 9.71113 36.7456 9.71113L36.7495 9.71227ZM6.8425 6.72127C5.256 6.72068 3.73411 7.35037 2.612 8.47217C1.48959 9.59398 0.859375 11.1156 0.859375 12.7024V36.628C0.859375 38.2145 1.48935 39.7358 2.61118 40.8576C3.73299 41.9791 5.25436 42.6094 6.84048 42.6094H36.7497C38.3359 42.6088 39.8567 41.9785 40.9779 40.8568C42.0991 39.7352 42.7291 38.2142 42.7291 36.628V12.7024C42.7291 11.1165 42.0991 9.5954 40.9779 8.47359C39.8567 7.35208 38.3359 6.72149 36.7497 6.72119L6.8425 6.72127ZM18.8053 20.1794C18.8053 21.3693 18.3327 22.5104 17.4913 23.3518C16.6502 24.1929 15.5091 24.6655 14.3192 24.6655C13.1294 24.6655 11.9883 24.1929 11.1469 23.3518C10.3057 22.5104 9.8329 21.3693 9.8329 20.1794C9.8329 18.9896 10.3057 17.8485 11.1469 17.007C11.9883 16.1659 13.1294 15.6931 14.3192 15.6931C15.5091 15.6931 16.6502 16.1659 17.4913 17.007C18.3328 17.8485 18.8053 18.9896 18.8053 20.1794Z" fill="#4DAAA7"/>
<path fill-rule="evenodd" clip-rule="evenodd" d="M12.8261 3.73109H42.7331C43.5263 3.73109 44.2872 4.04651 44.8482 4.60729C45.409 5.16833 45.7241 5.92918 45.7241 6.72238V30.6472C45.7241 31.4405 45.409 32.2013 44.8482 32.7623C44.2872 33.3231 43.5263 33.6382 42.7331 33.6382V36.6295C44.3196 36.6295 45.8409 35.9993 46.9627 34.8771C48.0845 33.7553 48.7145 32.2337 48.7142 30.6472V6.72164C48.7142 5.13514 48.0843 3.61385 46.9624 2.49204C45.8406 1.37052 44.3193 0.740234 42.7331 0.740234H12.8261C11.2396 0.740234 9.71834 1.3705 8.59683 2.49204C7.47502 3.61385 6.84473 5.13522 6.84473 6.72164H9.83603C9.83632 5.92843 10.1515 5.16819 10.7119 4.60743C11.2727 4.04668 12.0332 3.73153 12.8261 3.73123V3.73109Z" fill="#333333"/>
</svg>
