<svg width="27" height="25" viewBox="0 0 27 25" fill="none" xmlns="http://www.w3.org/2000/svg">
<path d="M9.57919 24.8692C9.11565 24.8692 8.68121 24.6954 8.3625 24.3767L0.772693 16.5552C0.0484747 15.8889 0.019558 14.7591 0.714699 14.0349C1.38093 13.3107 2.51071 13.2818 3.23493 13.9769L8.79693 17.9456C9.11559 18.2354 9.60805 18.1774 9.86872 17.8298L23.0495 1.54938C23.6288 0.767173 24.7586 0.593412 25.5408 1.20182C26.323 1.78114 26.4968 2.91092 25.8884 3.69313L10.9984 24.1451C10.6798 24.5506 10.2162 24.8113 9.72376 24.8404C9.66597 24.8693 9.63687 24.8693 9.57908 24.8693L9.57919 24.8692Z" fill="#969698"/>
</svg>
