<svg width="41" height="40" viewBox="0 0 41 40" fill="none" xmlns="http://www.w3.org/2000/svg">
<path d="M20.521 0.388672C9.73525 0.388672 0.921875 9.16808 0.921875 19.9561C0.921875 30.7418 9.70498 39.5235 20.521 39.5235C31.3068 39.5235 40.0884 30.7418 40.0884 19.9561C40.0884 9.1703 31.3068 0.388672 20.521 0.388672ZM20.521 4.93471C28.8071 4.93471 35.5425 11.6702 35.5425 19.9562C35.5425 28.2423 28.8071 34.9777 20.521 34.9777C12.235 34.9777 5.49951 28.2423 5.49951 19.9562C5.49951 11.6702 12.235 4.93471 20.521 4.93471ZM20.521 8.91568C19.2752 8.91568 18.2318 9.95933 18.2318 11.2049V17.475H11.9623C10.7164 17.475 9.67219 18.5178 9.67219 19.7642C9.67219 21.0106 10.7164 22.0534 11.9623 22.0534H18.2318V28.323C18.2318 29.5688 19.2755 30.6122 20.521 30.6122C21.7669 30.6122 22.8102 29.5685 22.8102 28.323V22.0534H29.0798C30.3256 22.0534 31.3699 21.0106 31.3699 19.7642C31.3699 18.5178 30.2979 17.5074 29.0798 17.5074H22.8102V11.2049C22.8102 9.95903 21.7666 8.91568 20.521 8.91568Z" fill="#4DAAA7"/>
</svg>
