<svg width="13" height="12" viewBox="0 0 13 12" fill="none" xmlns="http://www.w3.org/2000/svg">
<path d="M3.04156 6.64675V10.7069C3.04156 10.7997 3.11677 10.8749 3.20955 10.8749H4.04169C4.88609 10.8749 5.72598 10.9972 6.53531 11.238L6.54505 11.2408C7.7368 11.5941 9.60286 11.4828 10.7645 11.1917C11.1714 11.0897 11.5117 10.8738 11.5117 10.5184V10.3726C11.5137 10.204 11.4486 10.0415 11.3309 9.92087C11.213 9.80021 11.0521 9.73123 10.8836 9.72924H11.4183C11.587 9.72717 11.7478 9.65819 11.8656 9.53753C11.9834 9.41688 12.0484 9.25437 12.0464 9.08585V8.93995C12.0484 8.77141 11.9834 8.60892 11.8656 8.48827C11.7478 8.36762 11.587 8.29864 11.4183 8.29665H11.8559C12.0245 8.29458 12.1854 8.22559 12.3031 8.10494C12.4209 7.98428 12.4859 7.82178 12.4839 7.65326V7.50736C12.4839 7.15206 12.236 6.90958 11.8559 6.86396L11.4101 6.81049C11.5738 6.82086 11.7346 6.7636 11.8549 6.65205C11.9751 6.5406 12.0443 6.38459 12.0464 6.22057V6.07476C12.0441 5.90523 11.9799 5.7423 11.8661 5.61667C11.7523 5.49096 11.5967 5.41098 11.4282 5.39186C10.7912 5.30935 10.2989 5.42045 9.84983 5.43442C8.48053 5.47726 8.51839 5.275 8.50505 5.16535C8.48891 5.03162 8.5495 4.87192 8.76357 4.58364C9.1782 3.92969 9.43176 3.72897 9.50092 2.86121H9.50101C9.53618 2.3445 9.42491 1.82826 9.18009 1.37178C9.06025 1.13327 8.83066 0.96888 8.56627 0.93236C8.33912 0.909005 8.06445 0.995753 8.01115 1.2504C8.05804 1.51705 8.06597 1.78911 8.03459 2.05809C7.77489 2.60266 7.37993 3.07147 6.88739 3.41991C5.87014 4.10019 5.23177 4.28522 4.45149 5.1711H4.45158C4.21955 5.43359 4.0264 5.72802 3.87796 6.04534C3.81944 6.17384 3.72548 6.28295 3.60709 6.35978C3.4886 6.43661 3.35064 6.478 3.2095 6.4789C3.11671 6.4789 3.0415 6.55411 3.0415 6.6469L3.04156 6.64675Z" fill="white"/>
<path d="M1.68692 11.7434C1.91047 11.7434 2.12491 11.6546 2.28306 11.4965C2.44114 11.3384 2.52996 11.1239 2.52996 10.9003V6.45303C2.52996 6.15184 2.36926 5.87349 2.10838 5.72288C1.84759 5.57229 1.52621 5.57229 1.26532 5.72288C1.00444 5.87347 0.84375 6.15184 0.84375 6.45303V10.9003C0.84375 11.124 0.932573 11.3384 1.09064 11.4965C1.24881 11.6546 1.46325 11.7434 1.68688 11.7434H1.68692Z" fill="white"/>
</svg>
