<svg width="29" height="31" viewBox="0 0 29 31" fill="none" xmlns="http://www.w3.org/2000/svg">
<path d="M16.3199 9.93231C15.8755 9.4879 15.2723 9.26556 14.701 9.26556C14.1297 9.26556 13.5265 9.48788 13.0821 9.93231L6.00306 17.0113C5.11421 17.9002 5.11421 19.3605 6.00306 20.281C6.89191 21.1699 8.35221 21.1699 9.27275 20.281L12.3837 17.1701V28.6299C12.3837 29.8995 13.4312 30.9472 14.7009 30.9472C15.9706 30.9472 17.0182 29.8996 17.0182 28.6299L17.0185 17.1384L20.1294 20.2493C21.0182 21.1381 22.4785 21.1381 23.399 20.2493C24.2879 19.3604 24.2879 17.9001 23.399 16.9796L16.3199 9.93231Z" fill="white"/>
<path d="M3.30178 11.5833C4.57145 11.5833 5.61907 10.5357 5.61907 9.266V5.36125H23.8404V9.26577C23.8404 10.5354 24.888 11.5831 26.1577 11.5831C27.4274 11.5831 28.475 10.5355 28.475 9.26577V3.07559C28.475 1.80593 27.4274 0.758301 26.1577 0.758301H3.30167C2.032 0.758301 0.984375 1.80587 0.984375 3.07559V9.26577C0.984154 10.5357 2.00009 11.5833 3.30167 11.5833H3.30178Z" fill="white"/>
</svg>
