<svg width="41" height="41" viewBox="0 0 41 41" fill="none" xmlns="http://www.w3.org/2000/svg">
<path d="M11.4595 15.0373C11.4595 16.8353 12.9233 18.3408 14.763 18.3408C16.5611 18.3408 18.0665 16.877 18.0665 15.0373C18.0665 13.2392 16.6027 11.7338 14.763 11.7338C12.9232 11.7335 11.4595 13.1973 11.4595 15.0373Z" fill="#4DAAA7"/>
<path d="M30.2358 15.0371C30.2358 16.8615 28.7565 18.3407 26.9322 18.3407C25.1076 18.3407 23.6284 16.8614 23.6284 15.0371C23.6284 13.2125 25.1077 11.7333 26.9322 11.7333C28.7566 11.7333 30.2358 13.2126 30.2358 15.0371Z" fill="#4DAAA7"/>
<path d="M2.29942 16.3336H4.8921C5.64469 16.3336 6.23045 15.7064 6.23045 14.9952L6.23016 7.21694C6.23016 6.46435 6.81561 5.87859 7.56851 5.87859H15.3468C16.0994 5.87859 16.6851 5.25143 16.6851 4.54024L16.6848 1.90619C16.6848 1.1536 16.0577 0.567841 15.3465 0.567841H7.61003C3.93021 0.567841 0.960938 3.53712 0.960938 7.21694V14.9952C0.960938 15.7061 1.5881 16.3336 2.29928 16.3336H2.29942Z" fill="#333333"/>
<path d="M39.346 24.5298H36.7533C36.0007 24.5298 35.4149 25.1569 35.4149 25.8681V33.6464C35.4149 34.399 34.8295 34.9847 34.0766 34.9847L26.2983 34.9844C25.5457 34.9844 24.96 35.6116 24.96 36.3228V38.9155C24.96 39.668 25.5871 40.2538 26.2983 40.2538H34.0766C37.7147 40.2538 40.7257 37.2845 40.7257 33.6047V25.9101C40.684 25.1575 40.0568 24.5301 39.3457 24.5301L39.346 24.5298Z" fill="#333333"/>
<path d="M34.0421 0.567681H26.3056C25.553 0.567681 24.9673 1.19484 24.9673 1.90603V4.49871C24.9673 5.2513 25.5944 5.83706 26.3056 5.83706H34.0839C34.8365 5.83706 35.4223 6.42251 35.4223 7.17541V14.9537C35.4223 15.7063 36.0494 16.292 36.7606 16.292H39.3533C40.1059 16.292 40.6916 15.6649 40.6916 14.9537L40.6913 7.21648C40.6913 3.53666 37.7221 0.567383 34.0422 0.567383L34.0421 0.567681Z" fill="#333333"/>
<path d="M15.3465 34.9843H7.61004C6.85745 34.9843 6.27169 34.3988 6.27169 33.6459L6.27198 25.9095C6.27198 25.1569 5.64482 24.5711 4.93364 24.5711L2.29928 24.5714C1.5467 24.5714 0.960938 25.1986 0.960938 25.9098V33.688C0.960938 37.3262 3.93021 40.3371 7.61003 40.3371H15.3883C16.1409 40.3371 16.7267 39.71 16.7267 38.9988V36.4061C16.7267 35.6115 16.0992 34.9841 15.3466 34.9841L15.3465 34.9843Z" fill="#333333"/>
<path d="M26.9735 23.9024C26.0951 23.024 24.6317 23.024 23.7534 23.9024C22.2061 25.4496 19.446 25.4496 17.8989 23.9024C17.0205 23.024 15.5571 23.024 14.6788 23.9024C13.8004 24.7807 13.8004 26.2441 14.6788 27.1225C16.3097 28.7534 18.5261 29.6734 20.8261 29.6734C23.1679 29.6734 25.3425 28.7534 26.9735 27.1225C27.8935 26.2441 27.8935 24.7804 26.9735 23.9024Z" fill="#4DAAA7"/>
</svg>
