<svg width="35" height="44" viewBox="0 0 35 44" fill="none" xmlns="http://www.w3.org/2000/svg">
<path d="M26.0059 12.794C26.0059 12.2686 25.952 11.7594 25.8644 11.2606L29.2962 9.27979L26.2888 4.0708L22.8605 6.04916C22.0788 5.39373 21.1809 4.87637 20.2038 4.52243V0.557617H14.1888V4.52277C13.2118 4.8781 12.3125 5.39404 11.5308 6.0495L8.10315 4.0708L5.09583 9.27979L8.52848 11.2629C8.44226 11.7617 8.38837 12.2709 8.38837 12.7944C8.38837 13.3174 8.44226 13.8267 8.52848 14.3258L5.09583 16.3066L8.10315 21.5156L11.5315 19.5372C12.3132 20.1927 13.2121 20.711 14.1895 21.064V25.0291H20.2045V21.064C21.183 20.7086 22.0795 20.1927 22.8612 19.5349L26.2905 21.5157L29.2978 16.3067L25.8651 14.3236C25.952 13.8255 26.0059 13.3172 26.0059 12.7942L26.0059 12.794ZM17.1966 16.9236C14.9158 16.9236 13.0661 15.0762 13.0661 12.794C13.0661 10.5122 14.9158 8.66245 17.1966 8.66245C19.4764 8.66245 21.3272 10.5122 21.3272 12.7944C21.3272 15.0762 19.4764 16.9236 17.1966 16.9236Z" fill="white"/>
<path d="M20.117 12.792C20.117 14.406 18.8085 15.7145 17.1945 15.7145C15.5805 15.7145 14.272 14.406 14.272 12.792C14.272 11.1781 15.5805 9.86957 17.1945 9.86957C18.8085 9.86957 20.117 11.1781 20.117 12.792Z" fill="white"/>
<path d="M11.7089 39.4345L13.2322 33.4256C13.7681 31.0138 13.0874 29.7676 10.8214 26.997C8.41996 24.0598 6.68613 25.7751 8.67862 29.1388C10.0295 31.4196 8.812 31.9518 8.812 31.9518C5.86563 29.5399 4.27657 27.7822 3.07085 22.9614C2.12474 19.1734 0.0968909 19.0572 0.241743 22.5775C0.414186 26.7737 -0.31129 28.2085 1.73174 31.3971C3.9597 34.8769 5.81752 39.5009 5.81752 39.5009L11.7089 39.4345Z" fill="white"/>
<path d="M12.8751 42.4552V40.9009C12.8741 40.5193 12.5636 40.2088 12.183 40.2088H5.27043C4.88984 40.2088 4.57831 40.5203 4.57831 40.9009V42.4552C4.57831 42.8368 4.88985 43.1474 5.27043 43.1474H12.183C12.5636 43.146 12.8738 42.8368 12.8751 42.4552Z" fill="white"/>
<path d="M22.6813 39.4345L21.1579 33.4256C20.6221 31.0138 21.3028 29.7676 23.5698 26.997C25.9702 24.0598 27.7051 25.7751 25.7116 29.1388C24.3606 31.4196 25.5782 31.9518 25.5782 31.9518C28.5245 29.5399 30.1146 27.7822 31.3193 22.9614C32.2654 19.1734 34.2933 19.0572 34.1484 22.5775C33.976 26.7737 34.7015 28.2085 32.6574 31.3971C30.4294 34.8769 28.574 39.5009 28.574 39.5009L22.6813 39.4345Z" fill="white"/>
<path d="M21.5095 42.4552V40.9009C21.5095 40.5193 21.821 40.2088 22.2002 40.2088H29.1128C29.4934 40.2088 29.8059 40.5203 29.8049 40.9009V42.4552C29.8059 42.8368 29.4934 43.1474 29.1128 43.1474H22.2002C21.8197 43.146 21.5095 42.8368 21.5095 42.4552Z" fill="white"/>
</svg>
