<svg width="12" height="12" viewBox="0 0 12 12" fill="none" xmlns="http://www.w3.org/2000/svg">
<path d="M0.783421 1.19504C1.11965 0.858814 1.66461 0.858814 2.00065 1.19504L6.05818 5.25257L10.1157 1.19504C10.4519 0.858814 10.9969 0.858814 11.3329 1.19504C11.6692 1.53127 11.6692 2.07623 11.3329 2.41227L7.27541 6.4698L11.3329 10.5273C11.6692 10.8636 11.6692 11.4085 11.3329 11.7446C10.9967 12.0808 10.4518 12.0806 10.1157 11.7446L6.05818 7.68703L2.00065 11.7446C1.66443 12.0806 1.11947 12.0806 0.783421 11.7446C0.447193 11.4083 0.447193 10.8634 0.783421 10.5273L4.84095 6.4698L0.783421 2.41227C0.447193 2.07605 0.447193 1.53109 0.783421 1.19504Z" fill="#333333"/>
</svg>
