<svg width="87" height="88" viewBox="0 0 87 88" fill="none" xmlns="http://www.w3.org/2000/svg">
<g opacity="0.3" clip-path="url(#clip0_301_7796)">
<path d="M55.7855 9.44757C55.7855 14.2525 51.9351 18.1476 47.185 18.1476C42.4353 18.1476 38.585 14.2525 38.585 9.44757C38.585 4.64218 42.4353 0.74707 47.185 0.74707C51.9351 0.74707 55.7855 4.64218 55.7855 9.44757Z" fill="black"/>
<path d="M72.9865 20.6303C72.9865 24.7492 69.6862 28.0879 65.6151 28.0879C61.5435 28.0879 58.2432 24.7492 58.2432 20.6303C58.2432 16.5118 61.5435 13.1732 65.6151 13.1732C69.6862 13.1732 72.9865 16.5118 72.9865 20.6303Z" fill="black"/>
<path d="M75.4435 41.7601C75.4435 45.192 72.693 47.9744 69.3006 47.9744C65.9076 47.9744 63.1572 45.192 63.1572 41.7601C63.1572 38.3277 65.9076 35.5453 69.3006 35.5453C72.693 35.5453 75.4435 38.3277 75.4435 41.7601Z" fill="black"/>
<path d="M63.1567 60.4042C63.1567 63.1502 60.9568 65.3762 58.2424 65.3762C55.528 65.3762 53.3281 63.1502 53.3281 60.4042C53.3281 57.6587 55.528 55.4328 58.2424 55.4328C60.9568 55.4328 63.1567 57.6587 63.1567 60.4042Z" fill="black"/>
<path d="M41.0429 65.3756C41.0429 68.1211 38.8426 70.3471 36.1282 70.3471C33.4142 70.3471 31.2139 68.1211 31.2139 65.3756C31.2139 62.6297 33.4142 60.4037 36.1282 60.4037C38.8426 60.4037 41.0429 62.6297 41.0429 65.3756Z" fill="black"/>
<path d="M21.3841 51.7042C21.3841 53.7631 19.7342 55.4328 17.6984 55.4328C15.6627 55.4328 14.0127 53.7631 14.0127 51.7042C14.0127 49.6448 15.6627 47.9752 17.6984 47.9752C19.7342 47.9752 21.3841 49.6448 21.3841 51.7042Z" fill="black"/>
<path d="M16.47 30.5744C16.47 31.9474 15.37 33.0601 14.0128 33.0601C12.6556 33.0601 11.5557 31.9474 11.5557 30.5744C11.5557 29.2014 12.6556 28.0887 14.0128 28.0887C15.37 28.0887 16.47 29.2014 16.47 30.5744Z" fill="black"/>
<path d="M28.7571 13.1736C28.7571 14.5466 27.6571 15.6594 26.2999 15.6594C24.9427 15.6594 23.8428 14.5466 23.8428 13.1736C23.8428 11.8007 24.9427 10.6879 26.2999 10.6879C27.6571 10.6879 28.7571 11.8007 28.7571 13.1736Z" fill="black"/>
</g>
<defs>
<clipPath id="clip0_301_7796">
<rect width="86" height="87" fill="white" transform="translate(0.5 0.74707)"/>
</clipPath>
</defs>
</svg>
