<svg width="35" height="44" viewBox="0 0 35 44" fill="none" xmlns="http://www.w3.org/2000/svg">
<path d="M26.5058 12.794C26.5058 12.2686 26.4519 11.7594 26.3643 11.2606L29.796 9.27979L26.7887 4.0708L23.3604 6.04916C22.5786 5.39373 21.6808 4.87637 20.7037 4.52243V0.557617H14.6887V4.52277C13.7117 4.8781 12.8124 5.39404 12.0307 6.0495L8.60303 4.0708L5.5957 9.27979L9.02836 11.2629C8.94213 11.7617 8.88825 12.2709 8.88825 12.7944C8.88825 13.3174 8.94213 13.8267 9.02836 14.3258L5.5957 16.3066L8.60303 21.5156L12.0314 19.5372C12.8131 20.1927 13.712 20.711 14.6894 21.064V25.0291H20.7044V21.064C21.6828 20.7086 22.5794 20.1927 23.3611 19.5349L26.7903 21.5157L29.7977 16.3067L26.365 14.3236C26.4519 13.8255 26.5058 13.3172 26.5058 12.7942L26.5058 12.794ZM17.6965 16.9236C15.4157 16.9236 13.566 15.0762 13.566 12.794C13.566 10.5122 15.4157 8.66245 17.6965 8.66245C19.9763 8.66245 21.8271 10.5122 21.8271 12.7944C21.8271 15.0762 19.9763 16.9236 17.6965 16.9236Z" fill="#969698"/>
<path d="M20.6169 12.792C20.6169 14.406 19.3084 15.7145 17.6945 15.7145C16.0805 15.7145 14.772 14.406 14.772 12.792C14.772 11.1781 16.0805 9.86957 17.6945 9.86957C19.3084 9.86957 20.6169 11.1781 20.6169 12.792Z" fill="#969698"/>
<path d="M12.2089 39.4345L13.7322 33.4256C14.2681 31.0138 13.5874 29.7676 11.3214 26.997C8.91996 24.0598 7.18613 25.7751 9.17862 29.1388C10.5295 31.4196 9.312 31.9518 9.312 31.9518C6.36563 29.5399 4.77657 27.7822 3.57085 22.9614C2.62474 19.1734 0.596891 19.0572 0.741743 22.5775C0.914186 26.7737 0.18871 28.2085 2.23174 31.3971C4.4597 34.8769 6.31752 39.5009 6.31752 39.5009L12.2089 39.4345Z" fill="#969698"/>
<path d="M13.3749 42.4552V40.9009C13.3739 40.5193 13.0634 40.2088 12.6828 40.2088H5.77025C5.38966 40.2088 5.07812 40.5203 5.07812 40.9009V42.4552C5.07812 42.8368 5.38967 43.1474 5.77025 43.1474H12.6828C13.0634 43.146 13.3736 42.8368 13.3749 42.4552Z" fill="#969698"/>
<path d="M23.1815 39.4345L21.6581 33.4256C21.1223 31.0138 21.8029 29.7676 24.07 26.997C26.4704 24.0598 28.2053 25.7751 26.2117 29.1388C24.8608 31.4196 26.0784 31.9518 26.0784 31.9518C29.0247 29.5399 30.6147 27.7822 31.8195 22.9614C32.7656 19.1734 34.7935 19.0572 34.6486 22.5775C34.4762 26.7737 35.2017 28.2085 33.1576 31.3971C30.9296 34.8769 29.0742 39.5009 29.0742 39.5009L23.1815 39.4345Z" fill="#969698"/>
<path d="M22.0093 42.4552V40.9009C22.0093 40.5193 22.3208 40.2088 22.7001 40.2088H29.6126C29.9932 40.2088 30.3058 40.5203 30.3047 40.9009V42.4552C30.3058 42.8368 29.9932 43.1474 29.6126 43.1474H22.7001C22.3195 43.146 22.0093 42.8368 22.0093 42.4552Z" fill="#969698"/>
</svg>
