<svg width="32" height="56" viewBox="0 0 32 56" fill="none" xmlns="http://www.w3.org/2000/svg">
<path fill-rule="evenodd" clip-rule="evenodd" d="M24.6592 9.03157V30.0499C24.6592 41.105 8.0083 41.105 8.0083 30.0499V9.03157C8.0083 -2.02354 24.6592 -2.02354 24.6592 9.03157Z" fill="#4DAAA7"/>
<path d="M9.92183 55.2995C8.14766 55.2995 8.14766 52.5699 9.92183 52.5699H14.9718V45.4727C7.05589 44.7902 0.914062 38.1024 0.914062 30.0501V18.3126C0.914062 16.5384 3.64372 16.5384 3.64372 18.3126V30.0501C3.64372 37.1473 9.3761 42.8795 16.3366 42.8795C23.4338 42.8795 29.166 37.1471 29.166 30.0501V18.3126C29.166 16.5384 31.8957 16.5384 31.8957 18.3126V30.0501C31.8957 38.1028 25.6177 44.7902 17.7015 45.4727V52.5699H22.8877C24.6619 52.5699 24.6619 55.2995 22.8877 55.2995H9.92183Z" fill="#333333"/>
</svg>
