<svg width="17" height="17" viewBox="0 0 17 17" fill="none" xmlns="http://www.w3.org/2000/svg">
<path d="M15.3692 14.213L11.7856 10.6295C13.5873 8.2872 13.4072 4.90388 11.2451 2.76177C10.0639 1.58064 8.54235 1 7.0009 1C5.45935 1 3.93789 1.5805 2.75673 2.76177C0.414424 5.10407 0.414424 8.90781 2.75673 11.2501C3.93785 12.4312 5.45946 13.0119 7.0009 13.0119C8.28216 13.0119 9.56342 12.6115 10.6245 11.7907L14.228 15.354C14.3882 15.5142 14.5883 15.5942 14.8085 15.5942C15.0088 15.5942 15.229 15.5142 15.389 15.354C15.6894 15.0538 15.6894 14.5332 15.369 14.213L15.3692 14.213ZM7.02096 11.3902C5.83983 11.3902 4.7587 10.9298 3.91787 10.109C2.21612 8.40721 2.21612 5.62455 3.91787 3.90285C4.73871 3.08201 5.83983 2.62159 7.02096 2.62159C8.20208 2.62159 9.28322 3.08201 10.124 3.90285C10.9649 4.7237 11.4053 5.82482 11.4053 7.00594C11.4053 8.18707 10.9449 9.2682 10.124 10.109C9.3032 10.9499 8.18213 11.3903 7.02096 11.3903V11.3902Z" fill="#4DAAA7" stroke="#4DAAA7"/>
</svg>
