<svg width="31" height="51" viewBox="0 0 31 51" fill="none" xmlns="http://www.w3.org/2000/svg">
<path d="M6.72499 16.8704C6.7234 17.4191 6.89451 17.9542 7.2141 18.4001L7.48962 18.8003C7.8485 19.3088 8.01802 19.9266 7.9692 20.5467C7.92076 21.1673 7.65676 21.7513 7.22283 22.1975L6.97391 22.4464C6.81431 22.6143 6.72499 22.837 6.72499 23.0689V24.2607V24.2603C7.10849 24.0606 7.50669 23.8911 7.91684 23.7537C7.91684 23.745 7.91684 23.745 7.92557 23.745H7.94344V23.7446C8.97918 23.3742 10.0714 23.1845 11.1715 23.1845C11.4073 23.1845 11.6336 23.0908 11.8003 22.924C11.9671 22.7573 12.0608 22.531 12.0608 22.2952V21.4059C10.9853 20.806 10.0889 19.9302 9.46356 18.869C8.83828 17.8079 8.50717 16.5994 8.50361 15.3675V8.95587C8.50361 8.46478 8.9018 8.06658 9.39289 8.06658H12.7364C13.2477 8.06619 13.7484 7.91771 14.1772 7.63981L16.0625 6.43058V6.43019C16.3611 6.23764 16.7458 6.24121 17.0408 6.43932L18.7836 7.61328C19.2238 7.90626 19.7399 8.06427 20.2687 8.06665H21.8428C22.0786 8.06665 22.3049 8.16034 22.4717 8.32708C22.6384 8.49382 22.7321 8.72012 22.7321 8.95594V15.1722C22.7309 17.7138 21.3755 20.0625 19.1749 21.3349V22.2952C19.171 22.5271 19.2647 22.7494 19.433 22.909C19.5946 23.0865 19.824 23.1865 20.0642 23.1845C21.1576 23.1881 22.2426 23.3747 23.2744 23.736C23.2831 23.7447 23.301 23.736 23.3101 23.7447C23.3169 23.7459 23.3232 23.7487 23.328 23.7538C23.7305 23.9027 24.1252 24.0718 24.5107 24.2604V24.2247V24.2251C24.5083 23.7705 24.3261 23.3358 24.0037 23.0155C23.3344 22.3608 22.9564 21.4639 22.9545 20.5275C22.9529 19.591 23.3276 18.6929 23.995 18.0354C24.3233 17.7151 24.5091 17.276 24.5107 16.8175V5.39905C24.5087 4.69199 24.2268 4.01471 23.727 3.51488C23.2272 3.01505 22.5499 2.73318 21.8428 2.7312H20.0643C19.5732 2.7312 19.175 3.1294 19.175 3.62049C19.175 4.11157 18.7768 4.50977 18.2857 4.50977C17.7946 4.50977 17.3964 4.11157 17.3964 3.62049C17.3944 2.91343 17.1125 2.23615 16.6127 1.73632C16.1129 1.23649 15.4356 0.954619 14.7286 0.952637H11.1714C9.99226 0.952637 8.8613 1.4211 8.0271 2.25476C7.19339 3.08885 6.72498 4.21992 6.72498 5.39907L6.72499 16.8704Z" fill="white"/>
<path d="M30.1862 34.1762C30.0222 33.9714 29.7729 33.8535 29.5105 33.8562H1.72919C1.46677 33.8535 1.21745 33.9714 1.05349 34.1762C0.882782 34.3747 0.810928 34.6395 0.857771 34.8968L3.02783 47.1954H28.2124L30.3825 34.8968C30.4293 34.6395 30.3575 34.3747 30.1868 34.1762H30.1862ZM15.6202 44.5275C14.3494 44.5275 13.175 43.8494 12.5395 42.749C11.9043 41.6485 11.9043 40.2923 12.5395 39.1918C13.1751 38.0913 14.3495 37.4132 15.6202 37.4132C16.1113 37.4132 16.5095 37.8114 16.5095 38.3025C16.5095 38.7936 16.1113 39.1918 15.6202 39.1918C15.1485 39.1918 14.696 39.3792 14.3625 39.7127C14.029 40.0461 13.8416 40.4987 13.8416 40.9704C13.8416 41.442 14.029 41.8946 14.3625 42.2281C14.696 42.5616 15.1485 42.749 15.6202 42.749C16.0918 42.749 16.5444 42.5616 16.8779 42.2281C17.2114 41.8946 17.3988 41.442 17.3988 40.9704C17.3988 40.4793 17.797 40.0811 18.288 40.0811C18.7791 40.0811 19.1773 40.4793 19.1773 40.9704C19.1773 41.9137 18.8026 42.8185 18.1356 43.4858C17.4682 44.1528 16.5634 44.5275 15.6202 44.5275Z" fill="white"/>
<path d="M2.2832 49.8635C2.2832 50.0993 2.3769 50.3256 2.54364 50.4924C2.71038 50.6591 2.93667 50.7528 3.17249 50.7528H28.0725C28.3083 50.7528 28.5346 50.6591 28.7014 50.4924C28.8681 50.3256 28.9618 50.0993 28.9618 49.8635V48.9742H2.2832V49.8635Z" fill="white"/>
<path d="M9.56506 25.1231C10.8538 27.2332 13.1484 28.5202 15.6209 28.5202C18.0935 28.5202 20.3881 27.2332 21.6768 25.1231C21.1472 25.0159 20.6081 24.9623 20.0674 24.9631C19.3599 24.9631 18.681 24.682 18.1809 24.1818C17.6807 23.6815 17.3996 23.0026 17.3996 22.2953V22.0642C16.8184 22.2135 16.2212 22.2913 15.621 22.2953H15.4697C14.9215 22.2937 14.3752 22.2282 13.8424 22.0995V22.2953C13.8404 23.0023 13.5585 23.6796 13.0587 24.1794C12.5589 24.6793 11.8816 24.9611 11.1745 24.9631C10.6338 24.9627 10.0947 25.0163 9.56509 25.1231L9.56506 25.1231Z" fill="white"/>
<path d="M15.6204 20.5171C17.0362 20.514 18.3927 19.9498 19.3931 18.9478C20.3932 17.9458 20.9553 16.5884 20.9561 15.1727V9.84571H20.2713C19.3876 9.8469 18.5233 9.58369 17.7905 9.08982L16.5367 8.245L15.1405 9.13428H15.1401C14.4271 9.60235 13.5922 9.84968 12.739 9.84571H10.2848V15.368C10.2907 16.738 10.8398 18.0498 11.812 19.0153C12.7839 19.9804 14.0992 20.5207 15.4692 20.5171H15.6204ZM17.399 12.5136C17.399 12.0225 17.7972 11.6243 18.2883 11.6243C18.7794 11.6243 19.1776 12.0225 19.1776 12.5136V13.4029C19.1776 13.8939 18.7794 14.2921 18.2883 14.2921C17.7972 14.2921 17.399 13.8939 17.399 13.4029V12.5136ZM12.0633 12.5136C12.0633 12.0225 12.4615 11.6243 12.9526 11.6243C13.4437 11.6243 13.8419 12.0225 13.8419 12.5136V13.4029C13.8419 13.8939 13.4437 14.2921 12.9526 14.2921C12.4615 14.2921 12.0633 13.8939 12.0633 13.4029V12.5136ZM12.3249 16.3323C12.6719 15.9857 13.234 15.9857 13.5814 16.3323C14.1221 16.8714 14.8545 17.1748 15.6188 17.1748C16.3827 17.1748 17.1152 16.8714 17.6558 16.3323C18.0044 15.9945 18.559 15.9984 18.9029 16.3411C19.2463 16.6837 19.2518 17.2383 18.9152 17.5877C18.0406 18.4607 16.8555 18.951 15.6196 18.951C14.3838 18.951 13.1983 18.4607 12.3237 17.5877C11.9779 17.2407 11.9783 16.6789 12.3249 16.3323L12.3249 16.3323Z" fill="white"/>
<path d="M3.2238 32.0779H7.13665C7.32245 31.5741 7.57693 31.0981 7.89255 30.6638C8.0319 30.4728 8.24112 30.345 8.47456 30.3085C8.708 30.2715 8.94659 30.3291 9.13755 30.4685C9.53535 30.7579 9.62308 31.3157 9.33327 31.7135C9.25387 31.8298 9.18241 31.9517 9.12008 32.0779H22.1209C22.0586 31.9517 21.9871 31.8298 21.9077 31.7135C21.6179 31.3157 21.7057 30.7579 22.1035 30.4685C22.5013 30.1786 23.0586 30.266 23.3485 30.6638C23.6641 31.0981 23.9186 31.5741 24.1044 32.0779H28.0172C27.7 29.2842 25.9417 26.8609 23.3838 25.6929C22.3643 27.5608 20.7056 28.9983 18.7118 29.742C16.7181 30.4856 14.5226 30.4856 12.5289 29.742C10.5352 28.9984 8.87642 27.5608 7.85695 25.6929C5.29509 26.8561 3.53481 29.2818 3.22351 32.0779H3.2238Z" fill="white"/>
</svg>
