<svg width="28" height="28" viewBox="0 0 28 28" fill="none" xmlns="http://www.w3.org/2000/svg">
<path d="M14 28C21.732 28 28 21.732 28 14C28 6.26801 21.732 0 14 0C6.26801 0 0 6.26801 0 14C0 21.732 6.26801 28 14 28Z" fill="#FFDD67"/>
<path d="M13.9999 22.4104C12.3158 22.4106 10.6736 21.8856 9.30186 20.9086C7.93016 19.9315 6.89731 18.551 6.34714 16.9592C6.30052 16.839 6.27861 16.7106 6.28271 16.5817C6.28682 16.4527 6.31686 16.326 6.37104 16.2089C6.42522 16.0919 6.50243 15.987 6.59806 15.9004C6.69368 15.8139 6.80577 15.7475 6.92762 15.7052C7.04948 15.663 7.1786 15.6457 7.30727 15.6544C7.43595 15.6632 7.56155 15.6977 7.67657 15.7561C7.79159 15.8145 7.89367 15.8954 7.97672 15.9941C8.05977 16.0927 8.12208 16.2071 8.15994 16.3304C8.57759 17.5473 9.36493 18.6033 10.412 19.3509C11.459 20.0986 12.7134 20.5004 13.9999 20.5004C15.2865 20.5004 16.5409 20.0986 17.5879 19.3509C18.6349 18.6033 19.4223 17.5473 19.8399 16.3304C19.8778 16.2071 19.9401 16.0927 20.0232 15.9941C20.1062 15.8954 20.2083 15.8145 20.3233 15.7561C20.4383 15.6977 20.5639 15.6632 20.6926 15.6544C20.8213 15.6457 20.9504 15.663 21.0723 15.7052C21.1941 15.7475 21.3062 15.8139 21.4018 15.9004C21.4974 15.987 21.5747 16.0919 21.6288 16.2089C21.683 16.326 21.7131 16.4527 21.7172 16.5817C21.7213 16.7106 21.6994 16.839 21.6527 16.9592C21.1026 18.551 20.0697 19.9315 18.698 20.9086C17.3263 21.8856 15.6841 22.4106 13.9999 22.4104Z" fill="#B26D3C"/>
<path d="M18.6349 12.4271C19.6511 12.4271 20.4749 11.6033 20.4749 10.5871C20.4749 9.57093 19.6511 8.74713 18.6349 8.74713C17.6187 8.74713 16.7949 9.57093 16.7949 10.5871C16.7949 11.6033 17.6187 12.4271 18.6349 12.4271Z" fill="#B26D3C"/>
<path d="M9.36441 12.4271C10.3806 12.4271 11.2044 11.6033 11.2044 10.5871C11.2044 9.57093 10.3806 8.74713 9.36441 8.74713C8.34821 8.74713 7.52441 9.57093 7.52441 10.5871C7.52441 11.6033 8.34821 12.4271 9.36441 12.4271Z" fill="#B26D3C"/>
</svg>
