<svg width="18" height="18" viewBox="0 0 18 18" fill="none" xmlns="http://www.w3.org/2000/svg">
<path d="M2.97648 10.8942C2.88024 11.0862 2.91773 11.3182 3.06936 11.47L3.19115 11.5918C3.54305 11.1748 3.95319 10.7222 4.45063 10.2249C4.48578 10.1897 4.52197 10.1728 4.55725 10.1403L3.77368 9.35663C3.31814 10.1805 3.05249 10.7435 2.97648 10.8942Z" fill="white"/>
<path d="M7.27623 13.0436C6.77763 13.5422 6.32624 13.9532 5.91156 14.3053L6.07655 14.4703C6.22961 14.6234 6.46386 14.6602 6.65648 14.5611C6.91447 14.4281 7.3202 14.2372 8.18147 13.7576L7.36093 12.937C7.3285 12.9724 7.31151 13.0085 7.27623 13.0436Z" fill="white"/>
<path d="M7.00476 10.491C6.64482 10.1311 5.63257 10.4538 5.15706 10.9292C3.56631 12.5199 2.84785 13.6478 2.52527 14.3137C2.43278 14.5045 2.47131 14.7329 2.62125 14.8829C2.77145 15.0332 3.00026 15.0713 3.19119 14.9788C3.8422 14.6627 4.95627 13.9477 6.56596 12.3381C7.08881 11.815 7.34681 10.8332 7.00515 10.4914L7.00476 10.491Z" fill="white"/>
<path d="M2.05466 6.63201L0.645896 8.04078C0.486614 8.20006 0.453927 8.44664 0.566774 8.64198C0.676897 8.83473 0.907519 8.93292 1.12699 8.87416C1.88838 8.67 2.55832 8.58374 3.00945 8.69944C3.65125 7.55839 4.34091 6.50801 5.07131 5.55387C4.64884 5.28304 3.25279 5.43389 2.05466 6.63201Z" fill="white"/>
<path d="M8.92468 16.9485C9.11652 17.0455 9.34882 17.008 9.50071 16.856L10.9096 15.4472C12.0003 14.3562 12.1923 12.9486 11.9448 12.5023C10.8807 13.3043 9.80268 13.9815 8.79691 14.5485C8.86631 14.9403 8.82013 15.3205 8.65605 16.4308C8.62401 16.6457 8.73504 16.8537 8.92468 16.9485Z" fill="white"/>
<path d="M10.3906 4.99729C9.80804 5.57994 9.80804 6.52773 10.3906 7.11038C10.9732 7.69303 11.9211 7.69303 12.5038 7.11038C13.0864 6.52773 13.0864 5.57994 12.5038 4.99729C11.9211 4.41464 10.9732 4.41464 10.3906 4.99729Z" fill="white"/>
<path d="M17.469 0.486335C17.4511 0.240018 17.255 0.0453244 17.0094 0.0269058C15.7861 -0.0651876 14.5677 0.0852748 13.3733 0.450535C13.4632 1.27107 13.8876 2.15906 14.6121 2.88362C15.3454 3.61673 16.2575 4.04101 17.0927 4.12039C17.4144 2.99309 17.5669 1.78576 17.469 0.486335Z" fill="white"/>
<path d="M13.9154 3.58812C13.0866 2.75928 12.5805 1.76519 12.4181 0.797302C9.4271 2.02396 6.5639 4.70271 4.30139 8.46583L5.42545 9.58988C6.19346 9.27806 7.1258 9.1957 7.71715 9.78691C8.30927 10.3792 8.22535 11.3111 7.91366 12.0781L9.07468 13.2391C11.97 11.4941 15.3409 8.74496 16.7743 5.0873C15.7828 4.93748 14.7577 4.43045 13.9154 3.58812ZM13.2108 7.81443C12.24 8.7853 10.66 8.7853 9.68898 7.81443C8.71798 6.84343 8.71798 5.26331 9.68898 4.29244C10.66 3.32157 12.24 3.32157 13.2108 4.29244C14.1818 5.26344 14.1818 6.84343 13.2108 7.81443Z" fill="white"/>
</svg>
