<svg width="18" height="18" viewBox="0 0 18 18" fill="none" xmlns="http://www.w3.org/2000/svg">
<path d="M2.97648 10.8942C2.88024 11.0862 2.91773 11.3182 3.06936 11.47L3.19115 11.5918C3.54305 11.1748 3.95319 10.7222 4.45063 10.2249C4.48578 10.1897 4.52197 10.1728 4.55725 10.1403L3.77368 9.35663C3.31814 10.1805 3.05249 10.7435 2.97648 10.8942Z" fill="white"/>
<path d="M7.27629 13.0436C6.77769 13.5422 6.3263 13.9532 5.91162 14.3053L6.07661 14.4703C6.22967 14.6234 6.46392 14.6602 6.65654 14.5611C6.91453 14.4281 7.32026 14.2372 8.18153 13.7576L7.36099 12.937C7.32856 12.9724 7.31157 13.0085 7.27629 13.0436Z" fill="white"/>
<path d="M7.0047 10.491C6.64476 10.1311 5.63251 10.4538 5.157 10.9292C3.56625 12.5199 2.84779 13.6478 2.5252 14.3137C2.43272 14.5045 2.47125 14.7329 2.62119 14.8829C2.77139 15.0332 3.0002 15.0713 3.19113 14.9788C3.84214 14.6627 4.95621 13.9477 6.5659 12.3381C7.08875 11.815 7.34674 10.8332 7.00509 10.4914L7.0047 10.491Z" fill="white"/>
<path d="M2.05466 6.63201L0.645896 8.04078C0.486614 8.20006 0.453927 8.44664 0.566774 8.64198C0.676897 8.83473 0.907519 8.93292 1.12699 8.87416C1.88838 8.67 2.55832 8.58374 3.00945 8.69944C3.65125 7.55839 4.34091 6.50801 5.07131 5.55387C4.64884 5.28304 3.25279 5.43389 2.05466 6.63201Z" fill="white"/>
<path d="M8.92474 16.9485C9.11658 17.0455 9.34888 17.008 9.50077 16.856L10.9097 15.4472C12.0004 14.3562 12.1924 12.9486 11.9449 12.5023C10.8807 13.3043 9.80274 13.9815 8.79697 14.5485C8.86637 14.9403 8.82019 15.3205 8.65611 16.4308C8.62407 16.6457 8.7351 16.8537 8.92474 16.9485Z" fill="white"/>
<path d="M10.3905 4.99729C9.80798 5.57994 9.80798 6.52773 10.3905 7.11038C10.9732 7.69303 11.9211 7.69303 12.5037 7.11038C13.0864 6.52773 13.0864 5.57994 12.5037 4.99729C11.9211 4.41464 10.9732 4.41464 10.3905 4.99729Z" fill="white"/>
<path d="M17.469 0.486335C17.4511 0.240018 17.255 0.0453244 17.0094 0.0269058C15.7861 -0.0651876 14.5677 0.0852748 13.3733 0.450535C13.4632 1.27107 13.8876 2.15906 14.6121 2.88362C15.3454 3.61673 16.2575 4.04101 17.0927 4.12039C17.4144 2.99309 17.5669 1.78576 17.469 0.486335Z" fill="white"/>
<path d="M13.9153 3.58812C13.0865 2.75928 12.5803 1.76519 12.4179 0.797302C9.42698 2.02396 6.56378 4.70271 4.30127 8.46583L5.42533 9.58988C6.19333 9.27806 7.12568 9.1957 7.71702 9.78691C8.30915 10.3792 8.22522 11.3111 7.91353 12.0781L9.07456 13.2391C11.9699 11.4941 15.3408 8.74496 16.7742 5.0873C15.7827 4.93748 14.7576 4.43045 13.9153 3.58812ZM13.2107 7.81443C12.2398 8.7853 10.6599 8.7853 9.68886 7.81443C8.71786 6.84343 8.71786 5.26331 9.68886 4.29244C10.6599 3.32157 12.2398 3.32157 13.2107 4.29244C14.1817 5.26344 14.1817 6.84343 13.2107 7.81443Z" fill="white"/>
</svg>
